G75*
%MOIN*%
%OFA0B0*%
%FSLAX25Y25*%
%IPPOS*%
%LPD*%
%AMOC8*
5,1,8,0,0,1.08239X$1,22.5*
%
%ADD10C,0.12598*%
%ADD11R,0.07874X0.02756*%
%ADD12R,0.06299X0.05512*%
%ADD13R,0.08661X0.05512*%
%ADD14R,0.05512X0.07087*%
%ADD15C,0.03543*%
%ADD16R,0.13000X0.04000*%
%ADD17R,0.03543X0.03150*%
%ADD18R,0.04331X0.03937*%
%ADD19R,0.20000X0.06000*%
%ADD20R,0.07000X0.04000*%
%ADD21R,0.03150X0.03543*%
D10*
X0016171Y0011000D03*
X0211171Y0011000D03*
X0211171Y0336500D03*
X0016171Y0336500D03*
D11*
X0161384Y0270358D03*
X0161384Y0266028D03*
X0161384Y0261697D03*
X0161384Y0257366D03*
X0161384Y0253035D03*
X0161384Y0248705D03*
X0161384Y0244374D03*
X0161384Y0240043D03*
X0161384Y0235713D03*
D12*
X0164534Y0230594D03*
D13*
X0201935Y0230594D03*
X0201935Y0292406D03*
D14*
X0164140Y0288862D03*
D15*
X0203510Y0273508D03*
X0203510Y0242012D03*
D16*
X0036671Y0136500D03*
X0036671Y0126500D03*
X0036671Y0116500D03*
X0036671Y0106500D03*
X0036671Y0096500D03*
X0036671Y0086500D03*
X0036671Y0076500D03*
X0036671Y0066500D03*
X0036671Y0056500D03*
X0036671Y0046500D03*
X0036671Y0036500D03*
X0036671Y0026500D03*
X0016671Y0026500D03*
X0016671Y0036500D03*
X0016671Y0046500D03*
X0016671Y0056500D03*
X0016671Y0066500D03*
X0016671Y0076500D03*
X0016671Y0086500D03*
X0016671Y0096500D03*
X0016671Y0106500D03*
X0016671Y0116500D03*
X0016671Y0126500D03*
X0016671Y0136500D03*
D17*
X0028608Y0202760D03*
X0028608Y0210240D03*
X0020341Y0206500D03*
D18*
X0021325Y0191500D03*
X0028018Y0191500D03*
X0028018Y0181500D03*
X0021325Y0181500D03*
X0021325Y0171500D03*
X0028018Y0171500D03*
X0028018Y0161500D03*
X0021325Y0161500D03*
X0021325Y0221500D03*
X0028018Y0221500D03*
X0028018Y0231500D03*
X0021325Y0231500D03*
X0073325Y0244500D03*
X0073325Y0253500D03*
X0080018Y0253500D03*
X0080018Y0244500D03*
D19*
X0109671Y0176500D03*
X0109671Y0166500D03*
X0109671Y0156500D03*
X0109671Y0146500D03*
X0109671Y0136500D03*
X0109671Y0126500D03*
X0109671Y0116500D03*
X0109671Y0106500D03*
X0109671Y0096500D03*
X0109671Y0086500D03*
X0109671Y0076500D03*
X0109671Y0066500D03*
X0109671Y0056500D03*
X0199671Y0056500D03*
X0199671Y0066500D03*
X0199671Y0076500D03*
X0199671Y0086500D03*
X0199671Y0096500D03*
X0199671Y0106500D03*
X0199671Y0116500D03*
X0199671Y0126500D03*
X0199671Y0136500D03*
X0199671Y0146500D03*
X0199671Y0156500D03*
X0199671Y0166500D03*
X0199671Y0176500D03*
D20*
X0052171Y0247000D03*
X0052171Y0257000D03*
X0052171Y0267000D03*
X0052171Y0285000D03*
X0052171Y0295000D03*
X0052171Y0305000D03*
X0052171Y0315000D03*
D21*
X0077171Y0271331D03*
X0073431Y0263063D03*
X0080912Y0263063D03*
M02*
