G75*
%MOIN*%
%OFA0B0*%
%FSLAX25Y25*%
%IPPOS*%
%LPD*%
%AMOC8*
5,1,8,0,0,1.08239X$1,22.5*
%
%ADD10C,0.00400*%
%ADD11C,0.00300*%
%ADD12C,0.00600*%
%ADD13C,0.00800*%
%ADD14C,0.00500*%
%ADD15R,0.01500X0.03000*%
%ADD16C,0.03000*%
%ADD17C,0.01600*%
%ADD18R,0.02000X0.03000*%
%ADD19R,0.04000X0.03000*%
D10*
X0051465Y0024200D02*
X0051465Y0028804D01*
X0054535Y0024200D01*
X0054535Y0028804D01*
X0055302Y0034200D02*
X0055302Y0038804D01*
X0053767Y0037269D01*
X0053767Y0034200D02*
X0056837Y0034200D01*
X0058371Y0034967D02*
X0059139Y0034200D01*
X0060673Y0034200D01*
X0061441Y0034967D01*
X0061441Y0035735D01*
X0060673Y0036502D01*
X0059906Y0036502D01*
X0060673Y0036502D02*
X0061441Y0037269D01*
X0061441Y0038037D01*
X0060673Y0038804D01*
X0059139Y0038804D01*
X0058371Y0038037D01*
X0058371Y0044200D02*
X0061441Y0047269D01*
X0061441Y0048037D01*
X0060673Y0048804D01*
X0059139Y0048804D01*
X0058371Y0048037D01*
X0058371Y0044200D02*
X0061441Y0044200D01*
X0056837Y0044200D02*
X0053767Y0044200D01*
X0055302Y0044200D02*
X0055302Y0048804D01*
X0053767Y0047269D01*
X0053767Y0054200D02*
X0056837Y0054200D01*
X0055302Y0054200D02*
X0055302Y0058804D01*
X0053767Y0057269D01*
X0054535Y0064200D02*
X0053767Y0064967D01*
X0054535Y0064200D02*
X0056069Y0064200D01*
X0056837Y0064967D01*
X0056837Y0065735D01*
X0056069Y0066502D01*
X0055302Y0066502D01*
X0056069Y0066502D02*
X0056837Y0067269D01*
X0056837Y0068037D01*
X0056069Y0068804D01*
X0054535Y0068804D01*
X0053767Y0068037D01*
X0055035Y0074200D02*
X0054267Y0074967D01*
X0055035Y0074200D02*
X0056569Y0074200D01*
X0057337Y0074967D01*
X0057337Y0075735D01*
X0056569Y0076502D01*
X0055802Y0076502D01*
X0056569Y0076502D02*
X0057337Y0077269D01*
X0057337Y0078037D01*
X0056569Y0078804D01*
X0055035Y0078804D01*
X0054267Y0078037D01*
X0058871Y0078804D02*
X0058871Y0076502D01*
X0060406Y0077269D01*
X0061173Y0077269D01*
X0061941Y0076502D01*
X0061941Y0074967D01*
X0061173Y0074200D01*
X0059639Y0074200D01*
X0058871Y0074967D01*
X0058871Y0078804D02*
X0061941Y0078804D01*
X0061173Y0084200D02*
X0061173Y0088804D01*
X0058871Y0086502D01*
X0061941Y0086502D01*
X0057337Y0087269D02*
X0056569Y0086502D01*
X0057337Y0085735D01*
X0057337Y0084967D01*
X0056569Y0084200D01*
X0055035Y0084200D01*
X0054267Y0084967D01*
X0055802Y0086502D02*
X0056569Y0086502D01*
X0057337Y0087269D02*
X0057337Y0088037D01*
X0056569Y0088804D01*
X0055035Y0088804D01*
X0054267Y0088037D01*
X0055802Y0094200D02*
X0057337Y0095735D01*
X0057337Y0098804D01*
X0058871Y0098804D02*
X0058871Y0094200D01*
X0061941Y0094200D02*
X0058871Y0098804D01*
X0061941Y0098804D02*
X0061941Y0094200D01*
X0058871Y0104200D02*
X0058871Y0108804D01*
X0061173Y0108804D01*
X0061941Y0108037D01*
X0061941Y0106502D01*
X0061173Y0105735D01*
X0058871Y0105735D01*
X0057337Y0105735D02*
X0057337Y0108804D01*
X0057337Y0105735D02*
X0055802Y0104200D01*
X0054267Y0105735D01*
X0054267Y0108804D01*
X0054267Y0114200D02*
X0057337Y0114200D01*
X0058871Y0114200D02*
X0058871Y0118804D01*
X0061941Y0114200D01*
X0061941Y0118804D01*
X0061173Y0124200D02*
X0063475Y0124200D01*
X0064243Y0124967D01*
X0064243Y0128037D01*
X0063475Y0128804D01*
X0061173Y0128804D01*
X0061173Y0124200D01*
X0059639Y0124200D02*
X0059639Y0128804D01*
X0056569Y0128804D02*
X0059639Y0124200D01*
X0056569Y0124200D02*
X0056569Y0128804D01*
X0055035Y0128037D02*
X0054267Y0128804D01*
X0052733Y0128804D01*
X0051965Y0128037D01*
X0051965Y0124967D01*
X0052733Y0124200D01*
X0054267Y0124200D01*
X0055035Y0124967D01*
X0055035Y0126502D01*
X0053500Y0126502D01*
X0052733Y0134200D02*
X0054267Y0134200D01*
X0055035Y0134967D01*
X0055035Y0136502D01*
X0053500Y0136502D01*
X0051965Y0138037D02*
X0051965Y0134967D01*
X0052733Y0134200D01*
X0051965Y0138037D02*
X0052733Y0138804D01*
X0054267Y0138804D01*
X0055035Y0138037D01*
X0056569Y0138804D02*
X0056569Y0134200D01*
X0059639Y0134200D02*
X0056569Y0138804D01*
X0059639Y0138804D02*
X0059639Y0134200D01*
X0061173Y0134200D02*
X0061173Y0138804D01*
X0063475Y0138804D01*
X0064243Y0138037D01*
X0064243Y0134967D01*
X0063475Y0134200D01*
X0061173Y0134200D01*
X0069965Y0134967D02*
X0070733Y0134200D01*
X0072267Y0134200D01*
X0073035Y0134967D01*
X0073035Y0135735D01*
X0072267Y0136502D01*
X0071500Y0136502D01*
X0072267Y0136502D02*
X0073035Y0137269D01*
X0073035Y0138037D01*
X0072267Y0138804D01*
X0070733Y0138804D01*
X0069965Y0138037D01*
X0074569Y0138804D02*
X0074569Y0135735D01*
X0076104Y0134200D01*
X0077639Y0135735D01*
X0077639Y0138804D01*
X0079173Y0138037D02*
X0079941Y0138804D01*
X0081475Y0138804D01*
X0082243Y0138037D01*
X0082243Y0137269D01*
X0081475Y0136502D01*
X0082243Y0135735D01*
X0082243Y0134967D01*
X0081475Y0134200D01*
X0079941Y0134200D01*
X0079173Y0134967D01*
X0080708Y0136502D02*
X0081475Y0136502D01*
X0081475Y0128804D02*
X0079941Y0128804D01*
X0079173Y0128037D01*
X0077639Y0128804D02*
X0077639Y0125735D01*
X0076104Y0124200D01*
X0074569Y0125735D01*
X0074569Y0128804D01*
X0073035Y0128037D02*
X0073035Y0127269D01*
X0072267Y0126502D01*
X0073035Y0125735D01*
X0073035Y0124967D01*
X0072267Y0124200D01*
X0070733Y0124200D01*
X0069965Y0124967D01*
X0071500Y0126502D02*
X0072267Y0126502D01*
X0073035Y0128037D02*
X0072267Y0128804D01*
X0070733Y0128804D01*
X0069965Y0128037D01*
X0073035Y0118804D02*
X0072267Y0118037D01*
X0073035Y0118804D02*
X0074569Y0118804D01*
X0075337Y0118037D01*
X0075337Y0117269D01*
X0072267Y0114200D01*
X0075337Y0114200D01*
X0076871Y0114200D02*
X0079941Y0117269D01*
X0079941Y0118037D01*
X0079173Y0118804D01*
X0077639Y0118804D01*
X0076871Y0118037D01*
X0076871Y0114200D02*
X0079941Y0114200D01*
X0079173Y0108804D02*
X0077639Y0108804D01*
X0076871Y0108037D01*
X0076871Y0107269D01*
X0077639Y0106502D01*
X0079941Y0106502D01*
X0079941Y0104967D02*
X0079941Y0108037D01*
X0079173Y0108804D01*
X0079941Y0104967D02*
X0079173Y0104200D01*
X0077639Y0104200D01*
X0076871Y0104967D01*
X0075337Y0104200D02*
X0072267Y0104200D01*
X0073802Y0104200D02*
X0073802Y0108804D01*
X0072267Y0107269D01*
X0073035Y0098804D02*
X0072267Y0098037D01*
X0073035Y0098804D02*
X0074569Y0098804D01*
X0075337Y0098037D01*
X0075337Y0097269D01*
X0072267Y0094200D01*
X0075337Y0094200D01*
X0076871Y0094967D02*
X0077639Y0094200D01*
X0079173Y0094200D01*
X0079941Y0094967D01*
X0079941Y0095735D01*
X0079173Y0096502D01*
X0078406Y0096502D01*
X0079173Y0096502D02*
X0079941Y0097269D01*
X0079941Y0098037D01*
X0079173Y0098804D01*
X0077639Y0098804D01*
X0076871Y0098037D01*
X0077639Y0088804D02*
X0079173Y0088804D01*
X0079941Y0088037D01*
X0079941Y0087269D01*
X0079173Y0086502D01*
X0077639Y0086502D01*
X0076871Y0087269D01*
X0076871Y0088037D01*
X0077639Y0088804D01*
X0077639Y0086502D02*
X0076871Y0085735D01*
X0076871Y0084967D01*
X0077639Y0084200D01*
X0079173Y0084200D01*
X0079941Y0084967D01*
X0079941Y0085735D01*
X0079173Y0086502D01*
X0075337Y0084200D02*
X0072267Y0084200D01*
X0073802Y0084200D02*
X0073802Y0088804D01*
X0072267Y0087269D01*
X0074569Y0078804D02*
X0074569Y0076502D01*
X0076104Y0077269D01*
X0076871Y0077269D01*
X0077639Y0076502D01*
X0077639Y0074967D01*
X0076871Y0074200D01*
X0075337Y0074200D01*
X0074569Y0074967D01*
X0074569Y0078804D02*
X0077639Y0078804D01*
X0076871Y0068804D02*
X0079941Y0068804D01*
X0079941Y0068037D01*
X0076871Y0064967D01*
X0076871Y0064200D01*
X0075337Y0064200D02*
X0072267Y0064200D01*
X0073802Y0064200D02*
X0073802Y0068804D01*
X0072267Y0067269D01*
X0073802Y0058804D02*
X0073802Y0054200D01*
X0072267Y0054200D02*
X0075337Y0054200D01*
X0076871Y0054967D02*
X0076871Y0056502D01*
X0079173Y0056502D01*
X0079941Y0055735D01*
X0079941Y0054967D01*
X0079173Y0054200D01*
X0077639Y0054200D01*
X0076871Y0054967D01*
X0076871Y0056502D02*
X0078406Y0058037D01*
X0079941Y0058804D01*
X0076871Y0048804D02*
X0074569Y0046502D01*
X0077639Y0046502D01*
X0076871Y0044200D02*
X0076871Y0048804D01*
X0072267Y0057269D02*
X0073802Y0058804D01*
X0061441Y0056502D02*
X0058371Y0056502D01*
X0060673Y0058804D01*
X0060673Y0054200D01*
X0061441Y0064200D02*
X0058371Y0064200D01*
X0061441Y0067269D01*
X0061441Y0068037D01*
X0060673Y0068804D01*
X0059139Y0068804D01*
X0058371Y0068037D01*
X0055802Y0094200D02*
X0054267Y0095735D01*
X0054267Y0098804D01*
X0054267Y0114200D02*
X0054267Y0118804D01*
X0057337Y0118804D01*
X0055802Y0116502D02*
X0054267Y0116502D01*
X0079173Y0124967D02*
X0079941Y0124200D01*
X0081475Y0124200D01*
X0082243Y0124967D01*
X0082243Y0125735D01*
X0081475Y0126502D01*
X0080708Y0126502D01*
X0081475Y0126502D02*
X0082243Y0127269D01*
X0082243Y0128037D01*
X0081475Y0128804D01*
X0076671Y0161000D02*
X0073671Y0161000D01*
X0070545Y0162967D02*
X0070545Y0163735D01*
X0069777Y0164502D01*
X0069010Y0164502D01*
X0069777Y0164502D02*
X0070545Y0165269D01*
X0070545Y0166037D01*
X0069777Y0166804D01*
X0068243Y0166804D01*
X0067475Y0166037D01*
X0065941Y0166037D02*
X0065173Y0166804D01*
X0063639Y0166804D01*
X0062871Y0166037D01*
X0064406Y0164502D02*
X0065173Y0164502D01*
X0065941Y0163735D01*
X0065941Y0162967D01*
X0065173Y0162200D01*
X0063639Y0162200D01*
X0062871Y0162967D01*
X0065173Y0164502D02*
X0065941Y0165269D01*
X0065941Y0166037D01*
X0067475Y0162967D02*
X0068243Y0162200D01*
X0069777Y0162200D01*
X0070545Y0162967D01*
X0076671Y0161000D02*
X0076671Y0172000D01*
X0074071Y0173049D02*
X0074071Y0174784D01*
X0074071Y0173917D02*
X0079276Y0173917D01*
X0079276Y0174784D02*
X0079276Y0173049D01*
X0078408Y0176471D02*
X0076674Y0176471D01*
X0075806Y0177338D01*
X0075806Y0179941D01*
X0075806Y0181627D02*
X0074939Y0181627D01*
X0074071Y0182495D01*
X0074071Y0184230D01*
X0074939Y0185097D01*
X0074071Y0186784D02*
X0079276Y0186784D01*
X0078408Y0185097D02*
X0079276Y0184230D01*
X0079276Y0182495D01*
X0078408Y0181627D01*
X0079276Y0179941D02*
X0074071Y0179941D01*
X0075806Y0181627D02*
X0076674Y0182495D01*
X0076674Y0184230D01*
X0077541Y0185097D01*
X0078408Y0185097D01*
X0076674Y0186784D02*
X0076674Y0190253D01*
X0076671Y0191500D02*
X0076671Y0202000D01*
X0073671Y0202000D01*
X0070545Y0193804D02*
X0069010Y0193037D01*
X0067475Y0191502D01*
X0069777Y0191502D01*
X0070545Y0190735D01*
X0070545Y0189967D01*
X0069777Y0189200D01*
X0068243Y0189200D01*
X0067475Y0189967D01*
X0067475Y0191502D01*
X0065941Y0192269D02*
X0065941Y0193037D01*
X0065173Y0193804D01*
X0063639Y0193804D01*
X0062871Y0193037D01*
X0065941Y0192269D02*
X0062871Y0189200D01*
X0065941Y0189200D01*
X0065173Y0186804D02*
X0063639Y0186804D01*
X0062871Y0186037D01*
X0065173Y0186804D02*
X0065941Y0186037D01*
X0065941Y0185269D01*
X0062871Y0182200D01*
X0065941Y0182200D01*
X0067475Y0182200D02*
X0067475Y0182967D01*
X0070545Y0186037D01*
X0070545Y0186804D01*
X0067475Y0186804D01*
X0067475Y0179804D02*
X0067475Y0177502D01*
X0069010Y0178269D01*
X0069777Y0178269D01*
X0070545Y0177502D01*
X0070545Y0175967D01*
X0069777Y0175200D01*
X0068243Y0175200D01*
X0067475Y0175967D01*
X0065941Y0175200D02*
X0062871Y0175200D01*
X0064406Y0175200D02*
X0064406Y0179804D01*
X0062871Y0178269D01*
X0067475Y0179804D02*
X0070545Y0179804D01*
X0078408Y0176471D02*
X0079276Y0177338D01*
X0079276Y0179941D01*
X0079276Y0190253D02*
X0074071Y0190253D01*
X0059648Y0193804D02*
X0056579Y0193804D01*
X0058114Y0193804D02*
X0058114Y0189200D01*
X0055045Y0189967D02*
X0054277Y0189200D01*
X0052743Y0189200D01*
X0051975Y0189967D01*
X0050441Y0189200D02*
X0048906Y0190735D01*
X0049673Y0190735D02*
X0047371Y0190735D01*
X0047371Y0189200D02*
X0047371Y0193804D01*
X0049673Y0193804D01*
X0050441Y0193037D01*
X0050441Y0191502D01*
X0049673Y0190735D01*
X0051975Y0192269D02*
X0052743Y0191502D01*
X0054277Y0191502D01*
X0055045Y0190735D01*
X0055045Y0189967D01*
X0055045Y0193037D02*
X0054277Y0193804D01*
X0052743Y0193804D01*
X0051975Y0193037D01*
X0051975Y0192269D01*
X0052837Y0196200D02*
X0054371Y0196200D01*
X0055139Y0196967D01*
X0056673Y0196200D02*
X0056673Y0200804D01*
X0058975Y0200804D01*
X0059743Y0200037D01*
X0059743Y0196967D01*
X0058975Y0196200D01*
X0056673Y0196200D01*
X0055139Y0200037D02*
X0054371Y0200804D01*
X0052837Y0200804D01*
X0052069Y0200037D01*
X0052069Y0196967D01*
X0052837Y0196200D01*
X0050535Y0196200D02*
X0047465Y0196200D01*
X0047465Y0200804D01*
X0048406Y0213200D02*
X0046871Y0214735D01*
X0046871Y0217804D01*
X0049941Y0214735D02*
X0048406Y0213200D01*
X0049941Y0214735D02*
X0049941Y0217804D01*
X0051475Y0216269D02*
X0053010Y0217804D01*
X0053010Y0213200D01*
X0051475Y0213200D02*
X0054545Y0213200D01*
X0056079Y0213200D02*
X0056847Y0213200D01*
X0056847Y0213967D01*
X0056079Y0213967D01*
X0056079Y0213200D01*
X0058381Y0213967D02*
X0058381Y0217037D01*
X0059148Y0217804D01*
X0060683Y0217804D01*
X0061450Y0217037D01*
X0058381Y0213967D01*
X0059148Y0213200D01*
X0060683Y0213200D01*
X0061450Y0213967D01*
X0061450Y0217037D01*
X0065371Y0216769D02*
X0065371Y0214467D01*
X0066139Y0213700D01*
X0066906Y0214467D01*
X0067673Y0213700D01*
X0068441Y0214467D01*
X0068441Y0216769D01*
X0069975Y0216769D02*
X0069975Y0214467D01*
X0070743Y0213700D01*
X0071510Y0214467D01*
X0072277Y0213700D01*
X0073045Y0214467D01*
X0073045Y0216769D01*
X0074579Y0216769D02*
X0074579Y0214467D01*
X0075347Y0213700D01*
X0076114Y0214467D01*
X0076881Y0213700D01*
X0077648Y0214467D01*
X0077648Y0216769D01*
X0079183Y0214467D02*
X0079950Y0214467D01*
X0079950Y0213700D01*
X0079183Y0213700D01*
X0079183Y0214467D01*
X0081485Y0213700D02*
X0083020Y0213700D01*
X0082252Y0213700D02*
X0082252Y0216769D01*
X0081485Y0216769D01*
X0082252Y0218304D02*
X0082252Y0219071D01*
X0084554Y0216002D02*
X0084554Y0214467D01*
X0085322Y0213700D01*
X0086856Y0213700D01*
X0087624Y0214467D01*
X0087624Y0216002D01*
X0086856Y0216769D01*
X0085322Y0216769D01*
X0084554Y0216002D01*
X0089158Y0216769D02*
X0092228Y0213700D01*
X0093762Y0213700D02*
X0093762Y0218304D01*
X0094530Y0216769D02*
X0093762Y0216002D01*
X0094530Y0216769D02*
X0096064Y0216769D01*
X0096831Y0216002D01*
X0096831Y0213700D01*
X0098366Y0214467D02*
X0099133Y0213700D01*
X0100668Y0213700D01*
X0101435Y0214467D01*
X0101435Y0216002D01*
X0100668Y0216769D01*
X0099133Y0216769D01*
X0098366Y0216002D01*
X0098366Y0214467D01*
X0102970Y0213700D02*
X0105272Y0213700D01*
X0106039Y0214467D01*
X0106039Y0216002D01*
X0105272Y0216769D01*
X0102970Y0216769D01*
X0102970Y0212165D01*
X0107574Y0213700D02*
X0108341Y0213700D01*
X0108341Y0214467D01*
X0107574Y0214467D01*
X0107574Y0213700D01*
X0109876Y0214467D02*
X0110643Y0213700D01*
X0112945Y0213700D01*
X0114480Y0214467D02*
X0114480Y0216002D01*
X0115247Y0216769D01*
X0116782Y0216769D01*
X0117549Y0216002D01*
X0117549Y0214467D01*
X0116782Y0213700D01*
X0115247Y0213700D01*
X0114480Y0214467D01*
X0112945Y0216769D02*
X0110643Y0216769D01*
X0109876Y0216002D01*
X0109876Y0214467D01*
X0119084Y0213700D02*
X0119084Y0216769D01*
X0119851Y0216769D01*
X0120618Y0216002D01*
X0121386Y0216769D01*
X0122153Y0216002D01*
X0122153Y0213700D01*
X0120618Y0213700D02*
X0120618Y0216002D01*
X0122371Y0179104D02*
X0122371Y0175635D01*
X0124106Y0173900D01*
X0125841Y0175635D01*
X0125841Y0179104D01*
X0127528Y0179104D02*
X0130130Y0179104D01*
X0130997Y0178237D01*
X0130997Y0176502D01*
X0130130Y0175635D01*
X0127528Y0175635D01*
X0127528Y0173900D02*
X0127528Y0179104D01*
X0127528Y0169104D02*
X0130997Y0163900D01*
X0130997Y0169104D01*
X0127528Y0169104D02*
X0127528Y0163900D01*
X0125841Y0165635D02*
X0125841Y0169104D01*
X0125841Y0165635D02*
X0124106Y0163900D01*
X0122371Y0165635D01*
X0122371Y0169104D01*
X0122371Y0159104D02*
X0122371Y0153900D01*
X0125841Y0153900D01*
X0127528Y0153900D02*
X0127528Y0159104D01*
X0130997Y0153900D01*
X0130997Y0159104D01*
X0125841Y0159104D02*
X0122371Y0159104D01*
X0122371Y0156502D02*
X0124106Y0156502D01*
X0123239Y0149104D02*
X0124974Y0149104D01*
X0125841Y0148237D01*
X0125841Y0147370D01*
X0124974Y0146502D01*
X0125841Y0145635D01*
X0125841Y0144767D01*
X0124974Y0143900D01*
X0123239Y0143900D01*
X0122371Y0144767D01*
X0124106Y0146502D02*
X0124974Y0146502D01*
X0127528Y0146502D02*
X0130997Y0146502D01*
X0130130Y0143900D02*
X0130130Y0149104D01*
X0127528Y0146502D01*
X0123239Y0149104D02*
X0122371Y0148237D01*
X0123239Y0139104D02*
X0124974Y0139104D01*
X0125841Y0138237D01*
X0125841Y0137370D01*
X0124974Y0136502D01*
X0125841Y0135635D01*
X0125841Y0134767D01*
X0124974Y0133900D01*
X0123239Y0133900D01*
X0122371Y0134767D01*
X0124106Y0136502D02*
X0124974Y0136502D01*
X0127528Y0136502D02*
X0127528Y0139104D01*
X0130997Y0139104D01*
X0130130Y0137370D02*
X0129263Y0137370D01*
X0127528Y0136502D01*
X0127528Y0134767D02*
X0128395Y0133900D01*
X0130130Y0133900D01*
X0130997Y0134767D01*
X0130997Y0136502D01*
X0130130Y0137370D01*
X0130130Y0129104D02*
X0128395Y0129104D01*
X0127528Y0128237D01*
X0125841Y0128237D02*
X0125841Y0127370D01*
X0124974Y0126502D01*
X0125841Y0125635D01*
X0125841Y0124767D01*
X0124974Y0123900D01*
X0123239Y0123900D01*
X0122371Y0124767D01*
X0124106Y0126502D02*
X0124974Y0126502D01*
X0125841Y0128237D02*
X0124974Y0129104D01*
X0123239Y0129104D01*
X0122371Y0128237D01*
X0127528Y0123900D02*
X0130997Y0127370D01*
X0130997Y0128237D01*
X0130130Y0129104D01*
X0130997Y0123900D02*
X0127528Y0123900D01*
X0128395Y0119104D02*
X0127528Y0118237D01*
X0128395Y0119104D02*
X0130130Y0119104D01*
X0130997Y0118237D01*
X0130997Y0117370D01*
X0130130Y0116502D01*
X0130997Y0115635D01*
X0130997Y0114767D01*
X0130130Y0113900D01*
X0128395Y0113900D01*
X0127528Y0114767D01*
X0125841Y0114767D02*
X0124974Y0113900D01*
X0123239Y0113900D01*
X0122371Y0114767D01*
X0124106Y0116502D02*
X0124974Y0116502D01*
X0125841Y0115635D01*
X0125841Y0114767D01*
X0124974Y0116502D02*
X0125841Y0117370D01*
X0125841Y0118237D01*
X0124974Y0119104D01*
X0123239Y0119104D01*
X0122371Y0118237D01*
X0129263Y0116502D02*
X0130130Y0116502D01*
X0130997Y0109104D02*
X0127528Y0109104D01*
X0127528Y0106502D01*
X0129263Y0107370D01*
X0130130Y0107370D01*
X0130997Y0106502D01*
X0130997Y0104767D01*
X0130130Y0103900D01*
X0128395Y0103900D01*
X0127528Y0104767D01*
X0125841Y0103900D02*
X0122371Y0103900D01*
X0125841Y0107370D01*
X0125841Y0108237D01*
X0124974Y0109104D01*
X0123239Y0109104D01*
X0122371Y0108237D01*
X0123239Y0099104D02*
X0122371Y0098237D01*
X0123239Y0099104D02*
X0124974Y0099104D01*
X0125841Y0098237D01*
X0125841Y0097370D01*
X0122371Y0093900D01*
X0125841Y0093900D01*
X0127528Y0094767D02*
X0128395Y0093900D01*
X0130130Y0093900D01*
X0130997Y0094767D01*
X0130997Y0095635D01*
X0130130Y0096502D01*
X0127528Y0096502D01*
X0127528Y0094767D01*
X0127528Y0096502D02*
X0129263Y0098237D01*
X0130997Y0099104D01*
X0130997Y0089104D02*
X0127528Y0089104D01*
X0125841Y0088237D02*
X0124974Y0089104D01*
X0123239Y0089104D01*
X0122371Y0088237D01*
X0125841Y0087370D02*
X0122371Y0083900D01*
X0125841Y0083900D01*
X0127528Y0083900D02*
X0127528Y0084767D01*
X0130997Y0088237D01*
X0130997Y0089104D01*
X0125841Y0088237D02*
X0125841Y0087370D01*
X0124106Y0079104D02*
X0122371Y0077370D01*
X0124106Y0079104D02*
X0124106Y0073900D01*
X0122371Y0073900D02*
X0125841Y0073900D01*
X0127528Y0076502D02*
X0130997Y0076502D01*
X0130130Y0073900D02*
X0130130Y0079104D01*
X0127528Y0076502D01*
X0128395Y0069104D02*
X0127528Y0068237D01*
X0128395Y0069104D02*
X0130130Y0069104D01*
X0130997Y0068237D01*
X0130997Y0067370D01*
X0127528Y0063900D01*
X0130997Y0063900D01*
X0125841Y0063900D02*
X0122371Y0063900D01*
X0124106Y0063900D02*
X0124106Y0069104D01*
X0122371Y0067370D01*
X0123239Y0059104D02*
X0122371Y0058237D01*
X0122371Y0054767D01*
X0123239Y0053900D01*
X0124974Y0053900D01*
X0125841Y0054767D01*
X0125841Y0056502D01*
X0124106Y0056502D01*
X0125841Y0058237D02*
X0124974Y0059104D01*
X0123239Y0059104D01*
X0154867Y0058415D02*
X0156602Y0060150D01*
X0154867Y0061885D01*
X0160071Y0061885D01*
X0159204Y0063572D02*
X0160071Y0064439D01*
X0160071Y0066174D01*
X0159204Y0067041D01*
X0155734Y0067041D01*
X0154867Y0066174D01*
X0154867Y0064439D01*
X0155734Y0063572D01*
X0159204Y0063572D01*
X0159204Y0068728D02*
X0160071Y0069596D01*
X0160071Y0071330D01*
X0159204Y0072198D01*
X0158337Y0072198D01*
X0157469Y0071330D01*
X0157469Y0069596D01*
X0156602Y0068728D01*
X0155734Y0068728D01*
X0154867Y0069596D01*
X0154867Y0071330D01*
X0155734Y0072198D01*
X0154867Y0079041D02*
X0160071Y0079041D01*
X0160071Y0082511D01*
X0159204Y0084197D02*
X0160071Y0085065D01*
X0160071Y0086800D01*
X0159204Y0087667D01*
X0155734Y0087667D01*
X0154867Y0086800D01*
X0154867Y0085065D01*
X0155734Y0084197D01*
X0159204Y0084197D01*
X0160071Y0089354D02*
X0160071Y0092823D01*
X0160071Y0094510D02*
X0160071Y0096245D01*
X0160071Y0095378D02*
X0154867Y0095378D01*
X0154867Y0096245D02*
X0154867Y0094510D01*
X0154867Y0097948D02*
X0160071Y0101417D01*
X0154867Y0101417D01*
X0155734Y0103104D02*
X0154867Y0103972D01*
X0154867Y0105706D01*
X0155734Y0106574D01*
X0156602Y0106574D01*
X0157469Y0105706D01*
X0158337Y0106574D01*
X0159204Y0106574D01*
X0160071Y0105706D01*
X0160071Y0103972D01*
X0159204Y0103104D01*
X0157469Y0104839D02*
X0157469Y0105706D01*
X0155734Y0108261D02*
X0154867Y0109128D01*
X0154867Y0110863D01*
X0155734Y0111730D01*
X0156602Y0111730D01*
X0160071Y0108261D01*
X0160071Y0111730D01*
X0160071Y0118573D02*
X0154867Y0118573D01*
X0156602Y0123730D02*
X0156602Y0124597D01*
X0160071Y0124597D01*
X0160071Y0123730D02*
X0160071Y0125465D01*
X0159204Y0128035D02*
X0160071Y0128902D01*
X0159204Y0128035D02*
X0155734Y0128035D01*
X0156602Y0128902D02*
X0156602Y0127167D01*
X0154867Y0124597D02*
X0154000Y0124597D01*
X0157469Y0130605D02*
X0156602Y0131472D01*
X0156602Y0133207D01*
X0157469Y0134075D01*
X0158337Y0134075D01*
X0158337Y0130605D01*
X0159204Y0130605D02*
X0157469Y0130605D01*
X0159204Y0130605D02*
X0160071Y0131472D01*
X0160071Y0133207D01*
X0158337Y0140918D02*
X0154867Y0140918D01*
X0154867Y0144387D02*
X0158337Y0144387D01*
X0160071Y0142653D01*
X0158337Y0140918D01*
X0160071Y0146074D02*
X0160071Y0149544D01*
X0160071Y0151231D02*
X0160071Y0152098D01*
X0159204Y0152098D01*
X0159204Y0151231D01*
X0160071Y0151231D01*
X0159204Y0153809D02*
X0155734Y0157278D01*
X0159204Y0157278D01*
X0160071Y0156411D01*
X0160071Y0154676D01*
X0159204Y0153809D01*
X0155734Y0153809D01*
X0154867Y0154676D01*
X0154867Y0156411D01*
X0155734Y0157278D01*
X0155734Y0161543D02*
X0154867Y0162411D01*
X0154867Y0164146D01*
X0155734Y0165013D01*
X0159204Y0161543D01*
X0160071Y0162411D01*
X0160071Y0164146D01*
X0159204Y0165013D01*
X0155734Y0165013D01*
X0155734Y0161543D02*
X0159204Y0161543D01*
X0159204Y0159833D02*
X0160071Y0159833D01*
X0160071Y0158965D01*
X0159204Y0158965D01*
X0159204Y0159833D01*
X0160071Y0147809D02*
X0154867Y0147809D01*
X0156602Y0146074D01*
X0160071Y0122043D02*
X0160071Y0118573D01*
X0160071Y0097948D02*
X0154867Y0097948D01*
X0154867Y0089354D02*
X0160071Y0089354D01*
X0177059Y0103900D02*
X0180528Y0103900D01*
X0178793Y0103900D02*
X0178793Y0109104D01*
X0177059Y0107370D01*
X0177059Y0113900D02*
X0180528Y0113900D01*
X0182215Y0113900D02*
X0182215Y0114767D01*
X0185685Y0118237D01*
X0185685Y0119104D01*
X0182215Y0119104D01*
X0183082Y0123900D02*
X0182215Y0124767D01*
X0183082Y0123900D02*
X0184817Y0123900D01*
X0185685Y0124767D01*
X0185685Y0126502D01*
X0184817Y0127370D01*
X0183950Y0127370D01*
X0182215Y0126502D01*
X0182215Y0129104D01*
X0185685Y0129104D01*
X0184817Y0133900D02*
X0183082Y0133900D01*
X0182215Y0134767D01*
X0182215Y0135635D01*
X0183082Y0136502D01*
X0184817Y0136502D01*
X0185685Y0135635D01*
X0185685Y0134767D01*
X0184817Y0133900D01*
X0184817Y0136502D02*
X0185685Y0137370D01*
X0185685Y0138237D01*
X0184817Y0139104D01*
X0183082Y0139104D01*
X0182215Y0138237D01*
X0182215Y0137370D01*
X0183082Y0136502D01*
X0180528Y0133900D02*
X0177059Y0133900D01*
X0178793Y0133900D02*
X0178793Y0139104D01*
X0177059Y0137370D01*
X0177059Y0143900D02*
X0180528Y0147370D01*
X0180528Y0148237D01*
X0179661Y0149104D01*
X0177926Y0149104D01*
X0177059Y0148237D01*
X0177059Y0143900D02*
X0180528Y0143900D01*
X0182215Y0144767D02*
X0183082Y0143900D01*
X0184817Y0143900D01*
X0185685Y0144767D01*
X0185685Y0145635D01*
X0184817Y0146502D01*
X0183950Y0146502D01*
X0184817Y0146502D02*
X0185685Y0147370D01*
X0185685Y0148237D01*
X0184817Y0149104D01*
X0183082Y0149104D01*
X0182215Y0148237D01*
X0183082Y0153900D02*
X0184817Y0153900D01*
X0185685Y0154767D01*
X0185685Y0158237D01*
X0184817Y0159104D01*
X0183082Y0159104D01*
X0182215Y0158237D01*
X0182215Y0157370D01*
X0183082Y0156502D01*
X0185685Y0156502D01*
X0183082Y0153900D02*
X0182215Y0154767D01*
X0180528Y0153900D02*
X0177059Y0153900D01*
X0178793Y0153900D02*
X0178793Y0159104D01*
X0177059Y0157370D01*
X0177059Y0163900D02*
X0180528Y0167370D01*
X0180528Y0168237D01*
X0179661Y0169104D01*
X0177926Y0169104D01*
X0177059Y0168237D01*
X0177059Y0163900D02*
X0180528Y0163900D01*
X0182215Y0163900D02*
X0185685Y0167370D01*
X0185685Y0168237D01*
X0184817Y0169104D01*
X0183082Y0169104D01*
X0182215Y0168237D01*
X0182215Y0163900D02*
X0185685Y0163900D01*
X0183950Y0173900D02*
X0182215Y0175635D01*
X0182215Y0179104D01*
X0180528Y0178237D02*
X0180528Y0177370D01*
X0179661Y0176502D01*
X0180528Y0175635D01*
X0180528Y0174767D01*
X0179661Y0173900D01*
X0177926Y0173900D01*
X0177059Y0174767D01*
X0178793Y0176502D02*
X0179661Y0176502D01*
X0180528Y0178237D02*
X0179661Y0179104D01*
X0177926Y0179104D01*
X0177059Y0178237D01*
X0183950Y0173900D02*
X0185685Y0175635D01*
X0185685Y0179104D01*
X0178793Y0119104D02*
X0178793Y0113900D01*
X0177059Y0117370D02*
X0178793Y0119104D01*
X0183950Y0108237D02*
X0182215Y0106502D01*
X0184817Y0106502D01*
X0185685Y0105635D01*
X0185685Y0104767D01*
X0184817Y0103900D01*
X0183082Y0103900D01*
X0182215Y0104767D01*
X0182215Y0106502D01*
X0183950Y0108237D02*
X0185685Y0109104D01*
X0184817Y0099104D02*
X0182215Y0096502D01*
X0185685Y0096502D01*
X0184817Y0093900D02*
X0184817Y0099104D01*
X0184817Y0089104D02*
X0183082Y0089104D01*
X0182215Y0088237D01*
X0182215Y0084767D01*
X0185685Y0088237D01*
X0185685Y0084767D01*
X0184817Y0083900D01*
X0183082Y0083900D01*
X0182215Y0084767D01*
X0185685Y0088237D02*
X0184817Y0089104D01*
X0184817Y0079104D02*
X0183082Y0079104D01*
X0182215Y0078237D01*
X0184817Y0079104D02*
X0185685Y0078237D01*
X0185685Y0077370D01*
X0182215Y0073900D01*
X0185685Y0073900D01*
X0185685Y0069104D02*
X0182215Y0069104D01*
X0182215Y0066502D01*
X0183950Y0067370D01*
X0184817Y0067370D01*
X0185685Y0066502D01*
X0185685Y0064767D01*
X0184817Y0063900D01*
X0183082Y0063900D01*
X0182215Y0064767D01*
X0180528Y0063900D02*
X0177059Y0063900D01*
X0178793Y0063900D02*
X0178793Y0069104D01*
X0177059Y0067370D01*
X0178793Y0059104D02*
X0178793Y0053900D01*
X0177059Y0053900D02*
X0180528Y0053900D01*
X0182215Y0054767D02*
X0183082Y0053900D01*
X0184817Y0053900D01*
X0185685Y0054767D01*
X0185685Y0055635D01*
X0184817Y0056502D01*
X0183950Y0056502D01*
X0184817Y0056502D02*
X0185685Y0057370D01*
X0185685Y0058237D01*
X0184817Y0059104D01*
X0183082Y0059104D01*
X0182215Y0058237D01*
X0178793Y0059104D02*
X0177059Y0057370D01*
X0160071Y0056729D02*
X0160071Y0053259D01*
X0154867Y0053259D01*
X0154867Y0056729D01*
X0154867Y0058415D02*
X0160071Y0058415D01*
X0157469Y0054994D02*
X0157469Y0053259D01*
X0160071Y0051572D02*
X0154867Y0051572D01*
X0154867Y0048103D02*
X0160071Y0048103D01*
X0158337Y0049837D01*
X0160071Y0051572D01*
X0169637Y0026604D02*
X0169637Y0022267D01*
X0170504Y0021400D01*
X0172239Y0021400D01*
X0173106Y0022267D01*
X0173106Y0026604D01*
X0174793Y0025737D02*
X0174793Y0024870D01*
X0175661Y0024002D01*
X0177395Y0024002D01*
X0178263Y0023135D01*
X0178263Y0022267D01*
X0177395Y0021400D01*
X0175661Y0021400D01*
X0174793Y0022267D01*
X0174793Y0025737D02*
X0175661Y0026604D01*
X0177395Y0026604D01*
X0178263Y0025737D01*
X0179950Y0026604D02*
X0179950Y0021400D01*
X0182552Y0021400D01*
X0183419Y0022267D01*
X0183419Y0023135D01*
X0182552Y0024002D01*
X0179950Y0024002D01*
X0182552Y0024002D02*
X0183419Y0024870D01*
X0183419Y0025737D01*
X0182552Y0026604D01*
X0179950Y0026604D01*
X0122371Y0138237D02*
X0123239Y0139104D01*
X0089158Y0213700D02*
X0092228Y0216769D01*
X0060941Y0267002D02*
X0057871Y0267002D01*
X0058139Y0282700D02*
X0057371Y0283467D01*
X0058139Y0282700D02*
X0059673Y0282700D01*
X0060441Y0283467D01*
X0060441Y0284235D01*
X0059673Y0285002D01*
X0058906Y0285002D01*
X0059673Y0285002D02*
X0060441Y0285769D01*
X0060441Y0286537D01*
X0059673Y0287304D01*
X0058139Y0287304D01*
X0057371Y0286537D01*
X0061975Y0287304D02*
X0061975Y0284235D01*
X0063510Y0282700D01*
X0065045Y0284235D01*
X0065045Y0287304D01*
X0066579Y0286537D02*
X0067347Y0287304D01*
X0068881Y0287304D01*
X0069648Y0286537D01*
X0069648Y0285769D01*
X0068881Y0285002D01*
X0069648Y0284235D01*
X0069648Y0283467D01*
X0068881Y0282700D01*
X0067347Y0282700D01*
X0066579Y0283467D01*
X0068114Y0285002D02*
X0068881Y0285002D01*
X0069648Y0292700D02*
X0069648Y0295769D01*
X0068114Y0297304D01*
X0066579Y0295769D01*
X0066579Y0292700D01*
X0065045Y0293467D02*
X0065045Y0296537D01*
X0064277Y0297304D01*
X0061975Y0297304D01*
X0061975Y0292700D01*
X0064277Y0292700D01*
X0065045Y0293467D01*
X0066579Y0295002D02*
X0069648Y0295002D01*
X0069648Y0302700D02*
X0066579Y0302700D01*
X0066579Y0307304D01*
X0065045Y0306537D02*
X0064277Y0307304D01*
X0062743Y0307304D01*
X0061975Y0306537D01*
X0061975Y0303467D01*
X0062743Y0302700D01*
X0064277Y0302700D01*
X0065045Y0303467D01*
X0065545Y0312700D02*
X0065545Y0317304D01*
X0067079Y0317304D02*
X0069381Y0317304D01*
X0070148Y0316537D01*
X0070148Y0313467D01*
X0069381Y0312700D01*
X0067079Y0312700D01*
X0067079Y0317304D01*
X0062475Y0317304D02*
X0062475Y0312700D01*
X0060941Y0313467D02*
X0060941Y0315002D01*
X0059406Y0315002D01*
X0060941Y0316537D02*
X0060173Y0317304D01*
X0058639Y0317304D01*
X0057871Y0316537D01*
X0057871Y0313467D01*
X0058639Y0312700D01*
X0060173Y0312700D01*
X0060941Y0313467D01*
X0062475Y0317304D02*
X0065545Y0312700D01*
X0059673Y0307304D02*
X0058139Y0307304D01*
X0057371Y0306537D01*
X0057371Y0305769D01*
X0058139Y0305002D01*
X0059673Y0305002D01*
X0060441Y0304235D01*
X0060441Y0303467D01*
X0059673Y0302700D01*
X0058139Y0302700D01*
X0057371Y0303467D01*
X0060441Y0306537D02*
X0059673Y0307304D01*
X0059673Y0297304D02*
X0058139Y0297304D01*
X0057371Y0296537D01*
X0057371Y0295769D01*
X0058139Y0295002D01*
X0059673Y0295002D01*
X0060441Y0294235D01*
X0060441Y0293467D01*
X0059673Y0292700D01*
X0058139Y0292700D01*
X0057371Y0293467D01*
X0060441Y0296537D02*
X0059673Y0297304D01*
X0089371Y0295537D02*
X0089371Y0294769D01*
X0090139Y0294002D01*
X0091673Y0294002D01*
X0092441Y0293235D01*
X0092441Y0292467D01*
X0091673Y0291700D01*
X0090139Y0291700D01*
X0089371Y0292467D01*
X0089371Y0295537D02*
X0090139Y0296304D01*
X0091673Y0296304D01*
X0092441Y0295537D01*
X0093975Y0296304D02*
X0096277Y0296304D01*
X0097045Y0295537D01*
X0097045Y0292467D01*
X0096277Y0291700D01*
X0093975Y0291700D01*
X0093975Y0296304D01*
X0094743Y0298700D02*
X0093975Y0299467D01*
X0093975Y0302537D01*
X0094743Y0303304D01*
X0096277Y0303304D01*
X0097045Y0302537D01*
X0098579Y0303304D02*
X0098579Y0298700D01*
X0101648Y0298700D01*
X0100114Y0296304D02*
X0101648Y0294769D01*
X0101648Y0291700D01*
X0101648Y0294002D02*
X0098579Y0294002D01*
X0098579Y0294769D02*
X0100114Y0296304D01*
X0098579Y0294769D02*
X0098579Y0291700D01*
X0096277Y0298700D02*
X0097045Y0299467D01*
X0096277Y0298700D02*
X0094743Y0298700D01*
X0092441Y0299467D02*
X0091673Y0298700D01*
X0090139Y0298700D01*
X0089371Y0299467D01*
X0090139Y0301002D02*
X0089371Y0301769D01*
X0089371Y0302537D01*
X0090139Y0303304D01*
X0091673Y0303304D01*
X0092441Y0302537D01*
X0091673Y0301002D02*
X0092441Y0300235D01*
X0092441Y0299467D01*
X0091673Y0301002D02*
X0090139Y0301002D01*
X0090139Y0305700D02*
X0090139Y0310304D01*
X0090906Y0310304D02*
X0089371Y0310304D01*
X0092441Y0309537D02*
X0093208Y0310304D01*
X0094743Y0310304D01*
X0095510Y0309537D01*
X0095510Y0308769D01*
X0092441Y0305700D01*
X0095510Y0305700D01*
X0097045Y0306467D02*
X0097812Y0305700D01*
X0099347Y0305700D01*
X0100114Y0306467D01*
X0097045Y0306467D02*
X0097045Y0309537D01*
X0097812Y0310304D01*
X0099347Y0310304D01*
X0100114Y0309537D01*
X0106406Y0303304D02*
X0104871Y0301769D01*
X0106406Y0303304D02*
X0106406Y0298700D01*
X0104871Y0298700D02*
X0107941Y0298700D01*
X0109475Y0299467D02*
X0110243Y0298700D01*
X0111777Y0298700D01*
X0112545Y0299467D01*
X0112545Y0302537D01*
X0111777Y0303304D01*
X0110243Y0303304D01*
X0109475Y0302537D01*
X0109475Y0301769D01*
X0110243Y0301002D01*
X0112545Y0301002D01*
X0111777Y0296304D02*
X0110243Y0296304D01*
X0109475Y0295537D01*
X0107941Y0295537D02*
X0107173Y0296304D01*
X0105639Y0296304D01*
X0104871Y0295537D01*
X0107941Y0295537D02*
X0107941Y0294769D01*
X0104871Y0291700D01*
X0107941Y0291700D01*
X0109475Y0291700D02*
X0112545Y0294769D01*
X0112545Y0295537D01*
X0111777Y0296304D01*
X0112545Y0291700D02*
X0109475Y0291700D01*
X0115671Y0311500D02*
X0118671Y0311500D01*
X0090906Y0305700D02*
X0089371Y0305700D01*
X0058906Y0248537D02*
X0058906Y0245467D01*
X0057371Y0247002D02*
X0060441Y0247002D01*
X0038671Y0236500D02*
X0037171Y0236500D01*
X0037064Y0236502D01*
X0036957Y0236508D01*
X0036850Y0236517D01*
X0036744Y0236531D01*
X0036638Y0236548D01*
X0036533Y0236569D01*
X0036429Y0236593D01*
X0036326Y0236622D01*
X0036224Y0236654D01*
X0036123Y0236689D01*
X0036023Y0236728D01*
X0035925Y0236771D01*
X0035828Y0236817D01*
X0035733Y0236867D01*
X0035640Y0236920D01*
X0035549Y0236976D01*
X0035460Y0237036D01*
X0035373Y0237098D01*
X0035289Y0237164D01*
X0035206Y0237233D01*
X0035127Y0237304D01*
X0035050Y0237379D01*
X0034975Y0237456D01*
X0034904Y0237535D01*
X0034835Y0237618D01*
X0034769Y0237702D01*
X0034707Y0237789D01*
X0034647Y0237878D01*
X0034591Y0237969D01*
X0034538Y0238062D01*
X0034488Y0238157D01*
X0034442Y0238254D01*
X0034399Y0238352D01*
X0034360Y0238452D01*
X0034325Y0238553D01*
X0034293Y0238655D01*
X0034264Y0238758D01*
X0034240Y0238862D01*
X0034219Y0238967D01*
X0034202Y0239073D01*
X0034188Y0239179D01*
X0034179Y0239286D01*
X0034173Y0239393D01*
X0034171Y0239500D01*
X0034171Y0240500D01*
X0035171Y0239500D01*
X0034171Y0240500D02*
X0033171Y0239500D01*
X0047371Y0186804D02*
X0049673Y0186804D01*
X0050441Y0186037D01*
X0050441Y0184502D01*
X0049673Y0183735D01*
X0047371Y0183735D01*
X0048906Y0183735D02*
X0050441Y0182200D01*
X0051975Y0182967D02*
X0052743Y0182200D01*
X0054277Y0182200D01*
X0055045Y0182967D01*
X0055045Y0183735D01*
X0054277Y0184502D01*
X0052743Y0184502D01*
X0051975Y0185269D01*
X0051975Y0186037D01*
X0052743Y0186804D01*
X0054277Y0186804D01*
X0055045Y0186037D01*
X0054277Y0179804D02*
X0052743Y0179804D01*
X0051975Y0179037D01*
X0051975Y0178269D01*
X0052743Y0177502D01*
X0054277Y0177502D01*
X0055045Y0176735D01*
X0055045Y0175967D01*
X0054277Y0175200D01*
X0052743Y0175200D01*
X0051975Y0175967D01*
X0050441Y0175967D02*
X0049673Y0175200D01*
X0048139Y0175200D01*
X0047371Y0175967D01*
X0047371Y0179037D01*
X0048139Y0179804D01*
X0049673Y0179804D01*
X0050441Y0179037D01*
X0047371Y0182200D02*
X0047371Y0186804D01*
X0054277Y0179804D02*
X0055045Y0179037D01*
X0054277Y0166804D02*
X0052743Y0166804D01*
X0051975Y0166037D01*
X0051975Y0165269D01*
X0052743Y0164502D01*
X0054277Y0164502D01*
X0055045Y0163735D01*
X0055045Y0162967D01*
X0054277Y0162200D01*
X0052743Y0162200D01*
X0051975Y0162967D01*
X0050441Y0162967D02*
X0049673Y0162200D01*
X0048139Y0162200D01*
X0047371Y0162967D01*
X0047371Y0166037D01*
X0048139Y0166804D01*
X0049673Y0166804D01*
X0050441Y0166037D01*
X0054277Y0166804D02*
X0055045Y0166037D01*
X0075337Y0038804D02*
X0076871Y0038804D01*
X0077639Y0038037D01*
X0074569Y0034967D01*
X0075337Y0034200D01*
X0076871Y0034200D01*
X0077639Y0034967D01*
X0077639Y0038037D01*
X0075337Y0038804D02*
X0074569Y0038037D01*
X0074569Y0034967D01*
X0075337Y0028804D02*
X0074569Y0028037D01*
X0075337Y0028804D02*
X0076871Y0028804D01*
X0077639Y0028037D01*
X0077639Y0027269D01*
X0074569Y0024200D01*
X0077639Y0024200D01*
X0063743Y0024200D02*
X0063743Y0027269D01*
X0062208Y0028804D01*
X0060673Y0027269D01*
X0060673Y0024200D01*
X0060673Y0026502D02*
X0063743Y0026502D01*
X0059139Y0028804D02*
X0056069Y0024200D01*
D11*
X0055929Y0169150D02*
X0054077Y0169150D01*
X0053460Y0169767D01*
X0053460Y0171002D01*
X0054077Y0171619D01*
X0055929Y0171619D01*
X0057143Y0171619D02*
X0057143Y0169150D01*
X0057143Y0170384D02*
X0058377Y0171619D01*
X0058995Y0171619D01*
X0060212Y0171002D02*
X0060212Y0169767D01*
X0060830Y0169150D01*
X0062064Y0169150D01*
X0062681Y0169767D01*
X0062681Y0171002D01*
X0062064Y0171619D01*
X0060830Y0171619D01*
X0060212Y0171002D01*
X0063895Y0171619D02*
X0064513Y0171002D01*
X0065747Y0171002D01*
X0066364Y0170384D01*
X0066364Y0169767D01*
X0065747Y0169150D01*
X0064513Y0169150D01*
X0063895Y0169767D01*
X0063895Y0171619D02*
X0063895Y0172236D01*
X0064513Y0172853D01*
X0065747Y0172853D01*
X0066364Y0172236D01*
X0067579Y0172853D02*
X0067579Y0169150D01*
X0069430Y0169150D01*
X0070047Y0169767D01*
X0070047Y0172236D01*
X0069430Y0172853D01*
X0067579Y0172853D01*
X0052239Y0169150D02*
X0051005Y0169150D01*
X0051622Y0169150D02*
X0051622Y0171619D01*
X0051005Y0171619D01*
X0051622Y0172853D02*
X0051622Y0173470D01*
X0049790Y0172853D02*
X0049790Y0169150D01*
X0047321Y0169150D02*
X0047321Y0172853D01*
X0048556Y0171619D01*
X0049790Y0172853D01*
X0049130Y0235050D02*
X0049614Y0235534D01*
X0049614Y0237469D01*
X0049130Y0237952D01*
X0048162Y0237952D01*
X0047679Y0237469D01*
X0047679Y0235534D01*
X0048162Y0235050D01*
X0049130Y0235050D01*
X0050625Y0235050D02*
X0052560Y0236985D01*
X0052560Y0237469D01*
X0052076Y0237952D01*
X0051109Y0237952D01*
X0050625Y0237469D01*
X0050625Y0235050D02*
X0052560Y0235050D01*
X0053572Y0235534D02*
X0054056Y0235050D01*
X0055023Y0235050D01*
X0055507Y0235534D01*
X0055507Y0236017D01*
X0055023Y0236501D01*
X0054539Y0236501D01*
X0055023Y0236501D02*
X0055507Y0236985D01*
X0055507Y0237469D01*
X0055023Y0237952D01*
X0054056Y0237952D01*
X0053572Y0237469D01*
X0046682Y0237952D02*
X0045714Y0237952D01*
X0046198Y0237952D02*
X0046198Y0235050D01*
X0045714Y0235050D02*
X0046682Y0235050D01*
X0044703Y0236501D02*
X0044219Y0236017D01*
X0042768Y0236017D01*
X0042768Y0235050D02*
X0042768Y0237952D01*
X0044219Y0237952D01*
X0044703Y0237469D01*
X0044703Y0236501D01*
X0041756Y0236501D02*
X0041756Y0235534D01*
X0041273Y0235050D01*
X0040305Y0235050D01*
X0039821Y0235534D01*
X0039821Y0237469D01*
X0040305Y0237952D01*
X0041273Y0237952D01*
X0041756Y0237469D01*
X0041756Y0236501D02*
X0040789Y0236501D01*
X0065321Y0249177D02*
X0067790Y0249177D01*
X0066556Y0249177D02*
X0067790Y0247942D01*
X0067790Y0247325D01*
X0067173Y0250391D02*
X0066556Y0250391D01*
X0066556Y0252860D01*
X0067173Y0252860D02*
X0067790Y0252243D01*
X0067790Y0251008D01*
X0067173Y0250391D01*
X0065321Y0251008D02*
X0065321Y0252243D01*
X0065939Y0252860D01*
X0067173Y0252860D01*
X0067790Y0254074D02*
X0065321Y0256543D01*
X0065321Y0254074D01*
X0067790Y0254074D02*
X0067790Y0256543D01*
X0067790Y0257757D02*
X0065321Y0260226D01*
X0065321Y0257757D01*
X0067790Y0257757D02*
X0067790Y0260226D01*
X0067790Y0261441D02*
X0065321Y0261441D01*
X0065321Y0263292D01*
X0065939Y0263909D01*
X0067790Y0263909D01*
X0067790Y0265124D02*
X0067173Y0265741D01*
X0067173Y0267593D01*
X0065321Y0267593D02*
X0069025Y0267593D01*
X0069025Y0265741D01*
X0068407Y0265124D01*
X0067790Y0265124D01*
X0067173Y0265741D02*
X0066556Y0265124D01*
X0065939Y0265124D01*
X0065321Y0265741D01*
X0065321Y0267593D01*
X0074821Y0283263D02*
X0074821Y0285114D01*
X0075439Y0285731D01*
X0076673Y0285731D01*
X0077290Y0285114D01*
X0077290Y0283263D01*
X0078525Y0283263D02*
X0074821Y0283263D01*
X0074821Y0286946D02*
X0074821Y0288797D01*
X0075439Y0289414D01*
X0076056Y0288797D01*
X0076056Y0286946D01*
X0076673Y0286946D02*
X0074821Y0286946D01*
X0076673Y0286946D02*
X0077290Y0287563D01*
X0077290Y0288797D01*
X0076673Y0290629D02*
X0075439Y0290629D01*
X0074821Y0291246D01*
X0074821Y0293098D01*
X0074821Y0294312D02*
X0074821Y0296164D01*
X0075439Y0296781D01*
X0077290Y0296781D01*
X0076673Y0297995D02*
X0076056Y0297995D01*
X0076056Y0300464D01*
X0075439Y0300464D02*
X0076673Y0300464D01*
X0077290Y0299847D01*
X0077290Y0298612D01*
X0076673Y0297995D01*
X0074821Y0298612D02*
X0074821Y0299847D01*
X0075439Y0300464D01*
X0074821Y0301678D02*
X0076673Y0303530D01*
X0076056Y0304147D02*
X0078525Y0301678D01*
X0078525Y0304147D02*
X0074821Y0304147D01*
X0075439Y0309045D02*
X0074821Y0309662D01*
X0074821Y0310896D01*
X0075439Y0311513D01*
X0077907Y0311513D01*
X0078525Y0310896D01*
X0078525Y0309662D01*
X0077907Y0309045D01*
X0077907Y0312728D02*
X0078525Y0313345D01*
X0078525Y0314579D01*
X0077907Y0315196D01*
X0078525Y0316417D02*
X0078525Y0317652D01*
X0078525Y0317035D02*
X0074821Y0317035D01*
X0074821Y0317652D02*
X0074821Y0316417D01*
X0074821Y0315196D02*
X0077290Y0312728D01*
X0077907Y0312728D01*
X0074821Y0312728D02*
X0074821Y0315196D01*
X0073587Y0295546D02*
X0073587Y0294929D01*
X0074204Y0294312D01*
X0077290Y0294312D01*
X0077290Y0293098D02*
X0077290Y0291246D01*
X0076673Y0290629D01*
X0077290Y0293098D02*
X0073587Y0293098D01*
D12*
X0016671Y0024000D02*
X0019171Y0021500D01*
X0024171Y0021500D01*
X0026671Y0024000D01*
X0029171Y0021500D01*
X0034171Y0021500D01*
X0036671Y0024000D01*
X0036671Y0029000D01*
X0034171Y0031500D01*
X0036671Y0034000D01*
X0036671Y0039000D01*
X0034171Y0041500D01*
X0036671Y0044000D01*
X0036671Y0049000D01*
X0034171Y0051500D01*
X0029171Y0051500D01*
X0026671Y0049000D01*
X0024171Y0051500D01*
X0019171Y0051500D01*
X0016671Y0049000D01*
X0016671Y0044000D01*
X0019171Y0041500D01*
X0016671Y0039000D01*
X0016671Y0034000D01*
X0019171Y0031500D01*
X0016671Y0029000D01*
X0016671Y0024000D01*
X0019171Y0031500D02*
X0024171Y0031500D01*
X0026671Y0029000D01*
X0029171Y0031500D01*
X0026671Y0034000D01*
X0026671Y0039000D01*
X0029171Y0041500D01*
X0026671Y0044000D01*
X0026671Y0049000D01*
X0024171Y0051500D02*
X0026671Y0054000D01*
X0029171Y0051500D01*
X0026671Y0054000D02*
X0026671Y0059000D01*
X0029171Y0061500D01*
X0034171Y0061500D01*
X0036671Y0059000D01*
X0036671Y0054000D01*
X0034171Y0051500D01*
X0034171Y0041500D02*
X0029171Y0041500D01*
X0026671Y0039000D02*
X0024171Y0041500D01*
X0026671Y0044000D01*
X0024171Y0041500D02*
X0019171Y0041500D01*
X0026671Y0034000D02*
X0024171Y0031500D01*
X0026671Y0029000D02*
X0026671Y0024000D01*
X0029171Y0031500D02*
X0034171Y0031500D01*
X0048671Y0031000D02*
X0048671Y0021500D01*
X0067671Y0021500D01*
X0067671Y0141000D01*
X0085171Y0141000D01*
X0085171Y0131500D01*
X0048671Y0131500D01*
X0048671Y0121500D01*
X0085171Y0121500D01*
X0085171Y0111500D01*
X0048671Y0111500D01*
X0048671Y0101500D01*
X0085171Y0101500D01*
X0085171Y0091500D01*
X0048671Y0091500D01*
X0048671Y0081500D01*
X0085171Y0081500D01*
X0085171Y0071500D01*
X0048671Y0071500D01*
X0048671Y0061500D01*
X0085171Y0061500D01*
X0085171Y0051500D01*
X0048671Y0051500D01*
X0048671Y0041500D01*
X0085171Y0041500D01*
X0085171Y0051500D01*
X0085171Y0041500D02*
X0085171Y0031000D01*
X0048671Y0031000D01*
X0048671Y0041500D01*
X0048671Y0051500D02*
X0048671Y0061500D01*
X0048671Y0071500D02*
X0048671Y0081500D01*
X0048671Y0091500D02*
X0048671Y0101500D01*
X0048671Y0111500D02*
X0048671Y0121500D01*
X0048671Y0131500D02*
X0048671Y0141000D01*
X0067671Y0141000D01*
X0072171Y0161000D02*
X0061171Y0161000D01*
X0061171Y0168000D01*
X0072171Y0168000D01*
X0072171Y0174000D01*
X0072171Y0181000D01*
X0045671Y0181000D01*
X0045671Y0174000D01*
X0045671Y0168000D01*
X0061171Y0168000D01*
X0061171Y0174000D02*
X0061171Y0195000D01*
X0072171Y0195000D01*
X0072171Y0202000D01*
X0045671Y0202000D01*
X0045671Y0195000D01*
X0061171Y0195000D01*
X0072171Y0195000D02*
X0072171Y0188000D01*
X0045671Y0188000D01*
X0045671Y0181000D01*
X0045671Y0174000D02*
X0061171Y0174000D01*
X0072171Y0174000D01*
X0072171Y0168000D02*
X0072171Y0161000D01*
X0061171Y0161000D02*
X0045671Y0161000D01*
X0045671Y0168000D01*
X0045671Y0188000D02*
X0045671Y0195000D01*
X0045671Y0212000D02*
X0062671Y0212000D01*
X0062671Y0219000D01*
X0045671Y0219000D01*
X0045671Y0212000D01*
X0039671Y0242000D02*
X0029671Y0242000D01*
X0029671Y0252000D01*
X0029671Y0262000D01*
X0029671Y0272000D01*
X0039671Y0272000D01*
X0039671Y0262000D01*
X0039671Y0252000D01*
X0029671Y0252000D01*
X0029671Y0262000D02*
X0039671Y0262000D01*
X0039671Y0252000D02*
X0039671Y0242000D01*
X0063671Y0245000D02*
X0063671Y0269000D01*
X0072171Y0282500D02*
X0072171Y0317500D01*
X0087671Y0311500D02*
X0087671Y0304500D01*
X0103171Y0304500D01*
X0103171Y0290500D01*
X0114171Y0290500D01*
X0114171Y0297500D01*
X0087671Y0297500D01*
X0087671Y0290500D01*
X0103171Y0290500D01*
X0114171Y0297500D02*
X0114171Y0304500D01*
X0103171Y0304500D01*
X0114171Y0304500D02*
X0114171Y0311500D01*
X0087671Y0311500D01*
X0087671Y0304500D02*
X0087671Y0297500D01*
X0039671Y0300000D02*
X0039671Y0290000D01*
X0029671Y0290000D01*
X0029671Y0300000D01*
X0029671Y0310000D01*
X0029671Y0320000D01*
X0039671Y0320000D01*
X0039671Y0310000D01*
X0029671Y0310000D01*
X0029671Y0300000D02*
X0039671Y0300000D01*
X0039671Y0310000D01*
X0039671Y0290000D02*
X0039671Y0280000D01*
X0029671Y0280000D01*
X0029671Y0290000D01*
X0072171Y0188000D02*
X0072171Y0181000D01*
X0085171Y0131500D02*
X0085171Y0121500D01*
X0085171Y0111500D02*
X0085171Y0101500D01*
X0085171Y0091500D02*
X0085171Y0081500D01*
X0085171Y0071500D02*
X0085171Y0061500D01*
X0085171Y0031000D02*
X0085171Y0021500D01*
X0067671Y0021500D01*
X0034171Y0061500D02*
X0036671Y0064000D01*
X0036671Y0069000D01*
X0034171Y0071500D01*
X0036671Y0074000D01*
X0036671Y0079000D01*
X0034171Y0081500D01*
X0036671Y0084000D01*
X0036671Y0089000D01*
X0034171Y0091500D01*
X0029171Y0091500D01*
X0026671Y0089000D01*
X0024171Y0091500D01*
X0026671Y0094000D01*
X0026671Y0099000D01*
X0024171Y0101500D01*
X0026671Y0104000D01*
X0029171Y0101500D01*
X0026671Y0099000D01*
X0024171Y0101500D02*
X0019171Y0101500D01*
X0016671Y0099000D01*
X0016671Y0094000D01*
X0019171Y0091500D01*
X0016671Y0089000D01*
X0016671Y0084000D01*
X0019171Y0081500D01*
X0016671Y0079000D01*
X0016671Y0074000D01*
X0019171Y0071500D01*
X0016671Y0069000D01*
X0016671Y0064000D01*
X0019171Y0061500D01*
X0016671Y0059000D01*
X0016671Y0054000D01*
X0019171Y0051500D01*
X0019171Y0061500D02*
X0024171Y0061500D01*
X0026671Y0059000D01*
X0024171Y0061500D02*
X0026671Y0064000D01*
X0026671Y0069000D01*
X0024171Y0071500D01*
X0019171Y0071500D01*
X0024171Y0071500D02*
X0026671Y0074000D01*
X0026671Y0079000D01*
X0024171Y0081500D01*
X0026671Y0084000D01*
X0026671Y0089000D01*
X0024171Y0091500D02*
X0019171Y0091500D01*
X0026671Y0094000D02*
X0029171Y0091500D01*
X0034171Y0091500D02*
X0036671Y0094000D01*
X0036671Y0099000D01*
X0034171Y0101500D01*
X0036671Y0104000D01*
X0036671Y0109000D01*
X0034171Y0111500D01*
X0036671Y0114000D01*
X0036671Y0119000D01*
X0034171Y0121500D01*
X0036671Y0124000D01*
X0036671Y0129000D01*
X0034171Y0131500D01*
X0029171Y0131500D01*
X0026671Y0129000D01*
X0024171Y0131500D01*
X0019171Y0131500D01*
X0016671Y0129000D01*
X0016671Y0124000D01*
X0019171Y0121500D01*
X0016671Y0119000D01*
X0016671Y0114000D01*
X0019171Y0111500D01*
X0016671Y0109000D01*
X0016671Y0104000D01*
X0019171Y0101500D01*
X0026671Y0104000D02*
X0026671Y0109000D01*
X0024171Y0111500D01*
X0026671Y0114000D01*
X0026671Y0119000D01*
X0029171Y0121500D01*
X0026671Y0124000D01*
X0026671Y0129000D01*
X0024171Y0131500D02*
X0026671Y0134000D01*
X0026671Y0139000D01*
X0024171Y0141500D01*
X0019171Y0141500D01*
X0016671Y0139000D01*
X0016671Y0134000D01*
X0019171Y0131500D01*
X0026671Y0134000D02*
X0029171Y0131500D01*
X0034171Y0131500D02*
X0036671Y0134000D01*
X0036671Y0139000D01*
X0034171Y0141500D01*
X0029171Y0141500D01*
X0026671Y0139000D01*
X0026671Y0124000D02*
X0024171Y0121500D01*
X0026671Y0119000D01*
X0024171Y0121500D02*
X0019171Y0121500D01*
X0019171Y0111500D02*
X0024171Y0111500D01*
X0026671Y0109000D02*
X0029171Y0111500D01*
X0026671Y0114000D01*
X0029171Y0111500D02*
X0034171Y0111500D01*
X0034171Y0121500D02*
X0029171Y0121500D01*
X0029171Y0101500D02*
X0034171Y0101500D01*
X0026671Y0084000D02*
X0029171Y0081500D01*
X0026671Y0079000D01*
X0024171Y0081500D02*
X0019171Y0081500D01*
X0026671Y0074000D02*
X0029171Y0071500D01*
X0026671Y0069000D01*
X0026671Y0064000D02*
X0029171Y0061500D01*
X0029171Y0071500D02*
X0034171Y0071500D01*
X0034171Y0081500D02*
X0029171Y0081500D01*
D13*
X0104671Y0021500D02*
X0104671Y0181500D01*
X0204671Y0181500D01*
X0204671Y0021500D01*
X0204669Y0021360D01*
X0204663Y0021220D01*
X0204653Y0021080D01*
X0204640Y0020940D01*
X0204622Y0020801D01*
X0204600Y0020662D01*
X0204575Y0020525D01*
X0204546Y0020387D01*
X0204513Y0020251D01*
X0204476Y0020116D01*
X0204435Y0019982D01*
X0204390Y0019849D01*
X0204342Y0019717D01*
X0204290Y0019587D01*
X0204235Y0019458D01*
X0204176Y0019331D01*
X0204113Y0019205D01*
X0204047Y0019081D01*
X0203978Y0018960D01*
X0203905Y0018840D01*
X0203828Y0018722D01*
X0203749Y0018607D01*
X0203666Y0018493D01*
X0203580Y0018383D01*
X0203491Y0018274D01*
X0203399Y0018168D01*
X0203304Y0018065D01*
X0203207Y0017964D01*
X0203106Y0017867D01*
X0203003Y0017772D01*
X0202897Y0017680D01*
X0202788Y0017591D01*
X0202678Y0017505D01*
X0202564Y0017422D01*
X0202449Y0017343D01*
X0202331Y0017266D01*
X0202211Y0017193D01*
X0202090Y0017124D01*
X0201966Y0017058D01*
X0201840Y0016995D01*
X0201713Y0016936D01*
X0201584Y0016881D01*
X0201454Y0016829D01*
X0201322Y0016781D01*
X0201189Y0016736D01*
X0201055Y0016695D01*
X0200920Y0016658D01*
X0200784Y0016625D01*
X0200646Y0016596D01*
X0200509Y0016571D01*
X0200370Y0016549D01*
X0200231Y0016531D01*
X0200091Y0016518D01*
X0199951Y0016508D01*
X0199811Y0016502D01*
X0199671Y0016500D01*
X0189671Y0016500D01*
X0189671Y0029000D01*
X0189669Y0029098D01*
X0189663Y0029196D01*
X0189654Y0029294D01*
X0189640Y0029391D01*
X0189623Y0029488D01*
X0189602Y0029584D01*
X0189577Y0029679D01*
X0189549Y0029773D01*
X0189516Y0029865D01*
X0189481Y0029957D01*
X0189441Y0030047D01*
X0189399Y0030135D01*
X0189352Y0030222D01*
X0189303Y0030306D01*
X0189250Y0030389D01*
X0189194Y0030469D01*
X0189134Y0030548D01*
X0189072Y0030624D01*
X0189007Y0030697D01*
X0188939Y0030768D01*
X0188868Y0030836D01*
X0188795Y0030901D01*
X0188719Y0030963D01*
X0188640Y0031023D01*
X0188560Y0031079D01*
X0188477Y0031132D01*
X0188393Y0031181D01*
X0188306Y0031228D01*
X0188218Y0031270D01*
X0188128Y0031310D01*
X0188036Y0031345D01*
X0187944Y0031378D01*
X0187850Y0031406D01*
X0187755Y0031431D01*
X0187659Y0031452D01*
X0187562Y0031469D01*
X0187465Y0031483D01*
X0187367Y0031492D01*
X0187269Y0031498D01*
X0187171Y0031500D01*
X0167171Y0031500D01*
X0167073Y0031498D01*
X0166975Y0031492D01*
X0166877Y0031483D01*
X0166780Y0031469D01*
X0166683Y0031452D01*
X0166587Y0031431D01*
X0166492Y0031406D01*
X0166398Y0031378D01*
X0166306Y0031345D01*
X0166214Y0031310D01*
X0166124Y0031270D01*
X0166036Y0031228D01*
X0165949Y0031181D01*
X0165865Y0031132D01*
X0165782Y0031079D01*
X0165702Y0031023D01*
X0165623Y0030963D01*
X0165547Y0030901D01*
X0165474Y0030836D01*
X0165403Y0030768D01*
X0165335Y0030697D01*
X0165270Y0030624D01*
X0165208Y0030548D01*
X0165148Y0030469D01*
X0165092Y0030389D01*
X0165039Y0030306D01*
X0164990Y0030222D01*
X0164943Y0030135D01*
X0164901Y0030047D01*
X0164861Y0029957D01*
X0164826Y0029865D01*
X0164793Y0029773D01*
X0164765Y0029679D01*
X0164740Y0029584D01*
X0164719Y0029488D01*
X0164702Y0029391D01*
X0164688Y0029294D01*
X0164679Y0029196D01*
X0164673Y0029098D01*
X0164671Y0029000D01*
X0164671Y0016500D01*
X0142171Y0016500D01*
X0119671Y0016500D01*
X0119671Y0034000D01*
X0142171Y0034000D01*
X0142171Y0016500D01*
X0149671Y0019000D02*
X0157171Y0019000D01*
X0157171Y0034000D01*
X0149671Y0034000D01*
X0149671Y0019000D01*
X0164671Y0016500D02*
X0189671Y0016500D01*
X0119671Y0016500D02*
X0109671Y0016500D01*
X0109531Y0016502D01*
X0109391Y0016508D01*
X0109251Y0016518D01*
X0109111Y0016531D01*
X0108972Y0016549D01*
X0108833Y0016571D01*
X0108696Y0016596D01*
X0108558Y0016625D01*
X0108422Y0016658D01*
X0108287Y0016695D01*
X0108153Y0016736D01*
X0108020Y0016781D01*
X0107888Y0016829D01*
X0107758Y0016881D01*
X0107629Y0016936D01*
X0107502Y0016995D01*
X0107376Y0017058D01*
X0107252Y0017124D01*
X0107131Y0017193D01*
X0107011Y0017266D01*
X0106893Y0017343D01*
X0106778Y0017422D01*
X0106664Y0017505D01*
X0106554Y0017591D01*
X0106445Y0017680D01*
X0106339Y0017772D01*
X0106236Y0017867D01*
X0106135Y0017964D01*
X0106038Y0018065D01*
X0105943Y0018168D01*
X0105851Y0018274D01*
X0105762Y0018383D01*
X0105676Y0018493D01*
X0105593Y0018607D01*
X0105514Y0018722D01*
X0105437Y0018840D01*
X0105364Y0018960D01*
X0105295Y0019081D01*
X0105229Y0019205D01*
X0105166Y0019331D01*
X0105107Y0019458D01*
X0105052Y0019587D01*
X0105000Y0019717D01*
X0104952Y0019849D01*
X0104907Y0019982D01*
X0104866Y0020116D01*
X0104829Y0020251D01*
X0104796Y0020387D01*
X0104767Y0020525D01*
X0104742Y0020662D01*
X0104720Y0020801D01*
X0104702Y0020940D01*
X0104689Y0021080D01*
X0104679Y0021220D01*
X0104673Y0021360D01*
X0104671Y0021500D01*
X0104671Y0181500D02*
X0104671Y0196500D01*
X0104673Y0196640D01*
X0104679Y0196780D01*
X0104689Y0196920D01*
X0104702Y0197060D01*
X0104720Y0197199D01*
X0104742Y0197338D01*
X0104767Y0197475D01*
X0104796Y0197613D01*
X0104829Y0197749D01*
X0104866Y0197884D01*
X0104907Y0198018D01*
X0104952Y0198151D01*
X0105000Y0198283D01*
X0105052Y0198413D01*
X0105107Y0198542D01*
X0105166Y0198669D01*
X0105229Y0198795D01*
X0105295Y0198919D01*
X0105364Y0199040D01*
X0105437Y0199160D01*
X0105514Y0199278D01*
X0105593Y0199393D01*
X0105676Y0199507D01*
X0105762Y0199617D01*
X0105851Y0199726D01*
X0105943Y0199832D01*
X0106038Y0199935D01*
X0106135Y0200036D01*
X0106236Y0200133D01*
X0106339Y0200228D01*
X0106445Y0200320D01*
X0106554Y0200409D01*
X0106664Y0200495D01*
X0106778Y0200578D01*
X0106893Y0200657D01*
X0107011Y0200734D01*
X0107131Y0200807D01*
X0107252Y0200876D01*
X0107376Y0200942D01*
X0107502Y0201005D01*
X0107629Y0201064D01*
X0107758Y0201119D01*
X0107888Y0201171D01*
X0108020Y0201219D01*
X0108153Y0201264D01*
X0108287Y0201305D01*
X0108422Y0201342D01*
X0108558Y0201375D01*
X0108696Y0201404D01*
X0108833Y0201429D01*
X0108972Y0201451D01*
X0109111Y0201469D01*
X0109251Y0201482D01*
X0109391Y0201492D01*
X0109531Y0201498D01*
X0109671Y0201500D01*
X0199671Y0201500D01*
X0199811Y0201498D01*
X0199951Y0201492D01*
X0200091Y0201482D01*
X0200231Y0201469D01*
X0200370Y0201451D01*
X0200509Y0201429D01*
X0200646Y0201404D01*
X0200784Y0201375D01*
X0200920Y0201342D01*
X0201055Y0201305D01*
X0201189Y0201264D01*
X0201322Y0201219D01*
X0201454Y0201171D01*
X0201584Y0201119D01*
X0201713Y0201064D01*
X0201840Y0201005D01*
X0201966Y0200942D01*
X0202090Y0200876D01*
X0202211Y0200807D01*
X0202331Y0200734D01*
X0202449Y0200657D01*
X0202564Y0200578D01*
X0202678Y0200495D01*
X0202788Y0200409D01*
X0202897Y0200320D01*
X0203003Y0200228D01*
X0203106Y0200133D01*
X0203207Y0200036D01*
X0203304Y0199935D01*
X0203399Y0199832D01*
X0203491Y0199726D01*
X0203580Y0199617D01*
X0203666Y0199507D01*
X0203749Y0199393D01*
X0203828Y0199278D01*
X0203905Y0199160D01*
X0203978Y0199040D01*
X0204047Y0198919D01*
X0204113Y0198795D01*
X0204176Y0198669D01*
X0204235Y0198542D01*
X0204290Y0198413D01*
X0204342Y0198283D01*
X0204390Y0198151D01*
X0204435Y0198018D01*
X0204476Y0197884D01*
X0204513Y0197749D01*
X0204546Y0197613D01*
X0204575Y0197475D01*
X0204600Y0197338D01*
X0204622Y0197199D01*
X0204640Y0197060D01*
X0204653Y0196920D01*
X0204663Y0196780D01*
X0204669Y0196640D01*
X0204671Y0196500D01*
X0204671Y0181500D01*
X0169671Y0191500D02*
X0169671Y0199000D01*
X0164671Y0199000D01*
X0164671Y0191500D01*
X0159671Y0191500D01*
X0159671Y0199000D01*
X0154671Y0199000D01*
X0154671Y0191500D01*
X0149671Y0191500D01*
X0149671Y0199000D01*
X0144671Y0199000D01*
X0144671Y0186500D01*
X0139671Y0186500D02*
X0139671Y0199000D01*
X0144671Y0199000D01*
X0113596Y0222400D02*
X0107457Y0222400D01*
X0113596Y0228539D01*
X0113596Y0230073D01*
X0112061Y0231608D01*
X0108992Y0231608D01*
X0107457Y0230073D01*
X0104388Y0230073D02*
X0104388Y0228539D01*
X0102853Y0227004D01*
X0104388Y0225469D01*
X0104388Y0223935D01*
X0102853Y0222400D01*
X0099784Y0222400D01*
X0098249Y0223935D01*
X0095180Y0222400D02*
X0089041Y0231608D01*
X0085972Y0230073D02*
X0084437Y0231608D01*
X0081368Y0231608D01*
X0079834Y0230073D01*
X0079834Y0223935D01*
X0081368Y0222400D01*
X0084437Y0222400D01*
X0085972Y0223935D01*
X0085972Y0230073D01*
X0089041Y0222400D02*
X0095180Y0231608D01*
X0098249Y0230073D02*
X0099784Y0231608D01*
X0102853Y0231608D01*
X0104388Y0230073D01*
X0102853Y0227004D02*
X0101319Y0227004D01*
X0076764Y0231608D02*
X0073695Y0231608D01*
X0075230Y0231608D02*
X0075230Y0222400D01*
X0076764Y0222400D02*
X0073695Y0222400D01*
X0070626Y0227004D02*
X0069091Y0225469D01*
X0064487Y0225469D01*
X0064487Y0222400D02*
X0064487Y0231608D01*
X0069091Y0231608D01*
X0070626Y0230073D01*
X0070626Y0227004D01*
X0061418Y0225469D02*
X0061418Y0223935D01*
X0059883Y0222400D01*
X0056814Y0222400D01*
X0055279Y0223935D01*
X0056814Y0227004D02*
X0055279Y0228539D01*
X0055279Y0230073D01*
X0056814Y0231608D01*
X0059883Y0231608D01*
X0061418Y0230073D01*
X0059883Y0227004D02*
X0061418Y0225469D01*
X0059883Y0227004D02*
X0056814Y0227004D01*
X0052210Y0231608D02*
X0046071Y0231608D01*
X0046071Y0222400D01*
X0052210Y0222400D01*
X0049141Y0227004D02*
X0046071Y0227004D01*
X0025065Y0212012D02*
X0021915Y0212012D01*
X0021915Y0209650D01*
X0021915Y0203350D02*
X0021915Y0200988D01*
X0025065Y0200988D01*
X0071660Y0266606D02*
X0071660Y0269756D01*
X0074022Y0269756D01*
X0080321Y0269756D02*
X0082683Y0269756D01*
X0082683Y0266606D01*
D14*
X0162171Y0267799D02*
X0162171Y0268587D01*
X0162171Y0272524D02*
X0162171Y0284728D01*
X0167683Y0290752D02*
X0196817Y0290752D01*
X0207053Y0290752D02*
X0221226Y0290752D01*
X0221171Y0290748D02*
X0221171Y0280783D01*
X0221168Y0280515D01*
X0221158Y0280247D01*
X0221142Y0279979D01*
X0221119Y0279712D01*
X0221090Y0279445D01*
X0221054Y0279179D01*
X0221012Y0278914D01*
X0220963Y0278650D01*
X0220908Y0278387D01*
X0220847Y0278126D01*
X0220779Y0277867D01*
X0220706Y0277609D01*
X0220625Y0277353D01*
X0220539Y0277099D01*
X0220447Y0276847D01*
X0217171Y0259047D02*
X0217171Y0231748D01*
X0217171Y0231736D02*
X0207053Y0231736D01*
X0196817Y0231736D02*
X0168471Y0231736D01*
X0162171Y0237484D02*
X0162171Y0238272D01*
X0162171Y0241815D02*
X0162171Y0242602D01*
X0162171Y0246146D02*
X0162171Y0246933D01*
X0162171Y0250476D02*
X0162171Y0251264D01*
X0162171Y0254807D02*
X0162171Y0255594D01*
X0162171Y0259138D02*
X0162171Y0259925D01*
X0162171Y0263469D02*
X0162171Y0264256D01*
X0217171Y0259047D02*
X0217186Y0260260D01*
X0217230Y0261473D01*
X0217303Y0262684D01*
X0217406Y0263892D01*
X0217539Y0265098D01*
X0217700Y0266301D01*
X0217891Y0267499D01*
X0218110Y0268692D01*
X0218359Y0269880D01*
X0218636Y0271061D01*
X0218942Y0272235D01*
X0219276Y0273401D01*
X0219638Y0274559D01*
X0220028Y0275708D01*
X0220447Y0276847D01*
D15*
X0024671Y0191500D03*
X0024671Y0181500D03*
X0024671Y0171500D03*
X0024671Y0161500D03*
D16*
X0027171Y0247000D02*
X0008421Y0247000D01*
X0008421Y0257000D02*
X0027171Y0257000D01*
X0027171Y0267000D02*
X0008421Y0267000D01*
X0008421Y0285000D02*
X0027171Y0285000D01*
X0027171Y0295000D02*
X0008421Y0295000D01*
X0008421Y0305000D02*
X0027171Y0305000D01*
X0027171Y0315000D02*
X0008421Y0315000D01*
D17*
X0042171Y0315000D02*
X0052171Y0315000D01*
X0052171Y0305000D02*
X0042171Y0305000D01*
X0042171Y0295000D02*
X0052171Y0295000D01*
X0052171Y0285000D02*
X0042171Y0285000D01*
X0042171Y0267000D02*
X0052171Y0267000D01*
X0052171Y0257000D02*
X0042171Y0257000D01*
X0042171Y0247000D02*
X0052171Y0247000D01*
D18*
X0028671Y0247000D03*
X0028671Y0257000D03*
X0028671Y0267000D03*
X0028671Y0285000D03*
X0028671Y0295000D03*
X0028671Y0305000D03*
X0028671Y0315000D03*
D19*
X0041671Y0315000D03*
X0041671Y0305000D03*
X0041671Y0295000D03*
X0041671Y0285000D03*
X0041671Y0267000D03*
X0041671Y0257000D03*
X0041671Y0247000D03*
M02*
