G75*
%MOIN*%
%OFA0B0*%
%FSLAX25Y25*%
%IPPOS*%
%LPD*%
%AMOC8*
5,1,8,0,0,1.08239X$1,22.5*
%
%ADD10C,0.00000*%
D10*
X0006171Y0011000D02*
X0006171Y0336500D01*
X0006174Y0336744D01*
X0006183Y0336987D01*
X0006198Y0337230D01*
X0006218Y0337473D01*
X0006245Y0337715D01*
X0006278Y0337956D01*
X0006316Y0338196D01*
X0006360Y0338436D01*
X0006410Y0338674D01*
X0006466Y0338911D01*
X0006528Y0339147D01*
X0006595Y0339381D01*
X0006668Y0339613D01*
X0006747Y0339844D01*
X0006831Y0340072D01*
X0006921Y0340299D01*
X0007016Y0340523D01*
X0007117Y0340745D01*
X0007223Y0340964D01*
X0007334Y0341180D01*
X0007451Y0341394D01*
X0007572Y0341605D01*
X0007699Y0341813D01*
X0007831Y0342018D01*
X0007968Y0342219D01*
X0008110Y0342417D01*
X0008256Y0342612D01*
X0008407Y0342803D01*
X0008563Y0342990D01*
X0008723Y0343173D01*
X0008888Y0343353D01*
X0009057Y0343528D01*
X0009230Y0343699D01*
X0009408Y0343866D01*
X0009589Y0344028D01*
X0009774Y0344186D01*
X0009963Y0344340D01*
X0010156Y0344489D01*
X0010352Y0344633D01*
X0010552Y0344772D01*
X0010755Y0344907D01*
X0010962Y0345036D01*
X0011171Y0345160D01*
X0011383Y0345279D01*
X0011599Y0345393D01*
X0011816Y0345502D01*
X0012037Y0345605D01*
X0012260Y0345703D01*
X0012485Y0345796D01*
X0012713Y0345883D01*
X0012942Y0345964D01*
X0013174Y0346040D01*
X0013407Y0346110D01*
X0013642Y0346175D01*
X0013878Y0346234D01*
X0014116Y0346287D01*
X0014355Y0346334D01*
X0014595Y0346375D01*
X0014836Y0346410D01*
X0015077Y0346440D01*
X0015320Y0346464D01*
X0015563Y0346481D01*
X0015806Y0346493D01*
X0016049Y0346499D01*
X0016293Y0346499D01*
X0016536Y0346493D01*
X0016779Y0346481D01*
X0017022Y0346464D01*
X0017265Y0346440D01*
X0017506Y0346410D01*
X0017747Y0346375D01*
X0017987Y0346334D01*
X0018226Y0346287D01*
X0018464Y0346234D01*
X0018700Y0346175D01*
X0018935Y0346110D01*
X0019168Y0346040D01*
X0019400Y0345964D01*
X0019629Y0345883D01*
X0019857Y0345796D01*
X0020082Y0345703D01*
X0020305Y0345605D01*
X0020526Y0345502D01*
X0020743Y0345393D01*
X0020959Y0345279D01*
X0021171Y0345160D01*
X0021380Y0345036D01*
X0021587Y0344907D01*
X0021790Y0344772D01*
X0021990Y0344633D01*
X0022186Y0344489D01*
X0022379Y0344340D01*
X0022568Y0344186D01*
X0022753Y0344028D01*
X0022934Y0343866D01*
X0023112Y0343699D01*
X0023285Y0343528D01*
X0023454Y0343353D01*
X0023619Y0343173D01*
X0023779Y0342990D01*
X0023935Y0342803D01*
X0024086Y0342612D01*
X0024232Y0342417D01*
X0024374Y0342219D01*
X0024511Y0342018D01*
X0024643Y0341813D01*
X0024770Y0341605D01*
X0024891Y0341394D01*
X0025008Y0341180D01*
X0025119Y0340964D01*
X0025225Y0340745D01*
X0025326Y0340523D01*
X0025421Y0340299D01*
X0025511Y0340072D01*
X0025595Y0339844D01*
X0025674Y0339613D01*
X0025747Y0339381D01*
X0025814Y0339147D01*
X0025876Y0338911D01*
X0025932Y0338674D01*
X0025982Y0338436D01*
X0026026Y0338196D01*
X0026064Y0337956D01*
X0026097Y0337715D01*
X0026124Y0337473D01*
X0026144Y0337230D01*
X0026159Y0336987D01*
X0026168Y0336744D01*
X0026171Y0336500D01*
X0026171Y0326500D01*
X0201171Y0326500D01*
X0201171Y0336500D01*
X0201174Y0336744D01*
X0201183Y0336987D01*
X0201198Y0337230D01*
X0201218Y0337473D01*
X0201245Y0337715D01*
X0201278Y0337956D01*
X0201316Y0338196D01*
X0201360Y0338436D01*
X0201410Y0338674D01*
X0201466Y0338911D01*
X0201528Y0339147D01*
X0201595Y0339381D01*
X0201668Y0339613D01*
X0201747Y0339844D01*
X0201831Y0340072D01*
X0201921Y0340299D01*
X0202016Y0340523D01*
X0202117Y0340745D01*
X0202223Y0340964D01*
X0202334Y0341180D01*
X0202451Y0341394D01*
X0202572Y0341605D01*
X0202699Y0341813D01*
X0202831Y0342018D01*
X0202968Y0342219D01*
X0203110Y0342417D01*
X0203256Y0342612D01*
X0203407Y0342803D01*
X0203563Y0342990D01*
X0203723Y0343173D01*
X0203888Y0343353D01*
X0204057Y0343528D01*
X0204230Y0343699D01*
X0204408Y0343866D01*
X0204589Y0344028D01*
X0204774Y0344186D01*
X0204963Y0344340D01*
X0205156Y0344489D01*
X0205352Y0344633D01*
X0205552Y0344772D01*
X0205755Y0344907D01*
X0205962Y0345036D01*
X0206171Y0345160D01*
X0206383Y0345279D01*
X0206599Y0345393D01*
X0206816Y0345502D01*
X0207037Y0345605D01*
X0207260Y0345703D01*
X0207485Y0345796D01*
X0207713Y0345883D01*
X0207942Y0345964D01*
X0208174Y0346040D01*
X0208407Y0346110D01*
X0208642Y0346175D01*
X0208878Y0346234D01*
X0209116Y0346287D01*
X0209355Y0346334D01*
X0209595Y0346375D01*
X0209836Y0346410D01*
X0210077Y0346440D01*
X0210320Y0346464D01*
X0210563Y0346481D01*
X0210806Y0346493D01*
X0211049Y0346499D01*
X0211293Y0346499D01*
X0211536Y0346493D01*
X0211779Y0346481D01*
X0212022Y0346464D01*
X0212265Y0346440D01*
X0212506Y0346410D01*
X0212747Y0346375D01*
X0212987Y0346334D01*
X0213226Y0346287D01*
X0213464Y0346234D01*
X0213700Y0346175D01*
X0213935Y0346110D01*
X0214168Y0346040D01*
X0214400Y0345964D01*
X0214629Y0345883D01*
X0214857Y0345796D01*
X0215082Y0345703D01*
X0215305Y0345605D01*
X0215526Y0345502D01*
X0215743Y0345393D01*
X0215959Y0345279D01*
X0216171Y0345160D01*
X0216380Y0345036D01*
X0216587Y0344907D01*
X0216790Y0344772D01*
X0216990Y0344633D01*
X0217186Y0344489D01*
X0217379Y0344340D01*
X0217568Y0344186D01*
X0217753Y0344028D01*
X0217934Y0343866D01*
X0218112Y0343699D01*
X0218285Y0343528D01*
X0218454Y0343353D01*
X0218619Y0343173D01*
X0218779Y0342990D01*
X0218935Y0342803D01*
X0219086Y0342612D01*
X0219232Y0342417D01*
X0219374Y0342219D01*
X0219511Y0342018D01*
X0219643Y0341813D01*
X0219770Y0341605D01*
X0219891Y0341394D01*
X0220008Y0341180D01*
X0220119Y0340964D01*
X0220225Y0340745D01*
X0220326Y0340523D01*
X0220421Y0340299D01*
X0220511Y0340072D01*
X0220595Y0339844D01*
X0220674Y0339613D01*
X0220747Y0339381D01*
X0220814Y0339147D01*
X0220876Y0338911D01*
X0220932Y0338674D01*
X0220982Y0338436D01*
X0221026Y0338196D01*
X0221064Y0337956D01*
X0221097Y0337715D01*
X0221124Y0337473D01*
X0221144Y0337230D01*
X0221159Y0336987D01*
X0221168Y0336744D01*
X0221171Y0336500D01*
X0221171Y0011000D01*
X0221168Y0010756D01*
X0221159Y0010513D01*
X0221144Y0010270D01*
X0221124Y0010027D01*
X0221097Y0009785D01*
X0221064Y0009544D01*
X0221026Y0009304D01*
X0220982Y0009064D01*
X0220932Y0008826D01*
X0220876Y0008589D01*
X0220814Y0008353D01*
X0220747Y0008119D01*
X0220674Y0007887D01*
X0220595Y0007656D01*
X0220511Y0007428D01*
X0220421Y0007201D01*
X0220326Y0006977D01*
X0220225Y0006755D01*
X0220119Y0006536D01*
X0220008Y0006320D01*
X0219891Y0006106D01*
X0219770Y0005895D01*
X0219643Y0005687D01*
X0219511Y0005482D01*
X0219374Y0005281D01*
X0219232Y0005083D01*
X0219086Y0004888D01*
X0218935Y0004697D01*
X0218779Y0004510D01*
X0218619Y0004327D01*
X0218454Y0004147D01*
X0218285Y0003972D01*
X0218112Y0003801D01*
X0217934Y0003634D01*
X0217753Y0003472D01*
X0217568Y0003314D01*
X0217379Y0003160D01*
X0217186Y0003011D01*
X0216990Y0002867D01*
X0216790Y0002728D01*
X0216587Y0002593D01*
X0216380Y0002464D01*
X0216171Y0002340D01*
X0215959Y0002221D01*
X0215743Y0002107D01*
X0215526Y0001998D01*
X0215305Y0001895D01*
X0215082Y0001797D01*
X0214857Y0001704D01*
X0214629Y0001617D01*
X0214400Y0001536D01*
X0214168Y0001460D01*
X0213935Y0001390D01*
X0213700Y0001325D01*
X0213464Y0001266D01*
X0213226Y0001213D01*
X0212987Y0001166D01*
X0212747Y0001125D01*
X0212506Y0001090D01*
X0212265Y0001060D01*
X0212022Y0001036D01*
X0211779Y0001019D01*
X0211536Y0001007D01*
X0211293Y0001001D01*
X0211049Y0001001D01*
X0210806Y0001007D01*
X0210563Y0001019D01*
X0210320Y0001036D01*
X0210077Y0001060D01*
X0209836Y0001090D01*
X0209595Y0001125D01*
X0209355Y0001166D01*
X0209116Y0001213D01*
X0208878Y0001266D01*
X0208642Y0001325D01*
X0208407Y0001390D01*
X0208174Y0001460D01*
X0207942Y0001536D01*
X0207713Y0001617D01*
X0207485Y0001704D01*
X0207260Y0001797D01*
X0207037Y0001895D01*
X0206816Y0001998D01*
X0206599Y0002107D01*
X0206383Y0002221D01*
X0206171Y0002340D01*
X0205962Y0002464D01*
X0205755Y0002593D01*
X0205552Y0002728D01*
X0205352Y0002867D01*
X0205156Y0003011D01*
X0204963Y0003160D01*
X0204774Y0003314D01*
X0204589Y0003472D01*
X0204408Y0003634D01*
X0204230Y0003801D01*
X0204057Y0003972D01*
X0203888Y0004147D01*
X0203723Y0004327D01*
X0203563Y0004510D01*
X0203407Y0004697D01*
X0203256Y0004888D01*
X0203110Y0005083D01*
X0202968Y0005281D01*
X0202831Y0005482D01*
X0202699Y0005687D01*
X0202572Y0005895D01*
X0202451Y0006106D01*
X0202334Y0006320D01*
X0202223Y0006536D01*
X0202117Y0006755D01*
X0202016Y0006977D01*
X0201921Y0007201D01*
X0201831Y0007428D01*
X0201747Y0007656D01*
X0201668Y0007887D01*
X0201595Y0008119D01*
X0201528Y0008353D01*
X0201466Y0008589D01*
X0201410Y0008826D01*
X0201360Y0009064D01*
X0201316Y0009304D01*
X0201278Y0009544D01*
X0201245Y0009785D01*
X0201218Y0010027D01*
X0201198Y0010270D01*
X0201183Y0010513D01*
X0201174Y0010756D01*
X0201171Y0011000D01*
X0201171Y0021000D01*
X0026171Y0021000D01*
X0026171Y0011000D01*
X0026168Y0010756D01*
X0026159Y0010513D01*
X0026144Y0010270D01*
X0026124Y0010027D01*
X0026097Y0009785D01*
X0026064Y0009544D01*
X0026026Y0009304D01*
X0025982Y0009064D01*
X0025932Y0008826D01*
X0025876Y0008589D01*
X0025814Y0008353D01*
X0025747Y0008119D01*
X0025674Y0007887D01*
X0025595Y0007656D01*
X0025511Y0007428D01*
X0025421Y0007201D01*
X0025326Y0006977D01*
X0025225Y0006755D01*
X0025119Y0006536D01*
X0025008Y0006320D01*
X0024891Y0006106D01*
X0024770Y0005895D01*
X0024643Y0005687D01*
X0024511Y0005482D01*
X0024374Y0005281D01*
X0024232Y0005083D01*
X0024086Y0004888D01*
X0023935Y0004697D01*
X0023779Y0004510D01*
X0023619Y0004327D01*
X0023454Y0004147D01*
X0023285Y0003972D01*
X0023112Y0003801D01*
X0022934Y0003634D01*
X0022753Y0003472D01*
X0022568Y0003314D01*
X0022379Y0003160D01*
X0022186Y0003011D01*
X0021990Y0002867D01*
X0021790Y0002728D01*
X0021587Y0002593D01*
X0021380Y0002464D01*
X0021171Y0002340D01*
X0020959Y0002221D01*
X0020743Y0002107D01*
X0020526Y0001998D01*
X0020305Y0001895D01*
X0020082Y0001797D01*
X0019857Y0001704D01*
X0019629Y0001617D01*
X0019400Y0001536D01*
X0019168Y0001460D01*
X0018935Y0001390D01*
X0018700Y0001325D01*
X0018464Y0001266D01*
X0018226Y0001213D01*
X0017987Y0001166D01*
X0017747Y0001125D01*
X0017506Y0001090D01*
X0017265Y0001060D01*
X0017022Y0001036D01*
X0016779Y0001019D01*
X0016536Y0001007D01*
X0016293Y0001001D01*
X0016049Y0001001D01*
X0015806Y0001007D01*
X0015563Y0001019D01*
X0015320Y0001036D01*
X0015077Y0001060D01*
X0014836Y0001090D01*
X0014595Y0001125D01*
X0014355Y0001166D01*
X0014116Y0001213D01*
X0013878Y0001266D01*
X0013642Y0001325D01*
X0013407Y0001390D01*
X0013174Y0001460D01*
X0012942Y0001536D01*
X0012713Y0001617D01*
X0012485Y0001704D01*
X0012260Y0001797D01*
X0012037Y0001895D01*
X0011816Y0001998D01*
X0011599Y0002107D01*
X0011383Y0002221D01*
X0011171Y0002340D01*
X0010962Y0002464D01*
X0010755Y0002593D01*
X0010552Y0002728D01*
X0010352Y0002867D01*
X0010156Y0003011D01*
X0009963Y0003160D01*
X0009774Y0003314D01*
X0009589Y0003472D01*
X0009408Y0003634D01*
X0009230Y0003801D01*
X0009057Y0003972D01*
X0008888Y0004147D01*
X0008723Y0004327D01*
X0008563Y0004510D01*
X0008407Y0004697D01*
X0008256Y0004888D01*
X0008110Y0005083D01*
X0007968Y0005281D01*
X0007831Y0005482D01*
X0007699Y0005687D01*
X0007572Y0005895D01*
X0007451Y0006106D01*
X0007334Y0006320D01*
X0007223Y0006536D01*
X0007117Y0006755D01*
X0007016Y0006977D01*
X0006921Y0007201D01*
X0006831Y0007428D01*
X0006747Y0007656D01*
X0006668Y0007887D01*
X0006595Y0008119D01*
X0006528Y0008353D01*
X0006466Y0008589D01*
X0006410Y0008826D01*
X0006360Y0009064D01*
X0006316Y0009304D01*
X0006278Y0009544D01*
X0006245Y0009785D01*
X0006218Y0010027D01*
X0006198Y0010270D01*
X0006183Y0010513D01*
X0006174Y0010756D01*
X0006171Y0011000D01*
X0009872Y0011000D02*
X0009874Y0011158D01*
X0009880Y0011316D01*
X0009890Y0011474D01*
X0009904Y0011632D01*
X0009922Y0011789D01*
X0009943Y0011946D01*
X0009969Y0012102D01*
X0009999Y0012258D01*
X0010032Y0012413D01*
X0010070Y0012566D01*
X0010111Y0012719D01*
X0010156Y0012871D01*
X0010205Y0013022D01*
X0010258Y0013171D01*
X0010314Y0013319D01*
X0010374Y0013465D01*
X0010438Y0013610D01*
X0010506Y0013753D01*
X0010577Y0013895D01*
X0010651Y0014035D01*
X0010729Y0014172D01*
X0010811Y0014308D01*
X0010895Y0014442D01*
X0010984Y0014573D01*
X0011075Y0014702D01*
X0011170Y0014829D01*
X0011267Y0014954D01*
X0011368Y0015076D01*
X0011472Y0015195D01*
X0011579Y0015312D01*
X0011689Y0015426D01*
X0011802Y0015537D01*
X0011917Y0015646D01*
X0012035Y0015751D01*
X0012156Y0015853D01*
X0012279Y0015953D01*
X0012405Y0016049D01*
X0012533Y0016142D01*
X0012663Y0016232D01*
X0012796Y0016318D01*
X0012931Y0016402D01*
X0013067Y0016481D01*
X0013206Y0016558D01*
X0013347Y0016630D01*
X0013489Y0016700D01*
X0013633Y0016765D01*
X0013779Y0016827D01*
X0013926Y0016885D01*
X0014075Y0016940D01*
X0014225Y0016991D01*
X0014376Y0017038D01*
X0014528Y0017081D01*
X0014681Y0017120D01*
X0014836Y0017156D01*
X0014991Y0017187D01*
X0015147Y0017215D01*
X0015303Y0017239D01*
X0015460Y0017259D01*
X0015618Y0017275D01*
X0015775Y0017287D01*
X0015934Y0017295D01*
X0016092Y0017299D01*
X0016250Y0017299D01*
X0016408Y0017295D01*
X0016567Y0017287D01*
X0016724Y0017275D01*
X0016882Y0017259D01*
X0017039Y0017239D01*
X0017195Y0017215D01*
X0017351Y0017187D01*
X0017506Y0017156D01*
X0017661Y0017120D01*
X0017814Y0017081D01*
X0017966Y0017038D01*
X0018117Y0016991D01*
X0018267Y0016940D01*
X0018416Y0016885D01*
X0018563Y0016827D01*
X0018709Y0016765D01*
X0018853Y0016700D01*
X0018995Y0016630D01*
X0019136Y0016558D01*
X0019275Y0016481D01*
X0019411Y0016402D01*
X0019546Y0016318D01*
X0019679Y0016232D01*
X0019809Y0016142D01*
X0019937Y0016049D01*
X0020063Y0015953D01*
X0020186Y0015853D01*
X0020307Y0015751D01*
X0020425Y0015646D01*
X0020540Y0015537D01*
X0020653Y0015426D01*
X0020763Y0015312D01*
X0020870Y0015195D01*
X0020974Y0015076D01*
X0021075Y0014954D01*
X0021172Y0014829D01*
X0021267Y0014702D01*
X0021358Y0014573D01*
X0021447Y0014442D01*
X0021531Y0014308D01*
X0021613Y0014172D01*
X0021691Y0014035D01*
X0021765Y0013895D01*
X0021836Y0013753D01*
X0021904Y0013610D01*
X0021968Y0013465D01*
X0022028Y0013319D01*
X0022084Y0013171D01*
X0022137Y0013022D01*
X0022186Y0012871D01*
X0022231Y0012719D01*
X0022272Y0012566D01*
X0022310Y0012413D01*
X0022343Y0012258D01*
X0022373Y0012102D01*
X0022399Y0011946D01*
X0022420Y0011789D01*
X0022438Y0011632D01*
X0022452Y0011474D01*
X0022462Y0011316D01*
X0022468Y0011158D01*
X0022470Y0011000D01*
X0022468Y0010842D01*
X0022462Y0010684D01*
X0022452Y0010526D01*
X0022438Y0010368D01*
X0022420Y0010211D01*
X0022399Y0010054D01*
X0022373Y0009898D01*
X0022343Y0009742D01*
X0022310Y0009587D01*
X0022272Y0009434D01*
X0022231Y0009281D01*
X0022186Y0009129D01*
X0022137Y0008978D01*
X0022084Y0008829D01*
X0022028Y0008681D01*
X0021968Y0008535D01*
X0021904Y0008390D01*
X0021836Y0008247D01*
X0021765Y0008105D01*
X0021691Y0007965D01*
X0021613Y0007828D01*
X0021531Y0007692D01*
X0021447Y0007558D01*
X0021358Y0007427D01*
X0021267Y0007298D01*
X0021172Y0007171D01*
X0021075Y0007046D01*
X0020974Y0006924D01*
X0020870Y0006805D01*
X0020763Y0006688D01*
X0020653Y0006574D01*
X0020540Y0006463D01*
X0020425Y0006354D01*
X0020307Y0006249D01*
X0020186Y0006147D01*
X0020063Y0006047D01*
X0019937Y0005951D01*
X0019809Y0005858D01*
X0019679Y0005768D01*
X0019546Y0005682D01*
X0019411Y0005598D01*
X0019275Y0005519D01*
X0019136Y0005442D01*
X0018995Y0005370D01*
X0018853Y0005300D01*
X0018709Y0005235D01*
X0018563Y0005173D01*
X0018416Y0005115D01*
X0018267Y0005060D01*
X0018117Y0005009D01*
X0017966Y0004962D01*
X0017814Y0004919D01*
X0017661Y0004880D01*
X0017506Y0004844D01*
X0017351Y0004813D01*
X0017195Y0004785D01*
X0017039Y0004761D01*
X0016882Y0004741D01*
X0016724Y0004725D01*
X0016567Y0004713D01*
X0016408Y0004705D01*
X0016250Y0004701D01*
X0016092Y0004701D01*
X0015934Y0004705D01*
X0015775Y0004713D01*
X0015618Y0004725D01*
X0015460Y0004741D01*
X0015303Y0004761D01*
X0015147Y0004785D01*
X0014991Y0004813D01*
X0014836Y0004844D01*
X0014681Y0004880D01*
X0014528Y0004919D01*
X0014376Y0004962D01*
X0014225Y0005009D01*
X0014075Y0005060D01*
X0013926Y0005115D01*
X0013779Y0005173D01*
X0013633Y0005235D01*
X0013489Y0005300D01*
X0013347Y0005370D01*
X0013206Y0005442D01*
X0013067Y0005519D01*
X0012931Y0005598D01*
X0012796Y0005682D01*
X0012663Y0005768D01*
X0012533Y0005858D01*
X0012405Y0005951D01*
X0012279Y0006047D01*
X0012156Y0006147D01*
X0012035Y0006249D01*
X0011917Y0006354D01*
X0011802Y0006463D01*
X0011689Y0006574D01*
X0011579Y0006688D01*
X0011472Y0006805D01*
X0011368Y0006924D01*
X0011267Y0007046D01*
X0011170Y0007171D01*
X0011075Y0007298D01*
X0010984Y0007427D01*
X0010895Y0007558D01*
X0010811Y0007692D01*
X0010729Y0007828D01*
X0010651Y0007965D01*
X0010577Y0008105D01*
X0010506Y0008247D01*
X0010438Y0008390D01*
X0010374Y0008535D01*
X0010314Y0008681D01*
X0010258Y0008829D01*
X0010205Y0008978D01*
X0010156Y0009129D01*
X0010111Y0009281D01*
X0010070Y0009434D01*
X0010032Y0009587D01*
X0009999Y0009742D01*
X0009969Y0009898D01*
X0009943Y0010054D01*
X0009922Y0010211D01*
X0009904Y0010368D01*
X0009890Y0010526D01*
X0009880Y0010684D01*
X0009874Y0010842D01*
X0009872Y0011000D01*
X0201738Y0242012D02*
X0201740Y0242096D01*
X0201746Y0242179D01*
X0201756Y0242262D01*
X0201770Y0242345D01*
X0201787Y0242427D01*
X0201809Y0242508D01*
X0201834Y0242587D01*
X0201863Y0242666D01*
X0201896Y0242743D01*
X0201932Y0242818D01*
X0201972Y0242892D01*
X0202015Y0242964D01*
X0202062Y0243033D01*
X0202112Y0243100D01*
X0202165Y0243165D01*
X0202221Y0243227D01*
X0202279Y0243287D01*
X0202341Y0243344D01*
X0202405Y0243397D01*
X0202472Y0243448D01*
X0202541Y0243495D01*
X0202612Y0243540D01*
X0202685Y0243580D01*
X0202760Y0243617D01*
X0202837Y0243651D01*
X0202915Y0243681D01*
X0202994Y0243707D01*
X0203075Y0243730D01*
X0203157Y0243748D01*
X0203239Y0243763D01*
X0203322Y0243774D01*
X0203405Y0243781D01*
X0203489Y0243784D01*
X0203573Y0243783D01*
X0203656Y0243778D01*
X0203740Y0243769D01*
X0203822Y0243756D01*
X0203904Y0243740D01*
X0203985Y0243719D01*
X0204066Y0243695D01*
X0204144Y0243667D01*
X0204222Y0243635D01*
X0204298Y0243599D01*
X0204372Y0243560D01*
X0204444Y0243518D01*
X0204514Y0243472D01*
X0204582Y0243423D01*
X0204647Y0243371D01*
X0204710Y0243316D01*
X0204770Y0243258D01*
X0204828Y0243197D01*
X0204882Y0243133D01*
X0204934Y0243067D01*
X0204982Y0242999D01*
X0205027Y0242928D01*
X0205068Y0242855D01*
X0205107Y0242781D01*
X0205141Y0242705D01*
X0205172Y0242627D01*
X0205199Y0242548D01*
X0205223Y0242467D01*
X0205242Y0242386D01*
X0205258Y0242304D01*
X0205270Y0242221D01*
X0205278Y0242137D01*
X0205282Y0242054D01*
X0205282Y0241970D01*
X0205278Y0241887D01*
X0205270Y0241803D01*
X0205258Y0241720D01*
X0205242Y0241638D01*
X0205223Y0241557D01*
X0205199Y0241476D01*
X0205172Y0241397D01*
X0205141Y0241319D01*
X0205107Y0241243D01*
X0205068Y0241169D01*
X0205027Y0241096D01*
X0204982Y0241025D01*
X0204934Y0240957D01*
X0204882Y0240891D01*
X0204828Y0240827D01*
X0204770Y0240766D01*
X0204710Y0240708D01*
X0204647Y0240653D01*
X0204582Y0240601D01*
X0204514Y0240552D01*
X0204444Y0240506D01*
X0204372Y0240464D01*
X0204298Y0240425D01*
X0204222Y0240389D01*
X0204144Y0240357D01*
X0204066Y0240329D01*
X0203985Y0240305D01*
X0203904Y0240284D01*
X0203822Y0240268D01*
X0203740Y0240255D01*
X0203656Y0240246D01*
X0203573Y0240241D01*
X0203489Y0240240D01*
X0203405Y0240243D01*
X0203322Y0240250D01*
X0203239Y0240261D01*
X0203157Y0240276D01*
X0203075Y0240294D01*
X0202994Y0240317D01*
X0202915Y0240343D01*
X0202837Y0240373D01*
X0202760Y0240407D01*
X0202685Y0240444D01*
X0202612Y0240484D01*
X0202541Y0240529D01*
X0202472Y0240576D01*
X0202405Y0240627D01*
X0202341Y0240680D01*
X0202279Y0240737D01*
X0202221Y0240797D01*
X0202165Y0240859D01*
X0202112Y0240924D01*
X0202062Y0240991D01*
X0202015Y0241060D01*
X0201972Y0241132D01*
X0201932Y0241206D01*
X0201896Y0241281D01*
X0201863Y0241358D01*
X0201834Y0241437D01*
X0201809Y0241516D01*
X0201787Y0241597D01*
X0201770Y0241679D01*
X0201756Y0241762D01*
X0201746Y0241845D01*
X0201740Y0241928D01*
X0201738Y0242012D01*
X0201738Y0273508D02*
X0201740Y0273592D01*
X0201746Y0273675D01*
X0201756Y0273758D01*
X0201770Y0273841D01*
X0201787Y0273923D01*
X0201809Y0274004D01*
X0201834Y0274083D01*
X0201863Y0274162D01*
X0201896Y0274239D01*
X0201932Y0274314D01*
X0201972Y0274388D01*
X0202015Y0274460D01*
X0202062Y0274529D01*
X0202112Y0274596D01*
X0202165Y0274661D01*
X0202221Y0274723D01*
X0202279Y0274783D01*
X0202341Y0274840D01*
X0202405Y0274893D01*
X0202472Y0274944D01*
X0202541Y0274991D01*
X0202612Y0275036D01*
X0202685Y0275076D01*
X0202760Y0275113D01*
X0202837Y0275147D01*
X0202915Y0275177D01*
X0202994Y0275203D01*
X0203075Y0275226D01*
X0203157Y0275244D01*
X0203239Y0275259D01*
X0203322Y0275270D01*
X0203405Y0275277D01*
X0203489Y0275280D01*
X0203573Y0275279D01*
X0203656Y0275274D01*
X0203740Y0275265D01*
X0203822Y0275252D01*
X0203904Y0275236D01*
X0203985Y0275215D01*
X0204066Y0275191D01*
X0204144Y0275163D01*
X0204222Y0275131D01*
X0204298Y0275095D01*
X0204372Y0275056D01*
X0204444Y0275014D01*
X0204514Y0274968D01*
X0204582Y0274919D01*
X0204647Y0274867D01*
X0204710Y0274812D01*
X0204770Y0274754D01*
X0204828Y0274693D01*
X0204882Y0274629D01*
X0204934Y0274563D01*
X0204982Y0274495D01*
X0205027Y0274424D01*
X0205068Y0274351D01*
X0205107Y0274277D01*
X0205141Y0274201D01*
X0205172Y0274123D01*
X0205199Y0274044D01*
X0205223Y0273963D01*
X0205242Y0273882D01*
X0205258Y0273800D01*
X0205270Y0273717D01*
X0205278Y0273633D01*
X0205282Y0273550D01*
X0205282Y0273466D01*
X0205278Y0273383D01*
X0205270Y0273299D01*
X0205258Y0273216D01*
X0205242Y0273134D01*
X0205223Y0273053D01*
X0205199Y0272972D01*
X0205172Y0272893D01*
X0205141Y0272815D01*
X0205107Y0272739D01*
X0205068Y0272665D01*
X0205027Y0272592D01*
X0204982Y0272521D01*
X0204934Y0272453D01*
X0204882Y0272387D01*
X0204828Y0272323D01*
X0204770Y0272262D01*
X0204710Y0272204D01*
X0204647Y0272149D01*
X0204582Y0272097D01*
X0204514Y0272048D01*
X0204444Y0272002D01*
X0204372Y0271960D01*
X0204298Y0271921D01*
X0204222Y0271885D01*
X0204144Y0271853D01*
X0204066Y0271825D01*
X0203985Y0271801D01*
X0203904Y0271780D01*
X0203822Y0271764D01*
X0203740Y0271751D01*
X0203656Y0271742D01*
X0203573Y0271737D01*
X0203489Y0271736D01*
X0203405Y0271739D01*
X0203322Y0271746D01*
X0203239Y0271757D01*
X0203157Y0271772D01*
X0203075Y0271790D01*
X0202994Y0271813D01*
X0202915Y0271839D01*
X0202837Y0271869D01*
X0202760Y0271903D01*
X0202685Y0271940D01*
X0202612Y0271980D01*
X0202541Y0272025D01*
X0202472Y0272072D01*
X0202405Y0272123D01*
X0202341Y0272176D01*
X0202279Y0272233D01*
X0202221Y0272293D01*
X0202165Y0272355D01*
X0202112Y0272420D01*
X0202062Y0272487D01*
X0202015Y0272556D01*
X0201972Y0272628D01*
X0201932Y0272702D01*
X0201896Y0272777D01*
X0201863Y0272854D01*
X0201834Y0272933D01*
X0201809Y0273012D01*
X0201787Y0273093D01*
X0201770Y0273175D01*
X0201756Y0273258D01*
X0201746Y0273341D01*
X0201740Y0273424D01*
X0201738Y0273508D01*
X0204872Y0336500D02*
X0204874Y0336658D01*
X0204880Y0336816D01*
X0204890Y0336974D01*
X0204904Y0337132D01*
X0204922Y0337289D01*
X0204943Y0337446D01*
X0204969Y0337602D01*
X0204999Y0337758D01*
X0205032Y0337913D01*
X0205070Y0338066D01*
X0205111Y0338219D01*
X0205156Y0338371D01*
X0205205Y0338522D01*
X0205258Y0338671D01*
X0205314Y0338819D01*
X0205374Y0338965D01*
X0205438Y0339110D01*
X0205506Y0339253D01*
X0205577Y0339395D01*
X0205651Y0339535D01*
X0205729Y0339672D01*
X0205811Y0339808D01*
X0205895Y0339942D01*
X0205984Y0340073D01*
X0206075Y0340202D01*
X0206170Y0340329D01*
X0206267Y0340454D01*
X0206368Y0340576D01*
X0206472Y0340695D01*
X0206579Y0340812D01*
X0206689Y0340926D01*
X0206802Y0341037D01*
X0206917Y0341146D01*
X0207035Y0341251D01*
X0207156Y0341353D01*
X0207279Y0341453D01*
X0207405Y0341549D01*
X0207533Y0341642D01*
X0207663Y0341732D01*
X0207796Y0341818D01*
X0207931Y0341902D01*
X0208067Y0341981D01*
X0208206Y0342058D01*
X0208347Y0342130D01*
X0208489Y0342200D01*
X0208633Y0342265D01*
X0208779Y0342327D01*
X0208926Y0342385D01*
X0209075Y0342440D01*
X0209225Y0342491D01*
X0209376Y0342538D01*
X0209528Y0342581D01*
X0209681Y0342620D01*
X0209836Y0342656D01*
X0209991Y0342687D01*
X0210147Y0342715D01*
X0210303Y0342739D01*
X0210460Y0342759D01*
X0210618Y0342775D01*
X0210775Y0342787D01*
X0210934Y0342795D01*
X0211092Y0342799D01*
X0211250Y0342799D01*
X0211408Y0342795D01*
X0211567Y0342787D01*
X0211724Y0342775D01*
X0211882Y0342759D01*
X0212039Y0342739D01*
X0212195Y0342715D01*
X0212351Y0342687D01*
X0212506Y0342656D01*
X0212661Y0342620D01*
X0212814Y0342581D01*
X0212966Y0342538D01*
X0213117Y0342491D01*
X0213267Y0342440D01*
X0213416Y0342385D01*
X0213563Y0342327D01*
X0213709Y0342265D01*
X0213853Y0342200D01*
X0213995Y0342130D01*
X0214136Y0342058D01*
X0214275Y0341981D01*
X0214411Y0341902D01*
X0214546Y0341818D01*
X0214679Y0341732D01*
X0214809Y0341642D01*
X0214937Y0341549D01*
X0215063Y0341453D01*
X0215186Y0341353D01*
X0215307Y0341251D01*
X0215425Y0341146D01*
X0215540Y0341037D01*
X0215653Y0340926D01*
X0215763Y0340812D01*
X0215870Y0340695D01*
X0215974Y0340576D01*
X0216075Y0340454D01*
X0216172Y0340329D01*
X0216267Y0340202D01*
X0216358Y0340073D01*
X0216447Y0339942D01*
X0216531Y0339808D01*
X0216613Y0339672D01*
X0216691Y0339535D01*
X0216765Y0339395D01*
X0216836Y0339253D01*
X0216904Y0339110D01*
X0216968Y0338965D01*
X0217028Y0338819D01*
X0217084Y0338671D01*
X0217137Y0338522D01*
X0217186Y0338371D01*
X0217231Y0338219D01*
X0217272Y0338066D01*
X0217310Y0337913D01*
X0217343Y0337758D01*
X0217373Y0337602D01*
X0217399Y0337446D01*
X0217420Y0337289D01*
X0217438Y0337132D01*
X0217452Y0336974D01*
X0217462Y0336816D01*
X0217468Y0336658D01*
X0217470Y0336500D01*
X0217468Y0336342D01*
X0217462Y0336184D01*
X0217452Y0336026D01*
X0217438Y0335868D01*
X0217420Y0335711D01*
X0217399Y0335554D01*
X0217373Y0335398D01*
X0217343Y0335242D01*
X0217310Y0335087D01*
X0217272Y0334934D01*
X0217231Y0334781D01*
X0217186Y0334629D01*
X0217137Y0334478D01*
X0217084Y0334329D01*
X0217028Y0334181D01*
X0216968Y0334035D01*
X0216904Y0333890D01*
X0216836Y0333747D01*
X0216765Y0333605D01*
X0216691Y0333465D01*
X0216613Y0333328D01*
X0216531Y0333192D01*
X0216447Y0333058D01*
X0216358Y0332927D01*
X0216267Y0332798D01*
X0216172Y0332671D01*
X0216075Y0332546D01*
X0215974Y0332424D01*
X0215870Y0332305D01*
X0215763Y0332188D01*
X0215653Y0332074D01*
X0215540Y0331963D01*
X0215425Y0331854D01*
X0215307Y0331749D01*
X0215186Y0331647D01*
X0215063Y0331547D01*
X0214937Y0331451D01*
X0214809Y0331358D01*
X0214679Y0331268D01*
X0214546Y0331182D01*
X0214411Y0331098D01*
X0214275Y0331019D01*
X0214136Y0330942D01*
X0213995Y0330870D01*
X0213853Y0330800D01*
X0213709Y0330735D01*
X0213563Y0330673D01*
X0213416Y0330615D01*
X0213267Y0330560D01*
X0213117Y0330509D01*
X0212966Y0330462D01*
X0212814Y0330419D01*
X0212661Y0330380D01*
X0212506Y0330344D01*
X0212351Y0330313D01*
X0212195Y0330285D01*
X0212039Y0330261D01*
X0211882Y0330241D01*
X0211724Y0330225D01*
X0211567Y0330213D01*
X0211408Y0330205D01*
X0211250Y0330201D01*
X0211092Y0330201D01*
X0210934Y0330205D01*
X0210775Y0330213D01*
X0210618Y0330225D01*
X0210460Y0330241D01*
X0210303Y0330261D01*
X0210147Y0330285D01*
X0209991Y0330313D01*
X0209836Y0330344D01*
X0209681Y0330380D01*
X0209528Y0330419D01*
X0209376Y0330462D01*
X0209225Y0330509D01*
X0209075Y0330560D01*
X0208926Y0330615D01*
X0208779Y0330673D01*
X0208633Y0330735D01*
X0208489Y0330800D01*
X0208347Y0330870D01*
X0208206Y0330942D01*
X0208067Y0331019D01*
X0207931Y0331098D01*
X0207796Y0331182D01*
X0207663Y0331268D01*
X0207533Y0331358D01*
X0207405Y0331451D01*
X0207279Y0331547D01*
X0207156Y0331647D01*
X0207035Y0331749D01*
X0206917Y0331854D01*
X0206802Y0331963D01*
X0206689Y0332074D01*
X0206579Y0332188D01*
X0206472Y0332305D01*
X0206368Y0332424D01*
X0206267Y0332546D01*
X0206170Y0332671D01*
X0206075Y0332798D01*
X0205984Y0332927D01*
X0205895Y0333058D01*
X0205811Y0333192D01*
X0205729Y0333328D01*
X0205651Y0333465D01*
X0205577Y0333605D01*
X0205506Y0333747D01*
X0205438Y0333890D01*
X0205374Y0334035D01*
X0205314Y0334181D01*
X0205258Y0334329D01*
X0205205Y0334478D01*
X0205156Y0334629D01*
X0205111Y0334781D01*
X0205070Y0334934D01*
X0205032Y0335087D01*
X0204999Y0335242D01*
X0204969Y0335398D01*
X0204943Y0335554D01*
X0204922Y0335711D01*
X0204904Y0335868D01*
X0204890Y0336026D01*
X0204880Y0336184D01*
X0204874Y0336342D01*
X0204872Y0336500D01*
X0009872Y0336500D02*
X0009874Y0336658D01*
X0009880Y0336816D01*
X0009890Y0336974D01*
X0009904Y0337132D01*
X0009922Y0337289D01*
X0009943Y0337446D01*
X0009969Y0337602D01*
X0009999Y0337758D01*
X0010032Y0337913D01*
X0010070Y0338066D01*
X0010111Y0338219D01*
X0010156Y0338371D01*
X0010205Y0338522D01*
X0010258Y0338671D01*
X0010314Y0338819D01*
X0010374Y0338965D01*
X0010438Y0339110D01*
X0010506Y0339253D01*
X0010577Y0339395D01*
X0010651Y0339535D01*
X0010729Y0339672D01*
X0010811Y0339808D01*
X0010895Y0339942D01*
X0010984Y0340073D01*
X0011075Y0340202D01*
X0011170Y0340329D01*
X0011267Y0340454D01*
X0011368Y0340576D01*
X0011472Y0340695D01*
X0011579Y0340812D01*
X0011689Y0340926D01*
X0011802Y0341037D01*
X0011917Y0341146D01*
X0012035Y0341251D01*
X0012156Y0341353D01*
X0012279Y0341453D01*
X0012405Y0341549D01*
X0012533Y0341642D01*
X0012663Y0341732D01*
X0012796Y0341818D01*
X0012931Y0341902D01*
X0013067Y0341981D01*
X0013206Y0342058D01*
X0013347Y0342130D01*
X0013489Y0342200D01*
X0013633Y0342265D01*
X0013779Y0342327D01*
X0013926Y0342385D01*
X0014075Y0342440D01*
X0014225Y0342491D01*
X0014376Y0342538D01*
X0014528Y0342581D01*
X0014681Y0342620D01*
X0014836Y0342656D01*
X0014991Y0342687D01*
X0015147Y0342715D01*
X0015303Y0342739D01*
X0015460Y0342759D01*
X0015618Y0342775D01*
X0015775Y0342787D01*
X0015934Y0342795D01*
X0016092Y0342799D01*
X0016250Y0342799D01*
X0016408Y0342795D01*
X0016567Y0342787D01*
X0016724Y0342775D01*
X0016882Y0342759D01*
X0017039Y0342739D01*
X0017195Y0342715D01*
X0017351Y0342687D01*
X0017506Y0342656D01*
X0017661Y0342620D01*
X0017814Y0342581D01*
X0017966Y0342538D01*
X0018117Y0342491D01*
X0018267Y0342440D01*
X0018416Y0342385D01*
X0018563Y0342327D01*
X0018709Y0342265D01*
X0018853Y0342200D01*
X0018995Y0342130D01*
X0019136Y0342058D01*
X0019275Y0341981D01*
X0019411Y0341902D01*
X0019546Y0341818D01*
X0019679Y0341732D01*
X0019809Y0341642D01*
X0019937Y0341549D01*
X0020063Y0341453D01*
X0020186Y0341353D01*
X0020307Y0341251D01*
X0020425Y0341146D01*
X0020540Y0341037D01*
X0020653Y0340926D01*
X0020763Y0340812D01*
X0020870Y0340695D01*
X0020974Y0340576D01*
X0021075Y0340454D01*
X0021172Y0340329D01*
X0021267Y0340202D01*
X0021358Y0340073D01*
X0021447Y0339942D01*
X0021531Y0339808D01*
X0021613Y0339672D01*
X0021691Y0339535D01*
X0021765Y0339395D01*
X0021836Y0339253D01*
X0021904Y0339110D01*
X0021968Y0338965D01*
X0022028Y0338819D01*
X0022084Y0338671D01*
X0022137Y0338522D01*
X0022186Y0338371D01*
X0022231Y0338219D01*
X0022272Y0338066D01*
X0022310Y0337913D01*
X0022343Y0337758D01*
X0022373Y0337602D01*
X0022399Y0337446D01*
X0022420Y0337289D01*
X0022438Y0337132D01*
X0022452Y0336974D01*
X0022462Y0336816D01*
X0022468Y0336658D01*
X0022470Y0336500D01*
X0022468Y0336342D01*
X0022462Y0336184D01*
X0022452Y0336026D01*
X0022438Y0335868D01*
X0022420Y0335711D01*
X0022399Y0335554D01*
X0022373Y0335398D01*
X0022343Y0335242D01*
X0022310Y0335087D01*
X0022272Y0334934D01*
X0022231Y0334781D01*
X0022186Y0334629D01*
X0022137Y0334478D01*
X0022084Y0334329D01*
X0022028Y0334181D01*
X0021968Y0334035D01*
X0021904Y0333890D01*
X0021836Y0333747D01*
X0021765Y0333605D01*
X0021691Y0333465D01*
X0021613Y0333328D01*
X0021531Y0333192D01*
X0021447Y0333058D01*
X0021358Y0332927D01*
X0021267Y0332798D01*
X0021172Y0332671D01*
X0021075Y0332546D01*
X0020974Y0332424D01*
X0020870Y0332305D01*
X0020763Y0332188D01*
X0020653Y0332074D01*
X0020540Y0331963D01*
X0020425Y0331854D01*
X0020307Y0331749D01*
X0020186Y0331647D01*
X0020063Y0331547D01*
X0019937Y0331451D01*
X0019809Y0331358D01*
X0019679Y0331268D01*
X0019546Y0331182D01*
X0019411Y0331098D01*
X0019275Y0331019D01*
X0019136Y0330942D01*
X0018995Y0330870D01*
X0018853Y0330800D01*
X0018709Y0330735D01*
X0018563Y0330673D01*
X0018416Y0330615D01*
X0018267Y0330560D01*
X0018117Y0330509D01*
X0017966Y0330462D01*
X0017814Y0330419D01*
X0017661Y0330380D01*
X0017506Y0330344D01*
X0017351Y0330313D01*
X0017195Y0330285D01*
X0017039Y0330261D01*
X0016882Y0330241D01*
X0016724Y0330225D01*
X0016567Y0330213D01*
X0016408Y0330205D01*
X0016250Y0330201D01*
X0016092Y0330201D01*
X0015934Y0330205D01*
X0015775Y0330213D01*
X0015618Y0330225D01*
X0015460Y0330241D01*
X0015303Y0330261D01*
X0015147Y0330285D01*
X0014991Y0330313D01*
X0014836Y0330344D01*
X0014681Y0330380D01*
X0014528Y0330419D01*
X0014376Y0330462D01*
X0014225Y0330509D01*
X0014075Y0330560D01*
X0013926Y0330615D01*
X0013779Y0330673D01*
X0013633Y0330735D01*
X0013489Y0330800D01*
X0013347Y0330870D01*
X0013206Y0330942D01*
X0013067Y0331019D01*
X0012931Y0331098D01*
X0012796Y0331182D01*
X0012663Y0331268D01*
X0012533Y0331358D01*
X0012405Y0331451D01*
X0012279Y0331547D01*
X0012156Y0331647D01*
X0012035Y0331749D01*
X0011917Y0331854D01*
X0011802Y0331963D01*
X0011689Y0332074D01*
X0011579Y0332188D01*
X0011472Y0332305D01*
X0011368Y0332424D01*
X0011267Y0332546D01*
X0011170Y0332671D01*
X0011075Y0332798D01*
X0010984Y0332927D01*
X0010895Y0333058D01*
X0010811Y0333192D01*
X0010729Y0333328D01*
X0010651Y0333465D01*
X0010577Y0333605D01*
X0010506Y0333747D01*
X0010438Y0333890D01*
X0010374Y0334035D01*
X0010314Y0334181D01*
X0010258Y0334329D01*
X0010205Y0334478D01*
X0010156Y0334629D01*
X0010111Y0334781D01*
X0010070Y0334934D01*
X0010032Y0335087D01*
X0009999Y0335242D01*
X0009969Y0335398D01*
X0009943Y0335554D01*
X0009922Y0335711D01*
X0009904Y0335868D01*
X0009890Y0336026D01*
X0009880Y0336184D01*
X0009874Y0336342D01*
X0009872Y0336500D01*
X0204872Y0011000D02*
X0204874Y0011158D01*
X0204880Y0011316D01*
X0204890Y0011474D01*
X0204904Y0011632D01*
X0204922Y0011789D01*
X0204943Y0011946D01*
X0204969Y0012102D01*
X0204999Y0012258D01*
X0205032Y0012413D01*
X0205070Y0012566D01*
X0205111Y0012719D01*
X0205156Y0012871D01*
X0205205Y0013022D01*
X0205258Y0013171D01*
X0205314Y0013319D01*
X0205374Y0013465D01*
X0205438Y0013610D01*
X0205506Y0013753D01*
X0205577Y0013895D01*
X0205651Y0014035D01*
X0205729Y0014172D01*
X0205811Y0014308D01*
X0205895Y0014442D01*
X0205984Y0014573D01*
X0206075Y0014702D01*
X0206170Y0014829D01*
X0206267Y0014954D01*
X0206368Y0015076D01*
X0206472Y0015195D01*
X0206579Y0015312D01*
X0206689Y0015426D01*
X0206802Y0015537D01*
X0206917Y0015646D01*
X0207035Y0015751D01*
X0207156Y0015853D01*
X0207279Y0015953D01*
X0207405Y0016049D01*
X0207533Y0016142D01*
X0207663Y0016232D01*
X0207796Y0016318D01*
X0207931Y0016402D01*
X0208067Y0016481D01*
X0208206Y0016558D01*
X0208347Y0016630D01*
X0208489Y0016700D01*
X0208633Y0016765D01*
X0208779Y0016827D01*
X0208926Y0016885D01*
X0209075Y0016940D01*
X0209225Y0016991D01*
X0209376Y0017038D01*
X0209528Y0017081D01*
X0209681Y0017120D01*
X0209836Y0017156D01*
X0209991Y0017187D01*
X0210147Y0017215D01*
X0210303Y0017239D01*
X0210460Y0017259D01*
X0210618Y0017275D01*
X0210775Y0017287D01*
X0210934Y0017295D01*
X0211092Y0017299D01*
X0211250Y0017299D01*
X0211408Y0017295D01*
X0211567Y0017287D01*
X0211724Y0017275D01*
X0211882Y0017259D01*
X0212039Y0017239D01*
X0212195Y0017215D01*
X0212351Y0017187D01*
X0212506Y0017156D01*
X0212661Y0017120D01*
X0212814Y0017081D01*
X0212966Y0017038D01*
X0213117Y0016991D01*
X0213267Y0016940D01*
X0213416Y0016885D01*
X0213563Y0016827D01*
X0213709Y0016765D01*
X0213853Y0016700D01*
X0213995Y0016630D01*
X0214136Y0016558D01*
X0214275Y0016481D01*
X0214411Y0016402D01*
X0214546Y0016318D01*
X0214679Y0016232D01*
X0214809Y0016142D01*
X0214937Y0016049D01*
X0215063Y0015953D01*
X0215186Y0015853D01*
X0215307Y0015751D01*
X0215425Y0015646D01*
X0215540Y0015537D01*
X0215653Y0015426D01*
X0215763Y0015312D01*
X0215870Y0015195D01*
X0215974Y0015076D01*
X0216075Y0014954D01*
X0216172Y0014829D01*
X0216267Y0014702D01*
X0216358Y0014573D01*
X0216447Y0014442D01*
X0216531Y0014308D01*
X0216613Y0014172D01*
X0216691Y0014035D01*
X0216765Y0013895D01*
X0216836Y0013753D01*
X0216904Y0013610D01*
X0216968Y0013465D01*
X0217028Y0013319D01*
X0217084Y0013171D01*
X0217137Y0013022D01*
X0217186Y0012871D01*
X0217231Y0012719D01*
X0217272Y0012566D01*
X0217310Y0012413D01*
X0217343Y0012258D01*
X0217373Y0012102D01*
X0217399Y0011946D01*
X0217420Y0011789D01*
X0217438Y0011632D01*
X0217452Y0011474D01*
X0217462Y0011316D01*
X0217468Y0011158D01*
X0217470Y0011000D01*
X0217468Y0010842D01*
X0217462Y0010684D01*
X0217452Y0010526D01*
X0217438Y0010368D01*
X0217420Y0010211D01*
X0217399Y0010054D01*
X0217373Y0009898D01*
X0217343Y0009742D01*
X0217310Y0009587D01*
X0217272Y0009434D01*
X0217231Y0009281D01*
X0217186Y0009129D01*
X0217137Y0008978D01*
X0217084Y0008829D01*
X0217028Y0008681D01*
X0216968Y0008535D01*
X0216904Y0008390D01*
X0216836Y0008247D01*
X0216765Y0008105D01*
X0216691Y0007965D01*
X0216613Y0007828D01*
X0216531Y0007692D01*
X0216447Y0007558D01*
X0216358Y0007427D01*
X0216267Y0007298D01*
X0216172Y0007171D01*
X0216075Y0007046D01*
X0215974Y0006924D01*
X0215870Y0006805D01*
X0215763Y0006688D01*
X0215653Y0006574D01*
X0215540Y0006463D01*
X0215425Y0006354D01*
X0215307Y0006249D01*
X0215186Y0006147D01*
X0215063Y0006047D01*
X0214937Y0005951D01*
X0214809Y0005858D01*
X0214679Y0005768D01*
X0214546Y0005682D01*
X0214411Y0005598D01*
X0214275Y0005519D01*
X0214136Y0005442D01*
X0213995Y0005370D01*
X0213853Y0005300D01*
X0213709Y0005235D01*
X0213563Y0005173D01*
X0213416Y0005115D01*
X0213267Y0005060D01*
X0213117Y0005009D01*
X0212966Y0004962D01*
X0212814Y0004919D01*
X0212661Y0004880D01*
X0212506Y0004844D01*
X0212351Y0004813D01*
X0212195Y0004785D01*
X0212039Y0004761D01*
X0211882Y0004741D01*
X0211724Y0004725D01*
X0211567Y0004713D01*
X0211408Y0004705D01*
X0211250Y0004701D01*
X0211092Y0004701D01*
X0210934Y0004705D01*
X0210775Y0004713D01*
X0210618Y0004725D01*
X0210460Y0004741D01*
X0210303Y0004761D01*
X0210147Y0004785D01*
X0209991Y0004813D01*
X0209836Y0004844D01*
X0209681Y0004880D01*
X0209528Y0004919D01*
X0209376Y0004962D01*
X0209225Y0005009D01*
X0209075Y0005060D01*
X0208926Y0005115D01*
X0208779Y0005173D01*
X0208633Y0005235D01*
X0208489Y0005300D01*
X0208347Y0005370D01*
X0208206Y0005442D01*
X0208067Y0005519D01*
X0207931Y0005598D01*
X0207796Y0005682D01*
X0207663Y0005768D01*
X0207533Y0005858D01*
X0207405Y0005951D01*
X0207279Y0006047D01*
X0207156Y0006147D01*
X0207035Y0006249D01*
X0206917Y0006354D01*
X0206802Y0006463D01*
X0206689Y0006574D01*
X0206579Y0006688D01*
X0206472Y0006805D01*
X0206368Y0006924D01*
X0206267Y0007046D01*
X0206170Y0007171D01*
X0206075Y0007298D01*
X0205984Y0007427D01*
X0205895Y0007558D01*
X0205811Y0007692D01*
X0205729Y0007828D01*
X0205651Y0007965D01*
X0205577Y0008105D01*
X0205506Y0008247D01*
X0205438Y0008390D01*
X0205374Y0008535D01*
X0205314Y0008681D01*
X0205258Y0008829D01*
X0205205Y0008978D01*
X0205156Y0009129D01*
X0205111Y0009281D01*
X0205070Y0009434D01*
X0205032Y0009587D01*
X0204999Y0009742D01*
X0204969Y0009898D01*
X0204943Y0010054D01*
X0204922Y0010211D01*
X0204904Y0010368D01*
X0204890Y0010526D01*
X0204880Y0010684D01*
X0204874Y0010842D01*
X0204872Y0011000D01*
M02*
