G75*
%MOIN*%
%OFA0B0*%
%FSLAX25Y25*%
%IPPOS*%
%LPD*%
%AMOC8*
5,1,8,0,0,1.08239X$1,22.5*
%
%ADD10C,0.00400*%
%ADD11C,0.01200*%
%ADD12C,0.00800*%
D10*
X0068038Y0093157D02*
X0069573Y0093157D01*
X0070340Y0093924D01*
X0070340Y0094691D01*
X0069573Y0095459D01*
X0068038Y0095459D01*
X0067271Y0094691D01*
X0067271Y0093924D01*
X0068038Y0093157D01*
X0068038Y0095459D02*
X0067271Y0096226D01*
X0067271Y0096993D01*
X0068038Y0097761D01*
X0069573Y0097761D01*
X0070340Y0096993D01*
X0070340Y0096226D01*
X0069573Y0095459D01*
X0071875Y0093157D02*
X0074944Y0093157D01*
X0073409Y0093157D02*
X0073409Y0097761D01*
X0074944Y0096226D01*
X0146678Y0093157D02*
X0149747Y0093157D01*
X0148212Y0093157D02*
X0148212Y0097761D01*
X0149747Y0096226D01*
D11*
X0219908Y0022091D02*
X0007309Y0022091D01*
X0007309Y0325240D01*
X0219908Y0325240D01*
X0219908Y0022091D01*
X0161758Y0090988D02*
X0144041Y0090988D01*
X0144041Y0106736D01*
X0077112Y0106736D01*
X0077112Y0090988D01*
X0059396Y0090988D01*
D12*
X0065633Y0298081D02*
X0065633Y0307289D01*
X0068702Y0307289D02*
X0062564Y0307289D01*
X0071771Y0307289D02*
X0077910Y0307289D01*
X0077910Y0298081D01*
X0077910Y0302685D02*
X0074841Y0302685D01*
X0080979Y0307289D02*
X0087118Y0307289D01*
X0084049Y0307289D02*
X0084049Y0298081D01*
X0099395Y0298081D02*
X0102464Y0298081D01*
X0100930Y0298081D02*
X0100930Y0307289D01*
X0102464Y0307289D02*
X0099395Y0307289D01*
X0105534Y0305754D02*
X0105534Y0302685D01*
X0107068Y0301150D01*
X0111672Y0301150D01*
X0111672Y0298081D02*
X0111672Y0307289D01*
X0107068Y0307289D01*
X0105534Y0305754D01*
X0114742Y0305754D02*
X0116276Y0307289D01*
X0119345Y0307289D01*
X0120880Y0305754D01*
X0120880Y0304220D01*
X0119345Y0302685D01*
X0116276Y0302685D01*
X0114742Y0301150D01*
X0114742Y0299616D01*
X0116276Y0298081D01*
X0119345Y0298081D01*
X0120880Y0299616D01*
X0133157Y0305754D02*
X0134692Y0304220D01*
X0136227Y0305754D02*
X0137761Y0304220D01*
X0136227Y0305754D02*
X0136227Y0308824D01*
X0133157Y0308824D02*
X0133157Y0305754D01*
X0140830Y0305754D02*
X0142365Y0307289D01*
X0145434Y0307289D01*
X0146969Y0305754D01*
X0150038Y0299616D02*
X0150038Y0298081D01*
X0151573Y0298081D01*
X0151573Y0299616D01*
X0150038Y0299616D01*
X0146969Y0298081D02*
X0140830Y0304220D01*
X0140830Y0305754D01*
X0140830Y0298081D02*
X0146969Y0298081D01*
X0154642Y0299616D02*
X0156177Y0298081D01*
X0159246Y0298081D01*
X0160781Y0299616D01*
X0157712Y0302685D02*
X0156177Y0302685D01*
X0154642Y0301150D01*
X0154642Y0299616D01*
X0156177Y0302685D02*
X0154642Y0304220D01*
X0154642Y0305754D01*
X0156177Y0307289D01*
X0159246Y0307289D01*
X0160781Y0305754D01*
X0173058Y0305754D02*
X0173058Y0302685D01*
X0174593Y0301150D01*
X0179197Y0301150D01*
X0179197Y0298081D02*
X0179197Y0307289D01*
X0174593Y0307289D01*
X0173058Y0305754D01*
X0182266Y0305754D02*
X0182266Y0304220D01*
X0183800Y0302685D01*
X0186870Y0302685D01*
X0188404Y0304220D01*
X0188404Y0305754D01*
X0186870Y0307289D01*
X0183800Y0307289D01*
X0182266Y0305754D01*
X0183800Y0302685D02*
X0182266Y0301150D01*
X0182266Y0299616D01*
X0183800Y0298081D01*
X0186870Y0298081D01*
X0188404Y0299616D01*
X0188404Y0301150D01*
X0186870Y0302685D01*
X0191474Y0298081D02*
X0197612Y0298081D01*
X0194543Y0298081D02*
X0194543Y0307289D01*
X0197612Y0304220D01*
X0050286Y0307289D02*
X0050286Y0298081D01*
X0044148Y0298081D01*
X0041079Y0299616D02*
X0039544Y0298081D01*
X0036475Y0298081D01*
X0034940Y0299616D01*
X0031871Y0298081D02*
X0027267Y0298081D01*
X0025732Y0299616D01*
X0025732Y0305754D01*
X0027267Y0307289D01*
X0031871Y0307289D01*
X0031871Y0298081D01*
X0034940Y0305754D02*
X0036475Y0307289D01*
X0039544Y0307289D01*
X0041079Y0305754D01*
X0041079Y0299616D01*
M02*
