G75*
%MOIN*%
%OFA0B0*%
%FSLAX25Y25*%
%IPPOS*%
%LPD*%
%AMOC8*
5,1,8,0,0,1.08239X$1,22.5*
%
%ADD10R,0.07874X0.02756*%
%ADD11R,0.06299X0.05512*%
%ADD12R,0.08661X0.05512*%
%ADD13R,0.05512X0.07087*%
%ADD14R,0.13000X0.04000*%
%ADD15R,0.03543X0.03150*%
%ADD16R,0.04331X0.03937*%
%ADD17R,0.20000X0.06000*%
%ADD18R,0.07000X0.04000*%
%ADD19R,0.03150X0.03543*%
%ADD20C,0.01000*%
%ADD21C,0.03962*%
%ADD22C,0.01200*%
%ADD23C,0.01600*%
%ADD24C,0.04000*%
%ADD25C,0.02400*%
D10*
X0161384Y0235713D03*
X0161384Y0240043D03*
X0161384Y0244374D03*
X0161384Y0248705D03*
X0161384Y0253035D03*
X0161384Y0257366D03*
X0161384Y0261697D03*
X0161384Y0266028D03*
X0161384Y0270358D03*
D11*
X0164534Y0230594D03*
D12*
X0201935Y0230594D03*
X0201935Y0292406D03*
D13*
X0164140Y0288862D03*
D14*
X0036671Y0136500D03*
X0036671Y0126500D03*
X0036671Y0116500D03*
X0036671Y0106500D03*
X0036671Y0096500D03*
X0036671Y0086500D03*
X0036671Y0076500D03*
X0036671Y0066500D03*
X0036671Y0056500D03*
X0036671Y0046500D03*
X0036671Y0036500D03*
X0036671Y0026500D03*
X0016671Y0026500D03*
X0016671Y0036500D03*
X0016671Y0046500D03*
X0016671Y0056500D03*
X0016671Y0066500D03*
X0016671Y0076500D03*
X0016671Y0086500D03*
X0016671Y0096500D03*
X0016671Y0106500D03*
X0016671Y0116500D03*
X0016671Y0126500D03*
X0016671Y0136500D03*
D15*
X0028608Y0202760D03*
X0028608Y0210240D03*
X0020341Y0206500D03*
D16*
X0021325Y0191500D03*
X0028018Y0191500D03*
X0028018Y0181500D03*
X0021325Y0181500D03*
X0021325Y0171500D03*
X0028018Y0171500D03*
X0028018Y0161500D03*
X0021325Y0161500D03*
X0021325Y0221500D03*
X0028018Y0221500D03*
X0028018Y0231500D03*
X0021325Y0231500D03*
X0073325Y0244500D03*
X0073325Y0253500D03*
X0080018Y0253500D03*
X0080018Y0244500D03*
D17*
X0109671Y0176500D03*
X0109671Y0166500D03*
X0109671Y0156500D03*
X0109671Y0146500D03*
X0109671Y0136500D03*
X0109671Y0126500D03*
X0109671Y0116500D03*
X0109671Y0106500D03*
X0109671Y0096500D03*
X0109671Y0086500D03*
X0109671Y0076500D03*
X0109671Y0066500D03*
X0109671Y0056500D03*
X0199671Y0056500D03*
X0199671Y0066500D03*
X0199671Y0076500D03*
X0199671Y0086500D03*
X0199671Y0096500D03*
X0199671Y0106500D03*
X0199671Y0116500D03*
X0199671Y0126500D03*
X0199671Y0136500D03*
X0199671Y0146500D03*
X0199671Y0156500D03*
X0199671Y0166500D03*
X0199671Y0176500D03*
D18*
X0052171Y0247000D03*
X0052171Y0257000D03*
X0052171Y0267000D03*
X0052171Y0285000D03*
X0052171Y0295000D03*
X0052171Y0305000D03*
X0052171Y0315000D03*
D19*
X0077171Y0271331D03*
X0073431Y0263063D03*
X0080912Y0263063D03*
D20*
X0025071Y0021000D02*
X0007271Y0021000D01*
X0007271Y0326500D01*
X0025071Y0326500D01*
X0025071Y0326044D01*
X0025716Y0325400D01*
X0201627Y0325400D01*
X0202271Y0326044D01*
X0202271Y0326500D01*
X0220071Y0326500D01*
X0220071Y0021000D01*
X0202271Y0021000D01*
X0202271Y0021456D01*
X0201627Y0022100D01*
X0025716Y0022100D01*
X0025071Y0021456D01*
X0025071Y0021000D01*
X0025079Y0021463D02*
X0007271Y0021463D01*
X0007271Y0022461D02*
X0220071Y0022461D01*
X0220071Y0021463D02*
X0202264Y0021463D01*
X0212671Y0026500D02*
X0214671Y0028500D01*
X0214671Y0074500D01*
X0212671Y0076500D01*
X0199671Y0076500D01*
X0199671Y0086500D02*
X0187671Y0086500D01*
X0186171Y0085000D01*
X0186171Y0073000D01*
X0187671Y0071500D01*
X0211171Y0071500D01*
X0212671Y0070000D01*
X0212671Y0038500D01*
X0210671Y0036500D01*
X0036671Y0036500D01*
X0029633Y0033200D02*
X0043710Y0033200D01*
X0044471Y0033962D01*
X0044471Y0034700D01*
X0211417Y0034700D01*
X0212871Y0036154D01*
X0212871Y0029246D01*
X0211926Y0028300D01*
X0044471Y0028300D01*
X0044471Y0029038D01*
X0043710Y0029800D01*
X0029633Y0029800D01*
X0028871Y0029038D01*
X0028871Y0023962D01*
X0029633Y0023200D01*
X0043710Y0023200D01*
X0044471Y0023962D01*
X0044471Y0024700D01*
X0213417Y0024700D01*
X0215417Y0026700D01*
X0216471Y0027754D01*
X0216471Y0075246D01*
X0214471Y0077246D01*
X0213417Y0078300D01*
X0210971Y0078300D01*
X0210971Y0080038D01*
X0210210Y0080800D01*
X0189133Y0080800D01*
X0188371Y0080038D01*
X0188371Y0073346D01*
X0187971Y0073746D01*
X0187971Y0084254D01*
X0188371Y0084654D01*
X0188371Y0082962D01*
X0189133Y0082200D01*
X0210210Y0082200D01*
X0210971Y0082962D01*
X0210971Y0090038D01*
X0210210Y0090800D01*
X0189133Y0090800D01*
X0188371Y0090038D01*
X0188371Y0088300D01*
X0186926Y0088300D01*
X0185871Y0087246D01*
X0184371Y0085746D01*
X0184371Y0072254D01*
X0185426Y0071200D01*
X0186926Y0069700D01*
X0188371Y0069700D01*
X0188371Y0068400D01*
X0181412Y0068400D01*
X0180530Y0069282D01*
X0179324Y0069781D01*
X0178019Y0069781D01*
X0176813Y0069282D01*
X0175890Y0068359D01*
X0175390Y0067153D01*
X0175390Y0065847D01*
X0175890Y0064641D01*
X0176813Y0063718D01*
X0178019Y0063219D01*
X0179324Y0063219D01*
X0180530Y0063718D01*
X0181412Y0064600D01*
X0188371Y0064600D01*
X0188371Y0062962D01*
X0189133Y0062200D01*
X0210210Y0062200D01*
X0210871Y0062862D01*
X0210871Y0060138D01*
X0210210Y0060800D01*
X0189133Y0060800D01*
X0188371Y0060038D01*
X0188371Y0052962D01*
X0189133Y0052200D01*
X0197871Y0052200D01*
X0197871Y0044246D01*
X0196926Y0043300D01*
X0124477Y0043300D01*
X0124453Y0043359D01*
X0123530Y0044282D01*
X0122324Y0044781D01*
X0121019Y0044781D01*
X0119813Y0044282D01*
X0118890Y0043359D01*
X0118866Y0043300D01*
X0043810Y0043300D01*
X0044471Y0043962D01*
X0044471Y0044700D01*
X0093417Y0044700D01*
X0096471Y0047754D01*
X0096471Y0058754D01*
X0097417Y0059700D01*
X0098172Y0059700D01*
X0098171Y0059697D01*
X0098171Y0057000D01*
X0109171Y0057000D01*
X0109171Y0056000D01*
X0098171Y0056000D01*
X0098171Y0053303D01*
X0098274Y0052921D01*
X0098471Y0052579D01*
X0098750Y0052300D01*
X0099092Y0052102D01*
X0099474Y0052000D01*
X0109171Y0052000D01*
X0109171Y0056000D01*
X0110171Y0056000D01*
X0110171Y0052000D01*
X0119869Y0052000D01*
X0120250Y0052102D01*
X0120592Y0052300D01*
X0120872Y0052579D01*
X0121069Y0052921D01*
X0121171Y0053303D01*
X0121171Y0056000D01*
X0110171Y0056000D01*
X0110171Y0057000D01*
X0121171Y0057000D01*
X0121171Y0059697D01*
X0121171Y0059700D01*
X0170417Y0059700D01*
X0172417Y0061700D01*
X0173471Y0062754D01*
X0173471Y0093754D01*
X0174417Y0094700D01*
X0188371Y0094700D01*
X0188371Y0092962D01*
X0189133Y0092200D01*
X0210210Y0092200D01*
X0210971Y0092962D01*
X0210971Y0100038D01*
X0210210Y0100800D01*
X0189133Y0100800D01*
X0188371Y0100038D01*
X0188371Y0098300D01*
X0172926Y0098300D01*
X0171871Y0097246D01*
X0170471Y0095846D01*
X0170471Y0103754D01*
X0171417Y0104700D01*
X0188371Y0104700D01*
X0188371Y0102962D01*
X0189133Y0102200D01*
X0210210Y0102200D01*
X0210971Y0102962D01*
X0210971Y0110038D01*
X0210210Y0110800D01*
X0189133Y0110800D01*
X0188371Y0110038D01*
X0188371Y0108300D01*
X0169926Y0108300D01*
X0168871Y0107246D01*
X0166871Y0105246D01*
X0166871Y0074246D01*
X0165926Y0073300D01*
X0150020Y0073300D01*
X0151030Y0073718D01*
X0151953Y0074641D01*
X0152452Y0075847D01*
X0152452Y0077153D01*
X0151953Y0078359D01*
X0151030Y0079282D01*
X0149824Y0079781D01*
X0148519Y0079781D01*
X0147313Y0079282D01*
X0146431Y0078400D01*
X0120971Y0078400D01*
X0120971Y0080038D01*
X0120210Y0080800D01*
X0099133Y0080800D01*
X0098371Y0080038D01*
X0098371Y0078300D01*
X0086926Y0078300D01*
X0085871Y0077246D01*
X0084471Y0075846D01*
X0084471Y0118754D01*
X0085417Y0119700D01*
X0098371Y0119700D01*
X0098371Y0112962D01*
X0099133Y0112200D01*
X0120210Y0112200D01*
X0120971Y0112962D01*
X0120971Y0114600D01*
X0125631Y0114600D01*
X0125390Y0114359D01*
X0124890Y0113153D01*
X0124890Y0111847D01*
X0125390Y0110641D01*
X0126313Y0109718D01*
X0127519Y0109219D01*
X0128824Y0109219D01*
X0130030Y0109718D01*
X0130912Y0110600D01*
X0132082Y0110600D01*
X0131313Y0110282D01*
X0130390Y0109359D01*
X0129890Y0108153D01*
X0129890Y0106847D01*
X0130390Y0105641D01*
X0131271Y0104760D01*
X0131271Y0098787D01*
X0130884Y0098400D01*
X0120971Y0098400D01*
X0120971Y0100038D01*
X0120210Y0100800D01*
X0099133Y0100800D01*
X0098371Y0100038D01*
X0098371Y0092962D01*
X0099133Y0092200D01*
X0120210Y0092200D01*
X0120971Y0092962D01*
X0120971Y0094600D01*
X0132458Y0094600D01*
X0133571Y0095713D01*
X0135071Y0097213D01*
X0135071Y0104760D01*
X0135271Y0104960D01*
X0135271Y0089287D01*
X0134384Y0088400D01*
X0120971Y0088400D01*
X0120971Y0090038D01*
X0120210Y0090800D01*
X0099133Y0090800D01*
X0098371Y0090038D01*
X0098371Y0082962D01*
X0099133Y0082200D01*
X0120210Y0082200D01*
X0120971Y0082962D01*
X0120971Y0084600D01*
X0135958Y0084600D01*
X0137958Y0086600D01*
X0139071Y0087713D01*
X0139071Y0111787D01*
X0137571Y0113287D01*
X0136458Y0114400D01*
X0130912Y0114400D01*
X0130712Y0114600D01*
X0138431Y0114600D01*
X0139313Y0113718D01*
X0140519Y0113219D01*
X0141824Y0113219D01*
X0143030Y0113718D01*
X0143953Y0114641D01*
X0144452Y0115847D01*
X0144452Y0117153D01*
X0143953Y0118359D01*
X0143030Y0119282D01*
X0142020Y0119700D01*
X0180926Y0119700D01*
X0184871Y0115754D01*
X0185926Y0114700D01*
X0188371Y0114700D01*
X0188371Y0112962D01*
X0189133Y0112200D01*
X0210210Y0112200D01*
X0210971Y0112962D01*
X0210971Y0120038D01*
X0210210Y0120800D01*
X0189133Y0120800D01*
X0188371Y0120038D01*
X0188371Y0118300D01*
X0187417Y0118300D01*
X0182417Y0123300D01*
X0120971Y0123300D01*
X0120971Y0129700D01*
X0180926Y0129700D01*
X0184871Y0125754D01*
X0185926Y0124700D01*
X0188371Y0124700D01*
X0188371Y0122962D01*
X0189133Y0122200D01*
X0210210Y0122200D01*
X0210971Y0122962D01*
X0210971Y0130038D01*
X0210210Y0130800D01*
X0189133Y0130800D01*
X0188371Y0130038D01*
X0188371Y0128300D01*
X0187417Y0128300D01*
X0182417Y0133300D01*
X0120971Y0133300D01*
X0120971Y0139700D01*
X0180926Y0139700D01*
X0184871Y0135754D01*
X0185926Y0134700D01*
X0188371Y0134700D01*
X0188371Y0132962D01*
X0189133Y0132200D01*
X0210210Y0132200D01*
X0210971Y0132962D01*
X0210971Y0140038D01*
X0210210Y0140800D01*
X0189133Y0140800D01*
X0188371Y0140038D01*
X0188371Y0138300D01*
X0187417Y0138300D01*
X0182417Y0143300D01*
X0120971Y0143300D01*
X0120971Y0150038D01*
X0120210Y0150800D01*
X0099133Y0150800D01*
X0098371Y0150038D01*
X0098371Y0148300D01*
X0068926Y0148300D01*
X0067871Y0147246D01*
X0066471Y0145846D01*
X0066471Y0155652D01*
X0066890Y0154641D01*
X0067813Y0153718D01*
X0069019Y0153219D01*
X0070324Y0153219D01*
X0071530Y0153718D01*
X0072453Y0154641D01*
X0072477Y0154700D01*
X0098371Y0154700D01*
X0098371Y0152962D01*
X0099133Y0152200D01*
X0120210Y0152200D01*
X0120971Y0152962D01*
X0120971Y0159700D01*
X0122426Y0159700D01*
X0123371Y0158754D01*
X0123371Y0147754D01*
X0125371Y0145754D01*
X0126426Y0144700D01*
X0183366Y0144700D01*
X0183390Y0144641D01*
X0184313Y0143718D01*
X0185519Y0143219D01*
X0186824Y0143219D01*
X0188030Y0143718D01*
X0188371Y0144060D01*
X0188371Y0142962D01*
X0189133Y0142200D01*
X0210210Y0142200D01*
X0210971Y0142962D01*
X0210971Y0150038D01*
X0210210Y0150800D01*
X0189133Y0150800D01*
X0188371Y0150038D01*
X0188371Y0148940D01*
X0188030Y0149282D01*
X0186824Y0149781D01*
X0185519Y0149781D01*
X0184313Y0149282D01*
X0183390Y0148359D01*
X0183366Y0148300D01*
X0127917Y0148300D01*
X0126971Y0149246D01*
X0126971Y0156654D01*
X0127871Y0155754D01*
X0128926Y0154700D01*
X0188371Y0154700D01*
X0188371Y0152962D01*
X0189133Y0152200D01*
X0210210Y0152200D01*
X0210971Y0152962D01*
X0210971Y0154700D01*
X0214417Y0154700D01*
X0215471Y0155754D01*
X0216971Y0157254D01*
X0216971Y0183746D01*
X0215917Y0184800D01*
X0214417Y0186300D01*
X0197917Y0186300D01*
X0196971Y0187246D01*
X0196971Y0226633D01*
X0197066Y0226539D01*
X0206804Y0226539D01*
X0207566Y0227300D01*
X0207566Y0233889D01*
X0206804Y0234650D01*
X0197066Y0234650D01*
X0196971Y0234556D01*
X0196971Y0288444D01*
X0197066Y0288350D01*
X0206804Y0288350D01*
X0207566Y0289111D01*
X0207566Y0295700D01*
X0206804Y0296461D01*
X0197066Y0296461D01*
X0196911Y0296306D01*
X0193917Y0299300D01*
X0061917Y0299300D01*
X0061471Y0299746D01*
X0061471Y0304246D01*
X0060417Y0305300D01*
X0058917Y0306800D01*
X0056971Y0306800D01*
X0056971Y0307538D01*
X0056310Y0308200D01*
X0058417Y0308200D01*
X0059917Y0309700D01*
X0060971Y0310754D01*
X0060971Y0317746D01*
X0059471Y0319246D01*
X0058417Y0320300D01*
X0041926Y0320300D01*
X0040426Y0318800D01*
X0039371Y0317746D01*
X0039371Y0233300D01*
X0031483Y0233300D01*
X0031483Y0234007D01*
X0030722Y0234768D01*
X0025314Y0234768D01*
X0024671Y0234126D01*
X0024029Y0234768D01*
X0023071Y0234768D01*
X0023071Y0236260D01*
X0023953Y0237141D01*
X0039371Y0237141D01*
X0039371Y0236143D02*
X0023071Y0236143D01*
X0023071Y0235144D02*
X0039371Y0235144D01*
X0039371Y0234146D02*
X0031344Y0234146D01*
X0028018Y0231500D02*
X0041171Y0231500D01*
X0041171Y0317000D01*
X0042671Y0318500D01*
X0057671Y0318500D01*
X0059171Y0317000D01*
X0059171Y0311500D01*
X0057671Y0310000D01*
X0046671Y0310000D01*
X0045171Y0308500D01*
X0045171Y0286000D01*
X0046171Y0285000D01*
X0052171Y0285000D01*
X0056971Y0285070D02*
X0084371Y0285070D01*
X0084371Y0286068D02*
X0056971Y0286068D01*
X0056971Y0287067D02*
X0084371Y0287067D01*
X0084371Y0288065D02*
X0056445Y0288065D01*
X0056210Y0288300D02*
X0048133Y0288300D01*
X0047371Y0287538D01*
X0047371Y0286800D01*
X0046971Y0286800D01*
X0046971Y0307754D01*
X0047417Y0308200D01*
X0048033Y0308200D01*
X0047371Y0307538D01*
X0047371Y0302462D01*
X0048133Y0301700D01*
X0056210Y0301700D01*
X0056971Y0302462D01*
X0056971Y0303200D01*
X0057426Y0303200D01*
X0057871Y0302754D01*
X0057871Y0298254D01*
X0059326Y0296800D01*
X0056971Y0296800D01*
X0056971Y0297538D01*
X0056210Y0298300D01*
X0048133Y0298300D01*
X0047371Y0297538D01*
X0047371Y0292462D01*
X0048133Y0291700D01*
X0056210Y0291700D01*
X0056971Y0292462D01*
X0056971Y0293200D01*
X0085826Y0293200D01*
X0084371Y0291746D01*
X0084371Y0246746D01*
X0083926Y0246300D01*
X0083483Y0246300D01*
X0083483Y0247007D01*
X0082722Y0247768D01*
X0077314Y0247768D01*
X0076671Y0247126D01*
X0076672Y0247126D01*
X0076671Y0247126D02*
X0076029Y0247768D01*
X0075231Y0247768D01*
X0075231Y0250231D01*
X0076029Y0250231D01*
X0076563Y0250765D01*
X0076652Y0250610D01*
X0076931Y0250331D01*
X0077273Y0250134D01*
X0077655Y0250031D01*
X0079534Y0250031D01*
X0079534Y0253016D01*
X0080502Y0253016D01*
X0080502Y0253984D01*
X0083683Y0253984D01*
X0083683Y0255666D01*
X0083581Y0256047D01*
X0083383Y0256390D01*
X0083104Y0256669D01*
X0082762Y0256866D01*
X0082381Y0256968D01*
X0080502Y0256968D01*
X0080502Y0253984D01*
X0079534Y0253984D01*
X0079534Y0256968D01*
X0077655Y0256968D01*
X0077273Y0256866D01*
X0076931Y0256669D01*
X0076652Y0256390D01*
X0076563Y0256235D01*
X0076029Y0256768D01*
X0075231Y0256768D01*
X0075231Y0259991D01*
X0075544Y0259991D01*
X0076306Y0260753D01*
X0076306Y0265373D01*
X0075544Y0266135D01*
X0071318Y0266135D01*
X0070556Y0265373D01*
X0070556Y0260753D01*
X0071318Y0259991D01*
X0071631Y0259991D01*
X0071631Y0256768D01*
X0070621Y0256768D01*
X0069860Y0256007D01*
X0069860Y0250993D01*
X0070621Y0250231D01*
X0071631Y0250231D01*
X0071631Y0247768D01*
X0070621Y0247768D01*
X0069860Y0247007D01*
X0069860Y0241993D01*
X0070621Y0241231D01*
X0076029Y0241231D01*
X0076671Y0241874D01*
X0077314Y0241231D01*
X0082722Y0241231D01*
X0083483Y0241993D01*
X0083483Y0242700D01*
X0085417Y0242700D01*
X0086917Y0244200D01*
X0087971Y0245254D01*
X0087971Y0290254D01*
X0088417Y0290700D01*
X0155926Y0290700D01*
X0156371Y0290254D01*
X0156371Y0283254D01*
X0157871Y0281754D01*
X0158926Y0280700D01*
X0188426Y0280700D01*
X0189371Y0279754D01*
X0189371Y0201761D01*
X0189324Y0201781D01*
X0188019Y0201781D01*
X0186813Y0201282D01*
X0185890Y0200359D01*
X0185390Y0199153D01*
X0185390Y0197847D01*
X0185890Y0196641D01*
X0186813Y0195718D01*
X0188019Y0195219D01*
X0189324Y0195219D01*
X0190530Y0195718D01*
X0191371Y0196560D01*
X0191371Y0183754D01*
X0193371Y0181754D01*
X0194326Y0180800D01*
X0189133Y0180800D01*
X0188471Y0180138D01*
X0188471Y0188156D01*
X0187969Y0189369D01*
X0187041Y0190298D01*
X0183541Y0193798D01*
X0182328Y0194300D01*
X0051771Y0194300D01*
X0051771Y0226460D01*
X0052453Y0227141D01*
X0052952Y0228347D01*
X0052952Y0229653D01*
X0052453Y0230859D01*
X0051530Y0231782D01*
X0050324Y0232281D01*
X0049019Y0232281D01*
X0048960Y0232257D01*
X0047917Y0233300D01*
X0042971Y0233300D01*
X0042971Y0316254D01*
X0043417Y0316700D01*
X0047171Y0316700D01*
X0047171Y0315500D01*
X0051671Y0315500D01*
X0051671Y0314500D01*
X0047171Y0314500D01*
X0047171Y0312803D01*
X0047274Y0312421D01*
X0047471Y0312079D01*
X0047750Y0311800D01*
X0045926Y0311800D01*
X0044871Y0310746D01*
X0043371Y0309246D01*
X0043371Y0285254D01*
X0044426Y0284200D01*
X0045426Y0283200D01*
X0047371Y0283200D01*
X0047371Y0282462D01*
X0048133Y0281700D01*
X0056210Y0281700D01*
X0056971Y0282462D01*
X0056971Y0287538D01*
X0056210Y0288300D01*
X0056971Y0284071D02*
X0084371Y0284071D01*
X0084371Y0283073D02*
X0056971Y0283073D01*
X0056584Y0282074D02*
X0084371Y0282074D01*
X0084371Y0281076D02*
X0042971Y0281076D01*
X0042971Y0282074D02*
X0047759Y0282074D01*
X0047371Y0283073D02*
X0042971Y0283073D01*
X0042971Y0284071D02*
X0044555Y0284071D01*
X0043556Y0285070D02*
X0042971Y0285070D01*
X0042971Y0286068D02*
X0043371Y0286068D01*
X0043371Y0287067D02*
X0042971Y0287067D01*
X0042971Y0288065D02*
X0043371Y0288065D01*
X0043371Y0289064D02*
X0042971Y0289064D01*
X0042971Y0290062D02*
X0043371Y0290062D01*
X0043371Y0291061D02*
X0042971Y0291061D01*
X0042971Y0292059D02*
X0043371Y0292059D01*
X0043371Y0293058D02*
X0042971Y0293058D01*
X0042971Y0294056D02*
X0043371Y0294056D01*
X0043371Y0295055D02*
X0042971Y0295055D01*
X0042971Y0296053D02*
X0043371Y0296053D01*
X0043371Y0297052D02*
X0042971Y0297052D01*
X0042971Y0298050D02*
X0043371Y0298050D01*
X0043371Y0299049D02*
X0042971Y0299049D01*
X0042971Y0300047D02*
X0043371Y0300047D01*
X0043371Y0301046D02*
X0042971Y0301046D01*
X0042971Y0302044D02*
X0043371Y0302044D01*
X0043371Y0303043D02*
X0042971Y0303043D01*
X0042971Y0304041D02*
X0043371Y0304041D01*
X0043371Y0305040D02*
X0042971Y0305040D01*
X0042971Y0306039D02*
X0043371Y0306039D01*
X0043371Y0307037D02*
X0042971Y0307037D01*
X0042971Y0308036D02*
X0043371Y0308036D01*
X0043371Y0309034D02*
X0042971Y0309034D01*
X0042971Y0310033D02*
X0044158Y0310033D01*
X0045157Y0311031D02*
X0042971Y0311031D01*
X0042971Y0312030D02*
X0047520Y0312030D01*
X0047171Y0313028D02*
X0042971Y0313028D01*
X0043171Y0313500D02*
X0043171Y0276000D01*
X0081671Y0276000D01*
X0083171Y0274500D01*
X0083171Y0265000D01*
X0080912Y0262740D01*
X0080912Y0263063D01*
X0081199Y0263103D02*
X0084371Y0263103D01*
X0083986Y0263350D02*
X0083986Y0265032D01*
X0083884Y0265414D01*
X0083687Y0265756D01*
X0083407Y0266035D01*
X0083065Y0266232D01*
X0082684Y0266335D01*
X0081199Y0266335D01*
X0081199Y0263350D01*
X0083986Y0263350D01*
X0083986Y0262776D02*
X0081199Y0262776D01*
X0081199Y0263350D01*
X0080624Y0263350D01*
X0080624Y0262776D01*
X0077837Y0262776D01*
X0077837Y0261094D01*
X0077939Y0260712D01*
X0078136Y0260370D01*
X0078416Y0260091D01*
X0078758Y0259894D01*
X0079139Y0259791D01*
X0080624Y0259791D01*
X0080624Y0262776D01*
X0081199Y0262776D01*
X0081199Y0259791D01*
X0082684Y0259791D01*
X0083065Y0259894D01*
X0083407Y0260091D01*
X0083687Y0260370D01*
X0083884Y0260712D01*
X0083986Y0261094D01*
X0083986Y0262776D01*
X0083986Y0262104D02*
X0084371Y0262104D01*
X0084371Y0261105D02*
X0083986Y0261105D01*
X0084371Y0260107D02*
X0083423Y0260107D01*
X0084371Y0259108D02*
X0075231Y0259108D01*
X0075231Y0258110D02*
X0084371Y0258110D01*
X0084371Y0257111D02*
X0075231Y0257111D01*
X0075660Y0260107D02*
X0078400Y0260107D01*
X0077837Y0261105D02*
X0076306Y0261105D01*
X0076306Y0262104D02*
X0077837Y0262104D01*
X0077837Y0263350D02*
X0080624Y0263350D01*
X0080624Y0266335D01*
X0079139Y0266335D01*
X0078758Y0266232D01*
X0078416Y0266035D01*
X0078136Y0265756D01*
X0077939Y0265414D01*
X0077837Y0265032D01*
X0077837Y0263350D01*
X0077837Y0264101D02*
X0076306Y0264101D01*
X0076306Y0263103D02*
X0080624Y0263103D01*
X0080912Y0262740D02*
X0080912Y0253394D01*
X0080018Y0253500D01*
X0080502Y0253117D02*
X0084371Y0253117D01*
X0083683Y0253016D02*
X0080502Y0253016D01*
X0080502Y0250031D01*
X0082381Y0250031D01*
X0082762Y0250134D01*
X0083104Y0250331D01*
X0083383Y0250610D01*
X0083581Y0250953D01*
X0083683Y0251334D01*
X0083683Y0253016D01*
X0083683Y0252119D02*
X0084371Y0252119D01*
X0084371Y0251120D02*
X0083626Y0251120D01*
X0084371Y0250122D02*
X0082718Y0250122D01*
X0084371Y0249123D02*
X0075231Y0249123D01*
X0075231Y0248125D02*
X0084371Y0248125D01*
X0084371Y0247126D02*
X0083364Y0247126D01*
X0084671Y0244500D02*
X0086171Y0246000D01*
X0086171Y0291000D01*
X0087671Y0292500D01*
X0156671Y0292500D01*
X0158171Y0291000D01*
X0158171Y0284000D01*
X0159671Y0282500D01*
X0189171Y0282500D01*
X0191171Y0280500D01*
X0191171Y0201000D01*
X0188671Y0198500D01*
X0186329Y0196202D02*
X0162478Y0196202D01*
X0162453Y0196141D02*
X0162952Y0197347D01*
X0162952Y0198653D01*
X0162453Y0199859D01*
X0161571Y0200740D01*
X0161571Y0225287D01*
X0159458Y0227400D01*
X0156071Y0227400D01*
X0156071Y0242600D01*
X0156147Y0242600D01*
X0156147Y0242458D01*
X0156396Y0242209D01*
X0156147Y0241960D01*
X0156147Y0238127D01*
X0156396Y0237878D01*
X0156147Y0237629D01*
X0156147Y0233796D01*
X0156908Y0233035D01*
X0160084Y0233035D01*
X0160084Y0227300D01*
X0160845Y0226539D01*
X0168222Y0226539D01*
X0168983Y0227300D01*
X0168983Y0233889D01*
X0168222Y0234650D01*
X0166621Y0234650D01*
X0166621Y0237629D01*
X0166372Y0237878D01*
X0166621Y0238127D01*
X0166621Y0241960D01*
X0166372Y0242209D01*
X0166621Y0242458D01*
X0166621Y0246290D01*
X0166513Y0246398D01*
X0166521Y0246406D01*
X0166719Y0246748D01*
X0166821Y0247129D01*
X0166821Y0248516D01*
X0161573Y0248516D01*
X0161573Y0248894D01*
X0166821Y0248894D01*
X0166821Y0250280D01*
X0166719Y0250662D01*
X0166521Y0251004D01*
X0166513Y0251011D01*
X0166621Y0251119D01*
X0166621Y0254952D01*
X0166372Y0255201D01*
X0166621Y0255450D01*
X0166621Y0259283D01*
X0166372Y0259531D01*
X0166441Y0259600D01*
X0167431Y0259600D01*
X0168313Y0258718D01*
X0169519Y0258219D01*
X0170824Y0258219D01*
X0172030Y0258718D01*
X0172953Y0259641D01*
X0173452Y0260847D01*
X0173452Y0262153D01*
X0172953Y0263359D01*
X0172030Y0264282D01*
X0170824Y0264781D01*
X0169519Y0264781D01*
X0168313Y0264282D01*
X0167431Y0263400D01*
X0166621Y0263400D01*
X0166621Y0263613D01*
X0166372Y0263862D01*
X0166621Y0264111D01*
X0166621Y0267944D01*
X0166372Y0268193D01*
X0166621Y0268442D01*
X0166621Y0272275D01*
X0165859Y0273036D01*
X0156908Y0273036D01*
X0156147Y0272275D01*
X0156147Y0268442D01*
X0156396Y0268193D01*
X0156147Y0267944D01*
X0156147Y0267928D01*
X0141912Y0267928D01*
X0140384Y0266400D01*
X0139271Y0265287D01*
X0139271Y0202240D01*
X0138390Y0201359D01*
X0137890Y0200153D01*
X0137890Y0198847D01*
X0138390Y0197641D01*
X0139313Y0196718D01*
X0140519Y0196219D01*
X0141824Y0196219D01*
X0143030Y0196718D01*
X0143953Y0197641D01*
X0144452Y0198847D01*
X0144452Y0200153D01*
X0143953Y0201359D01*
X0143071Y0202240D01*
X0143071Y0254960D01*
X0143313Y0254718D01*
X0144519Y0254219D01*
X0145824Y0254219D01*
X0147030Y0254718D01*
X0147778Y0255466D01*
X0156147Y0255466D01*
X0156147Y0255450D01*
X0156396Y0255201D01*
X0156147Y0254952D01*
X0156147Y0254935D01*
X0148920Y0254935D01*
X0146884Y0252900D01*
X0145771Y0251787D01*
X0145771Y0200213D01*
X0145890Y0200094D01*
X0145890Y0198847D01*
X0146390Y0197641D01*
X0147313Y0196718D01*
X0148519Y0196219D01*
X0149824Y0196219D01*
X0151030Y0196718D01*
X0151953Y0197641D01*
X0152452Y0198847D01*
X0152452Y0200153D01*
X0151953Y0201359D01*
X0151030Y0202282D01*
X0149824Y0202781D01*
X0149571Y0202781D01*
X0149571Y0250213D01*
X0150494Y0251135D01*
X0156147Y0251135D01*
X0156147Y0251119D01*
X0156254Y0251011D01*
X0156247Y0251004D01*
X0156049Y0250662D01*
X0155947Y0250280D01*
X0155947Y0248894D01*
X0161195Y0248894D01*
X0161195Y0248516D01*
X0155947Y0248516D01*
X0155947Y0247129D01*
X0156049Y0246748D01*
X0156247Y0246406D01*
X0156252Y0246400D01*
X0154384Y0246400D01*
X0153384Y0245400D01*
X0152271Y0244287D01*
X0152271Y0225713D01*
X0153271Y0224713D01*
X0154384Y0223600D01*
X0157771Y0223600D01*
X0157771Y0200740D01*
X0156890Y0199859D01*
X0156390Y0198653D01*
X0156390Y0197347D01*
X0156890Y0196141D01*
X0157813Y0195218D01*
X0159019Y0194719D01*
X0160324Y0194719D01*
X0161530Y0195218D01*
X0162453Y0196141D01*
X0162892Y0197201D02*
X0185658Y0197201D01*
X0185390Y0198199D02*
X0162952Y0198199D01*
X0162727Y0199198D02*
X0185409Y0199198D01*
X0185823Y0200196D02*
X0162115Y0200196D01*
X0161571Y0201195D02*
X0186726Y0201195D01*
X0189371Y0202193D02*
X0161571Y0202193D01*
X0161571Y0203192D02*
X0189371Y0203192D01*
X0189371Y0204190D02*
X0161571Y0204190D01*
X0161571Y0205189D02*
X0189371Y0205189D01*
X0189371Y0206187D02*
X0161571Y0206187D01*
X0161571Y0207186D02*
X0189371Y0207186D01*
X0189371Y0208184D02*
X0161571Y0208184D01*
X0161571Y0209183D02*
X0189371Y0209183D01*
X0189371Y0210181D02*
X0161571Y0210181D01*
X0161571Y0211180D02*
X0189371Y0211180D01*
X0189371Y0212178D02*
X0161571Y0212178D01*
X0161571Y0213177D02*
X0189371Y0213177D01*
X0189371Y0214175D02*
X0161571Y0214175D01*
X0161571Y0215174D02*
X0189371Y0215174D01*
X0189371Y0216172D02*
X0161571Y0216172D01*
X0161571Y0217171D02*
X0189371Y0217171D01*
X0189371Y0218170D02*
X0161571Y0218170D01*
X0161571Y0219168D02*
X0189371Y0219168D01*
X0189371Y0220167D02*
X0161571Y0220167D01*
X0161571Y0221165D02*
X0189371Y0221165D01*
X0189371Y0222164D02*
X0161571Y0222164D01*
X0161571Y0223162D02*
X0189371Y0223162D01*
X0189371Y0224161D02*
X0161571Y0224161D01*
X0161571Y0225159D02*
X0189371Y0225159D01*
X0189371Y0226158D02*
X0160701Y0226158D01*
X0160228Y0227156D02*
X0159702Y0227156D01*
X0160084Y0228155D02*
X0156071Y0228155D01*
X0156071Y0229153D02*
X0160084Y0229153D01*
X0160084Y0230152D02*
X0156071Y0230152D01*
X0156071Y0231150D02*
X0160084Y0231150D01*
X0160084Y0232149D02*
X0156071Y0232149D01*
X0156071Y0233147D02*
X0156796Y0233147D01*
X0156147Y0234146D02*
X0156071Y0234146D01*
X0156071Y0235144D02*
X0156147Y0235144D01*
X0156147Y0236143D02*
X0156071Y0236143D01*
X0156071Y0237141D02*
X0156147Y0237141D01*
X0156147Y0238140D02*
X0156071Y0238140D01*
X0156071Y0239138D02*
X0156147Y0239138D01*
X0156147Y0240137D02*
X0156071Y0240137D01*
X0156071Y0241135D02*
X0156147Y0241135D01*
X0156071Y0242134D02*
X0156321Y0242134D01*
X0153114Y0245129D02*
X0149571Y0245129D01*
X0149571Y0244131D02*
X0152271Y0244131D01*
X0152271Y0243132D02*
X0149571Y0243132D01*
X0149571Y0242134D02*
X0152271Y0242134D01*
X0152271Y0241135D02*
X0149571Y0241135D01*
X0149571Y0240137D02*
X0152271Y0240137D01*
X0152271Y0239138D02*
X0149571Y0239138D01*
X0149571Y0238140D02*
X0152271Y0238140D01*
X0152271Y0237141D02*
X0149571Y0237141D01*
X0149571Y0236143D02*
X0152271Y0236143D01*
X0152271Y0235144D02*
X0149571Y0235144D01*
X0149571Y0234146D02*
X0152271Y0234146D01*
X0152271Y0233147D02*
X0149571Y0233147D01*
X0149571Y0232149D02*
X0152271Y0232149D01*
X0152271Y0231150D02*
X0149571Y0231150D01*
X0149571Y0230152D02*
X0152271Y0230152D01*
X0152271Y0229153D02*
X0149571Y0229153D01*
X0149571Y0228155D02*
X0152271Y0228155D01*
X0152271Y0227156D02*
X0149571Y0227156D01*
X0149571Y0226158D02*
X0152271Y0226158D01*
X0152825Y0225159D02*
X0149571Y0225159D01*
X0149571Y0224161D02*
X0153824Y0224161D01*
X0157771Y0223162D02*
X0149571Y0223162D01*
X0149571Y0222164D02*
X0157771Y0222164D01*
X0157771Y0221165D02*
X0149571Y0221165D01*
X0149571Y0220167D02*
X0157771Y0220167D01*
X0157771Y0219168D02*
X0149571Y0219168D01*
X0149571Y0218170D02*
X0157771Y0218170D01*
X0157771Y0217171D02*
X0149571Y0217171D01*
X0149571Y0216172D02*
X0157771Y0216172D01*
X0157771Y0215174D02*
X0149571Y0215174D01*
X0149571Y0214175D02*
X0157771Y0214175D01*
X0157771Y0213177D02*
X0149571Y0213177D01*
X0149571Y0212178D02*
X0157771Y0212178D01*
X0157771Y0211180D02*
X0149571Y0211180D01*
X0149571Y0210181D02*
X0157771Y0210181D01*
X0157771Y0209183D02*
X0149571Y0209183D01*
X0149571Y0208184D02*
X0157771Y0208184D01*
X0157771Y0207186D02*
X0149571Y0207186D01*
X0149571Y0206187D02*
X0157771Y0206187D01*
X0157771Y0205189D02*
X0149571Y0205189D01*
X0149571Y0204190D02*
X0157771Y0204190D01*
X0157771Y0203192D02*
X0149571Y0203192D01*
X0151118Y0202193D02*
X0157771Y0202193D01*
X0157771Y0201195D02*
X0152021Y0201195D01*
X0152434Y0200196D02*
X0157228Y0200196D01*
X0156616Y0199198D02*
X0152452Y0199198D01*
X0152184Y0198199D02*
X0156390Y0198199D01*
X0156451Y0197201D02*
X0151512Y0197201D01*
X0153671Y0196500D02*
X0152171Y0195000D01*
X0055671Y0195000D01*
X0054171Y0196500D01*
X0054171Y0210500D01*
X0054171Y0231500D01*
X0052171Y0233500D01*
X0045171Y0233500D01*
X0043171Y0235500D01*
X0043171Y0276000D01*
X0042971Y0276083D02*
X0084371Y0276083D01*
X0084371Y0275085D02*
X0042971Y0275085D01*
X0042971Y0274086D02*
X0074742Y0274086D01*
X0075058Y0274402D02*
X0074297Y0273641D01*
X0074297Y0273600D01*
X0069302Y0273600D01*
X0068071Y0272370D01*
X0064802Y0269100D01*
X0056971Y0269100D01*
X0056971Y0269538D01*
X0056210Y0270300D01*
X0048133Y0270300D01*
X0047371Y0269538D01*
X0047371Y0264462D01*
X0048133Y0263700D01*
X0056210Y0263700D01*
X0056971Y0264462D01*
X0056971Y0264900D01*
X0066541Y0264900D01*
X0071041Y0269400D01*
X0074297Y0269400D01*
X0074297Y0269021D01*
X0075058Y0268259D01*
X0079285Y0268259D01*
X0080046Y0269021D01*
X0080046Y0273641D01*
X0079285Y0274402D01*
X0075058Y0274402D01*
X0077002Y0271500D02*
X0077171Y0271331D01*
X0080046Y0271091D02*
X0084371Y0271091D01*
X0084371Y0272089D02*
X0080046Y0272089D01*
X0080046Y0273088D02*
X0084371Y0273088D01*
X0084371Y0274086D02*
X0079601Y0274086D01*
X0080046Y0270092D02*
X0084371Y0270092D01*
X0084371Y0269094D02*
X0080046Y0269094D01*
X0080624Y0266098D02*
X0081199Y0266098D01*
X0081199Y0265100D02*
X0080624Y0265100D01*
X0080624Y0264101D02*
X0081199Y0264101D01*
X0081199Y0262104D02*
X0080624Y0262104D01*
X0080624Y0261105D02*
X0081199Y0261105D01*
X0081199Y0260107D02*
X0080624Y0260107D01*
X0080502Y0256113D02*
X0079534Y0256113D01*
X0079534Y0255114D02*
X0080502Y0255114D01*
X0080502Y0254116D02*
X0079534Y0254116D01*
X0079534Y0252119D02*
X0080502Y0252119D01*
X0080502Y0251120D02*
X0079534Y0251120D01*
X0079534Y0250122D02*
X0080502Y0250122D01*
X0077318Y0250122D02*
X0075231Y0250122D01*
X0073431Y0253106D02*
X0073431Y0244894D01*
X0073325Y0244500D01*
X0069860Y0244131D02*
X0056641Y0244131D01*
X0056971Y0244462D02*
X0056971Y0249538D01*
X0056210Y0250300D01*
X0048133Y0250300D01*
X0047371Y0249538D01*
X0047371Y0244462D01*
X0048133Y0243700D01*
X0049731Y0243700D01*
X0049390Y0243359D01*
X0048890Y0242153D01*
X0048890Y0240847D01*
X0049390Y0239641D01*
X0050313Y0238718D01*
X0051519Y0238219D01*
X0052824Y0238219D01*
X0054030Y0238718D01*
X0054953Y0239641D01*
X0055452Y0240847D01*
X0055452Y0242153D01*
X0054953Y0243359D01*
X0054612Y0243700D01*
X0056210Y0243700D01*
X0056971Y0244462D01*
X0056971Y0245129D02*
X0069860Y0245129D01*
X0069860Y0246128D02*
X0056971Y0246128D01*
X0056971Y0247126D02*
X0069979Y0247126D01*
X0071631Y0248125D02*
X0056971Y0248125D01*
X0056971Y0249123D02*
X0071631Y0249123D01*
X0071631Y0250122D02*
X0056388Y0250122D01*
X0056210Y0253700D02*
X0056971Y0254462D01*
X0056971Y0259538D01*
X0056210Y0260300D01*
X0048133Y0260300D01*
X0047371Y0259538D01*
X0047371Y0254462D01*
X0048133Y0253700D01*
X0056210Y0253700D01*
X0056626Y0254116D02*
X0069860Y0254116D01*
X0069860Y0255114D02*
X0056971Y0255114D01*
X0056971Y0256113D02*
X0069966Y0256113D01*
X0071631Y0257111D02*
X0056971Y0257111D01*
X0056971Y0258110D02*
X0071631Y0258110D01*
X0071631Y0259108D02*
X0056971Y0259108D01*
X0056403Y0260107D02*
X0071202Y0260107D01*
X0070556Y0261105D02*
X0042971Y0261105D01*
X0042971Y0260107D02*
X0047940Y0260107D01*
X0047371Y0259108D02*
X0042971Y0259108D01*
X0042971Y0258110D02*
X0047371Y0258110D01*
X0047371Y0257111D02*
X0042971Y0257111D01*
X0042971Y0256113D02*
X0047371Y0256113D01*
X0047371Y0255114D02*
X0042971Y0255114D01*
X0042971Y0254116D02*
X0047717Y0254116D01*
X0047955Y0250122D02*
X0042971Y0250122D01*
X0042971Y0251120D02*
X0069860Y0251120D01*
X0069860Y0252119D02*
X0042971Y0252119D01*
X0042971Y0253117D02*
X0069860Y0253117D01*
X0073325Y0253500D02*
X0073431Y0253106D01*
X0073431Y0263063D01*
X0070556Y0263103D02*
X0042971Y0263103D01*
X0042971Y0264101D02*
X0047732Y0264101D01*
X0047371Y0265100D02*
X0042971Y0265100D01*
X0042971Y0266098D02*
X0047371Y0266098D01*
X0047371Y0267097D02*
X0042971Y0267097D01*
X0042971Y0268095D02*
X0047371Y0268095D01*
X0047371Y0269094D02*
X0042971Y0269094D01*
X0042971Y0270092D02*
X0047925Y0270092D01*
X0042971Y0271091D02*
X0066792Y0271091D01*
X0067791Y0272089D02*
X0042971Y0272089D01*
X0042971Y0273088D02*
X0068789Y0273088D01*
X0065794Y0270092D02*
X0056418Y0270092D01*
X0056611Y0264101D02*
X0070556Y0264101D01*
X0070556Y0265100D02*
X0066741Y0265100D01*
X0067739Y0266098D02*
X0071281Y0266098D01*
X0069736Y0268095D02*
X0084371Y0268095D01*
X0084371Y0267097D02*
X0068738Y0267097D01*
X0070735Y0269094D02*
X0074297Y0269094D01*
X0075581Y0266098D02*
X0078525Y0266098D01*
X0077855Y0265100D02*
X0076306Y0265100D01*
X0070556Y0262104D02*
X0042971Y0262104D01*
X0039371Y0262104D02*
X0007271Y0262104D01*
X0007271Y0261105D02*
X0039371Y0261105D01*
X0039371Y0260107D02*
X0007271Y0260107D01*
X0007271Y0259108D02*
X0039371Y0259108D01*
X0039371Y0258110D02*
X0007271Y0258110D01*
X0007271Y0257111D02*
X0039371Y0257111D01*
X0039371Y0256113D02*
X0007271Y0256113D01*
X0007271Y0255114D02*
X0039371Y0255114D01*
X0039371Y0254116D02*
X0007271Y0254116D01*
X0007271Y0253117D02*
X0039371Y0253117D01*
X0039371Y0252119D02*
X0007271Y0252119D01*
X0007271Y0251120D02*
X0039371Y0251120D01*
X0039371Y0250122D02*
X0007271Y0250122D01*
X0007271Y0249123D02*
X0039371Y0249123D01*
X0039371Y0248125D02*
X0007271Y0248125D01*
X0007271Y0247126D02*
X0039371Y0247126D01*
X0039371Y0246128D02*
X0007271Y0246128D01*
X0007271Y0245129D02*
X0039371Y0245129D01*
X0039371Y0244131D02*
X0007271Y0244131D01*
X0007271Y0243132D02*
X0039371Y0243132D01*
X0039371Y0242134D02*
X0022180Y0242134D01*
X0021824Y0242281D02*
X0020519Y0242281D01*
X0019313Y0241782D01*
X0018390Y0240859D01*
X0017890Y0239653D01*
X0017890Y0238347D01*
X0018390Y0237141D01*
X0007271Y0237141D01*
X0007271Y0236143D02*
X0019271Y0236143D01*
X0019271Y0236260D02*
X0019271Y0234768D01*
X0018621Y0234768D01*
X0017860Y0234007D01*
X0017860Y0228993D01*
X0018621Y0228231D01*
X0019525Y0228231D01*
X0019525Y0224768D01*
X0018621Y0224768D01*
X0017860Y0224007D01*
X0017860Y0218993D01*
X0018621Y0218231D01*
X0024029Y0218231D01*
X0024671Y0218874D01*
X0025314Y0218231D01*
X0030722Y0218231D01*
X0031483Y0218993D01*
X0031483Y0219700D01*
X0044926Y0219700D01*
X0045371Y0219254D01*
X0045371Y0204746D01*
X0044926Y0204300D01*
X0031680Y0204300D01*
X0031680Y0204873D01*
X0030918Y0205635D01*
X0026298Y0205635D01*
X0025537Y0204873D01*
X0025537Y0200647D01*
X0026298Y0199885D01*
X0030918Y0199885D01*
X0031680Y0200647D01*
X0031680Y0200700D01*
X0046417Y0200700D01*
X0047471Y0201754D01*
X0047571Y0201854D01*
X0047571Y0193567D01*
X0046874Y0192869D01*
X0044374Y0190369D01*
X0043871Y0189156D01*
X0043871Y0163867D01*
X0040170Y0160166D01*
X0040452Y0160847D01*
X0040452Y0162153D01*
X0039953Y0163359D01*
X0039030Y0164282D01*
X0037824Y0164781D01*
X0036519Y0164781D01*
X0035313Y0164282D01*
X0034431Y0163400D01*
X0031483Y0163400D01*
X0031483Y0164007D01*
X0030722Y0164768D01*
X0025314Y0164768D01*
X0024671Y0164126D01*
X0024029Y0164768D01*
X0023825Y0164768D01*
X0023825Y0168231D01*
X0024029Y0168231D01*
X0024671Y0168874D01*
X0025314Y0168231D01*
X0030722Y0168231D01*
X0031483Y0168993D01*
X0031483Y0169600D01*
X0034431Y0169600D01*
X0035313Y0168718D01*
X0036519Y0168219D01*
X0037824Y0168219D01*
X0039030Y0168718D01*
X0039953Y0169641D01*
X0040452Y0170847D01*
X0040452Y0172153D01*
X0039953Y0173359D01*
X0039030Y0174282D01*
X0037824Y0174781D01*
X0036519Y0174781D01*
X0035313Y0174282D01*
X0034431Y0173400D01*
X0031483Y0173400D01*
X0031483Y0174007D01*
X0030722Y0174768D01*
X0025314Y0174768D01*
X0024671Y0174126D01*
X0024029Y0174768D01*
X0023825Y0174768D01*
X0023825Y0178231D01*
X0024029Y0178231D01*
X0024671Y0178874D01*
X0025314Y0178231D01*
X0030722Y0178231D01*
X0031483Y0178993D01*
X0031483Y0179600D01*
X0034431Y0179600D01*
X0035313Y0178718D01*
X0036519Y0178219D01*
X0037824Y0178219D01*
X0039030Y0178718D01*
X0039953Y0179641D01*
X0040452Y0180847D01*
X0040452Y0182153D01*
X0039953Y0183359D01*
X0039030Y0184282D01*
X0037824Y0184781D01*
X0036519Y0184781D01*
X0035313Y0184282D01*
X0034431Y0183400D01*
X0031483Y0183400D01*
X0031483Y0184007D01*
X0030722Y0184768D01*
X0025314Y0184768D01*
X0024671Y0184126D01*
X0024029Y0184768D01*
X0023825Y0184768D01*
X0023825Y0188231D01*
X0024029Y0188231D01*
X0024671Y0188874D01*
X0025314Y0188231D01*
X0030722Y0188231D01*
X0031483Y0188993D01*
X0031483Y0189600D01*
X0034431Y0189600D01*
X0035313Y0188718D01*
X0036519Y0188219D01*
X0037824Y0188219D01*
X0039030Y0188718D01*
X0039953Y0189641D01*
X0040452Y0190847D01*
X0040452Y0192153D01*
X0039953Y0193359D01*
X0039030Y0194282D01*
X0037824Y0194781D01*
X0036519Y0194781D01*
X0035313Y0194282D01*
X0034431Y0193400D01*
X0031483Y0193400D01*
X0031483Y0194007D01*
X0030722Y0194768D01*
X0025314Y0194768D01*
X0024671Y0194126D01*
X0024029Y0194768D01*
X0023171Y0194768D01*
X0023171Y0204146D01*
X0023412Y0204387D01*
X0023412Y0208613D01*
X0022651Y0209375D01*
X0018031Y0209375D01*
X0017269Y0208613D01*
X0017269Y0204387D01*
X0018031Y0203625D01*
X0018171Y0203625D01*
X0018171Y0194319D01*
X0017860Y0194007D01*
X0017860Y0188993D01*
X0018621Y0188231D01*
X0018825Y0188231D01*
X0018825Y0184768D01*
X0018621Y0184768D01*
X0017860Y0184007D01*
X0017860Y0178993D01*
X0018621Y0178231D01*
X0018825Y0178231D01*
X0018825Y0174768D01*
X0018621Y0174768D01*
X0017860Y0174007D01*
X0017860Y0168993D01*
X0018621Y0168231D01*
X0018825Y0168231D01*
X0018825Y0164768D01*
X0018621Y0164768D01*
X0017860Y0164007D01*
X0017860Y0158993D01*
X0018621Y0158231D01*
X0024029Y0158231D01*
X0024671Y0158874D01*
X0025314Y0158231D01*
X0030722Y0158231D01*
X0031483Y0158993D01*
X0031483Y0159600D01*
X0034431Y0159600D01*
X0035313Y0158718D01*
X0036519Y0158219D01*
X0037824Y0158219D01*
X0038506Y0158501D01*
X0033874Y0153869D01*
X0033371Y0152656D01*
X0033371Y0139800D01*
X0029633Y0139800D01*
X0028871Y0139038D01*
X0028871Y0133962D01*
X0029633Y0133200D01*
X0033371Y0133200D01*
X0033371Y0129800D01*
X0029633Y0129800D01*
X0028871Y0129038D01*
X0028871Y0123962D01*
X0029533Y0123300D01*
X0024093Y0123300D01*
X0024372Y0123579D01*
X0024569Y0123921D01*
X0024671Y0124303D01*
X0024671Y0126000D01*
X0017171Y0126000D01*
X0017171Y0123000D01*
X0023369Y0123000D01*
X0023720Y0123094D01*
X0022871Y0122246D01*
X0020871Y0120246D01*
X0020871Y0119800D01*
X0009633Y0119800D01*
X0008871Y0119038D01*
X0008871Y0113962D01*
X0009633Y0113200D01*
X0023710Y0113200D01*
X0024471Y0113962D01*
X0024471Y0118754D01*
X0025417Y0119700D01*
X0029533Y0119700D01*
X0028871Y0119038D01*
X0028871Y0113962D01*
X0029533Y0113300D01*
X0023926Y0113300D01*
X0022871Y0112246D01*
X0020871Y0110246D01*
X0020871Y0109800D01*
X0009633Y0109800D01*
X0008871Y0109038D01*
X0008871Y0103962D01*
X0009633Y0103200D01*
X0023710Y0103200D01*
X0024471Y0103962D01*
X0024471Y0108754D01*
X0025417Y0109700D01*
X0029533Y0109700D01*
X0028871Y0109038D01*
X0028871Y0103962D01*
X0029533Y0103300D01*
X0023926Y0103300D01*
X0022871Y0102246D01*
X0020871Y0100246D01*
X0020871Y0099800D01*
X0009633Y0099800D01*
X0008871Y0099038D01*
X0008871Y0093962D01*
X0009633Y0093200D01*
X0023710Y0093200D01*
X0024471Y0093962D01*
X0024471Y0098754D01*
X0025417Y0099700D01*
X0029533Y0099700D01*
X0028871Y0099038D01*
X0028871Y0093962D01*
X0029533Y0093300D01*
X0023926Y0093300D01*
X0022871Y0092246D01*
X0020871Y0090246D01*
X0020871Y0089800D01*
X0009633Y0089800D01*
X0008871Y0089038D01*
X0008871Y0083962D01*
X0009633Y0083200D01*
X0023710Y0083200D01*
X0024471Y0083962D01*
X0024471Y0088754D01*
X0025417Y0089700D01*
X0029533Y0089700D01*
X0028871Y0089038D01*
X0028871Y0083962D01*
X0029533Y0083300D01*
X0023926Y0083300D01*
X0022871Y0082246D01*
X0020871Y0080246D01*
X0020871Y0079800D01*
X0009633Y0079800D01*
X0008871Y0079038D01*
X0008871Y0073962D01*
X0009633Y0073200D01*
X0023710Y0073200D01*
X0024471Y0073962D01*
X0024471Y0078754D01*
X0025417Y0079700D01*
X0029533Y0079700D01*
X0028871Y0079038D01*
X0028871Y0073962D01*
X0029533Y0073300D01*
X0023926Y0073300D01*
X0022871Y0072246D01*
X0020871Y0070246D01*
X0020871Y0069800D01*
X0009633Y0069800D01*
X0008871Y0069038D01*
X0008871Y0063962D01*
X0009633Y0063200D01*
X0023710Y0063200D01*
X0024471Y0063962D01*
X0024471Y0068754D01*
X0025417Y0069700D01*
X0029533Y0069700D01*
X0028871Y0069038D01*
X0028871Y0063962D01*
X0029533Y0063300D01*
X0023926Y0063300D01*
X0022871Y0062246D01*
X0020871Y0060246D01*
X0020871Y0059800D01*
X0009633Y0059800D01*
X0008871Y0059038D01*
X0008871Y0053962D01*
X0009633Y0053200D01*
X0023710Y0053200D01*
X0024471Y0053962D01*
X0024471Y0058754D01*
X0025417Y0059700D01*
X0029533Y0059700D01*
X0028871Y0059038D01*
X0028871Y0053962D01*
X0029533Y0053300D01*
X0023926Y0053300D01*
X0022871Y0052246D01*
X0020871Y0050246D01*
X0020871Y0049800D01*
X0009633Y0049800D01*
X0008871Y0049038D01*
X0008871Y0043962D01*
X0009633Y0043200D01*
X0023710Y0043200D01*
X0024471Y0043962D01*
X0024471Y0048754D01*
X0025417Y0049700D01*
X0029533Y0049700D01*
X0028871Y0049038D01*
X0028871Y0043962D01*
X0029533Y0043300D01*
X0023926Y0043300D01*
X0022871Y0042246D01*
X0020871Y0040246D01*
X0020871Y0039800D01*
X0009633Y0039800D01*
X0008871Y0039038D01*
X0008871Y0033962D01*
X0009633Y0033200D01*
X0023710Y0033200D01*
X0024471Y0033962D01*
X0024471Y0038754D01*
X0025417Y0039700D01*
X0029533Y0039700D01*
X0028871Y0039038D01*
X0028871Y0033962D01*
X0029633Y0033200D01*
X0029388Y0033445D02*
X0023955Y0033445D01*
X0024471Y0034443D02*
X0028871Y0034443D01*
X0028871Y0035442D02*
X0024471Y0035442D01*
X0024471Y0036440D02*
X0028871Y0036440D01*
X0028871Y0037439D02*
X0024471Y0037439D01*
X0024471Y0038437D02*
X0028871Y0038437D01*
X0029269Y0039436D02*
X0025153Y0039436D01*
X0024671Y0041500D02*
X0121671Y0041500D01*
X0122171Y0041500D02*
X0197671Y0041500D01*
X0199671Y0043500D01*
X0199671Y0056500D01*
X0197871Y0051418D02*
X0096471Y0051418D01*
X0096471Y0050420D02*
X0197871Y0050420D01*
X0197871Y0049421D02*
X0096471Y0049421D01*
X0096471Y0048423D02*
X0197871Y0048423D01*
X0197871Y0047424D02*
X0096141Y0047424D01*
X0095143Y0046426D02*
X0197871Y0046426D01*
X0197871Y0045427D02*
X0094144Y0045427D01*
X0092671Y0046500D02*
X0094671Y0048500D01*
X0094671Y0059500D01*
X0096671Y0061500D01*
X0169671Y0061500D01*
X0171671Y0063500D01*
X0171671Y0094500D01*
X0173671Y0096500D01*
X0199671Y0096500D01*
X0199671Y0106500D02*
X0170671Y0106500D01*
X0168671Y0104500D01*
X0168671Y0073500D01*
X0166671Y0071500D01*
X0090671Y0071500D01*
X0088671Y0069500D01*
X0088671Y0058500D01*
X0086671Y0056500D01*
X0036671Y0056500D01*
X0029418Y0053415D02*
X0023925Y0053415D01*
X0024471Y0054414D02*
X0028871Y0054414D01*
X0028871Y0055412D02*
X0024471Y0055412D01*
X0024471Y0056411D02*
X0028871Y0056411D01*
X0028871Y0057409D02*
X0024471Y0057409D01*
X0024471Y0058408D02*
X0028871Y0058408D01*
X0029239Y0059406D02*
X0025123Y0059406D01*
X0024671Y0061500D02*
X0083671Y0061500D01*
X0085671Y0063500D01*
X0085671Y0074500D01*
X0087671Y0076500D01*
X0109671Y0076500D01*
X0109671Y0066500D02*
X0094171Y0066500D01*
X0091671Y0064000D01*
X0091671Y0053500D01*
X0089671Y0051500D01*
X0024671Y0051500D01*
X0022671Y0049500D01*
X0022671Y0046500D01*
X0016671Y0046500D01*
X0021045Y0050420D02*
X0007271Y0050420D01*
X0007271Y0051418D02*
X0022044Y0051418D01*
X0023042Y0052417D02*
X0007271Y0052417D01*
X0007271Y0053415D02*
X0009418Y0053415D01*
X0008871Y0054414D02*
X0007271Y0054414D01*
X0007271Y0055412D02*
X0008871Y0055412D01*
X0008871Y0056411D02*
X0007271Y0056411D01*
X0007271Y0057409D02*
X0008871Y0057409D01*
X0008871Y0058408D02*
X0007271Y0058408D01*
X0007271Y0059406D02*
X0009239Y0059406D01*
X0007271Y0060405D02*
X0021030Y0060405D01*
X0022029Y0061403D02*
X0007271Y0061403D01*
X0007271Y0062402D02*
X0023028Y0062402D01*
X0023910Y0063400D02*
X0029433Y0063400D01*
X0028871Y0064399D02*
X0024471Y0064399D01*
X0024471Y0065397D02*
X0028871Y0065397D01*
X0028871Y0066396D02*
X0024471Y0066396D01*
X0024471Y0067394D02*
X0028871Y0067394D01*
X0028871Y0068393D02*
X0024471Y0068393D01*
X0025108Y0069391D02*
X0029224Y0069391D01*
X0029448Y0073385D02*
X0023895Y0073385D01*
X0024471Y0074384D02*
X0028871Y0074384D01*
X0028871Y0075382D02*
X0024471Y0075382D01*
X0024471Y0076381D02*
X0028871Y0076381D01*
X0028871Y0077379D02*
X0024471Y0077379D01*
X0024471Y0078378D02*
X0028871Y0078378D01*
X0029209Y0079376D02*
X0025093Y0079376D01*
X0024671Y0081500D02*
X0071671Y0081500D01*
X0073671Y0083500D01*
X0073671Y0134500D01*
X0075671Y0136500D01*
X0109671Y0136500D01*
X0109671Y0126500D02*
X0081671Y0126500D01*
X0079671Y0124500D01*
X0079671Y0073500D01*
X0077671Y0071500D01*
X0024671Y0071500D01*
X0022671Y0069500D01*
X0022671Y0066500D01*
X0016671Y0066500D01*
X0021016Y0070390D02*
X0007271Y0070390D01*
X0007271Y0071388D02*
X0022014Y0071388D01*
X0023013Y0072387D02*
X0007271Y0072387D01*
X0007271Y0073385D02*
X0009448Y0073385D01*
X0008871Y0074384D02*
X0007271Y0074384D01*
X0007271Y0075382D02*
X0008871Y0075382D01*
X0008871Y0076381D02*
X0007271Y0076381D01*
X0007271Y0077379D02*
X0008871Y0077379D01*
X0008871Y0078378D02*
X0007271Y0078378D01*
X0007271Y0079376D02*
X0009209Y0079376D01*
X0007271Y0080375D02*
X0021001Y0080375D01*
X0021999Y0081373D02*
X0007271Y0081373D01*
X0007271Y0082372D02*
X0022998Y0082372D01*
X0023880Y0083370D02*
X0029462Y0083370D01*
X0028871Y0084369D02*
X0024471Y0084369D01*
X0024471Y0085368D02*
X0028871Y0085368D01*
X0028871Y0086366D02*
X0024471Y0086366D01*
X0024471Y0087365D02*
X0028871Y0087365D01*
X0028871Y0088363D02*
X0024471Y0088363D01*
X0025078Y0089362D02*
X0029194Y0089362D01*
X0029477Y0093356D02*
X0023865Y0093356D01*
X0024471Y0094354D02*
X0028871Y0094354D01*
X0028871Y0095353D02*
X0024471Y0095353D01*
X0024471Y0096351D02*
X0028871Y0096351D01*
X0028871Y0097350D02*
X0024471Y0097350D01*
X0024471Y0098348D02*
X0028871Y0098348D01*
X0029180Y0099347D02*
X0025064Y0099347D01*
X0024671Y0101500D02*
X0059671Y0101500D01*
X0061671Y0103500D01*
X0061671Y0164500D01*
X0063671Y0166500D01*
X0109671Y0166500D01*
X0109671Y0156500D02*
X0069671Y0156500D01*
X0067266Y0154265D02*
X0066471Y0154265D01*
X0066471Y0155263D02*
X0066632Y0155263D01*
X0066471Y0153266D02*
X0068904Y0153266D01*
X0070438Y0153266D02*
X0098371Y0153266D01*
X0098371Y0154265D02*
X0072076Y0154265D01*
X0068899Y0148274D02*
X0066471Y0148274D01*
X0066471Y0149272D02*
X0098371Y0149272D01*
X0098604Y0150271D02*
X0066471Y0150271D01*
X0066471Y0151269D02*
X0123371Y0151269D01*
X0123371Y0150271D02*
X0120739Y0150271D01*
X0120971Y0149272D02*
X0123371Y0149272D01*
X0123371Y0148274D02*
X0120971Y0148274D01*
X0120971Y0147275D02*
X0123851Y0147275D01*
X0124849Y0146277D02*
X0120971Y0146277D01*
X0120971Y0145278D02*
X0125848Y0145278D01*
X0127171Y0146500D02*
X0125171Y0148500D01*
X0125171Y0159500D01*
X0123171Y0161500D01*
X0066671Y0161500D01*
X0064671Y0159500D01*
X0064671Y0098500D01*
X0062671Y0096500D01*
X0036671Y0096500D01*
X0029492Y0103341D02*
X0023851Y0103341D01*
X0024471Y0104339D02*
X0028871Y0104339D01*
X0028871Y0105338D02*
X0024471Y0105338D01*
X0024471Y0106336D02*
X0028871Y0106336D01*
X0028871Y0107335D02*
X0024471Y0107335D01*
X0024471Y0108333D02*
X0028871Y0108333D01*
X0029165Y0109332D02*
X0025049Y0109332D01*
X0024671Y0111500D02*
X0053671Y0111500D01*
X0055671Y0113500D01*
X0055671Y0174500D01*
X0057671Y0176500D01*
X0109671Y0176500D01*
X0120971Y0159257D02*
X0122868Y0159257D01*
X0123371Y0158259D02*
X0120971Y0158259D01*
X0120971Y0157260D02*
X0123371Y0157260D01*
X0123371Y0156262D02*
X0120971Y0156262D01*
X0120971Y0155263D02*
X0123371Y0155263D01*
X0123371Y0154265D02*
X0120971Y0154265D01*
X0120971Y0153266D02*
X0123371Y0153266D01*
X0123371Y0152268D02*
X0120278Y0152268D01*
X0120971Y0144280D02*
X0183752Y0144280D01*
X0182436Y0143281D02*
X0185368Y0143281D01*
X0186974Y0143281D02*
X0188371Y0143281D01*
X0189050Y0142283D02*
X0183434Y0142283D01*
X0184433Y0141284D02*
X0220071Y0141284D01*
X0220071Y0140286D02*
X0210724Y0140286D01*
X0210971Y0139287D02*
X0220071Y0139287D01*
X0220071Y0138289D02*
X0210971Y0138289D01*
X0210971Y0137290D02*
X0220071Y0137290D01*
X0220071Y0136292D02*
X0210971Y0136292D01*
X0210971Y0135293D02*
X0220071Y0135293D01*
X0220071Y0134295D02*
X0210971Y0134295D01*
X0210971Y0133296D02*
X0220071Y0133296D01*
X0220071Y0132298D02*
X0210307Y0132298D01*
X0210709Y0130301D02*
X0220071Y0130301D01*
X0220071Y0131299D02*
X0184418Y0131299D01*
X0185416Y0130301D02*
X0188633Y0130301D01*
X0188371Y0129302D02*
X0186415Y0129302D01*
X0187413Y0128303D02*
X0188371Y0128303D01*
X0186671Y0126500D02*
X0199671Y0126500D01*
X0199671Y0116500D02*
X0186671Y0116500D01*
X0181671Y0121500D01*
X0084671Y0121500D01*
X0082671Y0119500D01*
X0082671Y0068500D01*
X0080671Y0066500D01*
X0036671Y0066500D01*
X0036671Y0076500D02*
X0074671Y0076500D01*
X0076671Y0078500D01*
X0076671Y0129500D01*
X0078671Y0131500D01*
X0181671Y0131500D01*
X0186671Y0126500D01*
X0185318Y0125308D02*
X0120971Y0125308D01*
X0120971Y0126306D02*
X0184319Y0126306D01*
X0183321Y0127305D02*
X0120971Y0127305D01*
X0120971Y0128303D02*
X0182322Y0128303D01*
X0181324Y0129302D02*
X0120971Y0129302D01*
X0120971Y0134295D02*
X0188371Y0134295D01*
X0188371Y0133296D02*
X0182421Y0133296D01*
X0183419Y0132298D02*
X0189035Y0132298D01*
X0186671Y0136500D02*
X0199671Y0136500D01*
X0199671Y0146500D02*
X0186171Y0146500D01*
X0127171Y0146500D01*
X0126971Y0149272D02*
X0184303Y0149272D01*
X0188039Y0149272D02*
X0188371Y0149272D01*
X0188604Y0150271D02*
X0126971Y0150271D01*
X0126971Y0151269D02*
X0220071Y0151269D01*
X0220071Y0150271D02*
X0210739Y0150271D01*
X0210971Y0149272D02*
X0220071Y0149272D01*
X0220071Y0148274D02*
X0210971Y0148274D01*
X0210971Y0147275D02*
X0220071Y0147275D01*
X0220071Y0146277D02*
X0210971Y0146277D01*
X0210971Y0145278D02*
X0220071Y0145278D01*
X0220071Y0144280D02*
X0210971Y0144280D01*
X0210971Y0143281D02*
X0220071Y0143281D01*
X0220071Y0142283D02*
X0210292Y0142283D01*
X0210278Y0152268D02*
X0220071Y0152268D01*
X0220071Y0153266D02*
X0210971Y0153266D01*
X0210971Y0154265D02*
X0220071Y0154265D01*
X0220071Y0155263D02*
X0214980Y0155263D01*
X0215979Y0156262D02*
X0220071Y0156262D01*
X0220071Y0157260D02*
X0216971Y0157260D01*
X0216971Y0158259D02*
X0220071Y0158259D01*
X0220071Y0159257D02*
X0216971Y0159257D01*
X0216971Y0160256D02*
X0220071Y0160256D01*
X0220071Y0161254D02*
X0216971Y0161254D01*
X0216971Y0162253D02*
X0220071Y0162253D01*
X0220071Y0163251D02*
X0216971Y0163251D01*
X0216971Y0164250D02*
X0220071Y0164250D01*
X0220071Y0165248D02*
X0216971Y0165248D01*
X0216971Y0166247D02*
X0220071Y0166247D01*
X0220071Y0167245D02*
X0216971Y0167245D01*
X0216971Y0168244D02*
X0220071Y0168244D01*
X0220071Y0169242D02*
X0216971Y0169242D01*
X0216971Y0170241D02*
X0220071Y0170241D01*
X0220071Y0171239D02*
X0216971Y0171239D01*
X0216971Y0172238D02*
X0220071Y0172238D01*
X0220071Y0173237D02*
X0216971Y0173237D01*
X0216971Y0174235D02*
X0220071Y0174235D01*
X0220071Y0175234D02*
X0216971Y0175234D01*
X0216971Y0176232D02*
X0220071Y0176232D01*
X0220071Y0177231D02*
X0216971Y0177231D01*
X0216971Y0178229D02*
X0220071Y0178229D01*
X0220071Y0179228D02*
X0216971Y0179228D01*
X0216971Y0180226D02*
X0220071Y0180226D01*
X0220071Y0181225D02*
X0216971Y0181225D01*
X0216971Y0182223D02*
X0220071Y0182223D01*
X0220071Y0183222D02*
X0216971Y0183222D01*
X0216497Y0184220D02*
X0220071Y0184220D01*
X0220071Y0185219D02*
X0215498Y0185219D01*
X0214500Y0186217D02*
X0220071Y0186217D01*
X0220071Y0187216D02*
X0197001Y0187216D01*
X0196971Y0188214D02*
X0220071Y0188214D01*
X0220071Y0189213D02*
X0196971Y0189213D01*
X0196971Y0190211D02*
X0220071Y0190211D01*
X0220071Y0191210D02*
X0196971Y0191210D01*
X0196971Y0192208D02*
X0220071Y0192208D01*
X0220071Y0193207D02*
X0196971Y0193207D01*
X0196971Y0194205D02*
X0220071Y0194205D01*
X0220071Y0195204D02*
X0196971Y0195204D01*
X0196971Y0196202D02*
X0220071Y0196202D01*
X0220071Y0197201D02*
X0196971Y0197201D01*
X0196971Y0198199D02*
X0220071Y0198199D01*
X0220071Y0199198D02*
X0196971Y0199198D01*
X0196971Y0200196D02*
X0220071Y0200196D01*
X0220071Y0201195D02*
X0196971Y0201195D01*
X0196971Y0202193D02*
X0220071Y0202193D01*
X0220071Y0203192D02*
X0196971Y0203192D01*
X0196971Y0204190D02*
X0220071Y0204190D01*
X0220071Y0205189D02*
X0196971Y0205189D01*
X0196971Y0206187D02*
X0220071Y0206187D01*
X0220071Y0207186D02*
X0196971Y0207186D01*
X0196971Y0208184D02*
X0220071Y0208184D01*
X0220071Y0209183D02*
X0196971Y0209183D01*
X0196971Y0210181D02*
X0220071Y0210181D01*
X0220071Y0211180D02*
X0196971Y0211180D01*
X0196971Y0212178D02*
X0220071Y0212178D01*
X0220071Y0213177D02*
X0196971Y0213177D01*
X0196971Y0214175D02*
X0220071Y0214175D01*
X0220071Y0215174D02*
X0196971Y0215174D01*
X0196971Y0216172D02*
X0220071Y0216172D01*
X0220071Y0217171D02*
X0196971Y0217171D01*
X0196971Y0218170D02*
X0220071Y0218170D01*
X0220071Y0219168D02*
X0196971Y0219168D01*
X0196971Y0220167D02*
X0220071Y0220167D01*
X0220071Y0221165D02*
X0196971Y0221165D01*
X0196971Y0222164D02*
X0220071Y0222164D01*
X0220071Y0223162D02*
X0196971Y0223162D01*
X0196971Y0224161D02*
X0220071Y0224161D01*
X0220071Y0225159D02*
X0196971Y0225159D01*
X0196971Y0226158D02*
X0220071Y0226158D01*
X0220071Y0227156D02*
X0207422Y0227156D01*
X0207566Y0228155D02*
X0220071Y0228155D01*
X0220071Y0229153D02*
X0207566Y0229153D01*
X0207566Y0230152D02*
X0220071Y0230152D01*
X0220071Y0231150D02*
X0207566Y0231150D01*
X0207566Y0232149D02*
X0220071Y0232149D01*
X0220071Y0233147D02*
X0207566Y0233147D01*
X0207309Y0234146D02*
X0220071Y0234146D01*
X0220071Y0235144D02*
X0196971Y0235144D01*
X0196971Y0236143D02*
X0220071Y0236143D01*
X0220071Y0237141D02*
X0196971Y0237141D01*
X0196971Y0238140D02*
X0220071Y0238140D01*
X0220071Y0239138D02*
X0196971Y0239138D01*
X0196971Y0240137D02*
X0201324Y0240137D01*
X0201075Y0240385D02*
X0201883Y0239577D01*
X0202939Y0239140D01*
X0204081Y0239140D01*
X0205137Y0239577D01*
X0205944Y0240385D01*
X0206382Y0241441D01*
X0206382Y0242583D01*
X0205944Y0243638D01*
X0205137Y0244446D01*
X0204081Y0244883D01*
X0202939Y0244883D01*
X0201883Y0244446D01*
X0201075Y0243638D01*
X0200638Y0242583D01*
X0200638Y0241441D01*
X0201075Y0240385D01*
X0200765Y0241135D02*
X0196971Y0241135D01*
X0196971Y0242134D02*
X0200638Y0242134D01*
X0200866Y0243132D02*
X0196971Y0243132D01*
X0196971Y0244131D02*
X0201568Y0244131D01*
X0205452Y0244131D02*
X0220071Y0244131D01*
X0220071Y0245129D02*
X0196971Y0245129D01*
X0196971Y0246128D02*
X0220071Y0246128D01*
X0220071Y0247126D02*
X0196971Y0247126D01*
X0196971Y0248125D02*
X0220071Y0248125D01*
X0220071Y0249123D02*
X0196971Y0249123D01*
X0196971Y0250122D02*
X0220071Y0250122D01*
X0220071Y0251120D02*
X0196971Y0251120D01*
X0196971Y0252119D02*
X0220071Y0252119D01*
X0220071Y0253117D02*
X0196971Y0253117D01*
X0196971Y0254116D02*
X0220071Y0254116D01*
X0220071Y0255114D02*
X0196971Y0255114D01*
X0196971Y0256113D02*
X0220071Y0256113D01*
X0220071Y0257111D02*
X0196971Y0257111D01*
X0196971Y0258110D02*
X0220071Y0258110D01*
X0220071Y0259108D02*
X0196971Y0259108D01*
X0196971Y0260107D02*
X0220071Y0260107D01*
X0220071Y0261105D02*
X0196971Y0261105D01*
X0196971Y0262104D02*
X0220071Y0262104D01*
X0220071Y0263103D02*
X0196971Y0263103D01*
X0196971Y0264101D02*
X0220071Y0264101D01*
X0220071Y0265100D02*
X0196971Y0265100D01*
X0196971Y0266098D02*
X0220071Y0266098D01*
X0220071Y0267097D02*
X0196971Y0267097D01*
X0196971Y0268095D02*
X0220071Y0268095D01*
X0220071Y0269094D02*
X0196971Y0269094D01*
X0196971Y0270092D02*
X0220071Y0270092D01*
X0220071Y0271091D02*
X0205154Y0271091D01*
X0205137Y0271073D02*
X0205944Y0271881D01*
X0206382Y0272937D01*
X0206382Y0274079D01*
X0205944Y0275135D01*
X0205137Y0275942D01*
X0204081Y0276380D01*
X0202939Y0276380D01*
X0201883Y0275942D01*
X0201075Y0275135D01*
X0200638Y0274079D01*
X0200638Y0272937D01*
X0201075Y0271881D01*
X0201883Y0271073D01*
X0202939Y0270636D01*
X0204081Y0270636D01*
X0205137Y0271073D01*
X0206031Y0272089D02*
X0220071Y0272089D01*
X0220071Y0273088D02*
X0206382Y0273088D01*
X0206379Y0274086D02*
X0220071Y0274086D01*
X0220071Y0275085D02*
X0205965Y0275085D01*
X0204797Y0276083D02*
X0220071Y0276083D01*
X0220071Y0277082D02*
X0196971Y0277082D01*
X0196971Y0278080D02*
X0220071Y0278080D01*
X0220071Y0279079D02*
X0196971Y0279079D01*
X0196971Y0280077D02*
X0220071Y0280077D01*
X0220071Y0281076D02*
X0196971Y0281076D01*
X0196971Y0282074D02*
X0220071Y0282074D01*
X0220071Y0283073D02*
X0196971Y0283073D01*
X0196971Y0284071D02*
X0220071Y0284071D01*
X0220071Y0285070D02*
X0196971Y0285070D01*
X0196971Y0286068D02*
X0220071Y0286068D01*
X0220071Y0287067D02*
X0196971Y0287067D01*
X0196971Y0288065D02*
X0220071Y0288065D01*
X0220071Y0289064D02*
X0207519Y0289064D01*
X0207566Y0290062D02*
X0220071Y0290062D01*
X0220071Y0291061D02*
X0207566Y0291061D01*
X0207566Y0292059D02*
X0220071Y0292059D01*
X0220071Y0293058D02*
X0207566Y0293058D01*
X0207566Y0294056D02*
X0220071Y0294056D01*
X0220071Y0295055D02*
X0207566Y0295055D01*
X0207212Y0296053D02*
X0220071Y0296053D01*
X0220071Y0297052D02*
X0196165Y0297052D01*
X0195167Y0298050D02*
X0220071Y0298050D01*
X0220071Y0299049D02*
X0194168Y0299049D01*
X0193171Y0297500D02*
X0195171Y0295500D01*
X0195171Y0186500D01*
X0197171Y0184500D01*
X0213671Y0184500D01*
X0215171Y0183000D01*
X0215171Y0158000D01*
X0213671Y0156500D01*
X0199671Y0156500D01*
X0129671Y0156500D01*
X0127671Y0158500D01*
X0127671Y0170000D01*
X0126171Y0171500D01*
X0060671Y0171500D01*
X0058671Y0169500D01*
X0058671Y0108500D01*
X0056671Y0106500D01*
X0036671Y0106500D01*
X0029507Y0113326D02*
X0023836Y0113326D01*
X0024471Y0114324D02*
X0028871Y0114324D01*
X0028871Y0115323D02*
X0024471Y0115323D01*
X0024471Y0116321D02*
X0028871Y0116321D01*
X0028871Y0117320D02*
X0024471Y0117320D01*
X0024471Y0118318D02*
X0028871Y0118318D01*
X0029150Y0119317D02*
X0025034Y0119317D01*
X0024671Y0121500D02*
X0043671Y0121500D01*
X0045671Y0123500D01*
X0045671Y0153500D01*
X0048671Y0156500D01*
X0043256Y0163251D02*
X0039997Y0163251D01*
X0040411Y0162253D02*
X0042257Y0162253D01*
X0041259Y0161254D02*
X0040452Y0161254D01*
X0040260Y0160256D02*
X0040207Y0160256D01*
X0038263Y0158259D02*
X0037920Y0158259D01*
X0037265Y0157260D02*
X0007271Y0157260D01*
X0007271Y0156262D02*
X0036266Y0156262D01*
X0035268Y0155263D02*
X0007271Y0155263D01*
X0007271Y0154265D02*
X0034269Y0154265D01*
X0033624Y0153266D02*
X0007271Y0153266D01*
X0007271Y0152268D02*
X0033371Y0152268D01*
X0033371Y0151269D02*
X0007271Y0151269D01*
X0007271Y0150271D02*
X0033371Y0150271D01*
X0033371Y0149272D02*
X0007271Y0149272D01*
X0007271Y0148274D02*
X0033371Y0148274D01*
X0033371Y0147275D02*
X0007271Y0147275D01*
X0007271Y0146277D02*
X0033371Y0146277D01*
X0033371Y0145278D02*
X0007271Y0145278D01*
X0007271Y0144280D02*
X0033371Y0144280D01*
X0033371Y0143281D02*
X0007271Y0143281D01*
X0007271Y0142283D02*
X0033371Y0142283D01*
X0033371Y0141284D02*
X0007271Y0141284D01*
X0007271Y0140286D02*
X0033371Y0140286D01*
X0029120Y0139287D02*
X0024449Y0139287D01*
X0024372Y0139421D02*
X0024092Y0139700D01*
X0023750Y0139898D01*
X0023369Y0140000D01*
X0017171Y0140000D01*
X0017171Y0137000D01*
X0016171Y0137000D01*
X0016171Y0136000D01*
X0008671Y0136000D01*
X0008671Y0134303D01*
X0008774Y0133921D01*
X0008971Y0133579D01*
X0009250Y0133300D01*
X0009592Y0133102D01*
X0009974Y0133000D01*
X0016171Y0133000D01*
X0016171Y0136000D01*
X0017171Y0136000D01*
X0017171Y0133000D01*
X0023369Y0133000D01*
X0023750Y0133102D01*
X0024092Y0133300D01*
X0024372Y0133579D01*
X0024569Y0133921D01*
X0024671Y0134303D01*
X0024671Y0136000D01*
X0017171Y0136000D01*
X0017171Y0137000D01*
X0024671Y0137000D01*
X0024671Y0138697D01*
X0024569Y0139079D01*
X0024372Y0139421D01*
X0024671Y0138289D02*
X0028871Y0138289D01*
X0028871Y0137290D02*
X0024671Y0137290D01*
X0024671Y0135293D02*
X0028871Y0135293D01*
X0028871Y0134295D02*
X0024669Y0134295D01*
X0024086Y0133296D02*
X0029537Y0133296D01*
X0028871Y0136292D02*
X0017171Y0136292D01*
X0017171Y0137290D02*
X0016171Y0137290D01*
X0016171Y0137000D02*
X0016171Y0140000D01*
X0009974Y0140000D01*
X0009592Y0139898D01*
X0009250Y0139700D01*
X0008971Y0139421D01*
X0008774Y0139079D01*
X0008671Y0138697D01*
X0008671Y0137000D01*
X0016171Y0137000D01*
X0016171Y0136292D02*
X0007271Y0136292D01*
X0007271Y0137290D02*
X0008671Y0137290D01*
X0008671Y0138289D02*
X0007271Y0138289D01*
X0007271Y0139287D02*
X0008894Y0139287D01*
X0008671Y0135293D02*
X0007271Y0135293D01*
X0007271Y0134295D02*
X0008673Y0134295D01*
X0009257Y0133296D02*
X0007271Y0133296D01*
X0007271Y0132298D02*
X0033371Y0132298D01*
X0033371Y0131299D02*
X0007271Y0131299D01*
X0007271Y0130301D02*
X0033371Y0130301D01*
X0029135Y0129302D02*
X0024440Y0129302D01*
X0024372Y0129421D02*
X0024092Y0129700D01*
X0023750Y0129898D01*
X0023369Y0130000D01*
X0017171Y0130000D01*
X0017171Y0127000D01*
X0016171Y0127000D01*
X0016171Y0126000D01*
X0008671Y0126000D01*
X0008671Y0124303D01*
X0008774Y0123921D01*
X0008971Y0123579D01*
X0009250Y0123300D01*
X0009592Y0123102D01*
X0009974Y0123000D01*
X0016171Y0123000D01*
X0016171Y0126000D01*
X0017171Y0126000D01*
X0017171Y0127000D01*
X0024671Y0127000D01*
X0024671Y0128697D01*
X0024569Y0129079D01*
X0024372Y0129421D01*
X0024671Y0128303D02*
X0028871Y0128303D01*
X0028871Y0127305D02*
X0024671Y0127305D01*
X0024671Y0125308D02*
X0028871Y0125308D01*
X0028871Y0126306D02*
X0017171Y0126306D01*
X0017171Y0125308D02*
X0016171Y0125308D01*
X0016171Y0126306D02*
X0007271Y0126306D01*
X0007271Y0125308D02*
X0008671Y0125308D01*
X0008671Y0124309D02*
X0007271Y0124309D01*
X0007271Y0123311D02*
X0009239Y0123311D01*
X0007271Y0122312D02*
X0022938Y0122312D01*
X0021940Y0121314D02*
X0007271Y0121314D01*
X0007271Y0120315D02*
X0020941Y0120315D01*
X0022671Y0119500D02*
X0022671Y0116500D01*
X0016671Y0116500D01*
X0016171Y0123311D02*
X0017171Y0123311D01*
X0017171Y0124309D02*
X0016171Y0124309D01*
X0016171Y0127000D02*
X0008671Y0127000D01*
X0008671Y0128697D01*
X0008774Y0129079D01*
X0008971Y0129421D01*
X0009250Y0129700D01*
X0009592Y0129898D01*
X0009974Y0130000D01*
X0016171Y0130000D01*
X0016171Y0127000D01*
X0016171Y0127305D02*
X0017171Y0127305D01*
X0017171Y0128303D02*
X0016171Y0128303D01*
X0016171Y0129302D02*
X0017171Y0129302D01*
X0017171Y0133296D02*
X0016171Y0133296D01*
X0016171Y0134295D02*
X0017171Y0134295D01*
X0017171Y0135293D02*
X0016171Y0135293D01*
X0016171Y0138289D02*
X0017171Y0138289D01*
X0017171Y0139287D02*
X0016171Y0139287D01*
X0008902Y0129302D02*
X0007271Y0129302D01*
X0007271Y0128303D02*
X0008671Y0128303D01*
X0008671Y0127305D02*
X0007271Y0127305D01*
X0007271Y0119317D02*
X0009150Y0119317D01*
X0008871Y0118318D02*
X0007271Y0118318D01*
X0007271Y0117320D02*
X0008871Y0117320D01*
X0008871Y0116321D02*
X0007271Y0116321D01*
X0007271Y0115323D02*
X0008871Y0115323D01*
X0008871Y0114324D02*
X0007271Y0114324D01*
X0007271Y0113326D02*
X0009507Y0113326D01*
X0007271Y0112327D02*
X0022953Y0112327D01*
X0021955Y0111329D02*
X0007271Y0111329D01*
X0007271Y0110330D02*
X0020956Y0110330D01*
X0022671Y0109500D02*
X0022671Y0106500D01*
X0016671Y0106500D01*
X0021969Y0101344D02*
X0007271Y0101344D01*
X0007271Y0102342D02*
X0022968Y0102342D01*
X0024671Y0101500D02*
X0022671Y0099500D01*
X0022671Y0096500D01*
X0016671Y0096500D01*
X0020971Y0100345D02*
X0007271Y0100345D01*
X0007271Y0099347D02*
X0009180Y0099347D01*
X0008871Y0098348D02*
X0007271Y0098348D01*
X0007271Y0097350D02*
X0008871Y0097350D01*
X0008871Y0096351D02*
X0007271Y0096351D01*
X0007271Y0095353D02*
X0008871Y0095353D01*
X0008871Y0094354D02*
X0007271Y0094354D01*
X0007271Y0093356D02*
X0009477Y0093356D01*
X0007271Y0092357D02*
X0022983Y0092357D01*
X0021984Y0091359D02*
X0007271Y0091359D01*
X0007271Y0090360D02*
X0020986Y0090360D01*
X0022671Y0089500D02*
X0024671Y0091500D01*
X0065671Y0091500D01*
X0067671Y0093500D01*
X0067671Y0144500D01*
X0069671Y0146500D01*
X0109671Y0146500D01*
X0099065Y0152268D02*
X0066471Y0152268D01*
X0066471Y0147275D02*
X0067901Y0147275D01*
X0066902Y0146277D02*
X0066471Y0146277D01*
X0072671Y0141500D02*
X0070671Y0139500D01*
X0070671Y0088500D01*
X0068671Y0086500D01*
X0036671Y0086500D01*
X0024671Y0081500D02*
X0022671Y0079500D01*
X0022671Y0076500D01*
X0016671Y0076500D01*
X0016671Y0086500D02*
X0022671Y0086500D01*
X0022671Y0089500D01*
X0009194Y0089362D02*
X0007271Y0089362D01*
X0007271Y0088363D02*
X0008871Y0088363D01*
X0008871Y0087365D02*
X0007271Y0087365D01*
X0007271Y0086366D02*
X0008871Y0086366D01*
X0008871Y0085368D02*
X0007271Y0085368D01*
X0007271Y0084369D02*
X0008871Y0084369D01*
X0009462Y0083370D02*
X0007271Y0083370D01*
X0007271Y0069391D02*
X0009224Y0069391D01*
X0008871Y0068393D02*
X0007271Y0068393D01*
X0007271Y0067394D02*
X0008871Y0067394D01*
X0008871Y0066396D02*
X0007271Y0066396D01*
X0007271Y0065397D02*
X0008871Y0065397D01*
X0008871Y0064399D02*
X0007271Y0064399D01*
X0007271Y0063400D02*
X0009433Y0063400D01*
X0016671Y0056500D02*
X0022671Y0056500D01*
X0022671Y0059500D01*
X0024671Y0061500D01*
X0025138Y0049421D02*
X0029254Y0049421D01*
X0028871Y0048423D02*
X0024471Y0048423D01*
X0024471Y0047424D02*
X0028871Y0047424D01*
X0028871Y0046426D02*
X0024471Y0046426D01*
X0024471Y0045427D02*
X0028871Y0045427D01*
X0028871Y0044429D02*
X0024471Y0044429D01*
X0023940Y0043430D02*
X0029403Y0043430D01*
X0024671Y0041500D02*
X0022671Y0039500D01*
X0022671Y0036500D01*
X0016671Y0036500D01*
X0021060Y0040434D02*
X0007271Y0040434D01*
X0007271Y0039436D02*
X0009269Y0039436D01*
X0008871Y0038437D02*
X0007271Y0038437D01*
X0007271Y0037439D02*
X0008871Y0037439D01*
X0008871Y0036440D02*
X0007271Y0036440D01*
X0007271Y0035442D02*
X0008871Y0035442D01*
X0008871Y0034443D02*
X0007271Y0034443D01*
X0007271Y0033445D02*
X0009388Y0033445D01*
X0007271Y0032446D02*
X0212871Y0032446D01*
X0212871Y0031448D02*
X0007271Y0031448D01*
X0007271Y0030449D02*
X0212871Y0030449D01*
X0212871Y0029451D02*
X0044059Y0029451D01*
X0044471Y0028452D02*
X0212078Y0028452D01*
X0212671Y0026500D02*
X0036671Y0026500D01*
X0029373Y0023460D02*
X0023970Y0023460D01*
X0023710Y0023200D02*
X0024471Y0023962D01*
X0024471Y0029038D01*
X0023710Y0029800D01*
X0009633Y0029800D01*
X0008871Y0029038D01*
X0008871Y0023962D01*
X0009633Y0023200D01*
X0023710Y0023200D01*
X0024471Y0024458D02*
X0028871Y0024458D01*
X0028871Y0025457D02*
X0024471Y0025457D01*
X0024471Y0026455D02*
X0028871Y0026455D01*
X0028871Y0027454D02*
X0024471Y0027454D01*
X0024471Y0028452D02*
X0028871Y0028452D01*
X0029284Y0029451D02*
X0024059Y0029451D01*
X0022059Y0041433D02*
X0007271Y0041433D01*
X0007271Y0042432D02*
X0023057Y0042432D01*
X0009403Y0043430D02*
X0007271Y0043430D01*
X0007271Y0044429D02*
X0008871Y0044429D01*
X0008871Y0045427D02*
X0007271Y0045427D01*
X0007271Y0046426D02*
X0008871Y0046426D01*
X0008871Y0047424D02*
X0007271Y0047424D01*
X0007271Y0048423D02*
X0008871Y0048423D01*
X0009254Y0049421D02*
X0007271Y0049421D01*
X0007271Y0029451D02*
X0009284Y0029451D01*
X0008871Y0028452D02*
X0007271Y0028452D01*
X0007271Y0027454D02*
X0008871Y0027454D01*
X0008871Y0026455D02*
X0007271Y0026455D01*
X0007271Y0025457D02*
X0008871Y0025457D01*
X0008871Y0024458D02*
X0007271Y0024458D01*
X0007271Y0023460D02*
X0009373Y0023460D01*
X0036671Y0046500D02*
X0092671Y0046500D01*
X0096471Y0052417D02*
X0098633Y0052417D01*
X0098171Y0053415D02*
X0096471Y0053415D01*
X0096471Y0054414D02*
X0098171Y0054414D01*
X0098171Y0055412D02*
X0096471Y0055412D01*
X0096471Y0056411D02*
X0109171Y0056411D01*
X0109171Y0055412D02*
X0110171Y0055412D01*
X0110171Y0054414D02*
X0109171Y0054414D01*
X0109171Y0053415D02*
X0110171Y0053415D01*
X0110171Y0052417D02*
X0109171Y0052417D01*
X0110171Y0056411D02*
X0188371Y0056411D01*
X0188371Y0057409D02*
X0121171Y0057409D01*
X0121171Y0058408D02*
X0188371Y0058408D01*
X0188371Y0059406D02*
X0121171Y0059406D01*
X0121171Y0055412D02*
X0188371Y0055412D01*
X0188371Y0054414D02*
X0121171Y0054414D01*
X0121171Y0053415D02*
X0188371Y0053415D01*
X0188916Y0052417D02*
X0120709Y0052417D01*
X0120168Y0044429D02*
X0044471Y0044429D01*
X0043940Y0043430D02*
X0118961Y0043430D01*
X0123175Y0044429D02*
X0197871Y0044429D01*
X0197056Y0043430D02*
X0124381Y0043430D01*
X0120971Y0079376D02*
X0147542Y0079376D01*
X0150801Y0079376D02*
X0166871Y0079376D01*
X0166871Y0078378D02*
X0151934Y0078378D01*
X0152359Y0077379D02*
X0166871Y0077379D01*
X0166871Y0076381D02*
X0152452Y0076381D01*
X0152260Y0075382D02*
X0166871Y0075382D01*
X0166871Y0074384D02*
X0151695Y0074384D01*
X0150226Y0073385D02*
X0166011Y0073385D01*
X0166871Y0080375D02*
X0120635Y0080375D01*
X0120382Y0082372D02*
X0166871Y0082372D01*
X0166871Y0083370D02*
X0120971Y0083370D01*
X0120971Y0084369D02*
X0166871Y0084369D01*
X0166871Y0085368D02*
X0136726Y0085368D01*
X0137724Y0086366D02*
X0166871Y0086366D01*
X0166871Y0087365D02*
X0138723Y0087365D01*
X0139071Y0088363D02*
X0166871Y0088363D01*
X0166871Y0089362D02*
X0139071Y0089362D01*
X0139071Y0090360D02*
X0166871Y0090360D01*
X0166871Y0091359D02*
X0139071Y0091359D01*
X0139071Y0092357D02*
X0166871Y0092357D01*
X0166871Y0093356D02*
X0139071Y0093356D01*
X0139071Y0094354D02*
X0166871Y0094354D01*
X0166871Y0095353D02*
X0139071Y0095353D01*
X0139071Y0096351D02*
X0166871Y0096351D01*
X0166871Y0097350D02*
X0139071Y0097350D01*
X0139071Y0098348D02*
X0166871Y0098348D01*
X0166871Y0099347D02*
X0139071Y0099347D01*
X0139071Y0100345D02*
X0166871Y0100345D01*
X0166871Y0101344D02*
X0139071Y0101344D01*
X0139071Y0102342D02*
X0166871Y0102342D01*
X0166871Y0103341D02*
X0139071Y0103341D01*
X0139071Y0104339D02*
X0166871Y0104339D01*
X0166964Y0105338D02*
X0139071Y0105338D01*
X0139071Y0106336D02*
X0167962Y0106336D01*
X0168961Y0107335D02*
X0139071Y0107335D01*
X0139071Y0108333D02*
X0188371Y0108333D01*
X0188371Y0109332D02*
X0139071Y0109332D01*
X0139071Y0110330D02*
X0188663Y0110330D01*
X0189006Y0112327D02*
X0138531Y0112327D01*
X0139071Y0111329D02*
X0220071Y0111329D01*
X0220071Y0112327D02*
X0210337Y0112327D01*
X0210971Y0113326D02*
X0220071Y0113326D01*
X0220071Y0114324D02*
X0210971Y0114324D01*
X0210971Y0115323D02*
X0220071Y0115323D01*
X0220071Y0116321D02*
X0210971Y0116321D01*
X0210971Y0117320D02*
X0220071Y0117320D01*
X0220071Y0118318D02*
X0210971Y0118318D01*
X0210971Y0119317D02*
X0220071Y0119317D01*
X0220071Y0120315D02*
X0210694Y0120315D01*
X0210322Y0122312D02*
X0220071Y0122312D01*
X0220071Y0121314D02*
X0184403Y0121314D01*
X0183405Y0122312D02*
X0189020Y0122312D01*
X0188371Y0123311D02*
X0120971Y0123311D01*
X0120971Y0124309D02*
X0188371Y0124309D01*
X0188648Y0120315D02*
X0185402Y0120315D01*
X0186400Y0119317D02*
X0188371Y0119317D01*
X0188371Y0118318D02*
X0187399Y0118318D01*
X0185303Y0115323D02*
X0144235Y0115323D01*
X0144452Y0116321D02*
X0184304Y0116321D01*
X0183306Y0117320D02*
X0144383Y0117320D01*
X0143970Y0118318D02*
X0182307Y0118318D01*
X0181309Y0119317D02*
X0142945Y0119317D01*
X0143636Y0114324D02*
X0188371Y0114324D01*
X0188371Y0113326D02*
X0142082Y0113326D01*
X0140261Y0113326D02*
X0137533Y0113326D01*
X0136534Y0114324D02*
X0138707Y0114324D01*
X0135271Y0104339D02*
X0135071Y0104339D01*
X0135071Y0103341D02*
X0135271Y0103341D01*
X0135271Y0102342D02*
X0135071Y0102342D01*
X0135071Y0101344D02*
X0135271Y0101344D01*
X0135271Y0100345D02*
X0135071Y0100345D01*
X0135071Y0099347D02*
X0135271Y0099347D01*
X0135271Y0098348D02*
X0135071Y0098348D01*
X0135071Y0097350D02*
X0135271Y0097350D01*
X0135271Y0096351D02*
X0134209Y0096351D01*
X0133571Y0095713D02*
X0133571Y0095713D01*
X0133211Y0095353D02*
X0135271Y0095353D01*
X0135271Y0094354D02*
X0120971Y0094354D01*
X0120971Y0093356D02*
X0135271Y0093356D01*
X0135271Y0092357D02*
X0120367Y0092357D01*
X0120650Y0090360D02*
X0135271Y0090360D01*
X0135271Y0089362D02*
X0120971Y0089362D01*
X0120971Y0099347D02*
X0131271Y0099347D01*
X0131271Y0100345D02*
X0120665Y0100345D01*
X0120210Y0102200D02*
X0120971Y0102962D01*
X0120971Y0110038D01*
X0120210Y0110800D01*
X0099133Y0110800D01*
X0098371Y0110038D01*
X0098371Y0108400D01*
X0094912Y0108400D01*
X0094030Y0109282D01*
X0092824Y0109781D01*
X0091519Y0109781D01*
X0090313Y0109282D01*
X0089390Y0108359D01*
X0088890Y0107153D01*
X0088890Y0105847D01*
X0089390Y0104641D01*
X0090313Y0103718D01*
X0091519Y0103219D01*
X0092824Y0103219D01*
X0094030Y0103718D01*
X0094912Y0104600D01*
X0098371Y0104600D01*
X0098371Y0102962D01*
X0099133Y0102200D01*
X0120210Y0102200D01*
X0120352Y0102342D02*
X0131271Y0102342D01*
X0131271Y0101344D02*
X0084471Y0101344D01*
X0084471Y0102342D02*
X0098991Y0102342D01*
X0098371Y0103341D02*
X0093118Y0103341D01*
X0094651Y0104339D02*
X0098371Y0104339D01*
X0098371Y0109332D02*
X0093909Y0109332D01*
X0090434Y0109332D02*
X0084471Y0109332D01*
X0084471Y0110330D02*
X0098663Y0110330D01*
X0099006Y0112327D02*
X0084471Y0112327D01*
X0084471Y0111329D02*
X0125105Y0111329D01*
X0124890Y0112327D02*
X0120337Y0112327D01*
X0120971Y0113326D02*
X0124962Y0113326D01*
X0125376Y0114324D02*
X0120971Y0114324D01*
X0120680Y0110330D02*
X0125701Y0110330D01*
X0127246Y0109332D02*
X0120971Y0109332D01*
X0120971Y0108333D02*
X0129965Y0108333D01*
X0129890Y0107335D02*
X0120971Y0107335D01*
X0120971Y0106336D02*
X0130102Y0106336D01*
X0130693Y0105338D02*
X0120971Y0105338D01*
X0120971Y0104339D02*
X0131271Y0104339D01*
X0131271Y0103341D02*
X0120971Y0103341D01*
X0129097Y0109332D02*
X0130379Y0109332D01*
X0130642Y0110330D02*
X0131430Y0110330D01*
X0135271Y0091359D02*
X0084471Y0091359D01*
X0084471Y0092357D02*
X0098976Y0092357D01*
X0098371Y0093356D02*
X0084471Y0093356D01*
X0084471Y0094354D02*
X0098371Y0094354D01*
X0098371Y0095353D02*
X0084471Y0095353D01*
X0084471Y0096351D02*
X0098371Y0096351D01*
X0098371Y0097350D02*
X0084471Y0097350D01*
X0084471Y0098348D02*
X0098371Y0098348D01*
X0098371Y0099347D02*
X0084471Y0099347D01*
X0084471Y0100345D02*
X0098678Y0100345D01*
X0098693Y0090360D02*
X0084471Y0090360D01*
X0084471Y0089362D02*
X0098371Y0089362D01*
X0098371Y0088363D02*
X0084471Y0088363D01*
X0084471Y0087365D02*
X0098371Y0087365D01*
X0098371Y0086366D02*
X0084471Y0086366D01*
X0084471Y0085368D02*
X0098371Y0085368D01*
X0098371Y0084369D02*
X0084471Y0084369D01*
X0084471Y0083370D02*
X0098371Y0083370D01*
X0098961Y0082372D02*
X0084471Y0082372D01*
X0084471Y0081373D02*
X0166871Y0081373D01*
X0173471Y0081373D02*
X0184371Y0081373D01*
X0184371Y0080375D02*
X0173471Y0080375D01*
X0173471Y0079376D02*
X0184371Y0079376D01*
X0184371Y0078378D02*
X0173471Y0078378D01*
X0173471Y0077379D02*
X0184371Y0077379D01*
X0184371Y0076381D02*
X0173471Y0076381D01*
X0173471Y0075382D02*
X0184371Y0075382D01*
X0184371Y0074384D02*
X0173471Y0074384D01*
X0173471Y0073385D02*
X0184371Y0073385D01*
X0184371Y0072387D02*
X0173471Y0072387D01*
X0173471Y0071388D02*
X0185237Y0071388D01*
X0186236Y0070390D02*
X0173471Y0070390D01*
X0173471Y0069391D02*
X0177078Y0069391D01*
X0175924Y0068393D02*
X0173471Y0068393D01*
X0173471Y0067394D02*
X0175490Y0067394D01*
X0175390Y0066396D02*
X0173471Y0066396D01*
X0173471Y0065397D02*
X0175577Y0065397D01*
X0176132Y0064399D02*
X0173471Y0064399D01*
X0173471Y0063400D02*
X0177581Y0063400D01*
X0179762Y0063400D02*
X0188371Y0063400D01*
X0188371Y0064399D02*
X0181210Y0064399D01*
X0180265Y0069391D02*
X0188371Y0069391D01*
X0188332Y0073385D02*
X0188371Y0073385D01*
X0188371Y0074384D02*
X0187971Y0074384D01*
X0187971Y0075382D02*
X0188371Y0075382D01*
X0188371Y0076381D02*
X0187971Y0076381D01*
X0187971Y0077379D02*
X0188371Y0077379D01*
X0188371Y0078378D02*
X0187971Y0078378D01*
X0187971Y0079376D02*
X0188371Y0079376D01*
X0188708Y0080375D02*
X0187971Y0080375D01*
X0187971Y0081373D02*
X0220071Y0081373D01*
X0220071Y0080375D02*
X0210635Y0080375D01*
X0210971Y0079376D02*
X0220071Y0079376D01*
X0220071Y0078378D02*
X0210971Y0078378D01*
X0214338Y0077379D02*
X0220071Y0077379D01*
X0220071Y0076381D02*
X0215336Y0076381D01*
X0216335Y0075382D02*
X0220071Y0075382D01*
X0220071Y0074384D02*
X0216471Y0074384D01*
X0216471Y0073385D02*
X0220071Y0073385D01*
X0220071Y0072387D02*
X0216471Y0072387D01*
X0216471Y0071388D02*
X0220071Y0071388D01*
X0220071Y0070390D02*
X0216471Y0070390D01*
X0216471Y0069391D02*
X0220071Y0069391D01*
X0220071Y0068393D02*
X0216471Y0068393D01*
X0216471Y0067394D02*
X0220071Y0067394D01*
X0220071Y0066396D02*
X0216471Y0066396D01*
X0216471Y0065397D02*
X0220071Y0065397D01*
X0220071Y0064399D02*
X0216471Y0064399D01*
X0216471Y0063400D02*
X0220071Y0063400D01*
X0220071Y0062402D02*
X0216471Y0062402D01*
X0216471Y0061403D02*
X0220071Y0061403D01*
X0220071Y0060405D02*
X0216471Y0060405D01*
X0216471Y0059406D02*
X0220071Y0059406D01*
X0220071Y0058408D02*
X0216471Y0058408D01*
X0216471Y0057409D02*
X0220071Y0057409D01*
X0220071Y0056411D02*
X0216471Y0056411D01*
X0216471Y0055412D02*
X0220071Y0055412D01*
X0220071Y0054414D02*
X0216471Y0054414D01*
X0216471Y0053415D02*
X0220071Y0053415D01*
X0220071Y0052417D02*
X0216471Y0052417D01*
X0216471Y0051418D02*
X0220071Y0051418D01*
X0220071Y0050420D02*
X0216471Y0050420D01*
X0216471Y0049421D02*
X0220071Y0049421D01*
X0220071Y0048423D02*
X0216471Y0048423D01*
X0216471Y0047424D02*
X0220071Y0047424D01*
X0220071Y0046426D02*
X0216471Y0046426D01*
X0216471Y0045427D02*
X0220071Y0045427D01*
X0220071Y0044429D02*
X0216471Y0044429D01*
X0216471Y0043430D02*
X0220071Y0043430D01*
X0220071Y0042432D02*
X0216471Y0042432D01*
X0216471Y0041433D02*
X0220071Y0041433D01*
X0220071Y0040434D02*
X0216471Y0040434D01*
X0216471Y0039436D02*
X0220071Y0039436D01*
X0220071Y0038437D02*
X0216471Y0038437D01*
X0216471Y0037439D02*
X0220071Y0037439D01*
X0220071Y0036440D02*
X0216471Y0036440D01*
X0216471Y0035442D02*
X0220071Y0035442D01*
X0220071Y0034443D02*
X0216471Y0034443D01*
X0216471Y0033445D02*
X0220071Y0033445D01*
X0220071Y0032446D02*
X0216471Y0032446D01*
X0216471Y0031448D02*
X0220071Y0031448D01*
X0220071Y0030449D02*
X0216471Y0030449D01*
X0216471Y0029451D02*
X0220071Y0029451D01*
X0220071Y0028452D02*
X0216471Y0028452D01*
X0216171Y0027454D02*
X0220071Y0027454D01*
X0220071Y0026455D02*
X0215172Y0026455D01*
X0214174Y0025457D02*
X0220071Y0025457D01*
X0220071Y0024458D02*
X0044471Y0024458D01*
X0043970Y0023460D02*
X0220071Y0023460D01*
X0212871Y0033445D02*
X0043955Y0033445D01*
X0044471Y0034443D02*
X0212871Y0034443D01*
X0212871Y0035442D02*
X0212159Y0035442D01*
X0210871Y0060405D02*
X0210605Y0060405D01*
X0210871Y0061403D02*
X0172120Y0061403D01*
X0171122Y0060405D02*
X0188738Y0060405D01*
X0188931Y0062402D02*
X0173119Y0062402D01*
X0173471Y0082372D02*
X0184371Y0082372D01*
X0184371Y0083370D02*
X0173471Y0083370D01*
X0173471Y0084369D02*
X0184371Y0084369D01*
X0184371Y0085368D02*
X0173471Y0085368D01*
X0173471Y0086366D02*
X0184992Y0086366D01*
X0185990Y0087365D02*
X0173471Y0087365D01*
X0173471Y0088363D02*
X0188371Y0088363D01*
X0188371Y0089362D02*
X0173471Y0089362D01*
X0173471Y0090360D02*
X0188693Y0090360D01*
X0188976Y0092357D02*
X0173471Y0092357D01*
X0173471Y0091359D02*
X0220071Y0091359D01*
X0220071Y0092357D02*
X0210367Y0092357D01*
X0210971Y0093356D02*
X0220071Y0093356D01*
X0220071Y0094354D02*
X0210971Y0094354D01*
X0210971Y0095353D02*
X0220071Y0095353D01*
X0220071Y0096351D02*
X0210971Y0096351D01*
X0210971Y0097350D02*
X0220071Y0097350D01*
X0220071Y0098348D02*
X0210971Y0098348D01*
X0210971Y0099347D02*
X0220071Y0099347D01*
X0220071Y0100345D02*
X0210665Y0100345D01*
X0210352Y0102342D02*
X0220071Y0102342D01*
X0220071Y0101344D02*
X0170471Y0101344D01*
X0170471Y0102342D02*
X0188991Y0102342D01*
X0188371Y0103341D02*
X0170471Y0103341D01*
X0171056Y0104339D02*
X0188371Y0104339D01*
X0188678Y0100345D02*
X0170471Y0100345D01*
X0170471Y0099347D02*
X0188371Y0099347D01*
X0188371Y0098348D02*
X0170471Y0098348D01*
X0170471Y0097350D02*
X0171975Y0097350D01*
X0170977Y0096351D02*
X0170471Y0096351D01*
X0174071Y0094354D02*
X0188371Y0094354D01*
X0188371Y0093356D02*
X0173471Y0093356D01*
X0188086Y0084369D02*
X0188371Y0084369D01*
X0188371Y0083370D02*
X0187971Y0083370D01*
X0187971Y0082372D02*
X0188961Y0082372D01*
X0210382Y0082372D02*
X0220071Y0082372D01*
X0220071Y0083370D02*
X0210971Y0083370D01*
X0210971Y0084369D02*
X0220071Y0084369D01*
X0220071Y0085368D02*
X0210971Y0085368D01*
X0210971Y0086366D02*
X0220071Y0086366D01*
X0220071Y0087365D02*
X0210971Y0087365D01*
X0210971Y0088363D02*
X0220071Y0088363D01*
X0220071Y0089362D02*
X0210971Y0089362D01*
X0210650Y0090360D02*
X0220071Y0090360D01*
X0220071Y0103341D02*
X0210971Y0103341D01*
X0210971Y0104339D02*
X0220071Y0104339D01*
X0220071Y0105338D02*
X0210971Y0105338D01*
X0210971Y0106336D02*
X0220071Y0106336D01*
X0220071Y0107335D02*
X0210971Y0107335D01*
X0210971Y0108333D02*
X0220071Y0108333D01*
X0220071Y0109332D02*
X0210971Y0109332D01*
X0210680Y0110330D02*
X0220071Y0110330D01*
X0220071Y0123311D02*
X0210971Y0123311D01*
X0210971Y0124309D02*
X0220071Y0124309D01*
X0220071Y0125308D02*
X0210971Y0125308D01*
X0210971Y0126306D02*
X0220071Y0126306D01*
X0220071Y0127305D02*
X0210971Y0127305D01*
X0210971Y0128303D02*
X0220071Y0128303D01*
X0220071Y0129302D02*
X0210971Y0129302D01*
X0188371Y0139287D02*
X0186430Y0139287D01*
X0185431Y0140286D02*
X0188619Y0140286D01*
X0186671Y0136500D02*
X0181671Y0141500D01*
X0072671Y0141500D01*
X0085034Y0119317D02*
X0098371Y0119317D01*
X0098371Y0118318D02*
X0084471Y0118318D01*
X0084471Y0117320D02*
X0098371Y0117320D01*
X0098371Y0116321D02*
X0084471Y0116321D01*
X0084471Y0115323D02*
X0098371Y0115323D01*
X0098371Y0114324D02*
X0084471Y0114324D01*
X0084471Y0113326D02*
X0098371Y0113326D01*
X0091225Y0103341D02*
X0084471Y0103341D01*
X0084471Y0104339D02*
X0089692Y0104339D01*
X0089101Y0105338D02*
X0084471Y0105338D01*
X0084471Y0106336D02*
X0088890Y0106336D01*
X0088966Y0107335D02*
X0084471Y0107335D01*
X0084471Y0108333D02*
X0089379Y0108333D01*
X0084471Y0080375D02*
X0098708Y0080375D01*
X0098371Y0079376D02*
X0084471Y0079376D01*
X0084471Y0078378D02*
X0098371Y0078378D01*
X0086005Y0077379D02*
X0084471Y0077379D01*
X0084471Y0076381D02*
X0085007Y0076381D01*
X0097123Y0059406D02*
X0098171Y0059406D01*
X0098171Y0058408D02*
X0096471Y0058408D01*
X0096471Y0057409D02*
X0098171Y0057409D01*
X0050671Y0116500D02*
X0052671Y0118500D01*
X0052671Y0185500D01*
X0054171Y0187000D01*
X0168671Y0187000D01*
X0170671Y0185000D01*
X0170671Y0168500D01*
X0172671Y0166500D01*
X0199671Y0166500D01*
X0211671Y0166500D01*
X0213171Y0168000D01*
X0213171Y0181000D01*
X0211671Y0182500D01*
X0195171Y0182500D01*
X0193171Y0184500D01*
X0193171Y0293000D01*
X0191171Y0295000D01*
X0052171Y0295000D01*
X0047371Y0295055D02*
X0046971Y0295055D01*
X0046971Y0296053D02*
X0047371Y0296053D01*
X0047371Y0297052D02*
X0046971Y0297052D01*
X0046971Y0298050D02*
X0047883Y0298050D01*
X0046971Y0299049D02*
X0057871Y0299049D01*
X0057871Y0300047D02*
X0046971Y0300047D01*
X0046971Y0301046D02*
X0057871Y0301046D01*
X0057871Y0302044D02*
X0056554Y0302044D01*
X0056971Y0303043D02*
X0057583Y0303043D01*
X0058171Y0305000D02*
X0059671Y0303500D01*
X0059671Y0299000D01*
X0061171Y0297500D01*
X0193171Y0297500D01*
X0189049Y0280077D02*
X0087971Y0280077D01*
X0087971Y0279079D02*
X0189371Y0279079D01*
X0189371Y0278080D02*
X0087971Y0278080D01*
X0087971Y0277082D02*
X0189371Y0277082D01*
X0189371Y0276083D02*
X0087971Y0276083D01*
X0087971Y0275085D02*
X0189371Y0275085D01*
X0189371Y0274086D02*
X0087971Y0274086D01*
X0087971Y0273088D02*
X0178994Y0273088D01*
X0178994Y0273124D02*
X0178994Y0237277D01*
X0179287Y0236984D01*
X0187575Y0236984D01*
X0187868Y0237277D01*
X0187868Y0273124D01*
X0187575Y0273417D01*
X0179287Y0273417D01*
X0178994Y0273124D01*
X0178994Y0272089D02*
X0166621Y0272089D01*
X0166621Y0271091D02*
X0178994Y0271091D01*
X0178994Y0270092D02*
X0166621Y0270092D01*
X0166621Y0269094D02*
X0178994Y0269094D01*
X0178994Y0268095D02*
X0166470Y0268095D01*
X0166621Y0267097D02*
X0178994Y0267097D01*
X0178994Y0266098D02*
X0166621Y0266098D01*
X0166621Y0265100D02*
X0178994Y0265100D01*
X0178994Y0264101D02*
X0172210Y0264101D01*
X0173059Y0263103D02*
X0178994Y0263103D01*
X0178994Y0262104D02*
X0173452Y0262104D01*
X0173452Y0261105D02*
X0178994Y0261105D01*
X0178994Y0260107D02*
X0173146Y0260107D01*
X0172420Y0259108D02*
X0178994Y0259108D01*
X0178994Y0258110D02*
X0166621Y0258110D01*
X0166621Y0259108D02*
X0167923Y0259108D01*
X0166621Y0257111D02*
X0178994Y0257111D01*
X0178994Y0256113D02*
X0166621Y0256113D01*
X0166458Y0255114D02*
X0178994Y0255114D01*
X0178994Y0254116D02*
X0166621Y0254116D01*
X0166621Y0253117D02*
X0178994Y0253117D01*
X0178994Y0252119D02*
X0166621Y0252119D01*
X0166621Y0251120D02*
X0178994Y0251120D01*
X0178994Y0250122D02*
X0166821Y0250122D01*
X0166821Y0249123D02*
X0178994Y0249123D01*
X0178994Y0248125D02*
X0166821Y0248125D01*
X0166820Y0247126D02*
X0178994Y0247126D01*
X0178994Y0246128D02*
X0166621Y0246128D01*
X0166621Y0245129D02*
X0178994Y0245129D01*
X0178994Y0244131D02*
X0166621Y0244131D01*
X0166621Y0243132D02*
X0178994Y0243132D01*
X0178994Y0242134D02*
X0166447Y0242134D01*
X0166621Y0241135D02*
X0178994Y0241135D01*
X0178994Y0240137D02*
X0166621Y0240137D01*
X0166621Y0239138D02*
X0178994Y0239138D01*
X0178994Y0238140D02*
X0166621Y0238140D01*
X0166621Y0237141D02*
X0179130Y0237141D01*
X0187732Y0237141D02*
X0189371Y0237141D01*
X0189371Y0236143D02*
X0166621Y0236143D01*
X0166621Y0235144D02*
X0189371Y0235144D01*
X0189371Y0234146D02*
X0168726Y0234146D01*
X0168983Y0233147D02*
X0189371Y0233147D01*
X0189371Y0232149D02*
X0168983Y0232149D01*
X0168983Y0231150D02*
X0189371Y0231150D01*
X0189371Y0230152D02*
X0168983Y0230152D01*
X0168983Y0229153D02*
X0189371Y0229153D01*
X0189371Y0228155D02*
X0168983Y0228155D01*
X0168839Y0227156D02*
X0189371Y0227156D01*
X0189371Y0238140D02*
X0187868Y0238140D01*
X0187868Y0239138D02*
X0189371Y0239138D01*
X0189371Y0240137D02*
X0187868Y0240137D01*
X0187868Y0241135D02*
X0189371Y0241135D01*
X0189371Y0242134D02*
X0187868Y0242134D01*
X0187868Y0243132D02*
X0189371Y0243132D01*
X0189371Y0244131D02*
X0187868Y0244131D01*
X0187868Y0245129D02*
X0189371Y0245129D01*
X0189371Y0246128D02*
X0187868Y0246128D01*
X0187868Y0247126D02*
X0189371Y0247126D01*
X0189371Y0248125D02*
X0187868Y0248125D01*
X0187868Y0249123D02*
X0189371Y0249123D01*
X0189371Y0250122D02*
X0187868Y0250122D01*
X0187868Y0251120D02*
X0189371Y0251120D01*
X0189371Y0252119D02*
X0187868Y0252119D01*
X0187868Y0253117D02*
X0189371Y0253117D01*
X0189371Y0254116D02*
X0187868Y0254116D01*
X0187868Y0255114D02*
X0189371Y0255114D01*
X0189371Y0256113D02*
X0187868Y0256113D01*
X0187868Y0257111D02*
X0189371Y0257111D01*
X0189371Y0258110D02*
X0187868Y0258110D01*
X0187868Y0259108D02*
X0189371Y0259108D01*
X0189371Y0260107D02*
X0187868Y0260107D01*
X0187868Y0261105D02*
X0189371Y0261105D01*
X0189371Y0262104D02*
X0187868Y0262104D01*
X0187868Y0263103D02*
X0189371Y0263103D01*
X0189371Y0264101D02*
X0187868Y0264101D01*
X0187868Y0265100D02*
X0189371Y0265100D01*
X0189371Y0266098D02*
X0187868Y0266098D01*
X0187868Y0267097D02*
X0189371Y0267097D01*
X0189371Y0268095D02*
X0187868Y0268095D01*
X0187868Y0269094D02*
X0189371Y0269094D01*
X0189371Y0270092D02*
X0187868Y0270092D01*
X0187868Y0271091D02*
X0189371Y0271091D01*
X0189371Y0272089D02*
X0187868Y0272089D01*
X0187868Y0273088D02*
X0189371Y0273088D01*
X0196971Y0273088D02*
X0200638Y0273088D01*
X0200641Y0274086D02*
X0196971Y0274086D01*
X0196971Y0275085D02*
X0201055Y0275085D01*
X0202223Y0276083D02*
X0196971Y0276083D01*
X0196971Y0272089D02*
X0200989Y0272089D01*
X0201866Y0271091D02*
X0196971Y0271091D01*
X0206154Y0243132D02*
X0220071Y0243132D01*
X0220071Y0242134D02*
X0206382Y0242134D01*
X0206255Y0241135D02*
X0220071Y0241135D01*
X0220071Y0240137D02*
X0205696Y0240137D01*
X0191371Y0196202D02*
X0191014Y0196202D01*
X0191371Y0195204D02*
X0161495Y0195204D01*
X0157848Y0195204D02*
X0051771Y0195204D01*
X0051771Y0196202D02*
X0156865Y0196202D01*
X0153671Y0196500D02*
X0153671Y0202000D01*
X0151171Y0204500D01*
X0151171Y0247000D01*
X0152876Y0248705D01*
X0161384Y0248705D01*
X0155947Y0249123D02*
X0149571Y0249123D01*
X0149571Y0248125D02*
X0155947Y0248125D01*
X0155948Y0247126D02*
X0149571Y0247126D01*
X0149571Y0246128D02*
X0154112Y0246128D01*
X0155947Y0250122D02*
X0149571Y0250122D01*
X0150479Y0251120D02*
X0156147Y0251120D01*
X0156310Y0255114D02*
X0147426Y0255114D01*
X0148100Y0254116D02*
X0143071Y0254116D01*
X0143071Y0253117D02*
X0147102Y0253117D01*
X0146103Y0252119D02*
X0143071Y0252119D01*
X0143071Y0251120D02*
X0145771Y0251120D01*
X0145771Y0250122D02*
X0143071Y0250122D01*
X0143071Y0249123D02*
X0145771Y0249123D01*
X0145771Y0248125D02*
X0143071Y0248125D01*
X0143071Y0247126D02*
X0145771Y0247126D01*
X0145771Y0246128D02*
X0143071Y0246128D01*
X0143071Y0245129D02*
X0145771Y0245129D01*
X0145771Y0244131D02*
X0143071Y0244131D01*
X0143071Y0243132D02*
X0145771Y0243132D01*
X0145771Y0242134D02*
X0143071Y0242134D01*
X0143071Y0241135D02*
X0145771Y0241135D01*
X0145771Y0240137D02*
X0143071Y0240137D01*
X0143071Y0239138D02*
X0145771Y0239138D01*
X0145771Y0238140D02*
X0143071Y0238140D01*
X0143071Y0237141D02*
X0145771Y0237141D01*
X0145771Y0236143D02*
X0143071Y0236143D01*
X0143071Y0235144D02*
X0145771Y0235144D01*
X0145771Y0234146D02*
X0143071Y0234146D01*
X0143071Y0233147D02*
X0145771Y0233147D01*
X0145771Y0232149D02*
X0143071Y0232149D01*
X0143071Y0231150D02*
X0145771Y0231150D01*
X0145771Y0230152D02*
X0143071Y0230152D01*
X0143071Y0229153D02*
X0145771Y0229153D01*
X0145771Y0228155D02*
X0143071Y0228155D01*
X0143071Y0227156D02*
X0145771Y0227156D01*
X0145771Y0226158D02*
X0143071Y0226158D01*
X0143071Y0225159D02*
X0145771Y0225159D01*
X0145771Y0224161D02*
X0143071Y0224161D01*
X0143071Y0223162D02*
X0145771Y0223162D01*
X0145771Y0222164D02*
X0143071Y0222164D01*
X0143071Y0221165D02*
X0145771Y0221165D01*
X0145771Y0220167D02*
X0143071Y0220167D01*
X0143071Y0219168D02*
X0145771Y0219168D01*
X0145771Y0218170D02*
X0143071Y0218170D01*
X0143071Y0217171D02*
X0145771Y0217171D01*
X0145771Y0216172D02*
X0143071Y0216172D01*
X0143071Y0215174D02*
X0145771Y0215174D01*
X0145771Y0214175D02*
X0143071Y0214175D01*
X0143071Y0213177D02*
X0145771Y0213177D01*
X0145771Y0212178D02*
X0143071Y0212178D01*
X0143071Y0211180D02*
X0145771Y0211180D01*
X0145771Y0210181D02*
X0143071Y0210181D01*
X0143071Y0209183D02*
X0145771Y0209183D01*
X0145771Y0208184D02*
X0143071Y0208184D01*
X0143071Y0207186D02*
X0145771Y0207186D01*
X0145771Y0206187D02*
X0143071Y0206187D01*
X0143071Y0205189D02*
X0145771Y0205189D01*
X0145771Y0204190D02*
X0143071Y0204190D01*
X0143071Y0203192D02*
X0145771Y0203192D01*
X0145771Y0202193D02*
X0143118Y0202193D01*
X0144021Y0201195D02*
X0145771Y0201195D01*
X0145788Y0200196D02*
X0144434Y0200196D01*
X0144452Y0199198D02*
X0145890Y0199198D01*
X0146159Y0198199D02*
X0144184Y0198199D01*
X0143512Y0197201D02*
X0146830Y0197201D01*
X0139225Y0202193D02*
X0051771Y0202193D01*
X0051771Y0201195D02*
X0138322Y0201195D01*
X0137908Y0200196D02*
X0051771Y0200196D01*
X0051771Y0199198D02*
X0137890Y0199198D01*
X0138159Y0198199D02*
X0051771Y0198199D01*
X0051771Y0197201D02*
X0138830Y0197201D01*
X0139271Y0203192D02*
X0051771Y0203192D01*
X0051771Y0204190D02*
X0139271Y0204190D01*
X0139271Y0205189D02*
X0051771Y0205189D01*
X0051771Y0206187D02*
X0139271Y0206187D01*
X0139271Y0207186D02*
X0051771Y0207186D01*
X0051771Y0208184D02*
X0139271Y0208184D01*
X0139271Y0209183D02*
X0051771Y0209183D01*
X0051771Y0210181D02*
X0139271Y0210181D01*
X0139271Y0211180D02*
X0051771Y0211180D01*
X0051771Y0212178D02*
X0139271Y0212178D01*
X0139271Y0213177D02*
X0051771Y0213177D01*
X0051771Y0214175D02*
X0139271Y0214175D01*
X0139271Y0215174D02*
X0051771Y0215174D01*
X0051771Y0216172D02*
X0139271Y0216172D01*
X0139271Y0217171D02*
X0051771Y0217171D01*
X0051771Y0218170D02*
X0139271Y0218170D01*
X0139271Y0219168D02*
X0051771Y0219168D01*
X0051771Y0220167D02*
X0139271Y0220167D01*
X0139271Y0221165D02*
X0051771Y0221165D01*
X0051771Y0222164D02*
X0139271Y0222164D01*
X0139271Y0223162D02*
X0051771Y0223162D01*
X0051771Y0224161D02*
X0139271Y0224161D01*
X0139271Y0225159D02*
X0051771Y0225159D01*
X0051771Y0226158D02*
X0139271Y0226158D01*
X0139271Y0227156D02*
X0052459Y0227156D01*
X0052873Y0228155D02*
X0139271Y0228155D01*
X0139271Y0229153D02*
X0052952Y0229153D01*
X0052746Y0230152D02*
X0139271Y0230152D01*
X0139271Y0231150D02*
X0052161Y0231150D01*
X0050644Y0232149D02*
X0139271Y0232149D01*
X0139271Y0233147D02*
X0048070Y0233147D01*
X0047171Y0231500D02*
X0049671Y0229000D01*
X0049671Y0228500D01*
X0047171Y0231500D02*
X0041171Y0231500D01*
X0042971Y0234146D02*
X0139271Y0234146D01*
X0139271Y0235144D02*
X0042971Y0235144D01*
X0042971Y0236143D02*
X0139271Y0236143D01*
X0139271Y0237141D02*
X0042971Y0237141D01*
X0042971Y0238140D02*
X0139271Y0238140D01*
X0139271Y0239138D02*
X0054450Y0239138D01*
X0055158Y0240137D02*
X0139271Y0240137D01*
X0139271Y0241135D02*
X0055452Y0241135D01*
X0055452Y0242134D02*
X0069860Y0242134D01*
X0069860Y0243132D02*
X0055047Y0243132D01*
X0049893Y0239138D02*
X0042971Y0239138D01*
X0042971Y0240137D02*
X0049185Y0240137D01*
X0048890Y0241135D02*
X0042971Y0241135D01*
X0042971Y0242134D02*
X0048890Y0242134D01*
X0049296Y0243132D02*
X0042971Y0243132D01*
X0042971Y0244131D02*
X0047702Y0244131D01*
X0047371Y0245129D02*
X0042971Y0245129D01*
X0042971Y0246128D02*
X0047371Y0246128D01*
X0047371Y0247126D02*
X0042971Y0247126D01*
X0042971Y0248125D02*
X0047371Y0248125D01*
X0047371Y0249123D02*
X0042971Y0249123D01*
X0039371Y0241135D02*
X0023676Y0241135D01*
X0023953Y0240859D02*
X0023030Y0241782D01*
X0021824Y0242281D01*
X0020163Y0242134D02*
X0007271Y0242134D01*
X0007271Y0241135D02*
X0018666Y0241135D01*
X0018091Y0240137D02*
X0007271Y0240137D01*
X0007271Y0239138D02*
X0017890Y0239138D01*
X0017976Y0238140D02*
X0007271Y0238140D01*
X0007271Y0235144D02*
X0019271Y0235144D01*
X0019271Y0236260D02*
X0018390Y0237141D01*
X0017998Y0234146D02*
X0007271Y0234146D01*
X0007271Y0233147D02*
X0017860Y0233147D01*
X0017860Y0232149D02*
X0007271Y0232149D01*
X0007271Y0231150D02*
X0017860Y0231150D01*
X0017860Y0230152D02*
X0007271Y0230152D01*
X0007271Y0229153D02*
X0017860Y0229153D01*
X0019525Y0228155D02*
X0007271Y0228155D01*
X0007271Y0227156D02*
X0019525Y0227156D01*
X0019525Y0226158D02*
X0007271Y0226158D01*
X0007271Y0225159D02*
X0019525Y0225159D01*
X0018013Y0224161D02*
X0007271Y0224161D01*
X0007271Y0223162D02*
X0017860Y0223162D01*
X0017860Y0222164D02*
X0007271Y0222164D01*
X0007271Y0221165D02*
X0017860Y0221165D01*
X0017860Y0220167D02*
X0007271Y0220167D01*
X0007271Y0219168D02*
X0017860Y0219168D01*
X0021325Y0221500D02*
X0021325Y0231500D01*
X0024652Y0234146D02*
X0024691Y0234146D01*
X0023953Y0237141D02*
X0024452Y0238347D01*
X0024452Y0239653D01*
X0023953Y0240859D01*
X0024252Y0240137D02*
X0039371Y0240137D01*
X0039371Y0239138D02*
X0024452Y0239138D01*
X0024366Y0238140D02*
X0039371Y0238140D01*
X0045671Y0221500D02*
X0028018Y0221500D01*
X0031483Y0219168D02*
X0045371Y0219168D01*
X0045371Y0218170D02*
X0007271Y0218170D01*
X0007271Y0217171D02*
X0045371Y0217171D01*
X0045371Y0216172D02*
X0007271Y0216172D01*
X0007271Y0215174D02*
X0045371Y0215174D01*
X0045371Y0214175D02*
X0007271Y0214175D01*
X0007271Y0213177D02*
X0026196Y0213177D01*
X0026258Y0213213D02*
X0025916Y0213015D01*
X0025636Y0212736D01*
X0025439Y0212394D01*
X0025337Y0212012D01*
X0025337Y0210528D01*
X0028321Y0210528D01*
X0028321Y0213315D01*
X0026639Y0213315D01*
X0026258Y0213213D01*
X0025381Y0212178D02*
X0007271Y0212178D01*
X0007271Y0211180D02*
X0025337Y0211180D01*
X0025337Y0209953D02*
X0025337Y0208468D01*
X0025439Y0208086D01*
X0025636Y0207744D01*
X0025916Y0207465D01*
X0026258Y0207268D01*
X0026639Y0207165D01*
X0028321Y0207165D01*
X0028321Y0209953D01*
X0025337Y0209953D01*
X0025337Y0209183D02*
X0022843Y0209183D01*
X0023412Y0208184D02*
X0025413Y0208184D01*
X0026563Y0207186D02*
X0023412Y0207186D01*
X0023412Y0206187D02*
X0045371Y0206187D01*
X0045371Y0205189D02*
X0031364Y0205189D01*
X0030959Y0207268D02*
X0031301Y0207465D01*
X0031580Y0207744D01*
X0031778Y0208086D01*
X0031880Y0208468D01*
X0031880Y0209953D01*
X0028896Y0209953D01*
X0028896Y0210528D01*
X0028321Y0210528D01*
X0028321Y0209953D01*
X0028896Y0209953D01*
X0028896Y0207165D01*
X0030577Y0207165D01*
X0030959Y0207268D01*
X0030654Y0207186D02*
X0045371Y0207186D01*
X0045371Y0208184D02*
X0031804Y0208184D01*
X0031880Y0209183D02*
X0045371Y0209183D01*
X0045371Y0210181D02*
X0028896Y0210181D01*
X0028671Y0210303D02*
X0028608Y0210240D01*
X0028671Y0210303D02*
X0028868Y0210500D01*
X0043171Y0210500D01*
X0045371Y0211180D02*
X0031880Y0211180D01*
X0031880Y0210528D02*
X0031880Y0212012D01*
X0031778Y0212394D01*
X0031580Y0212736D01*
X0031301Y0213015D01*
X0030959Y0213213D01*
X0030577Y0213315D01*
X0028896Y0213315D01*
X0028896Y0210528D01*
X0031880Y0210528D01*
X0031836Y0212178D02*
X0045371Y0212178D01*
X0045371Y0213177D02*
X0031021Y0213177D01*
X0028896Y0213177D02*
X0028321Y0213177D01*
X0028321Y0212178D02*
X0028896Y0212178D01*
X0028896Y0211180D02*
X0028321Y0211180D01*
X0028321Y0210181D02*
X0007271Y0210181D01*
X0007271Y0209183D02*
X0017839Y0209183D01*
X0017269Y0208184D02*
X0007271Y0208184D01*
X0007271Y0207186D02*
X0017269Y0207186D01*
X0017269Y0206187D02*
X0007271Y0206187D01*
X0007271Y0205189D02*
X0017269Y0205189D01*
X0017465Y0204190D02*
X0007271Y0204190D01*
X0007271Y0203192D02*
X0018171Y0203192D01*
X0018171Y0202193D02*
X0007271Y0202193D01*
X0007271Y0201195D02*
X0018171Y0201195D01*
X0018171Y0200196D02*
X0007271Y0200196D01*
X0007271Y0199198D02*
X0018171Y0199198D01*
X0018171Y0198199D02*
X0007271Y0198199D01*
X0007271Y0197201D02*
X0018171Y0197201D01*
X0018171Y0196202D02*
X0007271Y0196202D01*
X0007271Y0195204D02*
X0018171Y0195204D01*
X0018058Y0194205D02*
X0007271Y0194205D01*
X0007271Y0193207D02*
X0017860Y0193207D01*
X0017860Y0192208D02*
X0007271Y0192208D01*
X0007271Y0191210D02*
X0017860Y0191210D01*
X0017860Y0190211D02*
X0007271Y0190211D01*
X0007271Y0189213D02*
X0017860Y0189213D01*
X0018825Y0188214D02*
X0007271Y0188214D01*
X0007271Y0187216D02*
X0018825Y0187216D01*
X0018825Y0186217D02*
X0007271Y0186217D01*
X0007271Y0185219D02*
X0018825Y0185219D01*
X0018073Y0184220D02*
X0007271Y0184220D01*
X0007271Y0183222D02*
X0017860Y0183222D01*
X0017860Y0182223D02*
X0007271Y0182223D01*
X0007271Y0181225D02*
X0017860Y0181225D01*
X0017860Y0180226D02*
X0007271Y0180226D01*
X0007271Y0179228D02*
X0017860Y0179228D01*
X0018825Y0178229D02*
X0007271Y0178229D01*
X0007271Y0177231D02*
X0018825Y0177231D01*
X0018825Y0176232D02*
X0007271Y0176232D01*
X0007271Y0175234D02*
X0018825Y0175234D01*
X0018088Y0174235D02*
X0007271Y0174235D01*
X0007271Y0173237D02*
X0017860Y0173237D01*
X0017860Y0172238D02*
X0007271Y0172238D01*
X0007271Y0171239D02*
X0017860Y0171239D01*
X0017860Y0170241D02*
X0007271Y0170241D01*
X0007271Y0169242D02*
X0017860Y0169242D01*
X0018609Y0168244D02*
X0007271Y0168244D01*
X0007271Y0167245D02*
X0018825Y0167245D01*
X0018825Y0166247D02*
X0007271Y0166247D01*
X0007271Y0165248D02*
X0018825Y0165248D01*
X0018102Y0164250D02*
X0007271Y0164250D01*
X0007271Y0163251D02*
X0017860Y0163251D01*
X0017860Y0162253D02*
X0007271Y0162253D01*
X0007271Y0161254D02*
X0017860Y0161254D01*
X0017860Y0160256D02*
X0007271Y0160256D01*
X0007271Y0159257D02*
X0017860Y0159257D01*
X0018594Y0158259D02*
X0007271Y0158259D01*
X0024056Y0158259D02*
X0025287Y0158259D01*
X0030749Y0158259D02*
X0036422Y0158259D01*
X0034774Y0159257D02*
X0031483Y0159257D01*
X0031240Y0164250D02*
X0035281Y0164250D01*
X0036458Y0168244D02*
X0030734Y0168244D01*
X0031483Y0169242D02*
X0034789Y0169242D01*
X0037884Y0168244D02*
X0043871Y0168244D01*
X0043871Y0169242D02*
X0039554Y0169242D01*
X0040201Y0170241D02*
X0043871Y0170241D01*
X0043871Y0171239D02*
X0040452Y0171239D01*
X0040417Y0172238D02*
X0043871Y0172238D01*
X0043871Y0173237D02*
X0040004Y0173237D01*
X0039077Y0174235D02*
X0043871Y0174235D01*
X0043871Y0175234D02*
X0023825Y0175234D01*
X0023825Y0176232D02*
X0043871Y0176232D01*
X0043871Y0177231D02*
X0023825Y0177231D01*
X0023825Y0178229D02*
X0036494Y0178229D01*
X0037849Y0178229D02*
X0043871Y0178229D01*
X0043871Y0179228D02*
X0039539Y0179228D01*
X0040195Y0180226D02*
X0043871Y0180226D01*
X0043871Y0181225D02*
X0040452Y0181225D01*
X0040423Y0182223D02*
X0043871Y0182223D01*
X0043871Y0183222D02*
X0040010Y0183222D01*
X0039091Y0184220D02*
X0043871Y0184220D01*
X0043871Y0185219D02*
X0023825Y0185219D01*
X0023825Y0186217D02*
X0043871Y0186217D01*
X0043871Y0187216D02*
X0023825Y0187216D01*
X0023825Y0188214D02*
X0043871Y0188214D01*
X0043895Y0189213D02*
X0039524Y0189213D01*
X0040189Y0190211D02*
X0044308Y0190211D01*
X0045214Y0191210D02*
X0040452Y0191210D01*
X0040429Y0192208D02*
X0046213Y0192208D01*
X0047211Y0193207D02*
X0040016Y0193207D01*
X0039106Y0194205D02*
X0047571Y0194205D01*
X0047571Y0195204D02*
X0023171Y0195204D01*
X0023171Y0196202D02*
X0047571Y0196202D01*
X0047571Y0197201D02*
X0023171Y0197201D01*
X0023171Y0198199D02*
X0047571Y0198199D01*
X0047571Y0199198D02*
X0023171Y0199198D01*
X0023171Y0200196D02*
X0025987Y0200196D01*
X0025537Y0201195D02*
X0023171Y0201195D01*
X0023171Y0202193D02*
X0025537Y0202193D01*
X0025537Y0203192D02*
X0023171Y0203192D01*
X0023216Y0204190D02*
X0025537Y0204190D01*
X0025852Y0205189D02*
X0023412Y0205189D01*
X0028321Y0207186D02*
X0028896Y0207186D01*
X0028896Y0208184D02*
X0028321Y0208184D01*
X0028321Y0209183D02*
X0028896Y0209183D01*
X0028608Y0202760D02*
X0028868Y0202500D01*
X0045671Y0202500D01*
X0047171Y0204000D01*
X0047171Y0220000D01*
X0045671Y0221500D01*
X0046912Y0201195D02*
X0047571Y0201195D01*
X0047571Y0200196D02*
X0031230Y0200196D01*
X0031285Y0194205D02*
X0035236Y0194205D01*
X0034818Y0189213D02*
X0031483Y0189213D01*
X0031270Y0184220D02*
X0035251Y0184220D01*
X0034804Y0179228D02*
X0031483Y0179228D01*
X0031255Y0174235D02*
X0035266Y0174235D01*
X0039062Y0164250D02*
X0043871Y0164250D01*
X0043871Y0165248D02*
X0023825Y0165248D01*
X0023825Y0166247D02*
X0043871Y0166247D01*
X0043871Y0167245D02*
X0023825Y0167245D01*
X0024041Y0168244D02*
X0025302Y0168244D01*
X0024795Y0164250D02*
X0024547Y0164250D01*
X0024562Y0174235D02*
X0024780Y0174235D01*
X0024766Y0184220D02*
X0024577Y0184220D01*
X0024592Y0194205D02*
X0024751Y0194205D01*
X0024671Y0124309D02*
X0028871Y0124309D01*
X0029522Y0123311D02*
X0024104Y0123311D01*
X0024671Y0121500D02*
X0022671Y0119500D01*
X0024671Y0111500D02*
X0022671Y0109500D01*
X0009165Y0109332D02*
X0007271Y0109332D01*
X0007271Y0108333D02*
X0008871Y0108333D01*
X0008871Y0107335D02*
X0007271Y0107335D01*
X0007271Y0106336D02*
X0008871Y0106336D01*
X0008871Y0105338D02*
X0007271Y0105338D01*
X0007271Y0104339D02*
X0008871Y0104339D01*
X0009492Y0103341D02*
X0007271Y0103341D01*
X0036671Y0116500D02*
X0050671Y0116500D01*
X0120971Y0135293D02*
X0185333Y0135293D01*
X0184334Y0136292D02*
X0120971Y0136292D01*
X0120971Y0137290D02*
X0183336Y0137290D01*
X0182337Y0138289D02*
X0120971Y0138289D01*
X0120971Y0139287D02*
X0181339Y0139287D01*
X0189065Y0152268D02*
X0126971Y0152268D01*
X0126971Y0153266D02*
X0188371Y0153266D01*
X0188371Y0154265D02*
X0126971Y0154265D01*
X0126971Y0155263D02*
X0128362Y0155263D01*
X0127364Y0156262D02*
X0126971Y0156262D01*
X0182557Y0194205D02*
X0191371Y0194205D01*
X0191371Y0193207D02*
X0184132Y0193207D01*
X0185130Y0192208D02*
X0191371Y0192208D01*
X0191371Y0191210D02*
X0186129Y0191210D01*
X0187127Y0190211D02*
X0191371Y0190211D01*
X0191371Y0189213D02*
X0188034Y0189213D01*
X0188447Y0188214D02*
X0191371Y0188214D01*
X0191371Y0187216D02*
X0188471Y0187216D01*
X0188471Y0186217D02*
X0191371Y0186217D01*
X0191371Y0185219D02*
X0188471Y0185219D01*
X0188471Y0184220D02*
X0191371Y0184220D01*
X0191904Y0183222D02*
X0188471Y0183222D01*
X0188471Y0182223D02*
X0192903Y0182223D01*
X0193901Y0181225D02*
X0188471Y0181225D01*
X0188471Y0180226D02*
X0188559Y0180226D01*
X0139271Y0242134D02*
X0083483Y0242134D01*
X0085849Y0243132D02*
X0139271Y0243132D01*
X0139271Y0244131D02*
X0086848Y0244131D01*
X0087846Y0245129D02*
X0139271Y0245129D01*
X0139271Y0246128D02*
X0087971Y0246128D01*
X0087971Y0247126D02*
X0139271Y0247126D01*
X0139271Y0248125D02*
X0087971Y0248125D01*
X0087971Y0249123D02*
X0139271Y0249123D01*
X0139271Y0250122D02*
X0087971Y0250122D01*
X0087971Y0251120D02*
X0139271Y0251120D01*
X0139271Y0252119D02*
X0087971Y0252119D01*
X0087971Y0253117D02*
X0139271Y0253117D01*
X0139271Y0254116D02*
X0087971Y0254116D01*
X0087971Y0255114D02*
X0139271Y0255114D01*
X0139271Y0256113D02*
X0087971Y0256113D01*
X0087971Y0257111D02*
X0139271Y0257111D01*
X0139271Y0258110D02*
X0087971Y0258110D01*
X0087971Y0259108D02*
X0139271Y0259108D01*
X0139271Y0260107D02*
X0087971Y0260107D01*
X0087971Y0261105D02*
X0139271Y0261105D01*
X0139271Y0262104D02*
X0087971Y0262104D01*
X0087971Y0263103D02*
X0139271Y0263103D01*
X0139271Y0264101D02*
X0087971Y0264101D01*
X0087971Y0265100D02*
X0139271Y0265100D01*
X0140082Y0266098D02*
X0087971Y0266098D01*
X0087971Y0267097D02*
X0141081Y0267097D01*
X0156147Y0269094D02*
X0087971Y0269094D01*
X0087971Y0270092D02*
X0156147Y0270092D01*
X0156147Y0271091D02*
X0087971Y0271091D01*
X0087971Y0272089D02*
X0156147Y0272089D01*
X0156298Y0268095D02*
X0087971Y0268095D01*
X0084371Y0266098D02*
X0083298Y0266098D01*
X0083968Y0265100D02*
X0084371Y0265100D01*
X0084371Y0264101D02*
X0083986Y0264101D01*
X0084371Y0256113D02*
X0083543Y0256113D01*
X0083683Y0255114D02*
X0084371Y0255114D01*
X0084371Y0254116D02*
X0083683Y0254116D01*
X0084671Y0244500D02*
X0080018Y0244500D01*
X0084371Y0277082D02*
X0042971Y0277082D01*
X0042971Y0278080D02*
X0084371Y0278080D01*
X0084371Y0279079D02*
X0042971Y0279079D01*
X0042971Y0280077D02*
X0084371Y0280077D01*
X0087971Y0281076D02*
X0158550Y0281076D01*
X0157552Y0282074D02*
X0087971Y0282074D01*
X0087971Y0283073D02*
X0156553Y0283073D01*
X0156371Y0284071D02*
X0087971Y0284071D01*
X0087971Y0285070D02*
X0156371Y0285070D01*
X0156371Y0286068D02*
X0087971Y0286068D01*
X0087971Y0287067D02*
X0156371Y0287067D01*
X0156371Y0288065D02*
X0087971Y0288065D01*
X0087971Y0289064D02*
X0156371Y0289064D01*
X0156371Y0290062D02*
X0087971Y0290062D01*
X0085684Y0293058D02*
X0056971Y0293058D01*
X0056569Y0292059D02*
X0084685Y0292059D01*
X0084371Y0291061D02*
X0046971Y0291061D01*
X0046971Y0292059D02*
X0047774Y0292059D01*
X0047371Y0293058D02*
X0046971Y0293058D01*
X0046971Y0294056D02*
X0047371Y0294056D01*
X0046971Y0290062D02*
X0084371Y0290062D01*
X0084371Y0289064D02*
X0046971Y0289064D01*
X0046971Y0288065D02*
X0047898Y0288065D01*
X0047371Y0287067D02*
X0046971Y0287067D01*
X0039371Y0287067D02*
X0007271Y0287067D01*
X0007271Y0288065D02*
X0039371Y0288065D01*
X0039371Y0289064D02*
X0007271Y0289064D01*
X0007271Y0290062D02*
X0039371Y0290062D01*
X0039371Y0291061D02*
X0007271Y0291061D01*
X0007271Y0292059D02*
X0039371Y0292059D01*
X0039371Y0293058D02*
X0007271Y0293058D01*
X0007271Y0294056D02*
X0039371Y0294056D01*
X0039371Y0295055D02*
X0007271Y0295055D01*
X0007271Y0296053D02*
X0039371Y0296053D01*
X0039371Y0297052D02*
X0007271Y0297052D01*
X0007271Y0298050D02*
X0039371Y0298050D01*
X0039371Y0299049D02*
X0007271Y0299049D01*
X0007271Y0300047D02*
X0039371Y0300047D01*
X0039371Y0301046D02*
X0007271Y0301046D01*
X0007271Y0302044D02*
X0039371Y0302044D01*
X0039371Y0303043D02*
X0007271Y0303043D01*
X0007271Y0304041D02*
X0039371Y0304041D01*
X0039371Y0305040D02*
X0007271Y0305040D01*
X0007271Y0306039D02*
X0039371Y0306039D01*
X0039371Y0307037D02*
X0007271Y0307037D01*
X0007271Y0308036D02*
X0039371Y0308036D01*
X0039371Y0309034D02*
X0007271Y0309034D01*
X0007271Y0310033D02*
X0039371Y0310033D01*
X0039371Y0311031D02*
X0007271Y0311031D01*
X0007271Y0312030D02*
X0039371Y0312030D01*
X0039371Y0313028D02*
X0007271Y0313028D01*
X0007271Y0314027D02*
X0039371Y0314027D01*
X0039371Y0315025D02*
X0007271Y0315025D01*
X0007271Y0316024D02*
X0039371Y0316024D01*
X0039371Y0317022D02*
X0007271Y0317022D01*
X0007271Y0318021D02*
X0039646Y0318021D01*
X0040645Y0319019D02*
X0007271Y0319019D01*
X0007271Y0320018D02*
X0041643Y0320018D01*
X0042971Y0316024D02*
X0047171Y0316024D01*
X0047171Y0314027D02*
X0042971Y0314027D01*
X0043171Y0313500D02*
X0044671Y0315000D01*
X0052171Y0315000D01*
X0051671Y0315025D02*
X0042971Y0315025D01*
X0047252Y0308036D02*
X0047868Y0308036D01*
X0047371Y0307037D02*
X0046971Y0307037D01*
X0046971Y0306039D02*
X0047371Y0306039D01*
X0047371Y0305040D02*
X0046971Y0305040D01*
X0046971Y0304041D02*
X0047371Y0304041D01*
X0047371Y0303043D02*
X0046971Y0303043D01*
X0046971Y0302044D02*
X0047788Y0302044D01*
X0052171Y0305000D02*
X0058171Y0305000D01*
X0059678Y0306039D02*
X0220071Y0306039D01*
X0220071Y0307037D02*
X0056971Y0307037D01*
X0056474Y0308036D02*
X0220071Y0308036D01*
X0220071Y0309034D02*
X0059251Y0309034D01*
X0060249Y0310033D02*
X0220071Y0310033D01*
X0220071Y0311031D02*
X0060971Y0311031D01*
X0060971Y0312030D02*
X0220071Y0312030D01*
X0220071Y0313028D02*
X0060971Y0313028D01*
X0060971Y0314027D02*
X0220071Y0314027D01*
X0220071Y0315025D02*
X0060971Y0315025D01*
X0060971Y0316024D02*
X0220071Y0316024D01*
X0220071Y0317022D02*
X0060971Y0317022D01*
X0060696Y0318021D02*
X0220071Y0318021D01*
X0220071Y0319019D02*
X0059698Y0319019D01*
X0058699Y0320018D02*
X0220071Y0320018D01*
X0220071Y0321016D02*
X0007271Y0321016D01*
X0007271Y0322015D02*
X0220071Y0322015D01*
X0220071Y0323013D02*
X0007271Y0323013D01*
X0007271Y0324012D02*
X0220071Y0324012D01*
X0220071Y0325010D02*
X0007271Y0325010D01*
X0007271Y0326009D02*
X0025107Y0326009D01*
X0039371Y0286068D02*
X0007271Y0286068D01*
X0007271Y0285070D02*
X0039371Y0285070D01*
X0039371Y0284071D02*
X0007271Y0284071D01*
X0007271Y0283073D02*
X0039371Y0283073D01*
X0039371Y0282074D02*
X0007271Y0282074D01*
X0007271Y0281076D02*
X0039371Y0281076D01*
X0039371Y0280077D02*
X0007271Y0280077D01*
X0007271Y0279079D02*
X0039371Y0279079D01*
X0039371Y0278080D02*
X0007271Y0278080D01*
X0007271Y0277082D02*
X0039371Y0277082D01*
X0039371Y0276083D02*
X0007271Y0276083D01*
X0007271Y0275085D02*
X0039371Y0275085D01*
X0039371Y0274086D02*
X0007271Y0274086D01*
X0007271Y0273088D02*
X0039371Y0273088D01*
X0039371Y0272089D02*
X0007271Y0272089D01*
X0007271Y0271091D02*
X0039371Y0271091D01*
X0039371Y0270092D02*
X0007271Y0270092D01*
X0007271Y0269094D02*
X0039371Y0269094D01*
X0039371Y0268095D02*
X0007271Y0268095D01*
X0007271Y0267097D02*
X0039371Y0267097D01*
X0039371Y0266098D02*
X0007271Y0266098D01*
X0007271Y0265100D02*
X0039371Y0265100D01*
X0039371Y0264101D02*
X0007271Y0264101D01*
X0007271Y0263103D02*
X0039371Y0263103D01*
X0056971Y0297052D02*
X0059074Y0297052D01*
X0058075Y0298050D02*
X0056459Y0298050D01*
X0061471Y0300047D02*
X0220071Y0300047D01*
X0220071Y0301046D02*
X0061471Y0301046D01*
X0061471Y0302044D02*
X0220071Y0302044D01*
X0220071Y0303043D02*
X0061471Y0303043D01*
X0061471Y0304041D02*
X0220071Y0304041D01*
X0220071Y0305040D02*
X0060677Y0305040D01*
X0056926Y0311800D02*
X0056593Y0311800D01*
X0056872Y0312079D01*
X0057069Y0312421D01*
X0057171Y0312803D01*
X0057171Y0314500D01*
X0052671Y0314500D01*
X0052671Y0315500D01*
X0057171Y0315500D01*
X0057171Y0316454D01*
X0057371Y0316254D01*
X0057371Y0312246D01*
X0056926Y0311800D01*
X0056822Y0312030D02*
X0057155Y0312030D01*
X0057171Y0313028D02*
X0057371Y0313028D01*
X0057371Y0314027D02*
X0057171Y0314027D01*
X0057371Y0315025D02*
X0052671Y0315025D01*
X0057171Y0316024D02*
X0057371Y0316024D01*
X0166611Y0264101D02*
X0168132Y0264101D01*
X0202236Y0326009D02*
X0220071Y0326009D01*
X0210871Y0062402D02*
X0210412Y0062402D01*
D21*
X0178671Y0066500D03*
X0155671Y0102000D03*
X0141671Y0102000D03*
X0133171Y0107500D03*
X0128171Y0112500D03*
X0141171Y0116500D03*
X0149171Y0076500D03*
X0137171Y0056500D03*
X0137171Y0051500D03*
X0132171Y0051500D03*
X0127171Y0051500D03*
X0127171Y0056500D03*
X0132171Y0056500D03*
X0121671Y0041500D03*
X0115171Y0045500D03*
X0115171Y0050500D03*
X0109671Y0050500D03*
X0109671Y0045500D03*
X0104171Y0045500D03*
X0104171Y0050500D03*
X0094171Y0066500D03*
X0092171Y0106500D03*
X0069671Y0156500D03*
X0048671Y0156500D03*
X0037171Y0161500D03*
X0037171Y0171500D03*
X0037171Y0181500D03*
X0037171Y0191500D03*
X0043171Y0210500D03*
X0054171Y0210500D03*
X0049671Y0229000D03*
X0052171Y0241500D03*
X0021171Y0239000D03*
X0021671Y0147000D03*
X0016671Y0147000D03*
X0011671Y0147000D03*
X0011671Y0142000D03*
X0016671Y0142000D03*
X0021671Y0142000D03*
X0141171Y0164500D03*
X0149171Y0164500D03*
X0159671Y0171500D03*
X0166171Y0168000D03*
X0175171Y0176500D03*
X0180171Y0176500D03*
X0185171Y0176500D03*
X0188671Y0198500D03*
X0166171Y0181500D03*
X0159671Y0181500D03*
X0159671Y0198000D03*
X0149171Y0199500D03*
X0141171Y0199500D03*
X0141171Y0181000D03*
X0149171Y0181500D03*
X0186171Y0146500D03*
X0145171Y0257500D03*
X0170171Y0261500D03*
D22*
X0159868Y0261500D01*
X0161384Y0261697D01*
X0161384Y0266028D02*
X0142699Y0266028D01*
X0141171Y0264500D01*
X0141171Y0199500D01*
X0147671Y0201000D02*
X0149171Y0199500D01*
X0147671Y0201000D02*
X0147671Y0251000D01*
X0149707Y0253035D01*
X0161384Y0253035D01*
X0161384Y0257366D02*
X0144805Y0257366D01*
X0145171Y0257500D01*
X0155171Y0244500D02*
X0154171Y0243500D01*
X0154171Y0226500D01*
X0155171Y0225500D01*
X0158671Y0225500D01*
X0159671Y0224500D01*
X0159671Y0198000D01*
X0159671Y0181500D02*
X0159671Y0171500D01*
X0166171Y0168000D02*
X0166171Y0181500D01*
X0149171Y0181500D02*
X0149171Y0164500D01*
X0141171Y0164500D02*
X0141171Y0181000D01*
X0155171Y0244500D02*
X0159797Y0244500D01*
X0141171Y0116500D02*
X0109671Y0116500D01*
X0109671Y0106500D02*
X0092171Y0106500D01*
X0109671Y0096500D02*
X0131671Y0096500D01*
X0133171Y0098000D01*
X0133171Y0107500D01*
X0137171Y0111000D02*
X0135671Y0112500D01*
X0128171Y0112500D01*
X0137171Y0111000D02*
X0137171Y0088500D01*
X0135171Y0086500D01*
X0109671Y0086500D01*
X0109671Y0076500D02*
X0149171Y0076500D01*
X0122171Y0041500D02*
X0121671Y0041500D01*
X0178671Y0066500D02*
X0199671Y0066500D01*
X0037171Y0161500D02*
X0028018Y0161500D01*
X0028018Y0171500D02*
X0037171Y0171500D01*
X0037171Y0181500D02*
X0028018Y0181500D01*
X0028018Y0191500D02*
X0037171Y0191500D01*
X0021325Y0231500D02*
X0021171Y0231654D01*
X0021171Y0239000D01*
D23*
X0049671Y0228500D02*
X0049671Y0191000D01*
X0021671Y0147000D02*
X0016671Y0147000D01*
X0011671Y0147000D01*
X0011671Y0142000D01*
X0016671Y0142000D01*
X0021671Y0142000D01*
X0021671Y0147000D01*
X0016671Y0147000D02*
X0016671Y0142000D01*
X0016671Y0136500D01*
X0052171Y0241500D02*
X0052171Y0247000D01*
X0052171Y0267000D02*
X0065671Y0267000D01*
X0070171Y0271500D01*
X0077002Y0271500D01*
X0159797Y0244500D02*
X0161384Y0244374D01*
X0155671Y0102000D02*
X0141671Y0102000D01*
X0137171Y0056500D02*
X0132171Y0056500D01*
X0132171Y0051500D01*
X0127171Y0051500D02*
X0127171Y0056500D01*
X0132171Y0056500D01*
X0127171Y0056500D02*
X0115171Y0056500D01*
X0110671Y0056500D01*
X0104671Y0057500D01*
X0104171Y0057000D01*
X0104171Y0050500D01*
X0104171Y0045500D01*
X0109671Y0045500D01*
X0115171Y0045500D01*
X0115171Y0050500D01*
X0110171Y0050500D01*
X0109671Y0050000D01*
X0109671Y0050500D01*
X0109671Y0057000D01*
X0110671Y0056500D01*
X0109671Y0056500D01*
X0109671Y0050500D02*
X0104171Y0050500D01*
X0109671Y0050500D02*
X0115171Y0050500D01*
X0115171Y0056500D01*
X0109671Y0050000D02*
X0109671Y0045500D01*
X0127171Y0051500D02*
X0137171Y0051500D01*
X0137171Y0056500D01*
D24*
X0175171Y0176500D02*
X0185171Y0176500D01*
X0185171Y0187500D01*
X0181671Y0191000D01*
X0049671Y0191000D01*
X0047171Y0188500D01*
X0047171Y0162500D01*
X0036671Y0152000D01*
X0036671Y0136500D01*
X0036671Y0126500D01*
X0016671Y0126500D02*
X0016671Y0136500D01*
X0185171Y0176500D02*
X0199671Y0176500D01*
D25*
X0028671Y0210303D02*
X0028368Y0210303D01*
X0025671Y0213000D01*
X0014671Y0213000D01*
X0011671Y0210000D01*
X0011671Y0147000D01*
X0021325Y0161500D02*
X0021325Y0171500D01*
X0021325Y0181500D01*
X0021325Y0191500D01*
X0020671Y0191500D01*
X0020671Y0206169D01*
X0020341Y0206500D01*
M02*
