%
M48
M72
T01C0.0236
T02C0.0354
T03C0.1260
%
T01
X1167Y14200
X1167Y14700
X1667Y14700
X1667Y14200
X2167Y14200
X2167Y14700
X3717Y16150
X3717Y17150
X3717Y18150
X3717Y19150
X4317Y21050
X5417Y21050
X4967Y22900
X5217Y24150
X2117Y23900
X4867Y15650
X6967Y15650
X9217Y10650
X9417Y6650
X10417Y5050
X10417Y4550
X10967Y4550
X10967Y5050
X11517Y5050
X11517Y4550
X12167Y4150
X12717Y5150
X12717Y5650
X13217Y5650
X13217Y5150
X13717Y5150
X13717Y5650
X14917Y7650
X15567Y10200
X14167Y10200
X13317Y10750
X12817Y11250
X14117Y11650
X14117Y16450
X14917Y16450
X15967Y17150
X16617Y16800
X17517Y17650
X18017Y17650
X18517Y17650
X18867Y19850
X16617Y18150
X15967Y18150
X15967Y19800
X14917Y19950
X14117Y19950
X14117Y18100
X14917Y18150
X18617Y14650
X17867Y6650
X14517Y25750
X17017Y26150
T02
X20351Y27351
X20351Y24201
T03
X1617Y1100
X21117Y1100
X21117Y33650
X1617Y33650
M30
