G75*
%MOIN*%
%OFA0B0*%
%FSLAX25Y25*%
%IPPOS*%
%LPD*%
%AMOC8*
5,1,8,0,0,1.08239X$1,22.5*
%
%ADD10R,0.01772X0.19685*%
%ADD11C,0.03962*%
%ADD12C,0.01000*%
%ADD13C,0.01200*%
%ADD14C,0.01600*%
%ADD15C,0.04000*%
D10*
X0084199Y0092169D03*
X0087349Y0092169D03*
X0090498Y0092169D03*
X0093648Y0092169D03*
X0096797Y0092169D03*
X0099947Y0092169D03*
X0103097Y0092169D03*
X0106246Y0092169D03*
X0109396Y0092169D03*
X0112545Y0092169D03*
X0115695Y0092169D03*
X0118845Y0092169D03*
X0121994Y0092169D03*
X0125144Y0092169D03*
X0128293Y0092169D03*
X0131443Y0092169D03*
X0134593Y0092169D03*
X0137742Y0092169D03*
D11*
X0141671Y0102000D03*
X0133171Y0107500D03*
X0128171Y0112500D03*
X0141171Y0116500D03*
X0155671Y0102000D03*
X0149171Y0076500D03*
X0137171Y0056500D03*
X0137171Y0051500D03*
X0132171Y0051500D03*
X0127171Y0051500D03*
X0127171Y0056500D03*
X0132171Y0056500D03*
X0121671Y0041500D03*
X0115171Y0045500D03*
X0115171Y0050500D03*
X0109671Y0050500D03*
X0109671Y0045500D03*
X0104171Y0045500D03*
X0104171Y0050500D03*
X0094171Y0066500D03*
X0092171Y0106500D03*
X0069671Y0156500D03*
X0048671Y0156500D03*
X0037171Y0161500D03*
X0037171Y0171500D03*
X0037171Y0181500D03*
X0037171Y0191500D03*
X0043171Y0210500D03*
X0054171Y0210500D03*
X0049671Y0229000D03*
X0052171Y0241500D03*
X0021171Y0239000D03*
X0021671Y0147000D03*
X0016671Y0147000D03*
X0011671Y0147000D03*
X0011671Y0142000D03*
X0016671Y0142000D03*
X0021671Y0142000D03*
X0141171Y0164500D03*
X0149171Y0164500D03*
X0159671Y0171500D03*
X0166171Y0168000D03*
X0175171Y0176500D03*
X0180171Y0176500D03*
X0185171Y0176500D03*
X0188671Y0198500D03*
X0166171Y0181500D03*
X0159671Y0181500D03*
X0159671Y0198000D03*
X0149171Y0199500D03*
X0141171Y0199500D03*
X0141171Y0181000D03*
X0149171Y0181500D03*
X0186171Y0146500D03*
X0178671Y0066500D03*
X0145171Y0257500D03*
X0170171Y0261500D03*
D12*
X0025071Y0021000D02*
X0007271Y0021000D01*
X0007271Y0326500D01*
X0025071Y0326500D01*
X0025071Y0326044D01*
X0025716Y0325400D01*
X0201627Y0325400D01*
X0202271Y0326044D01*
X0202271Y0326500D01*
X0220071Y0326500D01*
X0220071Y0021000D01*
X0202271Y0021000D01*
X0202271Y0021456D01*
X0201627Y0022100D01*
X0025716Y0022100D01*
X0025071Y0021456D01*
X0025071Y0021000D01*
X0025079Y0021463D02*
X0007271Y0021463D01*
X0007271Y0022461D02*
X0220071Y0022461D01*
X0220071Y0021463D02*
X0202264Y0021463D01*
X0220071Y0023460D02*
X0007271Y0023460D01*
X0007271Y0024458D02*
X0220071Y0024458D01*
X0220071Y0025457D02*
X0007271Y0025457D01*
X0007271Y0026455D02*
X0220071Y0026455D01*
X0220071Y0027454D02*
X0007271Y0027454D01*
X0007271Y0028452D02*
X0220071Y0028452D01*
X0220071Y0029451D02*
X0007271Y0029451D01*
X0007271Y0030449D02*
X0220071Y0030449D01*
X0220071Y0031448D02*
X0007271Y0031448D01*
X0007271Y0032446D02*
X0220071Y0032446D01*
X0220071Y0033445D02*
X0007271Y0033445D01*
X0007271Y0034443D02*
X0220071Y0034443D01*
X0220071Y0035442D02*
X0007271Y0035442D01*
X0007271Y0036440D02*
X0220071Y0036440D01*
X0220071Y0037439D02*
X0007271Y0037439D01*
X0007271Y0038437D02*
X0120491Y0038437D01*
X0121019Y0038219D02*
X0119813Y0038718D01*
X0118890Y0039641D01*
X0118390Y0040847D01*
X0118390Y0042153D01*
X0118890Y0043359D01*
X0119813Y0044282D01*
X0120094Y0044398D01*
X0120094Y0067236D01*
X0118571Y0065713D01*
X0117458Y0064600D01*
X0096912Y0064600D01*
X0096030Y0063718D01*
X0094824Y0063219D01*
X0093519Y0063219D01*
X0092313Y0063718D01*
X0091390Y0064641D01*
X0090890Y0065847D01*
X0090890Y0067153D01*
X0091390Y0068359D01*
X0092313Y0069282D01*
X0093519Y0069781D01*
X0094824Y0069781D01*
X0096030Y0069282D01*
X0096912Y0068400D01*
X0115884Y0068400D01*
X0116945Y0069460D01*
X0116945Y0080871D01*
X0116778Y0080827D01*
X0115695Y0080827D01*
X0115695Y0092169D01*
X0115695Y0092169D01*
X0115695Y0080827D01*
X0114612Y0080827D01*
X0114230Y0080929D01*
X0114003Y0081060D01*
X0113970Y0081027D01*
X0111121Y0081027D01*
X0110971Y0081177D01*
X0110820Y0081027D01*
X0107971Y0081027D01*
X0107821Y0081177D01*
X0107670Y0081027D01*
X0104822Y0081027D01*
X0104671Y0081177D01*
X0104521Y0081027D01*
X0101672Y0081027D01*
X0101522Y0081177D01*
X0101371Y0081027D01*
X0098523Y0081027D01*
X0098372Y0081177D01*
X0098222Y0081027D01*
X0095373Y0081027D01*
X0095223Y0081177D01*
X0095072Y0081027D01*
X0092223Y0081027D01*
X0092073Y0081177D01*
X0091922Y0081027D01*
X0089074Y0081027D01*
X0088923Y0081177D01*
X0088773Y0081027D01*
X0085924Y0081027D01*
X0085774Y0081177D01*
X0085623Y0081027D01*
X0082775Y0081027D01*
X0082013Y0081788D01*
X0082013Y0102550D01*
X0082775Y0103312D01*
X0085623Y0103312D01*
X0085774Y0103161D01*
X0085924Y0103312D01*
X0088773Y0103312D01*
X0088923Y0103161D01*
X0089074Y0103312D01*
X0091294Y0103312D01*
X0090313Y0103718D01*
X0089390Y0104641D01*
X0088890Y0105847D01*
X0088890Y0107153D01*
X0089390Y0108359D01*
X0090271Y0109240D01*
X0090271Y0149213D01*
X0089384Y0150100D01*
X0034384Y0150100D01*
X0032384Y0152100D01*
X0031271Y0153213D01*
X0031271Y0236213D01*
X0030384Y0237100D01*
X0023912Y0237100D01*
X0023030Y0236218D01*
X0021824Y0235719D01*
X0020519Y0235719D01*
X0019313Y0236218D01*
X0018390Y0237141D01*
X0007271Y0237141D01*
X0007271Y0236143D02*
X0019496Y0236143D01*
X0018390Y0237141D02*
X0017890Y0238347D01*
X0017890Y0239653D01*
X0018390Y0240859D01*
X0019313Y0241782D01*
X0020519Y0242281D01*
X0021824Y0242281D01*
X0023030Y0241782D01*
X0023912Y0240900D01*
X0031958Y0240900D01*
X0033071Y0239787D01*
X0035071Y0237787D01*
X0035071Y0194040D01*
X0035313Y0194282D01*
X0036519Y0194781D01*
X0037824Y0194781D01*
X0039030Y0194282D01*
X0039912Y0193400D01*
X0104958Y0193400D01*
X0106071Y0192287D01*
X0108146Y0190212D01*
X0108146Y0103312D01*
X0110445Y0103312D01*
X0110445Y0175244D01*
X0112571Y0177370D01*
X0113802Y0178600D01*
X0138931Y0178600D01*
X0138390Y0179141D01*
X0137890Y0180347D01*
X0137890Y0181653D01*
X0138390Y0182859D01*
X0139271Y0183740D01*
X0139271Y0196760D01*
X0138390Y0197641D01*
X0137890Y0198847D01*
X0137890Y0200153D01*
X0138390Y0201359D01*
X0139313Y0202282D01*
X0140519Y0202781D01*
X0141824Y0202781D01*
X0143030Y0202282D01*
X0143271Y0202040D01*
X0143271Y0254760D01*
X0142390Y0255641D01*
X0141890Y0256847D01*
X0141890Y0258153D01*
X0142390Y0259359D01*
X0143313Y0260282D01*
X0144519Y0260781D01*
X0145824Y0260781D01*
X0147030Y0260282D01*
X0147953Y0259359D01*
X0148452Y0258153D01*
X0148452Y0256847D01*
X0147953Y0255641D01*
X0147071Y0254760D01*
X0147071Y0202040D01*
X0147313Y0202282D01*
X0148519Y0202781D01*
X0149824Y0202781D01*
X0151030Y0202282D01*
X0151953Y0201359D01*
X0152452Y0200153D01*
X0152452Y0198847D01*
X0151953Y0197641D01*
X0151071Y0196760D01*
X0151071Y0184240D01*
X0151953Y0183359D01*
X0152452Y0182153D01*
X0152452Y0180847D01*
X0152019Y0179800D01*
X0156824Y0179800D01*
X0156390Y0180847D01*
X0156390Y0182153D01*
X0156890Y0183359D01*
X0157771Y0184240D01*
X0157771Y0195260D01*
X0156890Y0196141D01*
X0156390Y0197347D01*
X0156390Y0198653D01*
X0156890Y0199859D01*
X0157813Y0200782D01*
X0159019Y0201281D01*
X0160324Y0201281D01*
X0161530Y0200782D01*
X0162453Y0199859D01*
X0162952Y0198653D01*
X0162952Y0197347D01*
X0162453Y0196141D01*
X0161571Y0195260D01*
X0161571Y0184240D01*
X0162453Y0183359D01*
X0162921Y0182228D01*
X0163390Y0183359D01*
X0164271Y0184240D01*
X0164271Y0258287D01*
X0166890Y0260906D01*
X0166890Y0262153D01*
X0167390Y0263359D01*
X0168313Y0264282D01*
X0169519Y0264781D01*
X0170824Y0264781D01*
X0172030Y0264282D01*
X0172953Y0263359D01*
X0173452Y0262153D01*
X0173452Y0260847D01*
X0172953Y0259641D01*
X0172030Y0258718D01*
X0170824Y0258219D01*
X0169577Y0258219D01*
X0168071Y0256713D01*
X0168071Y0184240D01*
X0168953Y0183359D01*
X0169452Y0182153D01*
X0169452Y0180847D01*
X0169019Y0179800D01*
X0185828Y0179800D01*
X0186871Y0179368D01*
X0186871Y0195694D01*
X0186813Y0195718D01*
X0185890Y0196641D01*
X0185390Y0197847D01*
X0185390Y0199153D01*
X0185890Y0200359D01*
X0186813Y0201282D01*
X0188019Y0201781D01*
X0189324Y0201781D01*
X0190530Y0201282D01*
X0191453Y0200359D01*
X0191952Y0199153D01*
X0191952Y0197847D01*
X0191453Y0196641D01*
X0190530Y0195718D01*
X0190471Y0195694D01*
X0190471Y0148254D01*
X0189428Y0147211D01*
X0189452Y0147153D01*
X0189452Y0145847D01*
X0188953Y0144641D01*
X0188030Y0143718D01*
X0186824Y0143219D01*
X0185519Y0143219D01*
X0184313Y0143718D01*
X0183390Y0144641D01*
X0182890Y0145847D01*
X0182890Y0147153D01*
X0183390Y0148359D01*
X0184313Y0149282D01*
X0185519Y0149781D01*
X0186824Y0149781D01*
X0186871Y0149761D01*
X0186871Y0173632D01*
X0185828Y0173200D01*
X0162519Y0173200D01*
X0162952Y0172153D01*
X0162952Y0170847D01*
X0162560Y0169900D01*
X0163431Y0169900D01*
X0164313Y0170782D01*
X0165519Y0171281D01*
X0166824Y0171281D01*
X0168030Y0170782D01*
X0168953Y0169859D01*
X0169452Y0168653D01*
X0169452Y0167347D01*
X0168953Y0166141D01*
X0168030Y0165218D01*
X0166824Y0164719D01*
X0165519Y0164719D01*
X0164313Y0165218D01*
X0163431Y0166100D01*
X0152060Y0166100D01*
X0152452Y0165153D01*
X0152452Y0163847D01*
X0151953Y0162641D01*
X0151071Y0161760D01*
X0151071Y0079240D01*
X0151953Y0078359D01*
X0152452Y0077153D01*
X0152452Y0075847D01*
X0151953Y0074641D01*
X0151030Y0073718D01*
X0149824Y0073219D01*
X0148577Y0073219D01*
X0147958Y0072600D01*
X0131884Y0072600D01*
X0130771Y0073713D01*
X0129543Y0074941D01*
X0129543Y0081027D01*
X0127044Y0081027D01*
X0127044Y0068815D01*
X0127458Y0068400D01*
X0175931Y0068400D01*
X0176813Y0069282D01*
X0178019Y0069781D01*
X0179324Y0069781D01*
X0180530Y0069282D01*
X0181453Y0068359D01*
X0181952Y0067153D01*
X0181952Y0065847D01*
X0181453Y0064641D01*
X0180530Y0063718D01*
X0179324Y0063219D01*
X0178019Y0063219D01*
X0176813Y0063718D01*
X0175931Y0064600D01*
X0125884Y0064600D01*
X0124771Y0065713D01*
X0123894Y0066590D01*
X0123894Y0043917D01*
X0124453Y0043359D01*
X0124952Y0042153D01*
X0124952Y0040847D01*
X0124453Y0039641D01*
X0123530Y0038718D01*
X0122324Y0038219D01*
X0121019Y0038219D01*
X0122852Y0038437D02*
X0220071Y0038437D01*
X0220071Y0039436D02*
X0124248Y0039436D01*
X0124781Y0040434D02*
X0220071Y0040434D01*
X0220071Y0041433D02*
X0124952Y0041433D01*
X0124837Y0042432D02*
X0220071Y0042432D01*
X0220071Y0043430D02*
X0124381Y0043430D01*
X0123894Y0044429D02*
X0220071Y0044429D01*
X0220071Y0045427D02*
X0123894Y0045427D01*
X0123894Y0046426D02*
X0220071Y0046426D01*
X0220071Y0047424D02*
X0123894Y0047424D01*
X0123894Y0048423D02*
X0220071Y0048423D01*
X0220071Y0049421D02*
X0123894Y0049421D01*
X0123894Y0050420D02*
X0220071Y0050420D01*
X0220071Y0051418D02*
X0123894Y0051418D01*
X0123894Y0052417D02*
X0220071Y0052417D01*
X0220071Y0053415D02*
X0123894Y0053415D01*
X0123894Y0054414D02*
X0220071Y0054414D01*
X0220071Y0055412D02*
X0123894Y0055412D01*
X0123894Y0056411D02*
X0220071Y0056411D01*
X0220071Y0057409D02*
X0123894Y0057409D01*
X0123894Y0058408D02*
X0220071Y0058408D01*
X0220071Y0059406D02*
X0123894Y0059406D01*
X0123894Y0060405D02*
X0220071Y0060405D01*
X0220071Y0061403D02*
X0123894Y0061403D01*
X0123894Y0062402D02*
X0220071Y0062402D01*
X0220071Y0063400D02*
X0179762Y0063400D01*
X0181210Y0064399D02*
X0220071Y0064399D01*
X0220071Y0065397D02*
X0181766Y0065397D01*
X0181952Y0066396D02*
X0220071Y0066396D01*
X0220071Y0067394D02*
X0181852Y0067394D01*
X0181419Y0068393D02*
X0220071Y0068393D01*
X0220071Y0069391D02*
X0180265Y0069391D01*
X0177581Y0063400D02*
X0123894Y0063400D01*
X0123894Y0064399D02*
X0176132Y0064399D01*
X0177078Y0069391D02*
X0127044Y0069391D01*
X0127044Y0070390D02*
X0220071Y0070390D01*
X0220071Y0071388D02*
X0127044Y0071388D01*
X0127044Y0072387D02*
X0220071Y0072387D01*
X0220071Y0073385D02*
X0150226Y0073385D01*
X0151695Y0074384D02*
X0220071Y0074384D01*
X0220071Y0075382D02*
X0152260Y0075382D01*
X0152452Y0076381D02*
X0220071Y0076381D01*
X0220071Y0077379D02*
X0152359Y0077379D01*
X0151934Y0078378D02*
X0220071Y0078378D01*
X0220071Y0079376D02*
X0151071Y0079376D01*
X0151071Y0080375D02*
X0220071Y0080375D01*
X0220071Y0081373D02*
X0151071Y0081373D01*
X0151071Y0082372D02*
X0220071Y0082372D01*
X0220071Y0083370D02*
X0151071Y0083370D01*
X0151071Y0084369D02*
X0220071Y0084369D01*
X0220071Y0085368D02*
X0151071Y0085368D01*
X0151071Y0086366D02*
X0220071Y0086366D01*
X0220071Y0087365D02*
X0151071Y0087365D01*
X0151071Y0088363D02*
X0220071Y0088363D01*
X0220071Y0089362D02*
X0151071Y0089362D01*
X0151071Y0090360D02*
X0220071Y0090360D01*
X0220071Y0091359D02*
X0151071Y0091359D01*
X0151071Y0092357D02*
X0220071Y0092357D01*
X0220071Y0093356D02*
X0151071Y0093356D01*
X0151071Y0094354D02*
X0220071Y0094354D01*
X0220071Y0095353D02*
X0151071Y0095353D01*
X0151071Y0096351D02*
X0220071Y0096351D01*
X0220071Y0097350D02*
X0151071Y0097350D01*
X0151071Y0098348D02*
X0220071Y0098348D01*
X0220071Y0099347D02*
X0151071Y0099347D01*
X0151071Y0100345D02*
X0220071Y0100345D01*
X0220071Y0101344D02*
X0151071Y0101344D01*
X0151071Y0102342D02*
X0220071Y0102342D01*
X0220071Y0103341D02*
X0151071Y0103341D01*
X0151071Y0104339D02*
X0220071Y0104339D01*
X0220071Y0105338D02*
X0151071Y0105338D01*
X0151071Y0106336D02*
X0220071Y0106336D01*
X0220071Y0107335D02*
X0151071Y0107335D01*
X0151071Y0108333D02*
X0220071Y0108333D01*
X0220071Y0109332D02*
X0151071Y0109332D01*
X0151071Y0110330D02*
X0220071Y0110330D01*
X0220071Y0111329D02*
X0151071Y0111329D01*
X0151071Y0112327D02*
X0220071Y0112327D01*
X0220071Y0113326D02*
X0151071Y0113326D01*
X0151071Y0114324D02*
X0220071Y0114324D01*
X0220071Y0115323D02*
X0151071Y0115323D01*
X0151071Y0116321D02*
X0220071Y0116321D01*
X0220071Y0117320D02*
X0151071Y0117320D01*
X0151071Y0118318D02*
X0220071Y0118318D01*
X0220071Y0119317D02*
X0151071Y0119317D01*
X0151071Y0120315D02*
X0220071Y0120315D01*
X0220071Y0121314D02*
X0151071Y0121314D01*
X0151071Y0122312D02*
X0220071Y0122312D01*
X0220071Y0123311D02*
X0151071Y0123311D01*
X0151071Y0124309D02*
X0220071Y0124309D01*
X0220071Y0125308D02*
X0151071Y0125308D01*
X0151071Y0126306D02*
X0220071Y0126306D01*
X0220071Y0127305D02*
X0151071Y0127305D01*
X0151071Y0128303D02*
X0220071Y0128303D01*
X0220071Y0129302D02*
X0151071Y0129302D01*
X0151071Y0130301D02*
X0220071Y0130301D01*
X0220071Y0131299D02*
X0151071Y0131299D01*
X0151071Y0132298D02*
X0220071Y0132298D01*
X0220071Y0133296D02*
X0151071Y0133296D01*
X0151071Y0134295D02*
X0220071Y0134295D01*
X0220071Y0135293D02*
X0151071Y0135293D01*
X0151071Y0136292D02*
X0220071Y0136292D01*
X0220071Y0137290D02*
X0151071Y0137290D01*
X0151071Y0138289D02*
X0220071Y0138289D01*
X0220071Y0139287D02*
X0151071Y0139287D01*
X0151071Y0140286D02*
X0220071Y0140286D01*
X0220071Y0141284D02*
X0151071Y0141284D01*
X0151071Y0142283D02*
X0220071Y0142283D01*
X0220071Y0143281D02*
X0186974Y0143281D01*
X0185368Y0143281D02*
X0151071Y0143281D01*
X0151071Y0144280D02*
X0183752Y0144280D01*
X0183126Y0145278D02*
X0151071Y0145278D01*
X0151071Y0146277D02*
X0182890Y0146277D01*
X0182941Y0147275D02*
X0151071Y0147275D01*
X0151071Y0148274D02*
X0183355Y0148274D01*
X0184303Y0149272D02*
X0151071Y0149272D01*
X0151071Y0150271D02*
X0186871Y0150271D01*
X0186871Y0151269D02*
X0151071Y0151269D01*
X0151071Y0152268D02*
X0186871Y0152268D01*
X0186871Y0153266D02*
X0151071Y0153266D01*
X0151071Y0154265D02*
X0186871Y0154265D01*
X0186871Y0155263D02*
X0151071Y0155263D01*
X0151071Y0156262D02*
X0186871Y0156262D01*
X0186871Y0157260D02*
X0151071Y0157260D01*
X0151071Y0158259D02*
X0186871Y0158259D01*
X0186871Y0159257D02*
X0151071Y0159257D01*
X0151071Y0160256D02*
X0186871Y0160256D01*
X0186871Y0161254D02*
X0151071Y0161254D01*
X0151564Y0162253D02*
X0186871Y0162253D01*
X0186871Y0163251D02*
X0152206Y0163251D01*
X0152452Y0164250D02*
X0186871Y0164250D01*
X0186871Y0165248D02*
X0168060Y0165248D01*
X0168997Y0166247D02*
X0186871Y0166247D01*
X0186871Y0167245D02*
X0169410Y0167245D01*
X0169452Y0168244D02*
X0186871Y0168244D01*
X0186871Y0169242D02*
X0169208Y0169242D01*
X0168571Y0170241D02*
X0186871Y0170241D01*
X0186871Y0171239D02*
X0166924Y0171239D01*
X0165418Y0171239D02*
X0162952Y0171239D01*
X0162917Y0172238D02*
X0186871Y0172238D01*
X0186871Y0173237D02*
X0185916Y0173237D01*
X0190471Y0173237D02*
X0220071Y0173237D01*
X0220071Y0174235D02*
X0190471Y0174235D01*
X0190471Y0175234D02*
X0220071Y0175234D01*
X0220071Y0176232D02*
X0190471Y0176232D01*
X0190471Y0177231D02*
X0220071Y0177231D01*
X0220071Y0178229D02*
X0190471Y0178229D01*
X0190471Y0179228D02*
X0220071Y0179228D01*
X0220071Y0180226D02*
X0190471Y0180226D01*
X0190471Y0181225D02*
X0220071Y0181225D01*
X0220071Y0182223D02*
X0190471Y0182223D01*
X0190471Y0183222D02*
X0220071Y0183222D01*
X0220071Y0184220D02*
X0190471Y0184220D01*
X0190471Y0185219D02*
X0220071Y0185219D01*
X0220071Y0186217D02*
X0190471Y0186217D01*
X0190471Y0187216D02*
X0220071Y0187216D01*
X0220071Y0188214D02*
X0190471Y0188214D01*
X0190471Y0189213D02*
X0220071Y0189213D01*
X0220071Y0190211D02*
X0190471Y0190211D01*
X0190471Y0191210D02*
X0220071Y0191210D01*
X0220071Y0192208D02*
X0190471Y0192208D01*
X0190471Y0193207D02*
X0220071Y0193207D01*
X0220071Y0194205D02*
X0190471Y0194205D01*
X0190471Y0195204D02*
X0220071Y0195204D01*
X0220071Y0196202D02*
X0191014Y0196202D01*
X0191685Y0197201D02*
X0220071Y0197201D01*
X0220071Y0198199D02*
X0191952Y0198199D01*
X0191934Y0199198D02*
X0220071Y0199198D01*
X0220071Y0200196D02*
X0191520Y0200196D01*
X0190617Y0201195D02*
X0220071Y0201195D01*
X0220071Y0202193D02*
X0168071Y0202193D01*
X0168071Y0201195D02*
X0186726Y0201195D01*
X0185823Y0200196D02*
X0168071Y0200196D01*
X0168071Y0199198D02*
X0185409Y0199198D01*
X0185390Y0198199D02*
X0168071Y0198199D01*
X0168071Y0197201D02*
X0185658Y0197201D01*
X0186329Y0196202D02*
X0168071Y0196202D01*
X0168071Y0195204D02*
X0186871Y0195204D01*
X0186871Y0194205D02*
X0168071Y0194205D01*
X0168071Y0193207D02*
X0186871Y0193207D01*
X0186871Y0192208D02*
X0168071Y0192208D01*
X0168071Y0191210D02*
X0186871Y0191210D01*
X0186871Y0190211D02*
X0168071Y0190211D01*
X0168071Y0189213D02*
X0186871Y0189213D01*
X0186871Y0188214D02*
X0168071Y0188214D01*
X0168071Y0187216D02*
X0186871Y0187216D01*
X0186871Y0186217D02*
X0168071Y0186217D01*
X0168071Y0185219D02*
X0186871Y0185219D01*
X0186871Y0184220D02*
X0168091Y0184220D01*
X0169010Y0183222D02*
X0186871Y0183222D01*
X0186871Y0182223D02*
X0169423Y0182223D01*
X0169452Y0181225D02*
X0186871Y0181225D01*
X0186871Y0180226D02*
X0169195Y0180226D01*
X0164251Y0184220D02*
X0161591Y0184220D01*
X0161571Y0185219D02*
X0164271Y0185219D01*
X0164271Y0186217D02*
X0161571Y0186217D01*
X0161571Y0187216D02*
X0164271Y0187216D01*
X0164271Y0188214D02*
X0161571Y0188214D01*
X0161571Y0189213D02*
X0164271Y0189213D01*
X0164271Y0190211D02*
X0161571Y0190211D01*
X0161571Y0191210D02*
X0164271Y0191210D01*
X0164271Y0192208D02*
X0161571Y0192208D01*
X0161571Y0193207D02*
X0164271Y0193207D01*
X0164271Y0194205D02*
X0161571Y0194205D01*
X0161571Y0195204D02*
X0164271Y0195204D01*
X0164271Y0196202D02*
X0162478Y0196202D01*
X0162892Y0197201D02*
X0164271Y0197201D01*
X0164271Y0198199D02*
X0162952Y0198199D01*
X0162727Y0199198D02*
X0164271Y0199198D01*
X0164271Y0200196D02*
X0162115Y0200196D01*
X0160532Y0201195D02*
X0164271Y0201195D01*
X0164271Y0202193D02*
X0151118Y0202193D01*
X0152021Y0201195D02*
X0158810Y0201195D01*
X0157227Y0200196D02*
X0152434Y0200196D01*
X0152452Y0199198D02*
X0156616Y0199198D01*
X0156390Y0198199D02*
X0152184Y0198199D01*
X0151512Y0197201D02*
X0156451Y0197201D01*
X0156865Y0196202D02*
X0151071Y0196202D01*
X0151071Y0195204D02*
X0157771Y0195204D01*
X0157771Y0194205D02*
X0151071Y0194205D01*
X0151071Y0193207D02*
X0157771Y0193207D01*
X0157771Y0192208D02*
X0151071Y0192208D01*
X0151071Y0191210D02*
X0157771Y0191210D01*
X0157771Y0190211D02*
X0151071Y0190211D01*
X0151071Y0189213D02*
X0157771Y0189213D01*
X0157771Y0188214D02*
X0151071Y0188214D01*
X0151071Y0187216D02*
X0157771Y0187216D01*
X0157771Y0186217D02*
X0151071Y0186217D01*
X0151071Y0185219D02*
X0157771Y0185219D01*
X0157751Y0184220D02*
X0151091Y0184220D01*
X0152010Y0183222D02*
X0156833Y0183222D01*
X0156419Y0182223D02*
X0152423Y0182223D01*
X0152452Y0181225D02*
X0156390Y0181225D01*
X0156648Y0180226D02*
X0152195Y0180226D01*
X0144032Y0173400D02*
X0120458Y0173400D01*
X0118884Y0173400D01*
X0116884Y0171400D01*
X0115771Y0170287D01*
X0115771Y0105213D01*
X0116771Y0104213D01*
X0116771Y0103512D01*
X0115695Y0103512D01*
X0114645Y0103512D01*
X0114645Y0173504D01*
X0115541Y0174400D01*
X0142604Y0174400D01*
X0143302Y0173702D01*
X0144032Y0173400D01*
X0142769Y0174235D02*
X0115376Y0174235D01*
X0114645Y0173237D02*
X0118721Y0173237D01*
X0117722Y0172238D02*
X0114645Y0172238D01*
X0114645Y0171239D02*
X0116724Y0171239D01*
X0115771Y0170241D02*
X0114645Y0170241D01*
X0114645Y0169242D02*
X0115771Y0169242D01*
X0115771Y0168244D02*
X0114645Y0168244D01*
X0114645Y0167245D02*
X0115771Y0167245D01*
X0115771Y0166247D02*
X0114645Y0166247D01*
X0114645Y0165248D02*
X0115771Y0165248D01*
X0115771Y0164250D02*
X0114645Y0164250D01*
X0114645Y0163251D02*
X0115771Y0163251D01*
X0115771Y0162253D02*
X0114645Y0162253D01*
X0114645Y0161254D02*
X0115771Y0161254D01*
X0115771Y0160256D02*
X0114645Y0160256D01*
X0114645Y0159257D02*
X0115771Y0159257D01*
X0115771Y0158259D02*
X0114645Y0158259D01*
X0114645Y0157260D02*
X0115771Y0157260D01*
X0115771Y0156262D02*
X0114645Y0156262D01*
X0114645Y0155263D02*
X0115771Y0155263D01*
X0115771Y0154265D02*
X0114645Y0154265D01*
X0114645Y0153266D02*
X0115771Y0153266D01*
X0115771Y0152268D02*
X0114645Y0152268D01*
X0114645Y0151269D02*
X0115771Y0151269D01*
X0115771Y0150271D02*
X0114645Y0150271D01*
X0114645Y0149272D02*
X0115771Y0149272D01*
X0115771Y0148274D02*
X0114645Y0148274D01*
X0114645Y0147275D02*
X0115771Y0147275D01*
X0115771Y0146277D02*
X0114645Y0146277D01*
X0114645Y0145278D02*
X0115771Y0145278D01*
X0115771Y0144280D02*
X0114645Y0144280D01*
X0114645Y0143281D02*
X0115771Y0143281D01*
X0115771Y0142283D02*
X0114645Y0142283D01*
X0114645Y0141284D02*
X0115771Y0141284D01*
X0115771Y0140286D02*
X0114645Y0140286D01*
X0114645Y0139287D02*
X0115771Y0139287D01*
X0115771Y0138289D02*
X0114645Y0138289D01*
X0114645Y0137290D02*
X0115771Y0137290D01*
X0115771Y0136292D02*
X0114645Y0136292D01*
X0114645Y0135293D02*
X0115771Y0135293D01*
X0115771Y0134295D02*
X0114645Y0134295D01*
X0114645Y0133296D02*
X0115771Y0133296D01*
X0115771Y0132298D02*
X0114645Y0132298D01*
X0114645Y0131299D02*
X0115771Y0131299D01*
X0115771Y0130301D02*
X0114645Y0130301D01*
X0114645Y0129302D02*
X0115771Y0129302D01*
X0115771Y0128303D02*
X0114645Y0128303D01*
X0114645Y0127305D02*
X0115771Y0127305D01*
X0115771Y0126306D02*
X0114645Y0126306D01*
X0114645Y0125308D02*
X0115771Y0125308D01*
X0115771Y0124309D02*
X0114645Y0124309D01*
X0114645Y0123311D02*
X0115771Y0123311D01*
X0115771Y0122312D02*
X0114645Y0122312D01*
X0114645Y0121314D02*
X0115771Y0121314D01*
X0115771Y0120315D02*
X0114645Y0120315D01*
X0114645Y0119317D02*
X0115771Y0119317D01*
X0115771Y0118318D02*
X0114645Y0118318D01*
X0114645Y0117320D02*
X0115771Y0117320D01*
X0115771Y0116321D02*
X0114645Y0116321D01*
X0114645Y0115323D02*
X0115771Y0115323D01*
X0115771Y0114324D02*
X0114645Y0114324D01*
X0114645Y0113326D02*
X0115771Y0113326D01*
X0115771Y0112327D02*
X0114645Y0112327D01*
X0114645Y0111329D02*
X0115771Y0111329D01*
X0115771Y0110330D02*
X0114645Y0110330D01*
X0114645Y0109332D02*
X0115771Y0109332D01*
X0115771Y0108333D02*
X0114645Y0108333D01*
X0114645Y0107335D02*
X0115771Y0107335D01*
X0115771Y0106336D02*
X0114645Y0106336D01*
X0114645Y0105338D02*
X0115771Y0105338D01*
X0116645Y0104339D02*
X0114645Y0104339D01*
X0115695Y0103512D02*
X0115695Y0092169D01*
X0115695Y0092169D01*
X0115695Y0103512D01*
X0115695Y0103341D02*
X0115695Y0103341D01*
X0115695Y0102342D02*
X0115695Y0102342D01*
X0115695Y0101344D02*
X0115695Y0101344D01*
X0115695Y0100345D02*
X0115695Y0100345D01*
X0115695Y0099347D02*
X0115695Y0099347D01*
X0115695Y0098348D02*
X0115695Y0098348D01*
X0115695Y0097350D02*
X0115695Y0097350D01*
X0115695Y0096351D02*
X0115695Y0096351D01*
X0115695Y0095353D02*
X0115695Y0095353D01*
X0115695Y0094354D02*
X0115695Y0094354D01*
X0115695Y0093356D02*
X0115695Y0093356D01*
X0115695Y0092357D02*
X0115695Y0092357D01*
X0115695Y0091359D02*
X0115695Y0091359D01*
X0115695Y0090360D02*
X0115695Y0090360D01*
X0115695Y0089362D02*
X0115695Y0089362D01*
X0115695Y0088363D02*
X0115695Y0088363D01*
X0115695Y0087365D02*
X0115695Y0087365D01*
X0115695Y0086366D02*
X0115695Y0086366D01*
X0115695Y0085368D02*
X0115695Y0085368D01*
X0115695Y0084369D02*
X0115695Y0084369D01*
X0115695Y0083370D02*
X0115695Y0083370D01*
X0115695Y0082372D02*
X0115695Y0082372D01*
X0115695Y0081373D02*
X0115695Y0081373D01*
X0116945Y0080375D02*
X0007271Y0080375D01*
X0007271Y0081373D02*
X0082428Y0081373D01*
X0082013Y0082372D02*
X0007271Y0082372D01*
X0007271Y0083370D02*
X0082013Y0083370D01*
X0082013Y0084369D02*
X0007271Y0084369D01*
X0007271Y0085368D02*
X0082013Y0085368D01*
X0082013Y0086366D02*
X0007271Y0086366D01*
X0007271Y0087365D02*
X0082013Y0087365D01*
X0082013Y0088363D02*
X0007271Y0088363D01*
X0007271Y0089362D02*
X0082013Y0089362D01*
X0082013Y0090360D02*
X0007271Y0090360D01*
X0007271Y0091359D02*
X0082013Y0091359D01*
X0082013Y0092357D02*
X0007271Y0092357D01*
X0007271Y0093356D02*
X0082013Y0093356D01*
X0082013Y0094354D02*
X0007271Y0094354D01*
X0007271Y0095353D02*
X0082013Y0095353D01*
X0082013Y0096351D02*
X0007271Y0096351D01*
X0007271Y0097350D02*
X0082013Y0097350D01*
X0082013Y0098348D02*
X0007271Y0098348D01*
X0007271Y0099347D02*
X0082013Y0099347D01*
X0082013Y0100345D02*
X0007271Y0100345D01*
X0007271Y0101344D02*
X0082013Y0101344D01*
X0082013Y0102342D02*
X0007271Y0102342D01*
X0007271Y0103341D02*
X0091225Y0103341D01*
X0089692Y0104339D02*
X0007271Y0104339D01*
X0007271Y0105338D02*
X0089101Y0105338D01*
X0088890Y0106336D02*
X0007271Y0106336D01*
X0007271Y0107335D02*
X0088966Y0107335D01*
X0089379Y0108333D02*
X0007271Y0108333D01*
X0007271Y0109332D02*
X0090271Y0109332D01*
X0090271Y0110330D02*
X0007271Y0110330D01*
X0007271Y0111329D02*
X0090271Y0111329D01*
X0090271Y0112327D02*
X0007271Y0112327D01*
X0007271Y0113326D02*
X0090271Y0113326D01*
X0090271Y0114324D02*
X0007271Y0114324D01*
X0007271Y0115323D02*
X0090271Y0115323D01*
X0090271Y0116321D02*
X0007271Y0116321D01*
X0007271Y0117320D02*
X0090271Y0117320D01*
X0090271Y0118318D02*
X0007271Y0118318D01*
X0007271Y0119317D02*
X0090271Y0119317D01*
X0090271Y0120315D02*
X0007271Y0120315D01*
X0007271Y0121314D02*
X0090271Y0121314D01*
X0090271Y0122312D02*
X0007271Y0122312D01*
X0007271Y0123311D02*
X0090271Y0123311D01*
X0090271Y0124309D02*
X0007271Y0124309D01*
X0007271Y0125308D02*
X0090271Y0125308D01*
X0090271Y0126306D02*
X0007271Y0126306D01*
X0007271Y0127305D02*
X0090271Y0127305D01*
X0090271Y0128303D02*
X0007271Y0128303D01*
X0007271Y0129302D02*
X0090271Y0129302D01*
X0090271Y0130301D02*
X0007271Y0130301D01*
X0007271Y0131299D02*
X0090271Y0131299D01*
X0090271Y0132298D02*
X0007271Y0132298D01*
X0007271Y0133296D02*
X0090271Y0133296D01*
X0090271Y0134295D02*
X0007271Y0134295D01*
X0007271Y0135293D02*
X0090271Y0135293D01*
X0090271Y0136292D02*
X0007271Y0136292D01*
X0007271Y0137290D02*
X0090271Y0137290D01*
X0090271Y0138289D02*
X0007271Y0138289D01*
X0007271Y0139287D02*
X0090271Y0139287D01*
X0090271Y0140286D02*
X0007271Y0140286D01*
X0007271Y0141284D02*
X0090271Y0141284D01*
X0090271Y0142283D02*
X0007271Y0142283D01*
X0007271Y0143281D02*
X0090271Y0143281D01*
X0090271Y0144280D02*
X0007271Y0144280D01*
X0007271Y0145278D02*
X0090271Y0145278D01*
X0090271Y0146277D02*
X0007271Y0146277D01*
X0007271Y0147275D02*
X0090271Y0147275D01*
X0090271Y0148274D02*
X0007271Y0148274D01*
X0007271Y0149272D02*
X0090212Y0149272D01*
X0108146Y0149272D02*
X0110445Y0149272D01*
X0110445Y0148274D02*
X0108146Y0148274D01*
X0108146Y0147275D02*
X0110445Y0147275D01*
X0110445Y0146277D02*
X0108146Y0146277D01*
X0108146Y0145278D02*
X0110445Y0145278D01*
X0110445Y0144280D02*
X0108146Y0144280D01*
X0108146Y0143281D02*
X0110445Y0143281D01*
X0110445Y0142283D02*
X0108146Y0142283D01*
X0108146Y0141284D02*
X0110445Y0141284D01*
X0110445Y0140286D02*
X0108146Y0140286D01*
X0108146Y0139287D02*
X0110445Y0139287D01*
X0110445Y0138289D02*
X0108146Y0138289D01*
X0108146Y0137290D02*
X0110445Y0137290D01*
X0110445Y0136292D02*
X0108146Y0136292D01*
X0108146Y0135293D02*
X0110445Y0135293D01*
X0110445Y0134295D02*
X0108146Y0134295D01*
X0108146Y0133296D02*
X0110445Y0133296D01*
X0110445Y0132298D02*
X0108146Y0132298D01*
X0108146Y0131299D02*
X0110445Y0131299D01*
X0110445Y0130301D02*
X0108146Y0130301D01*
X0108146Y0129302D02*
X0110445Y0129302D01*
X0110445Y0128303D02*
X0108146Y0128303D01*
X0108146Y0127305D02*
X0110445Y0127305D01*
X0110445Y0126306D02*
X0108146Y0126306D01*
X0108146Y0125308D02*
X0110445Y0125308D01*
X0110445Y0124309D02*
X0108146Y0124309D01*
X0108146Y0123311D02*
X0110445Y0123311D01*
X0110445Y0122312D02*
X0108146Y0122312D01*
X0108146Y0121314D02*
X0110445Y0121314D01*
X0110445Y0120315D02*
X0108146Y0120315D01*
X0108146Y0119317D02*
X0110445Y0119317D01*
X0110445Y0118318D02*
X0108146Y0118318D01*
X0108146Y0117320D02*
X0110445Y0117320D01*
X0110445Y0116321D02*
X0108146Y0116321D01*
X0108146Y0115323D02*
X0110445Y0115323D01*
X0110445Y0114324D02*
X0108146Y0114324D01*
X0108146Y0113326D02*
X0110445Y0113326D01*
X0110445Y0112327D02*
X0108146Y0112327D01*
X0108146Y0111329D02*
X0110445Y0111329D01*
X0110445Y0110330D02*
X0108146Y0110330D01*
X0108146Y0109332D02*
X0110445Y0109332D01*
X0110445Y0108333D02*
X0108146Y0108333D01*
X0108146Y0107335D02*
X0110445Y0107335D01*
X0110445Y0106336D02*
X0108146Y0106336D01*
X0108146Y0105338D02*
X0110445Y0105338D01*
X0110445Y0104339D02*
X0108146Y0104339D01*
X0108146Y0103341D02*
X0110445Y0103341D01*
X0123894Y0103341D02*
X0126271Y0103341D01*
X0126271Y0103312D02*
X0123894Y0103312D01*
X0123894Y0165036D01*
X0124958Y0166100D01*
X0138283Y0166100D01*
X0137890Y0165153D01*
X0137890Y0163847D01*
X0138390Y0162641D01*
X0139313Y0161718D01*
X0139371Y0161694D01*
X0139371Y0119306D01*
X0139313Y0119282D01*
X0138390Y0118359D01*
X0137890Y0117153D01*
X0137890Y0115847D01*
X0138390Y0114641D01*
X0139313Y0113718D01*
X0140519Y0113219D01*
X0141824Y0113219D01*
X0143030Y0113718D01*
X0143953Y0114641D01*
X0144452Y0115847D01*
X0144452Y0117153D01*
X0143953Y0118359D01*
X0143030Y0119282D01*
X0142971Y0119306D01*
X0142971Y0161694D01*
X0143030Y0161718D01*
X0143953Y0162641D01*
X0144452Y0163847D01*
X0144452Y0165153D01*
X0144060Y0166100D01*
X0146283Y0166100D01*
X0145890Y0165153D01*
X0145890Y0163847D01*
X0146390Y0162641D01*
X0147271Y0161760D01*
X0147271Y0079240D01*
X0146390Y0078359D01*
X0145890Y0077153D01*
X0145890Y0076400D01*
X0133458Y0076400D01*
X0133343Y0076515D01*
X0133343Y0081027D01*
X0136017Y0081027D01*
X0136050Y0081060D01*
X0136277Y0080929D01*
X0136659Y0080827D01*
X0137742Y0080827D01*
X0137742Y0092169D01*
X0137742Y0092169D01*
X0137742Y0080827D01*
X0138826Y0080827D01*
X0139207Y0080929D01*
X0139549Y0081126D01*
X0139828Y0081406D01*
X0140026Y0081748D01*
X0140128Y0082129D01*
X0140128Y0092169D01*
X0137742Y0092169D01*
X0137742Y0092169D01*
X0137742Y0103512D01*
X0136659Y0103512D01*
X0136493Y0103467D01*
X0136493Y0106866D01*
X0136452Y0106906D01*
X0136452Y0108153D01*
X0135953Y0109359D01*
X0135030Y0110282D01*
X0133824Y0110781D01*
X0132519Y0110781D01*
X0131313Y0110282D01*
X0130390Y0109359D01*
X0130071Y0108590D01*
X0130071Y0109760D01*
X0130953Y0110641D01*
X0131452Y0111847D01*
X0131452Y0113153D01*
X0130953Y0114359D01*
X0130030Y0115282D01*
X0128824Y0115781D01*
X0127519Y0115781D01*
X0126313Y0115282D01*
X0125390Y0114359D01*
X0124890Y0113153D01*
X0124890Y0111847D01*
X0125390Y0110641D01*
X0126271Y0109760D01*
X0126271Y0103312D01*
X0126271Y0104339D02*
X0123894Y0104339D01*
X0123894Y0105338D02*
X0126271Y0105338D01*
X0126271Y0106336D02*
X0123894Y0106336D01*
X0123894Y0107335D02*
X0126271Y0107335D01*
X0126271Y0108333D02*
X0123894Y0108333D01*
X0123894Y0109332D02*
X0126271Y0109332D01*
X0125701Y0110330D02*
X0123894Y0110330D01*
X0123894Y0111329D02*
X0125105Y0111329D01*
X0124890Y0112327D02*
X0123894Y0112327D01*
X0123894Y0113326D02*
X0124962Y0113326D01*
X0125376Y0114324D02*
X0123894Y0114324D01*
X0123894Y0115323D02*
X0126412Y0115323D01*
X0123894Y0116321D02*
X0137890Y0116321D01*
X0137960Y0117320D02*
X0123894Y0117320D01*
X0123894Y0118318D02*
X0138373Y0118318D01*
X0139371Y0119317D02*
X0123894Y0119317D01*
X0123894Y0120315D02*
X0139371Y0120315D01*
X0139371Y0121314D02*
X0123894Y0121314D01*
X0123894Y0122312D02*
X0139371Y0122312D01*
X0139371Y0123311D02*
X0123894Y0123311D01*
X0123894Y0124309D02*
X0139371Y0124309D01*
X0139371Y0125308D02*
X0123894Y0125308D01*
X0123894Y0126306D02*
X0139371Y0126306D01*
X0139371Y0127305D02*
X0123894Y0127305D01*
X0123894Y0128303D02*
X0139371Y0128303D01*
X0139371Y0129302D02*
X0123894Y0129302D01*
X0123894Y0130301D02*
X0139371Y0130301D01*
X0139371Y0131299D02*
X0123894Y0131299D01*
X0123894Y0132298D02*
X0139371Y0132298D01*
X0139371Y0133296D02*
X0123894Y0133296D01*
X0123894Y0134295D02*
X0139371Y0134295D01*
X0139371Y0135293D02*
X0123894Y0135293D01*
X0123894Y0136292D02*
X0139371Y0136292D01*
X0139371Y0137290D02*
X0123894Y0137290D01*
X0123894Y0138289D02*
X0139371Y0138289D01*
X0139371Y0139287D02*
X0123894Y0139287D01*
X0123894Y0140286D02*
X0139371Y0140286D01*
X0139371Y0141284D02*
X0123894Y0141284D01*
X0123894Y0142283D02*
X0139371Y0142283D01*
X0139371Y0143281D02*
X0123894Y0143281D01*
X0123894Y0144280D02*
X0139371Y0144280D01*
X0139371Y0145278D02*
X0123894Y0145278D01*
X0123894Y0146277D02*
X0139371Y0146277D01*
X0139371Y0147275D02*
X0123894Y0147275D01*
X0123894Y0148274D02*
X0139371Y0148274D01*
X0139371Y0149272D02*
X0123894Y0149272D01*
X0123894Y0150271D02*
X0139371Y0150271D01*
X0139371Y0151269D02*
X0123894Y0151269D01*
X0123894Y0152268D02*
X0139371Y0152268D01*
X0139371Y0153266D02*
X0123894Y0153266D01*
X0123894Y0154265D02*
X0139371Y0154265D01*
X0139371Y0155263D02*
X0123894Y0155263D01*
X0123894Y0156262D02*
X0139371Y0156262D01*
X0139371Y0157260D02*
X0123894Y0157260D01*
X0123894Y0158259D02*
X0139371Y0158259D01*
X0139371Y0159257D02*
X0123894Y0159257D01*
X0123894Y0160256D02*
X0139371Y0160256D01*
X0139371Y0161254D02*
X0123894Y0161254D01*
X0123894Y0162253D02*
X0138778Y0162253D01*
X0138137Y0163251D02*
X0123894Y0163251D01*
X0123894Y0164250D02*
X0137890Y0164250D01*
X0137930Y0165248D02*
X0124107Y0165248D01*
X0112432Y0177231D02*
X0108146Y0177231D01*
X0108146Y0178229D02*
X0113431Y0178229D01*
X0111434Y0176232D02*
X0108146Y0176232D01*
X0108146Y0175234D02*
X0110445Y0175234D01*
X0110445Y0174235D02*
X0108146Y0174235D01*
X0108146Y0173237D02*
X0110445Y0173237D01*
X0110445Y0172238D02*
X0108146Y0172238D01*
X0108146Y0171239D02*
X0110445Y0171239D01*
X0110445Y0170241D02*
X0108146Y0170241D01*
X0108146Y0169242D02*
X0110445Y0169242D01*
X0110445Y0168244D02*
X0108146Y0168244D01*
X0108146Y0167245D02*
X0110445Y0167245D01*
X0110445Y0166247D02*
X0108146Y0166247D01*
X0108146Y0165248D02*
X0110445Y0165248D01*
X0110445Y0164250D02*
X0108146Y0164250D01*
X0108146Y0163251D02*
X0110445Y0163251D01*
X0110445Y0162253D02*
X0108146Y0162253D01*
X0108146Y0161254D02*
X0110445Y0161254D01*
X0110445Y0160256D02*
X0108146Y0160256D01*
X0108146Y0159257D02*
X0110445Y0159257D01*
X0110445Y0158259D02*
X0108146Y0158259D01*
X0108146Y0157260D02*
X0110445Y0157260D01*
X0110445Y0156262D02*
X0108146Y0156262D01*
X0108146Y0155263D02*
X0110445Y0155263D01*
X0110445Y0154265D02*
X0108146Y0154265D01*
X0108146Y0153266D02*
X0110445Y0153266D01*
X0110445Y0152268D02*
X0108146Y0152268D01*
X0108146Y0151269D02*
X0110445Y0151269D01*
X0110445Y0150271D02*
X0108146Y0150271D01*
X0108146Y0179228D02*
X0138354Y0179228D01*
X0137940Y0180226D02*
X0108146Y0180226D01*
X0108146Y0181225D02*
X0137890Y0181225D01*
X0138127Y0182223D02*
X0108146Y0182223D01*
X0108146Y0183222D02*
X0138753Y0183222D01*
X0139271Y0184220D02*
X0108146Y0184220D01*
X0108146Y0185219D02*
X0139271Y0185219D01*
X0139271Y0186217D02*
X0108146Y0186217D01*
X0108146Y0187216D02*
X0139271Y0187216D01*
X0139271Y0188214D02*
X0108146Y0188214D01*
X0108146Y0189213D02*
X0139271Y0189213D01*
X0139271Y0190211D02*
X0108146Y0190211D01*
X0107149Y0191210D02*
X0139271Y0191210D01*
X0139271Y0192208D02*
X0106150Y0192208D01*
X0105152Y0193207D02*
X0139271Y0193207D01*
X0139271Y0194205D02*
X0039106Y0194205D01*
X0035236Y0194205D02*
X0035071Y0194205D01*
X0035071Y0195204D02*
X0139271Y0195204D01*
X0139271Y0196202D02*
X0035071Y0196202D01*
X0035071Y0197201D02*
X0138830Y0197201D01*
X0138159Y0198199D02*
X0035071Y0198199D01*
X0035071Y0199198D02*
X0137890Y0199198D01*
X0137908Y0200196D02*
X0035071Y0200196D01*
X0035071Y0201195D02*
X0138322Y0201195D01*
X0139225Y0202193D02*
X0035071Y0202193D01*
X0035071Y0203192D02*
X0143271Y0203192D01*
X0143271Y0204190D02*
X0035071Y0204190D01*
X0035071Y0205189D02*
X0143271Y0205189D01*
X0143271Y0206187D02*
X0035071Y0206187D01*
X0035071Y0207186D02*
X0143271Y0207186D01*
X0143271Y0208184D02*
X0035071Y0208184D01*
X0035071Y0209183D02*
X0143271Y0209183D01*
X0143271Y0210181D02*
X0035071Y0210181D01*
X0035071Y0211180D02*
X0143271Y0211180D01*
X0143271Y0212178D02*
X0035071Y0212178D01*
X0035071Y0213177D02*
X0143271Y0213177D01*
X0143271Y0214175D02*
X0035071Y0214175D01*
X0035071Y0215174D02*
X0143271Y0215174D01*
X0143271Y0216172D02*
X0035071Y0216172D01*
X0035071Y0217171D02*
X0143271Y0217171D01*
X0143271Y0218170D02*
X0035071Y0218170D01*
X0035071Y0219168D02*
X0143271Y0219168D01*
X0143271Y0220167D02*
X0035071Y0220167D01*
X0035071Y0221165D02*
X0143271Y0221165D01*
X0143271Y0222164D02*
X0035071Y0222164D01*
X0035071Y0223162D02*
X0143271Y0223162D01*
X0143271Y0224161D02*
X0035071Y0224161D01*
X0035071Y0225159D02*
X0143271Y0225159D01*
X0143271Y0226158D02*
X0051383Y0226158D01*
X0051530Y0226218D02*
X0052453Y0227141D01*
X0052952Y0228347D01*
X0052952Y0229311D01*
X0054271Y0230630D01*
X0054271Y0238960D01*
X0054953Y0239641D01*
X0055452Y0240847D01*
X0055452Y0242153D01*
X0054953Y0243359D01*
X0054030Y0244282D01*
X0052824Y0244781D01*
X0051519Y0244781D01*
X0050313Y0244282D01*
X0049390Y0243359D01*
X0048890Y0242153D01*
X0048890Y0240847D01*
X0049390Y0239641D01*
X0050071Y0238960D01*
X0050071Y0232370D01*
X0049983Y0232281D01*
X0049019Y0232281D01*
X0047813Y0231782D01*
X0046890Y0230859D01*
X0046390Y0229653D01*
X0046390Y0228347D01*
X0046890Y0227141D01*
X0047813Y0226218D01*
X0049019Y0225719D01*
X0050324Y0225719D01*
X0051530Y0226218D01*
X0052459Y0227156D02*
X0143271Y0227156D01*
X0143271Y0228155D02*
X0052873Y0228155D01*
X0052952Y0229153D02*
X0143271Y0229153D01*
X0143271Y0230152D02*
X0053793Y0230152D01*
X0054271Y0231150D02*
X0143271Y0231150D01*
X0143271Y0232149D02*
X0054271Y0232149D01*
X0054271Y0233147D02*
X0143271Y0233147D01*
X0143271Y0234146D02*
X0054271Y0234146D01*
X0054271Y0235144D02*
X0143271Y0235144D01*
X0143271Y0236143D02*
X0054271Y0236143D01*
X0054271Y0237141D02*
X0143271Y0237141D01*
X0143271Y0238140D02*
X0054271Y0238140D01*
X0054450Y0239138D02*
X0143271Y0239138D01*
X0143271Y0240137D02*
X0055158Y0240137D01*
X0055452Y0241135D02*
X0143271Y0241135D01*
X0143271Y0242134D02*
X0055452Y0242134D01*
X0055047Y0243132D02*
X0143271Y0243132D01*
X0143271Y0244131D02*
X0054181Y0244131D01*
X0050162Y0244131D02*
X0007271Y0244131D01*
X0007271Y0245129D02*
X0143271Y0245129D01*
X0143271Y0246128D02*
X0007271Y0246128D01*
X0007271Y0247126D02*
X0143271Y0247126D01*
X0143271Y0248125D02*
X0007271Y0248125D01*
X0007271Y0249123D02*
X0143271Y0249123D01*
X0143271Y0250122D02*
X0007271Y0250122D01*
X0007271Y0251120D02*
X0143271Y0251120D01*
X0143271Y0252119D02*
X0007271Y0252119D01*
X0007271Y0253117D02*
X0143271Y0253117D01*
X0143271Y0254116D02*
X0007271Y0254116D01*
X0007271Y0255114D02*
X0142917Y0255114D01*
X0142194Y0256113D02*
X0007271Y0256113D01*
X0007271Y0257111D02*
X0141890Y0257111D01*
X0141890Y0258110D02*
X0007271Y0258110D01*
X0007271Y0259108D02*
X0142286Y0259108D01*
X0143138Y0260107D02*
X0007271Y0260107D01*
X0007271Y0261105D02*
X0166890Y0261105D01*
X0166890Y0262104D02*
X0007271Y0262104D01*
X0007271Y0263103D02*
X0167284Y0263103D01*
X0168132Y0264101D02*
X0007271Y0264101D01*
X0007271Y0265100D02*
X0220071Y0265100D01*
X0220071Y0266098D02*
X0007271Y0266098D01*
X0007271Y0267097D02*
X0220071Y0267097D01*
X0220071Y0268095D02*
X0007271Y0268095D01*
X0007271Y0269094D02*
X0220071Y0269094D01*
X0220071Y0270092D02*
X0007271Y0270092D01*
X0007271Y0271091D02*
X0201866Y0271091D01*
X0201883Y0271073D02*
X0202939Y0270636D01*
X0204081Y0270636D01*
X0205137Y0271073D01*
X0205944Y0271881D01*
X0206382Y0272937D01*
X0206382Y0274079D01*
X0205944Y0275135D01*
X0205137Y0275942D01*
X0204081Y0276380D01*
X0202939Y0276380D01*
X0201883Y0275942D01*
X0201075Y0275135D01*
X0200638Y0274079D01*
X0200638Y0272937D01*
X0201075Y0271881D01*
X0201883Y0271073D01*
X0200989Y0272089D02*
X0007271Y0272089D01*
X0007271Y0273088D02*
X0200638Y0273088D01*
X0200641Y0274086D02*
X0007271Y0274086D01*
X0007271Y0275085D02*
X0201055Y0275085D01*
X0202223Y0276083D02*
X0007271Y0276083D01*
X0007271Y0277082D02*
X0220071Y0277082D01*
X0220071Y0278080D02*
X0007271Y0278080D01*
X0007271Y0279079D02*
X0220071Y0279079D01*
X0220071Y0280077D02*
X0007271Y0280077D01*
X0007271Y0281076D02*
X0220071Y0281076D01*
X0220071Y0282074D02*
X0007271Y0282074D01*
X0007271Y0283073D02*
X0220071Y0283073D01*
X0220071Y0284071D02*
X0007271Y0284071D01*
X0007271Y0285070D02*
X0220071Y0285070D01*
X0220071Y0286068D02*
X0007271Y0286068D01*
X0007271Y0287067D02*
X0220071Y0287067D01*
X0220071Y0288065D02*
X0007271Y0288065D01*
X0007271Y0289064D02*
X0220071Y0289064D01*
X0220071Y0290062D02*
X0007271Y0290062D01*
X0007271Y0291061D02*
X0220071Y0291061D01*
X0220071Y0292059D02*
X0007271Y0292059D01*
X0007271Y0293058D02*
X0220071Y0293058D01*
X0220071Y0294056D02*
X0007271Y0294056D01*
X0007271Y0295055D02*
X0220071Y0295055D01*
X0220071Y0296053D02*
X0007271Y0296053D01*
X0007271Y0297052D02*
X0220071Y0297052D01*
X0220071Y0298050D02*
X0007271Y0298050D01*
X0007271Y0299049D02*
X0220071Y0299049D01*
X0220071Y0300047D02*
X0007271Y0300047D01*
X0007271Y0301046D02*
X0220071Y0301046D01*
X0220071Y0302044D02*
X0007271Y0302044D01*
X0007271Y0303043D02*
X0220071Y0303043D01*
X0220071Y0304041D02*
X0007271Y0304041D01*
X0007271Y0305040D02*
X0220071Y0305040D01*
X0220071Y0306039D02*
X0007271Y0306039D01*
X0007271Y0307037D02*
X0220071Y0307037D01*
X0220071Y0308036D02*
X0007271Y0308036D01*
X0007271Y0309034D02*
X0220071Y0309034D01*
X0220071Y0310033D02*
X0007271Y0310033D01*
X0007271Y0311031D02*
X0220071Y0311031D01*
X0220071Y0312030D02*
X0007271Y0312030D01*
X0007271Y0313028D02*
X0220071Y0313028D01*
X0220071Y0314027D02*
X0007271Y0314027D01*
X0007271Y0315025D02*
X0220071Y0315025D01*
X0220071Y0316024D02*
X0007271Y0316024D01*
X0007271Y0317022D02*
X0220071Y0317022D01*
X0220071Y0318021D02*
X0007271Y0318021D01*
X0007271Y0319019D02*
X0220071Y0319019D01*
X0220071Y0320018D02*
X0007271Y0320018D01*
X0007271Y0321016D02*
X0220071Y0321016D01*
X0220071Y0322015D02*
X0007271Y0322015D01*
X0007271Y0323013D02*
X0220071Y0323013D01*
X0220071Y0324012D02*
X0007271Y0324012D01*
X0007271Y0325010D02*
X0220071Y0325010D01*
X0220071Y0326009D02*
X0202236Y0326009D01*
X0204797Y0276083D02*
X0220071Y0276083D01*
X0220071Y0275085D02*
X0205965Y0275085D01*
X0206379Y0274086D02*
X0220071Y0274086D01*
X0220071Y0273088D02*
X0206382Y0273088D01*
X0206031Y0272089D02*
X0220071Y0272089D01*
X0220071Y0271091D02*
X0205154Y0271091D01*
X0220071Y0264101D02*
X0172210Y0264101D01*
X0173059Y0263103D02*
X0220071Y0263103D01*
X0220071Y0262104D02*
X0173452Y0262104D01*
X0173452Y0261105D02*
X0220071Y0261105D01*
X0220071Y0260107D02*
X0173146Y0260107D01*
X0172420Y0259108D02*
X0220071Y0259108D01*
X0220071Y0258110D02*
X0169468Y0258110D01*
X0168470Y0257111D02*
X0220071Y0257111D01*
X0220071Y0256113D02*
X0168071Y0256113D01*
X0168071Y0255114D02*
X0220071Y0255114D01*
X0220071Y0254116D02*
X0168071Y0254116D01*
X0168071Y0253117D02*
X0220071Y0253117D01*
X0220071Y0252119D02*
X0168071Y0252119D01*
X0168071Y0251120D02*
X0220071Y0251120D01*
X0220071Y0250122D02*
X0168071Y0250122D01*
X0168071Y0249123D02*
X0220071Y0249123D01*
X0220071Y0248125D02*
X0168071Y0248125D01*
X0168071Y0247126D02*
X0220071Y0247126D01*
X0220071Y0246128D02*
X0168071Y0246128D01*
X0168071Y0245129D02*
X0220071Y0245129D01*
X0220071Y0244131D02*
X0205452Y0244131D01*
X0205137Y0244446D02*
X0204081Y0244883D01*
X0202939Y0244883D01*
X0201883Y0244446D01*
X0201075Y0243638D01*
X0200638Y0242583D01*
X0200638Y0241441D01*
X0201075Y0240385D01*
X0201883Y0239577D01*
X0202939Y0239140D01*
X0204081Y0239140D01*
X0205137Y0239577D01*
X0205944Y0240385D01*
X0206382Y0241441D01*
X0206382Y0242583D01*
X0205944Y0243638D01*
X0205137Y0244446D01*
X0206154Y0243132D02*
X0220071Y0243132D01*
X0220071Y0242134D02*
X0206382Y0242134D01*
X0206255Y0241135D02*
X0220071Y0241135D01*
X0220071Y0240137D02*
X0205696Y0240137D01*
X0201324Y0240137D02*
X0168071Y0240137D01*
X0168071Y0241135D02*
X0200765Y0241135D01*
X0200638Y0242134D02*
X0168071Y0242134D01*
X0168071Y0243132D02*
X0200866Y0243132D01*
X0201568Y0244131D02*
X0168071Y0244131D01*
X0164271Y0244131D02*
X0147071Y0244131D01*
X0147071Y0245129D02*
X0164271Y0245129D01*
X0164271Y0246128D02*
X0147071Y0246128D01*
X0147071Y0247126D02*
X0164271Y0247126D01*
X0164271Y0248125D02*
X0147071Y0248125D01*
X0147071Y0249123D02*
X0164271Y0249123D01*
X0164271Y0250122D02*
X0147071Y0250122D01*
X0147071Y0251120D02*
X0164271Y0251120D01*
X0164271Y0252119D02*
X0147071Y0252119D01*
X0147071Y0253117D02*
X0164271Y0253117D01*
X0164271Y0254116D02*
X0147071Y0254116D01*
X0147426Y0255114D02*
X0164271Y0255114D01*
X0164271Y0256113D02*
X0148148Y0256113D01*
X0148452Y0257111D02*
X0164271Y0257111D01*
X0164271Y0258110D02*
X0148452Y0258110D01*
X0148057Y0259108D02*
X0165093Y0259108D01*
X0166091Y0260107D02*
X0147205Y0260107D01*
X0147071Y0243132D02*
X0164271Y0243132D01*
X0164271Y0242134D02*
X0147071Y0242134D01*
X0147071Y0241135D02*
X0164271Y0241135D01*
X0164271Y0240137D02*
X0147071Y0240137D01*
X0147071Y0239138D02*
X0164271Y0239138D01*
X0164271Y0238140D02*
X0147071Y0238140D01*
X0147071Y0237141D02*
X0164271Y0237141D01*
X0164271Y0236143D02*
X0147071Y0236143D01*
X0147071Y0235144D02*
X0164271Y0235144D01*
X0164271Y0234146D02*
X0147071Y0234146D01*
X0147071Y0233147D02*
X0164271Y0233147D01*
X0164271Y0232149D02*
X0147071Y0232149D01*
X0147071Y0231150D02*
X0164271Y0231150D01*
X0164271Y0230152D02*
X0147071Y0230152D01*
X0147071Y0229153D02*
X0164271Y0229153D01*
X0164271Y0228155D02*
X0147071Y0228155D01*
X0147071Y0227156D02*
X0164271Y0227156D01*
X0164271Y0226158D02*
X0147071Y0226158D01*
X0147071Y0225159D02*
X0164271Y0225159D01*
X0164271Y0224161D02*
X0147071Y0224161D01*
X0147071Y0223162D02*
X0164271Y0223162D01*
X0164271Y0222164D02*
X0147071Y0222164D01*
X0147071Y0221165D02*
X0164271Y0221165D01*
X0164271Y0220167D02*
X0147071Y0220167D01*
X0147071Y0219168D02*
X0164271Y0219168D01*
X0164271Y0218170D02*
X0147071Y0218170D01*
X0147071Y0217171D02*
X0164271Y0217171D01*
X0164271Y0216172D02*
X0147071Y0216172D01*
X0147071Y0215174D02*
X0164271Y0215174D01*
X0164271Y0214175D02*
X0147071Y0214175D01*
X0147071Y0213177D02*
X0164271Y0213177D01*
X0164271Y0212178D02*
X0147071Y0212178D01*
X0147071Y0211180D02*
X0164271Y0211180D01*
X0164271Y0210181D02*
X0147071Y0210181D01*
X0147071Y0209183D02*
X0164271Y0209183D01*
X0164271Y0208184D02*
X0147071Y0208184D01*
X0147071Y0207186D02*
X0164271Y0207186D01*
X0164271Y0206187D02*
X0147071Y0206187D01*
X0147071Y0205189D02*
X0164271Y0205189D01*
X0164271Y0204190D02*
X0147071Y0204190D01*
X0147071Y0203192D02*
X0164271Y0203192D01*
X0168071Y0203192D02*
X0220071Y0203192D01*
X0220071Y0204190D02*
X0168071Y0204190D01*
X0168071Y0205189D02*
X0220071Y0205189D01*
X0220071Y0206187D02*
X0168071Y0206187D01*
X0168071Y0207186D02*
X0220071Y0207186D01*
X0220071Y0208184D02*
X0168071Y0208184D01*
X0168071Y0209183D02*
X0220071Y0209183D01*
X0220071Y0210181D02*
X0168071Y0210181D01*
X0168071Y0211180D02*
X0220071Y0211180D01*
X0220071Y0212178D02*
X0168071Y0212178D01*
X0168071Y0213177D02*
X0220071Y0213177D01*
X0220071Y0214175D02*
X0168071Y0214175D01*
X0168071Y0215174D02*
X0220071Y0215174D01*
X0220071Y0216172D02*
X0168071Y0216172D01*
X0168071Y0217171D02*
X0220071Y0217171D01*
X0220071Y0218170D02*
X0168071Y0218170D01*
X0168071Y0219168D02*
X0220071Y0219168D01*
X0220071Y0220167D02*
X0168071Y0220167D01*
X0168071Y0221165D02*
X0220071Y0221165D01*
X0220071Y0222164D02*
X0168071Y0222164D01*
X0168071Y0223162D02*
X0220071Y0223162D01*
X0220071Y0224161D02*
X0168071Y0224161D01*
X0168071Y0225159D02*
X0220071Y0225159D01*
X0220071Y0226158D02*
X0168071Y0226158D01*
X0168071Y0227156D02*
X0220071Y0227156D01*
X0220071Y0228155D02*
X0168071Y0228155D01*
X0168071Y0229153D02*
X0220071Y0229153D01*
X0220071Y0230152D02*
X0168071Y0230152D01*
X0168071Y0231150D02*
X0220071Y0231150D01*
X0220071Y0232149D02*
X0168071Y0232149D01*
X0168071Y0233147D02*
X0220071Y0233147D01*
X0220071Y0234146D02*
X0168071Y0234146D01*
X0168071Y0235144D02*
X0220071Y0235144D01*
X0220071Y0236143D02*
X0168071Y0236143D01*
X0168071Y0237141D02*
X0220071Y0237141D01*
X0220071Y0238140D02*
X0168071Y0238140D01*
X0168071Y0239138D02*
X0220071Y0239138D01*
X0188671Y0198500D02*
X0188671Y0149000D01*
X0186171Y0146500D01*
X0189217Y0145278D02*
X0220071Y0145278D01*
X0220071Y0144280D02*
X0188591Y0144280D01*
X0189452Y0146277D02*
X0220071Y0146277D01*
X0220071Y0147275D02*
X0189492Y0147275D01*
X0190471Y0148274D02*
X0220071Y0148274D01*
X0220071Y0149272D02*
X0190471Y0149272D01*
X0190471Y0150271D02*
X0220071Y0150271D01*
X0220071Y0151269D02*
X0190471Y0151269D01*
X0190471Y0152268D02*
X0220071Y0152268D01*
X0220071Y0153266D02*
X0190471Y0153266D01*
X0190471Y0154265D02*
X0220071Y0154265D01*
X0220071Y0155263D02*
X0190471Y0155263D01*
X0190471Y0156262D02*
X0220071Y0156262D01*
X0220071Y0157260D02*
X0190471Y0157260D01*
X0190471Y0158259D02*
X0220071Y0158259D01*
X0220071Y0159257D02*
X0190471Y0159257D01*
X0190471Y0160256D02*
X0220071Y0160256D01*
X0220071Y0161254D02*
X0190471Y0161254D01*
X0190471Y0162253D02*
X0220071Y0162253D01*
X0220071Y0163251D02*
X0190471Y0163251D01*
X0190471Y0164250D02*
X0220071Y0164250D01*
X0220071Y0165248D02*
X0190471Y0165248D01*
X0190471Y0166247D02*
X0220071Y0166247D01*
X0220071Y0167245D02*
X0190471Y0167245D01*
X0190471Y0168244D02*
X0220071Y0168244D01*
X0220071Y0169242D02*
X0190471Y0169242D01*
X0190471Y0170241D02*
X0220071Y0170241D01*
X0220071Y0171239D02*
X0190471Y0171239D01*
X0190471Y0172238D02*
X0220071Y0172238D01*
X0164283Y0165248D02*
X0152413Y0165248D01*
X0146778Y0162253D02*
X0143564Y0162253D01*
X0142971Y0161254D02*
X0147271Y0161254D01*
X0147271Y0160256D02*
X0142971Y0160256D01*
X0142971Y0159257D02*
X0147271Y0159257D01*
X0147271Y0158259D02*
X0142971Y0158259D01*
X0142971Y0157260D02*
X0147271Y0157260D01*
X0147271Y0156262D02*
X0142971Y0156262D01*
X0142971Y0155263D02*
X0147271Y0155263D01*
X0147271Y0154265D02*
X0142971Y0154265D01*
X0142971Y0153266D02*
X0147271Y0153266D01*
X0147271Y0152268D02*
X0142971Y0152268D01*
X0142971Y0151269D02*
X0147271Y0151269D01*
X0147271Y0150271D02*
X0142971Y0150271D01*
X0142971Y0149272D02*
X0147271Y0149272D01*
X0147271Y0148274D02*
X0142971Y0148274D01*
X0142971Y0147275D02*
X0147271Y0147275D01*
X0147271Y0146277D02*
X0142971Y0146277D01*
X0142971Y0145278D02*
X0147271Y0145278D01*
X0147271Y0144280D02*
X0142971Y0144280D01*
X0142971Y0143281D02*
X0147271Y0143281D01*
X0147271Y0142283D02*
X0142971Y0142283D01*
X0142971Y0141284D02*
X0147271Y0141284D01*
X0147271Y0140286D02*
X0142971Y0140286D01*
X0142971Y0139287D02*
X0147271Y0139287D01*
X0147271Y0138289D02*
X0142971Y0138289D01*
X0142971Y0137290D02*
X0147271Y0137290D01*
X0147271Y0136292D02*
X0142971Y0136292D01*
X0142971Y0135293D02*
X0147271Y0135293D01*
X0147271Y0134295D02*
X0142971Y0134295D01*
X0142971Y0133296D02*
X0147271Y0133296D01*
X0147271Y0132298D02*
X0142971Y0132298D01*
X0142971Y0131299D02*
X0147271Y0131299D01*
X0147271Y0130301D02*
X0142971Y0130301D01*
X0142971Y0129302D02*
X0147271Y0129302D01*
X0147271Y0128303D02*
X0142971Y0128303D01*
X0142971Y0127305D02*
X0147271Y0127305D01*
X0147271Y0126306D02*
X0142971Y0126306D01*
X0142971Y0125308D02*
X0147271Y0125308D01*
X0147271Y0124309D02*
X0142971Y0124309D01*
X0142971Y0123311D02*
X0147271Y0123311D01*
X0147271Y0122312D02*
X0142971Y0122312D01*
X0142971Y0121314D02*
X0147271Y0121314D01*
X0147271Y0120315D02*
X0142971Y0120315D01*
X0142971Y0119317D02*
X0147271Y0119317D01*
X0147271Y0118318D02*
X0143970Y0118318D01*
X0144383Y0117320D02*
X0147271Y0117320D01*
X0147271Y0116321D02*
X0144452Y0116321D01*
X0144235Y0115323D02*
X0147271Y0115323D01*
X0147271Y0114324D02*
X0143636Y0114324D01*
X0142082Y0113326D02*
X0147271Y0113326D01*
X0147271Y0112327D02*
X0131452Y0112327D01*
X0131381Y0113326D02*
X0140261Y0113326D01*
X0138707Y0114324D02*
X0130967Y0114324D01*
X0129930Y0115323D02*
X0138108Y0115323D01*
X0141171Y0116500D02*
X0141171Y0164500D01*
X0144206Y0163251D02*
X0146137Y0163251D01*
X0145890Y0164250D02*
X0144452Y0164250D01*
X0144413Y0165248D02*
X0145930Y0165248D01*
X0162701Y0170241D02*
X0163772Y0170241D01*
X0163333Y0183222D02*
X0162510Y0183222D01*
X0147225Y0202193D02*
X0147071Y0202193D01*
X0143271Y0202193D02*
X0143118Y0202193D01*
X0147271Y0111329D02*
X0131238Y0111329D01*
X0131430Y0110330D02*
X0130642Y0110330D01*
X0130379Y0109332D02*
X0130071Y0109332D01*
X0134912Y0110330D02*
X0147271Y0110330D01*
X0147271Y0109332D02*
X0135964Y0109332D01*
X0136378Y0108333D02*
X0147271Y0108333D01*
X0147271Y0107335D02*
X0136452Y0107335D01*
X0136493Y0106336D02*
X0147271Y0106336D01*
X0147271Y0105338D02*
X0136493Y0105338D01*
X0136493Y0104339D02*
X0147271Y0104339D01*
X0147271Y0103341D02*
X0139326Y0103341D01*
X0139207Y0103410D02*
X0138826Y0103512D01*
X0137742Y0103512D01*
X0137742Y0092169D01*
X0137742Y0092169D01*
X0140128Y0092169D01*
X0140128Y0102209D01*
X0140026Y0102591D01*
X0139828Y0102933D01*
X0139549Y0103212D01*
X0139207Y0103410D01*
X0140092Y0102342D02*
X0147271Y0102342D01*
X0147271Y0101344D02*
X0140128Y0101344D01*
X0140128Y0100345D02*
X0147271Y0100345D01*
X0147271Y0099347D02*
X0140128Y0099347D01*
X0140128Y0098348D02*
X0147271Y0098348D01*
X0147271Y0097350D02*
X0140128Y0097350D01*
X0140128Y0096351D02*
X0147271Y0096351D01*
X0147271Y0095353D02*
X0140128Y0095353D01*
X0140128Y0094354D02*
X0147271Y0094354D01*
X0147271Y0093356D02*
X0140128Y0093356D01*
X0140128Y0092357D02*
X0147271Y0092357D01*
X0147271Y0091359D02*
X0140128Y0091359D01*
X0140128Y0090360D02*
X0147271Y0090360D01*
X0147271Y0089362D02*
X0140128Y0089362D01*
X0140128Y0088363D02*
X0147271Y0088363D01*
X0147271Y0087365D02*
X0140128Y0087365D01*
X0140128Y0086366D02*
X0147271Y0086366D01*
X0147271Y0085368D02*
X0140128Y0085368D01*
X0140128Y0084369D02*
X0147271Y0084369D01*
X0147271Y0083370D02*
X0140128Y0083370D01*
X0140128Y0082372D02*
X0147271Y0082372D01*
X0147271Y0081373D02*
X0139796Y0081373D01*
X0137742Y0081373D02*
X0137742Y0081373D01*
X0137742Y0082372D02*
X0137742Y0082372D01*
X0137742Y0083370D02*
X0137742Y0083370D01*
X0137742Y0084369D02*
X0137742Y0084369D01*
X0137742Y0085368D02*
X0137742Y0085368D01*
X0137742Y0086366D02*
X0137742Y0086366D01*
X0137742Y0087365D02*
X0137742Y0087365D01*
X0137742Y0088363D02*
X0137742Y0088363D01*
X0137742Y0089362D02*
X0137742Y0089362D01*
X0137742Y0090360D02*
X0137742Y0090360D01*
X0137742Y0091359D02*
X0137742Y0091359D01*
X0137742Y0092357D02*
X0137742Y0092357D01*
X0137742Y0093356D02*
X0137742Y0093356D01*
X0137742Y0094354D02*
X0137742Y0094354D01*
X0137742Y0095353D02*
X0137742Y0095353D01*
X0137742Y0096351D02*
X0137742Y0096351D01*
X0137742Y0097350D02*
X0137742Y0097350D01*
X0137742Y0098348D02*
X0137742Y0098348D01*
X0137742Y0099347D02*
X0137742Y0099347D01*
X0137742Y0100345D02*
X0137742Y0100345D01*
X0137742Y0101344D02*
X0137742Y0101344D01*
X0137742Y0102342D02*
X0137742Y0102342D01*
X0137742Y0103341D02*
X0137742Y0103341D01*
X0133343Y0080375D02*
X0147271Y0080375D01*
X0147271Y0079376D02*
X0133343Y0079376D01*
X0133343Y0078378D02*
X0146409Y0078378D01*
X0145984Y0077379D02*
X0133343Y0077379D01*
X0130100Y0074384D02*
X0127044Y0074384D01*
X0127044Y0075382D02*
X0129543Y0075382D01*
X0129543Y0076381D02*
X0127044Y0076381D01*
X0127044Y0077379D02*
X0129543Y0077379D01*
X0129543Y0078378D02*
X0127044Y0078378D01*
X0127044Y0079376D02*
X0129543Y0079376D01*
X0129543Y0080375D02*
X0127044Y0080375D01*
X0127044Y0073385D02*
X0131099Y0073385D01*
X0124089Y0066396D02*
X0123894Y0066396D01*
X0123894Y0065397D02*
X0125087Y0065397D01*
X0120094Y0065397D02*
X0118256Y0065397D01*
X0119254Y0066396D02*
X0120094Y0066396D01*
X0120094Y0064399D02*
X0096710Y0064399D01*
X0095262Y0063400D02*
X0120094Y0063400D01*
X0120094Y0062402D02*
X0007271Y0062402D01*
X0007271Y0063400D02*
X0093081Y0063400D01*
X0091632Y0064399D02*
X0007271Y0064399D01*
X0007271Y0065397D02*
X0091077Y0065397D01*
X0090890Y0066396D02*
X0007271Y0066396D01*
X0007271Y0067394D02*
X0090990Y0067394D01*
X0091424Y0068393D02*
X0007271Y0068393D01*
X0007271Y0069391D02*
X0092578Y0069391D01*
X0095765Y0069391D02*
X0116876Y0069391D01*
X0116945Y0070390D02*
X0007271Y0070390D01*
X0007271Y0071388D02*
X0116945Y0071388D01*
X0116945Y0072387D02*
X0007271Y0072387D01*
X0007271Y0073385D02*
X0116945Y0073385D01*
X0116945Y0074384D02*
X0007271Y0074384D01*
X0007271Y0075382D02*
X0116945Y0075382D01*
X0116945Y0076381D02*
X0007271Y0076381D01*
X0007271Y0077379D02*
X0116945Y0077379D01*
X0116945Y0078378D02*
X0007271Y0078378D01*
X0007271Y0079376D02*
X0116945Y0079376D01*
X0120094Y0061403D02*
X0007271Y0061403D01*
X0007271Y0060405D02*
X0120094Y0060405D01*
X0120094Y0059406D02*
X0007271Y0059406D01*
X0007271Y0058408D02*
X0120094Y0058408D01*
X0120094Y0057409D02*
X0007271Y0057409D01*
X0007271Y0056411D02*
X0120094Y0056411D01*
X0120094Y0055412D02*
X0007271Y0055412D01*
X0007271Y0054414D02*
X0120094Y0054414D01*
X0120094Y0053415D02*
X0007271Y0053415D01*
X0007271Y0052417D02*
X0120094Y0052417D01*
X0120094Y0051418D02*
X0007271Y0051418D01*
X0007271Y0050420D02*
X0120094Y0050420D01*
X0120094Y0049421D02*
X0007271Y0049421D01*
X0007271Y0048423D02*
X0120094Y0048423D01*
X0120094Y0047424D02*
X0007271Y0047424D01*
X0007271Y0046426D02*
X0120094Y0046426D01*
X0120094Y0045427D02*
X0007271Y0045427D01*
X0007271Y0044429D02*
X0120094Y0044429D01*
X0118961Y0043430D02*
X0007271Y0043430D01*
X0007271Y0042432D02*
X0118506Y0042432D01*
X0118390Y0041433D02*
X0007271Y0041433D01*
X0007271Y0040434D02*
X0118561Y0040434D01*
X0119095Y0039436D02*
X0007271Y0039436D01*
X0007271Y0150271D02*
X0034214Y0150271D01*
X0033215Y0151269D02*
X0007271Y0151269D01*
X0007271Y0152268D02*
X0032217Y0152268D01*
X0031271Y0153266D02*
X0007271Y0153266D01*
X0007271Y0154265D02*
X0031271Y0154265D01*
X0031271Y0155263D02*
X0007271Y0155263D01*
X0007271Y0156262D02*
X0031271Y0156262D01*
X0031271Y0157260D02*
X0007271Y0157260D01*
X0007271Y0158259D02*
X0031271Y0158259D01*
X0031271Y0159257D02*
X0007271Y0159257D01*
X0007271Y0160256D02*
X0031271Y0160256D01*
X0031271Y0161254D02*
X0007271Y0161254D01*
X0007271Y0162253D02*
X0031271Y0162253D01*
X0031271Y0163251D02*
X0007271Y0163251D01*
X0007271Y0164250D02*
X0031271Y0164250D01*
X0031271Y0165248D02*
X0007271Y0165248D01*
X0007271Y0166247D02*
X0031271Y0166247D01*
X0031271Y0167245D02*
X0007271Y0167245D01*
X0007271Y0168244D02*
X0031271Y0168244D01*
X0031271Y0169242D02*
X0007271Y0169242D01*
X0007271Y0170241D02*
X0031271Y0170241D01*
X0031271Y0171239D02*
X0007271Y0171239D01*
X0007271Y0172238D02*
X0031271Y0172238D01*
X0031271Y0173237D02*
X0007271Y0173237D01*
X0007271Y0174235D02*
X0031271Y0174235D01*
X0031271Y0175234D02*
X0007271Y0175234D01*
X0007271Y0176232D02*
X0031271Y0176232D01*
X0031271Y0177231D02*
X0007271Y0177231D01*
X0007271Y0178229D02*
X0031271Y0178229D01*
X0031271Y0179228D02*
X0007271Y0179228D01*
X0007271Y0180226D02*
X0031271Y0180226D01*
X0031271Y0181225D02*
X0007271Y0181225D01*
X0007271Y0182223D02*
X0031271Y0182223D01*
X0031271Y0183222D02*
X0007271Y0183222D01*
X0007271Y0184220D02*
X0031271Y0184220D01*
X0031271Y0185219D02*
X0007271Y0185219D01*
X0007271Y0186217D02*
X0031271Y0186217D01*
X0031271Y0187216D02*
X0007271Y0187216D01*
X0007271Y0188214D02*
X0031271Y0188214D01*
X0031271Y0189213D02*
X0007271Y0189213D01*
X0007271Y0190211D02*
X0031271Y0190211D01*
X0031271Y0191210D02*
X0007271Y0191210D01*
X0007271Y0192208D02*
X0031271Y0192208D01*
X0031271Y0193207D02*
X0007271Y0193207D01*
X0007271Y0194205D02*
X0031271Y0194205D01*
X0031271Y0195204D02*
X0007271Y0195204D01*
X0007271Y0196202D02*
X0031271Y0196202D01*
X0031271Y0197201D02*
X0007271Y0197201D01*
X0007271Y0198199D02*
X0031271Y0198199D01*
X0031271Y0199198D02*
X0007271Y0199198D01*
X0007271Y0200196D02*
X0031271Y0200196D01*
X0031271Y0201195D02*
X0007271Y0201195D01*
X0007271Y0202193D02*
X0031271Y0202193D01*
X0031271Y0203192D02*
X0007271Y0203192D01*
X0007271Y0204190D02*
X0031271Y0204190D01*
X0031271Y0205189D02*
X0007271Y0205189D01*
X0007271Y0206187D02*
X0031271Y0206187D01*
X0031271Y0207186D02*
X0007271Y0207186D01*
X0007271Y0208184D02*
X0031271Y0208184D01*
X0031271Y0209183D02*
X0007271Y0209183D01*
X0007271Y0210181D02*
X0031271Y0210181D01*
X0031271Y0211180D02*
X0007271Y0211180D01*
X0007271Y0212178D02*
X0031271Y0212178D01*
X0031271Y0213177D02*
X0007271Y0213177D01*
X0007271Y0214175D02*
X0031271Y0214175D01*
X0031271Y0215174D02*
X0007271Y0215174D01*
X0007271Y0216172D02*
X0031271Y0216172D01*
X0031271Y0217171D02*
X0007271Y0217171D01*
X0007271Y0218170D02*
X0031271Y0218170D01*
X0031271Y0219168D02*
X0007271Y0219168D01*
X0007271Y0220167D02*
X0031271Y0220167D01*
X0031271Y0221165D02*
X0007271Y0221165D01*
X0007271Y0222164D02*
X0031271Y0222164D01*
X0031271Y0223162D02*
X0007271Y0223162D01*
X0007271Y0224161D02*
X0031271Y0224161D01*
X0031271Y0225159D02*
X0007271Y0225159D01*
X0007271Y0226158D02*
X0031271Y0226158D01*
X0031271Y0227156D02*
X0007271Y0227156D01*
X0007271Y0228155D02*
X0031271Y0228155D01*
X0031271Y0229153D02*
X0007271Y0229153D01*
X0007271Y0230152D02*
X0031271Y0230152D01*
X0031271Y0231150D02*
X0007271Y0231150D01*
X0007271Y0232149D02*
X0031271Y0232149D01*
X0031271Y0233147D02*
X0007271Y0233147D01*
X0007271Y0234146D02*
X0031271Y0234146D01*
X0031271Y0235144D02*
X0007271Y0235144D01*
X0007271Y0238140D02*
X0017976Y0238140D01*
X0017890Y0239138D02*
X0007271Y0239138D01*
X0007271Y0240137D02*
X0018091Y0240137D01*
X0018666Y0241135D02*
X0007271Y0241135D01*
X0007271Y0242134D02*
X0020163Y0242134D01*
X0022180Y0242134D02*
X0048890Y0242134D01*
X0048890Y0241135D02*
X0023676Y0241135D01*
X0022847Y0236143D02*
X0031271Y0236143D01*
X0035071Y0236143D02*
X0050071Y0236143D01*
X0050071Y0237141D02*
X0035071Y0237141D01*
X0034719Y0238140D02*
X0050071Y0238140D01*
X0049893Y0239138D02*
X0033720Y0239138D01*
X0032722Y0240137D02*
X0049185Y0240137D01*
X0049296Y0243132D02*
X0007271Y0243132D01*
X0035071Y0235144D02*
X0050071Y0235144D01*
X0050071Y0234146D02*
X0035071Y0234146D01*
X0035071Y0233147D02*
X0050071Y0233147D01*
X0048699Y0232149D02*
X0035071Y0232149D01*
X0035071Y0231150D02*
X0047181Y0231150D01*
X0046597Y0230152D02*
X0035071Y0230152D01*
X0035071Y0229153D02*
X0046390Y0229153D01*
X0046470Y0228155D02*
X0035071Y0228155D01*
X0035071Y0227156D02*
X0046884Y0227156D01*
X0047960Y0226158D02*
X0035071Y0226158D01*
X0043171Y0210500D02*
X0054171Y0210500D01*
X0048671Y0156500D02*
X0069671Y0156500D01*
X0025107Y0326009D02*
X0007271Y0326009D01*
D13*
X0021171Y0239000D02*
X0031171Y0239000D01*
X0033171Y0237000D01*
X0033171Y0154000D01*
X0035171Y0152000D01*
X0090171Y0152000D01*
X0092171Y0150000D01*
X0092171Y0106500D01*
X0096797Y0092169D02*
X0096797Y0159374D01*
X0094671Y0161500D01*
X0037171Y0161500D01*
X0037171Y0171500D02*
X0098171Y0171500D01*
X0100171Y0169500D01*
X0100171Y0087445D01*
X0103171Y0088094D02*
X0103097Y0092169D01*
X0103171Y0088094D02*
X0103171Y0179500D01*
X0101171Y0181500D01*
X0037171Y0181500D01*
X0037171Y0191500D02*
X0104171Y0191500D01*
X0106246Y0189425D01*
X0106246Y0092169D01*
X0109396Y0092169D02*
X0109396Y0098724D01*
X0110171Y0099500D01*
X0112671Y0099500D01*
X0112671Y0087295D01*
X0112545Y0092169D01*
X0118845Y0092169D02*
X0118671Y0087343D01*
X0118671Y0105000D01*
X0117671Y0106000D01*
X0117671Y0169500D01*
X0119671Y0171500D01*
X0159671Y0171500D01*
X0166171Y0168000D02*
X0124171Y0168000D01*
X0121994Y0165823D01*
X0121994Y0092169D01*
X0121994Y0041823D01*
X0121671Y0041500D01*
X0116671Y0066500D02*
X0094171Y0066500D01*
X0116671Y0066500D02*
X0118845Y0068673D01*
X0118845Y0092169D01*
X0125144Y0092169D02*
X0125144Y0068028D01*
X0126671Y0066500D01*
X0178671Y0066500D01*
X0149171Y0076500D02*
X0149171Y0164500D01*
X0145171Y0176500D02*
X0145171Y0257500D01*
X0166171Y0257500D02*
X0170171Y0261500D01*
X0166171Y0257500D02*
X0166171Y0181500D01*
X0159671Y0181500D02*
X0159671Y0198000D01*
X0149171Y0199500D02*
X0149171Y0181500D01*
X0141171Y0181000D02*
X0141171Y0199500D01*
X0128171Y0112500D02*
X0128171Y0087291D01*
X0128293Y0092169D01*
X0131443Y0092169D02*
X0131443Y0075728D01*
X0132671Y0074500D01*
X0147171Y0074500D01*
X0149171Y0076500D01*
X0134593Y0092169D02*
X0134593Y0106079D01*
X0133171Y0107500D01*
D14*
X0139171Y0102000D02*
X0137742Y0100571D01*
X0137742Y0092169D01*
X0139171Y0102000D02*
X0141671Y0102000D01*
X0155671Y0102000D02*
X0189171Y0102000D01*
X0191171Y0100000D01*
X0191171Y0058500D01*
X0189171Y0056500D01*
X0137171Y0056500D01*
X0115695Y0075024D02*
X0115695Y0092169D01*
X0112545Y0092169D02*
X0112545Y0174374D01*
X0114671Y0176500D01*
X0145171Y0176500D01*
X0099947Y0092169D02*
X0100171Y0087445D01*
X0091671Y0073500D02*
X0089671Y0071500D01*
X0081671Y0071500D01*
X0080171Y0073000D01*
X0080171Y0144000D01*
X0077171Y0147000D01*
X0021671Y0147000D01*
X0049671Y0229000D02*
X0052171Y0231500D01*
X0052171Y0241500D01*
X0091671Y0073500D02*
X0114171Y0073500D01*
X0115695Y0075024D01*
X0104171Y0050500D02*
X0091171Y0050500D01*
X0089671Y0052000D01*
X0089671Y0071500D01*
D15*
X0145171Y0176500D02*
X0175171Y0176500D01*
X0180171Y0176500D01*
X0185171Y0176500D01*
M02*
